0
SECTION
2
HEADER
9
$INSUNITS
70
4
9
$ACADVER
1
AC1014
9
$HANDSEED
5
FFFF
0
ENDSEC
0
SECTION
2
TABLES
0
TABLE
2
VPORT
5
8
100
AcDbSymbolTable
0
ENDTAB
0
TABLE
2
LTYPE
5
5
100
AcDbSymbolTable
0
LTYPE
5
14
100
AcDbSymbolTableRecord
100
AcDbLinetypeTableRecord
2
BYBLOCK
70
0
0
LTYPE
5
15
100
AcDbSymbolTableRecord
100
AcDbLinetypeTableRecord
2
BYLAYER
70
0
0
ENDTAB
0
TABLE
2
LAYER
5
2
100
AcDbSymbolTable
70
2
0
LAYER
5
50
100
AcDbSymbolTableRecord
100
AcDbLayerTableRecord
2
0
70
0
6
CONTINUOUS
0
ENDTAB
0
TABLE
2
STYLE
5
3
100
AcDbSymbolTable
70
1
0
STYLE
5
11
100
AcDbSymbolTableRecord
100
AcDbTextStyleTableRecord
2
STANDARD
70
0
0
ENDTAB
0
TABLE
2
VIEW
5
6
100
AcDbSymbolTable
70
0
0
ENDTAB
0
TABLE
2
UCS
5
7
100
AcDbSymbolTable
70
0
0
ENDTAB
0
TABLE
2
APPID
5
9
100
AcDbSymbolTable
70
2
0
APPID
5
12
100
AcDbSymbolTableRecord
100
AcDbRegAppTableRecord
2
ACAD
70
0
0
ENDTAB
0
TABLE
2
DIMSTYLE
5
A
100
AcDbSymbolTable
70
1
0
ENDTAB
0
TABLE
2
BLOCK_RECORD
5
1
100
AcDbSymbolTable
70
1
0
BLOCK_RECORD
5
1F
100
AcDbSymbolTableRecord
100
AcDbBlockTableRecord
2
*MODEL_SPACE
0
BLOCK_RECORD
5
1B
100
AcDbSymbolTableRecord
100
AcDbBlockTableRecord
2
*PAPER_SPACE
0
ENDTAB
0
ENDSEC
0
SECTION
2
BLOCKS
0
BLOCK
5
20
100
AcDbEntity
100
AcDbBlockBegin
2
*MODEL_SPACE
0
ENDBLK
5
21
100
AcDbEntity
100
AcDbBlockEnd
0
BLOCK
5
1C
100
AcDbEntity
100
AcDbBlockBegin
2
*PAPER_SPACE
0
ENDBLK
5
1D
100
AcDbEntity
100
AcDbBlockEnd
0
ENDSEC
0
SECTION
2
ENTITIES
0
CIRCLE
5
100
100
AcDbEntity
8
0
100
AcDbCircle
10
-6.0559220997677512
20
-17.032522853843194
30
0
40
3.0000000000000009
210
1.1092789574273458e-16
220
0
230
1
0
CIRCLE
5
101
100
AcDbEntity
8
0
100
AcDbCircle
10
5.9471964033507643
20
16.927040555720236
30
0
40
3.0000000000000009
210
0
220
-0
230
1
0
SPLINE
5
102
100
AcDbEntity
8
0
100
AcDbSpline
70
0
71
3
72
11
73
7
74
0
42
0.000000001
43
0.0000000001
44
0.0000000001
40
-1.2924481964537788
40
-1.2924481964537788
40
-1.2924481964537788
40
-1.2924481964537788
40
-0.4012819035884887
40
-0.4012819035884887
40
-0.4012819035884887
40
0.27825119522054126
40
0.27825119522054126
40
0.27825119522054126
40
0.27825119522054126
10
17.721000659957237
20
-23.202741149061513
30
5.5870272399913446e-31
10
16.161219240613079
20
-23.202741149061513
30
4.7318766214590312e-31
10
14.617279042543522
20
-23.940068808177486
30
3.1007197880143139e-31
10
13.637045915980785
20
-25.153110617457823
30
1.2723632480594347e-31
10
12.889597477478041
20
-26.078080587983607
30
-1.217971855994965e-32
10
12.470637151791513
20
-27.263118291587052
30
-1.612629625020678e-31
10
12.470637151791513
20
-28.452325718344468
30
-2.8782161387704327e-31
0
LINE
5
103
100
AcDbEntity
8
0
100
AcDbLine
10
12.470637151791513
20
-28.452325718344468
30
-2.8782161387704322e-31
11
12.470637151791511
21
-29.602741149061515
31
-5.1381470020233417e-32
0
LINE
5
104
100
AcDbEntity
8
0
100
AcDbLine
10
12.470637151791511
20
-29.602741149061515
30
-5.1381470020233417e-32
11
-6.7293628482084973
21
-29.602741149061515
31
0
0
LINE
5
105
100
AcDbEntity
8
0
100
AcDbLine
10
-6.7293628482084973
20
-29.602741149061515
30
0
11
-6.7293628482084946
21
-28.4526026509009
31
-7.7037197775489434e-32
0
SPLINE
5
106
100
AcDbEntity
8
0
100
AcDbSpline
70
0
71
3
72
11
73
7
74
0
42
0.000000001
43
0.0000000001
44
0.0000000001
40
-0.58798182904090934
40
-0.58798182904090934
40
-0.58798182904090934
40
-0.58798182904090934
40
0.303212761801399
40
0.303212761801399
40
0.303212761801399
40
0.98277294837772877
40
0.98277294837772877
40
0.98277294837772877
40
0.98277294837772877
10
-6.7293628482084937
20
-28.4526026509009
30
3.4194206457029525e-32
10
-6.7293628482084937
20
-26.892990260202666
30
8.4972264728585719e-32
10
-7.4667647468560592
20
-25.349190815230862
30
1.3043366559898688e-31
10
-8.679889971880332
20
-24.36904950752341
30
1.5444577999565871e-31
10
-9.6049310490246356
20
-23.621665022943766
30
1.7275567225394979e-31
10
-10.790046269237983
20
-23.202741149061502
30
1.7867804777063985e-31
10
-11.979310909599949
20
-23.202741149061502
30
1.7093398278156733e-31
0
LINE
5
107
100
AcDbEntity
8
0
100
AcDbLine
10
-11.979310909599949
20
-23.202741149061499
30
1.7093398278156733e-31
11
-19.679362848208502
21
-23.202741149061509
31
5.3752473600658136e-33
0
LINE
5
108
100
AcDbEntity
8
0
100
AcDbLine
10
-19.679362848208502
20
-23.202741149061509
30
5.3752473600658136e-33
11
-19.679362848208509
21
23.097258850938502
31
-9.3176819928248392e-30
0
LINE
5
109
100
AcDbEntity
8
0
100
AcDbLine
10
-19.679362848208509
20
23.097258850938502
30
-9.3176819928248392e-30
11
-17.979103172549088
21
23.097258850938506
31
0
0
SPLINE
5
110
100
AcDbEntity
8
0
100
AcDbSpline
70
0
71
3
72
11
73
7
74
0
42
0.000000001
43
0.0000000001
44
0.0000000001
40
-0.89598614124482212
40
-0.89598614124482212
40
-0.89598614124482212
40
-0.89598614124482212
40
-0.0048256509242047274
40
-0.0048256509242047274
40
-0.0048256509242047274
40
0.67467170105463259
40
0.67467170105463259
40
0.67467170105463259
40
0.67467170105463259
10
-17.979103172549088
20
23.097258850938495
30
-7.07547753293285e-31
10
-16.419446075197332
20
23.097258850938495
30
-8.6767263391719847e-31
10
-14.875658305528919
20
23.834617461346717
30
-9.2680788799313211e-31
10
-13.895554384493913
20
25.047698537296888
30
-8.6396995900770346e-31
10
-13.14823891635892
20
25.972655812441818
30
-8.1605692110577507e-31
10
-12.729362848208506
20
27.157658530295166
30
-6.9938392884528694e-31
10
-12.729362848208503
20
28.346843390740524
30
-5.3914189677839024e-31
0
LINE
5
111
100
AcDbEntity
8
0
100
AcDbLine
10
-12.729362848208503
20
28.346843390740524
30
-5.3914189677839024e-31
11
-12.729362848208501
21
29.597258850938502
31
-1.9255405374892483e-31
0
LINE
5
112
100
AcDbEntity
8
0
100
AcDbLine
10
-12.729362848208501
20
29.597258850938502
30
-1.9255405374892483e-31
11
6.4706371517915029
21
29.597258850938502
31
-1.5642070614312417e-33
0
LINE
5
113
100
AcDbEntity
8
0
100
AcDbLine
10
6.4706371517915029
20
29.597258850938502
30
-1.5642070614312417e-33
11
6.4706371517915038
21
28.346843390740531
31
1.2325951644078309e-31
0
SPLINE
5
114
100
AcDbEntity
8
0
100
AcDbSpline
70
0
71
3
72
11
73
7
74
0
42
0.000000001
43
0.0000000001
44
0.0000000001
40
-0.67467170105463481
40
-0.67467170105463481
40
-0.67467170105463481
40
-0.67467170105463481
40
0.2164887892659827
40
0.2164887892659827
40
0.2164887892659827
40
0.89598614124482212
40
0.89598614124482212
40
0.89598614124482212
40
0.89598614124482212
10
6.470637151791502
20
28.346843390740535
30
1.4374693444845298e-32
10
6.4706371517915002
20
26.787227948193014
30
-1.2287092772830614e-31
10
7.2080229024244655
20
25.243483460458638
30
-2.6074633363707411e-31
10
8.42114064262163
20
24.263410994775718
30
-3.5032780835428507e-31
10
9.3461258737397195
20
23.516119510904705
30
-4.1863242409729733e-31
10
10.531160854483794
20
23.097258850938495
30
-4.5875090465172207e-31
10
11.720377476132086
20
23.097258850938495
30
-4.6202125210331784e-31
0
LINE
5
115
100
AcDbEntity
8
0
100
AcDbLine
10
11.720377476132086
20
23.097258850938495
30
-4.6202125210331784e-31
11
19.520637151791508
21
23.097258850938502
31
0
0
LINE
5
116
100
AcDbEntity
8
0
100
AcDbLine
10
19.520637151791508
20
23.097258850938502
30
0
11
19.520637151791512
21
-23.202741149061509
31
9.3176819928248392e-30
0
LINE
5
117
100
AcDbEntity
8
0
100
AcDbLine
10
19.520637151791512
20
-23.202741149061509
30
9.3176819928248392e-30
11
17.721000659957237
21
-23.202741149061513
31
5.5870272399913446e-31
0
LINE
5
118
100
AcDbEntity
8
0
100
AcDbLine
10
21.295637151791521
20
-14.232522853843188
30
0
11
21.295637151791521
21
13.76747714615682
31
-4.4015921684253999e-15
0
LINE
5
119
100
AcDbEntity
8
0
100
AcDbLine
10
21.295637151791521
20
15.81747714615682
30
-4.4408920985006262e-15
11
21.295637151791521
21
24.72225885093853
31
-4.4408920985006262e-15
0
LINE
5
120
100
AcDbEntity
8
0
100
AcDbLine
10
21.295637151791521
20
24.72225885093853
30
-4.4408920985006262e-15
11
11.844483493368907
21
24.72225885093853
31
-4.4408920985006262e-15
0
SPLINE
5
121
100
AcDbEntity
8
0
100
AcDbSpline
70
0
71
3
72
11
73
7
74
0
42
0.000000001
43
0.0000000001
44
0.0000000001
40
-0.89486513458792027
40
-0.89486513458792027
40
-0.89486513458792027
40
-0.89486513458792027
40
0.091303892332488923
40
0.091303892332488923
40
0.091303892332488923
40
0.67567438019840409
40
0.67567438019840409
40
0.67567438019840409
40
0.67567438019840409
10
8.3449835645532691
20
28.221944688888854
30
-4.4389863189274874e-15
10
8.3449835645532637
20
27.07124775472678
30
-4.4382051348493426e-15
10
8.9539908048287167
20
25.937982873538314
30
-4.4377672801579308e-15
10
9.9135551123448042
20
25.303151277215395
30
-4.4378585810587809e-15
10
10.482160541246749
20
24.926971495120224
30
-4.4379126828917486e-15
10
11.162649970135769
20
24.72225885093853
30
-4.4381440804887285e-15
10
11.844483493368907
20
24.72225885093853
30
-4.4385151887103286e-15
0
LINE
5
122
100
AcDbEntity
8
0
100
AcDbLine
10
8.3449835645532691
20
28.221944688888854
30
-4.4389863189274874e-15
11
8.3449835645532708
21
31.172258850938533
31
3.747070824457895e-15
0
LINE
5
123
100
AcDbEntity
8
0
100
AcDbLine
10
8.3449835645532708
20
31.172258850938533
30
3.747070824457895e-15
11
-14.454539075519319
21
31.172258850938533
31
-4.3455920323339776e-15
0
LINE
5
124
100
AcDbEntity
8
0
100
AcDbLine
10
-14.454539075519319
20
31.172258850938533
30
-4.3455920323339776e-15
11
-14.454539075519312
21
28.221808201936547
31
-4.4408920985006262e-15
0
SPLINE
5
125
100
AcDbEntity
8
0
100
AcDbSpline
70
0
71
3
72
11
73
7
74
0
42
0.000000001
43
0.0000000001
44
0.0000000001
40
-0.75052844912130279
40
-0.75052844912130279
40
-0.75052844912130279
40
-0.75052844912130279
40
0.23562228745682834
40
0.23562228745682834
40
0.23562228745682834
40
0.81996907640424233
40
0.81996907640424233
40
0.81996907640424233
40
0.81996907640424233
10
-17.954020893904449
20
24.722258850938537
30
-4.4367740726100628e-15
10
-16.803361109578894
20
24.722258850938537
30
-4.4355116664889953e-15
10
-15.670154951658494
20
25.331284528366599
30
-4.4349846958090748e-15
10
-15.035371339799282
20
26.290873908771584
30
-4.4354168004973393e-15
10
-14.659228270076001
20
26.859481680736948
30
-4.4356728455193734e-15
10
-14.454539075519314
20
27.539969913862702
30
-4.4362485682049688e-15
10
-14.454539075519314
20
28.221808201936547
30
-4.4370504630550095e-15
0
LINE
5
126
100
AcDbEntity
8
0
100
AcDbLine
10
-17.954020893904449
20
24.722258850938537
30
-4.4367740726100628e-15
11
-21.404362848208493
21
24.72225885093853
31
-4.4408920985006262e-15
0
LINE
5
127
100
AcDbEntity
8
0
100
AcDbLine
10
-21.404362848208493
20
24.72225885093853
30
-4.4408920985006262e-15
11
-21.404362848208493
21
15.81747714615682
31
-4.4408920985006262e-15
0
LINE
5
128
100
AcDbEntity
8
0
100
AcDbLine
10
-21.404362848208493
20
13.76747714615682
30
-4.4408920985006262e-15
11
-21.404362848208493
21
-13.982522853843189
31
-3.9299930075226348e-17
0
LINE
5
129
100
AcDbEntity
8
0
100
AcDbLine
10
-21.404362848208493
20
-16.03252285384319
30
0
11
-21.404362848208493
21
-24.92774114906149
31
0
0
LINE
5
130
100
AcDbEntity
8
0
100
AcDbLine
10
-21.404362848208493
20
-24.92774114906149
30
0
11
-11.953190927274388
21
-24.92774114906149
31
-4.4408920985006254e-15
0
SPLINE
5
131
100
AcDbEntity
8
0
100
AcDbSpline
70
0
71
3
72
11
73
7
74
0
42
0.000000001
43
0.0000000001
44
0.0000000001
40
-0.81878683908690564
40
-0.81878683908690564
40
-0.81878683908690564
40
-0.81878683908690564
40
0.16736358343096491
40
0.16736358343096491
40
0.16736358343096491
40
0.75170997785246629
40
0.75170997785246629
40
0.75170997785246629
40
0.75170997785246629
10
-8.4537092609702498
20
-28.427288196785653
30
3.8469496873466384e-18
10
-8.4537092609702498
20
-27.276609934736697
30
5.1989009312801114e-18
10
-9.0627190163719362
20
-26.143383827563266
30
5.8612307241198296e-18
10
-10.022290274454772
20
-25.508586486197792
30
5.5528545390831758e-18
10
-10.590887105169053
20
-25.132435415179465
30
5.3701253045394857e-18
10
-11.271363846839996
20
-24.92774114906149
30
4.8630435773841477e-18
10
-11.953190927274381
20
-24.92774114906149
30
4.1139664893905743e-18
0
LINE
5
132
100
AcDbEntity
8
0
100
AcDbLine
10
-8.4537092609702498
20
-28.427288196785653
30
3.8469496873466384e-18
11
-8.4537092609702498
21
-31.42774114906149
31
0
0
LINE
5
133
100
AcDbEntity
8
0
100
AcDbLine
10
-8.4537092609702498
20
-31.42774114906149
30
0
11
14.395820294223579
21
-31.42774114906149
31
4.3933441159170466e-15
0
LINE
5
134
100
AcDbEntity
8
0
100
AcDbLine
10
14.395820294223579
20
-31.42774114906149
30
4.3933441159170466e-15
11
14.395820294223576
21
-28.427429309737711
31
4.4408920985006262e-15
0
SPLINE
5
135
100
AcDbEntity
8
0
100
AcDbSpline
70
0
71
3
72
11
73
7
74
0
42
0.000000001
43
0.0000000001
44
0.0000000001
40
-0.67431503367907131
40
-0.67431503367907131
40
-0.67431503367907131
40
-0.67431503367907131
40
0.31185429905560025
40
0.31185429905560025
40
0.31185429905560025
40
0.8962251956777062
40
0.8962251956777062
40
0.8962251956777062
40
0.8962251956777062
10
17.895320686088986
20
-24.92774114906149
30
-4.4385126286783061e-15
10
16.744675684516029
20
-24.92774114906149
30
-4.4378874254640093e-15
10
15.611467427422628
20
-25.536792824516713
30
-4.437685618937879e-15
10
14.976675014607139
20
-26.496407848292066
30
-4.437992856146844e-15
10
14.600518304869237
20
-27.06504355135192
30
-4.4381749146202913e-15
10
14.395820294223576
20
-27.7455646867109
30
-4.4385261720538308e-15
10
14.395820294223576
20
-28.427429309737718
30
-4.4389895747989202e-15
0
LINE
5
136
100
AcDbEntity
8
0
100
AcDbLine
10
17.895320686088986
20
-24.92774114906149
30
-4.4385126286783061e-15
11
21.295637151791521
21
-24.92774114906149
31
3.8326034555533474e-15
0
LINE
5
137
100
AcDbEntity
8
0
100
AcDbLine
10
21.295637151791521
20
-24.92774114906149
30
3.8326034555533474e-15
11
21.295637151791521
21
-15.78252285384319
31
0
0
LINE
5
138
100
AcDbEntity
8
0
100
AcDbLine
10
21.295637151791521
20
-14.232522853843188
30
0
11
21.295637151791521
21
-15.78252285384319
31
0
0
LINE
5
139
100
AcDbEntity
8
0
100
AcDbLine
10
-21.404362848208493
20
-13.982522853843189
30
-3.9299930075226348e-17
11
-21.404362848208493
21
-16.03252285384319
31
0
0
LINE
5
140
100
AcDbEntity
8
0
100
AcDbLine
10
-21.404362848208493
20
13.76747714615682
30
-4.4408920985006262e-15
11
-21.404362848208493
21
15.81747714615682
31
-4.4408920985006262e-15
0
LINE
5
141
100
AcDbEntity
8
0
100
AcDbLine
10
21.295637151791521
20
13.76747714615682
30
-4.4015921684253999e-15
11
21.295637151791521
21
15.81747714615682
31
-4.4408920985006262e-15
0
CIRCLE
5
142
100
AcDbEntity
8
0
100
AcDbCircle
10
5.9471964033507643
20
16.927040555720236
30
0
40
1.2250000000000005
210
0
220
0
230
1
0
CIRCLE
5
143
100
AcDbEntity
8
0
100
AcDbCircle
10
-6.0559220997677512
20
-17.032522853843194
30
0
40
1.2250000000000003
210
0
220
0
230
1
0
ENDSEC
0
SECTION
2
OBJECTS
0
DICTIONARY
5
C
100
AcDbDictionary
3
ACAD_GROUP
350
D
3
ACAD_MLINESTYLE
350
17
0
DICTIONARY
5
D
100
AcDbDictionary
0
DICTIONARY
5
1A
330
C
100
AcDbDictionary
0
DICTIONARY
5
17
100
AcDbDictionary
0
ENDSEC
0
EOF
