M48
METRIC,TZ
T1C0.300
T2C0.400
T3C0.600
T4C0.750
T5C1.000
T6C1.100
T7C2.200
%
G90
G05
T1
X83870Y-81948
X83870Y-82648
X83870Y-83348
X84571Y-84099
X86070Y-115348
X86070Y-116048
X86070Y-116748
X86270Y-80898
X86470Y-81698
X86470Y-82398
X86720Y-115348
X86720Y-116048
X86720Y-116748
X87114Y-119702
X87520Y-90648
X87924Y-85601
X88320Y-114448
X88320Y-115148
X88492Y-87876
X88520Y-82198
X88520Y-87248
X88571Y-80949
X88720Y-83198
X88720Y-113798
X88758Y-84086
X88820Y-99048
X89020Y-97598
X89097Y-87845
X89220Y-87198
X89370Y-113798
X89420Y-99048
X89920Y-91548
X90520Y-91348
X90520Y-92057
X90644Y-80999
X90920Y-82148
X90976Y-83559
X91520Y-114348
X92020Y-90748
X92420Y-84248
X92870Y-97696
X92970Y-81098
X93170Y-86148
X93170Y-86848
X93170Y-87798
X93170Y-88498
X93820Y-108448
X94370Y-104448
X94503Y-98709
X95120Y-115148
X95220Y-113198
X95220Y-113848
X96220Y-97446
X96420Y-104548
X96420Y-106148
X97329Y-101604
X97620Y-94748
X97720Y-102298
X97970Y-103448
X98320Y-102498
X98320Y-112248
X98392Y-94748
X98917Y-96783
X99220Y-112348
X99920Y-94798
X100320Y-91248
X100520Y-94798
X100720Y-108148
X100948Y-91706
X100970Y-92648
X101520Y-90051
X102170Y-102123
X102195Y-104748
X102220Y-101348
X102420Y-99948
X103320Y-103748
X104270Y-113048
X104270Y-113748
X104320Y-114648
X104820Y-93098
X104920Y-86648
X104920Y-88448
X104920Y-90798
X104920Y-96948
X104920Y-102448
X105020Y-85998
X105520Y-109248
X105720Y-85898
X105720Y-86548
X105720Y-90551
X105720Y-96948
X106420Y-86048
X106420Y-86798
X106420Y-90551
X106620Y-110748
X106620Y-113448
X106820Y-104548
X106879Y-112408
X107120Y-90551
X107120Y-103748
X107820Y-90551
X107920Y-112448
X108470Y-86098
X108470Y-86848
X108520Y-90551
X108620Y-113248
X108820Y-112248
X109204Y-101157
X109547Y-91595
X109739Y-100329
X109805Y-97181
X110472Y-99498
X110667Y-103948
X110914Y-98848
X111020Y-102448
X111620Y-95348
X111820Y-107848
X113570Y-114148
X113620Y-92948
X113620Y-104548
X113720Y-105948
X113720Y-112148
X114070Y-98671
X114270Y-96648
X114320Y-103096
X114320Y-104598
X114470Y-115848
X114902Y-91535
X114972Y-87801
X114985Y-86264
X115020Y-98671
X115070Y-104598
X115420Y-100398
X115420Y-101048
X115420Y-102148
X115420Y-102798
X116120Y-102148
X116120Y-102798
X116599Y-99686
X116720Y-112898
X117220Y-99698
X117420Y-92248
X117670Y-112398
X118120Y-92248
X118620Y-98648
X118720Y-113348
X119056Y-91197
X119120Y-97048
X119170Y-107598
X119220Y-108248
X119401Y-98068
X119417Y-99451
X119470Y-105198
X119470Y-106798
X119620Y-92148
X119970Y-109548
X120170Y-108598
X120382Y-102327
X120920Y-94348
X121120Y-107898
X121120Y-108548
X121122Y-102048
X121420Y-95248
X121420Y-101348
X121620Y-112598
X121720Y-96048
X121772Y-91553
X121772Y-92621
X122167Y-112948
X122367Y-96101
X122520Y-90848
X122820Y-106498
X123220Y-90848
X123420Y-106848
X124520Y-108448
X124620Y-103998
T2
X69720Y-96348
X69720Y-97348
X69720Y-98348
X69720Y-99348
X69720Y-100348
X69720Y-101348
X69720Y-102348
X69720Y-103348
X69720Y-104348
X69720Y-105348
X69720Y-106348
X69720Y-107348
X69720Y-108348
X69720Y-109348
X70970Y-108398
X70970Y-109398
X71120Y-104345
X71120Y-105145
X71920Y-104348
X71920Y-105148
X72270Y-97048
X72270Y-98048
X72270Y-99048
X72270Y-100048
X72720Y-104348
X72720Y-105148
X73220Y-92448
X73220Y-113948
X73770Y-110798
X73770Y-111798
X73770Y-112798
X74220Y-91948
X74220Y-114448
X75045Y-94723
X75045Y-95548
X75220Y-90948
X75220Y-115448
X75720Y-89948
X75720Y-116448
X76220Y-88948
X76220Y-117448
X76220Y-118550
X76220Y-119550
X76220Y-120548
X76520Y-79448
X76520Y-80948
X76520Y-82448
X76520Y-83748
X76520Y-84748
X76520Y-85598
X77070Y-97048
X77070Y-98048
X77070Y-99048
X77070Y-100048
X77220Y-120548
X77670Y-84098
X77720Y-87948
X78220Y-120548
X78420Y-91548
X78420Y-92448
X78620Y-97748
X78620Y-98748
X78620Y-99748
X78670Y-87948
X79020Y-84098
X79020Y-96448
X79220Y-120548
X79820Y-113948
X79920Y-100248
X80120Y-96448
X80220Y-84948
X80220Y-86248
X80220Y-120548
X80620Y-80848
X81070Y-108848
X81220Y-92248
X81220Y-95548
X81220Y-96348
X81220Y-120548
X81320Y-91348
X81320Y-100248
X81800Y-113568
X82120Y-96548
X82170Y-97648
X82170Y-98498
X82170Y-108848
X82220Y-91348
X82220Y-120548
X82970Y-108298
X83120Y-91348
X83220Y-120548
X83770Y-108298
X84220Y-113798
X84220Y-120548
X84445Y-87948
X84520Y-88898
X84620Y-108298
X85120Y-95848
X85176Y-85745
X85220Y-120548
X85520Y-95048
X85823Y-90725
X86120Y-100348
X86120Y-101248
X86120Y-102198
X86220Y-120548
X86620Y-90948
X86720Y-105348
X86720Y-106148
X87120Y-100348
X87120Y-101248
X87120Y-102198
X87220Y-120548
X87520Y-105348
X87520Y-106148
X88220Y-120548
X89220Y-120548
X89520Y-85648
X90070Y-110598
X90220Y-120548
X90407Y-101835
X90407Y-102830
X90407Y-103826
X90420Y-100848
X91220Y-120548
X91384Y-101348
X91420Y-99548
X91420Y-100448
X91420Y-113148
X91520Y-108398
X92020Y-107198
X92220Y-120548
X92380Y-101348
X92420Y-99548
X92420Y-100448
X92520Y-94048
X93220Y-120548
X93520Y-101148
X94220Y-120548
X94620Y-101148
X95220Y-120548
X95720Y-118698
X95720Y-119698
X96220Y-120548
X96720Y-118698
X96720Y-119698
X96820Y-86048
X96820Y-86948
X97220Y-120548
X97720Y-86048
X97720Y-86998
X98220Y-120548
X99020Y-109048
X99020Y-110648
X99220Y-120548
X99553Y-87829
X100220Y-120548
X100520Y-87848
X100620Y-114198
X100920Y-80198
X101220Y-90898
X101220Y-120548
X101756Y-86007
X101756Y-86857
X101920Y-80198
X102220Y-120548
X102762Y-86007
X102762Y-86857
X102920Y-80198
X103220Y-120548
X103770Y-85998
X103770Y-86848
X103920Y-80198
X104220Y-120548
X104720Y-118748
X104720Y-119748
X104920Y-80198
X105220Y-120548
X105720Y-118748
X105720Y-119748
X105920Y-80198
X106220Y-120548
X106920Y-80198
X107220Y-120548
X107920Y-80198
X108220Y-120548
X109020Y-79348
X109020Y-80198
X109020Y-81048
X109220Y-120548
X109670Y-114348
X110220Y-120548
X110520Y-115998
X111220Y-120548
X112220Y-120548
X113220Y-120548
X113720Y-118698
X113720Y-119698
X113920Y-82348
X113920Y-83148
X113920Y-83948
X113920Y-84748
X114220Y-120548
X114720Y-118698
X114720Y-119698
X114970Y-110148
X114970Y-111398
X114970Y-112598
X115220Y-120548
X116220Y-120548
X117220Y-120548
X118220Y-120548
X118620Y-114298
X119220Y-120548
X120220Y-120548
X121220Y-120548
X122220Y-120548
X122720Y-94396
X123220Y-98048
X123220Y-115598
X123220Y-116598
X123220Y-117598
X123220Y-118598
X123220Y-119598
X123220Y-120548
T3
X78520Y-80146
T4
X80020Y-88248
X82020Y-88248
X89570Y-117148
X91220Y-111548
X91570Y-117148
X93220Y-111548
X93570Y-117148
X95220Y-111548
X98620Y-117148
X100220Y-111548
X100620Y-117148
X102220Y-111548
X102620Y-117148
X104220Y-111548
X107620Y-117148
X109620Y-117148
X111620Y-117148
X116620Y-117148
X116650Y-100908
X116670Y-111548
X117920Y-100908
X118620Y-117148
X118670Y-111548
X119190Y-100908
X120620Y-117148
X120670Y-111548
T5
X72900Y-109100
X95315Y-83758
X95315Y-86298
X95315Y-88838
X95315Y-91378
X95315Y-93918
X110720Y-80675
X113260Y-80675
X115800Y-80675
X118340Y-80675
X120880Y-80675
X123420Y-80675
T6
X76540Y-110548
X79080Y-110548
X81620Y-110548
X84160Y-110548
X86700Y-110548
T7
X71020Y-93948
X71020Y-112248
X83160Y-94045
X117120Y-106048
X129120Y-87848
X129120Y-106148
T0
M30
