%TF.GenerationSoftware,KiCad,Pcbnew,(6.0.7)*%
%TF.CreationDate,2022-10-06T21:18:37+03:00*%
%TF.ProjectId,RadioSens,52616469-6f53-4656-9e73-2e6b69636164,rev?*%
%TF.SameCoordinates,Original*%
%TF.FileFunction,Profile,NP*%
%FSLAX46Y46*%
G04 Gerber Fmt 4.6, Leading zero omitted, Abs format (unit mm)*
G04 Created by KiCad (PCBNEW (6.0.7)) date 2022-10-06 21:18:37*
%MOMM*%
%LPD*%
G01*
G04 APERTURE LIST*
%ADD10C,0.100000*%
%TA.AperFunction,Profile*%
%ADD11C,0.050000*%
%TD*%
%TA.AperFunction,Profile*%
%ADD12C,0.100000*%
%TD*%
G04 APERTURE END LIST*
D10*
X126483648Y-85065613D02*
X126591546Y-85134122D01*
X126701904Y-85198564D01*
X126814561Y-85258891D01*
X126929354Y-85315053D01*
X127046122Y-85367002D01*
X127164702Y-85414689D01*
X127284933Y-85458065D01*
X127406653Y-85497082D01*
X127529700Y-85531691D01*
X127653912Y-85561844D01*
X127779127Y-85587491D01*
X127905183Y-85608585D01*
X128031919Y-85625075D01*
X128159171Y-85636915D01*
X128286780Y-85644054D01*
X128414582Y-85646445D01*
D11*
X123769820Y-98198180D02*
G75*
G03*
X124269815Y-98698180I499980J-20D01*
G01*
D12*
X124915033Y-121396621D02*
X124915033Y-111945467D01*
D10*
X128414719Y-108445968D02*
X128306906Y-108447744D01*
X128199285Y-108453041D01*
X128091941Y-108461812D01*
X127984964Y-108474010D01*
X127878441Y-108489587D01*
X127772461Y-108508495D01*
X127667111Y-108530688D01*
X127562480Y-108556118D01*
X127458656Y-108584738D01*
X127355726Y-108616500D01*
X127253779Y-108651358D01*
X127152904Y-108689263D01*
X127053187Y-108730169D01*
X126954718Y-108774028D01*
X126857583Y-108820793D01*
X126761872Y-108870417D01*
X126667672Y-108922851D01*
X126575072Y-108978050D01*
X126484159Y-109035965D01*
X126395022Y-109096549D01*
X126307748Y-109159756D01*
X126222426Y-109225537D01*
X126139144Y-109293845D01*
X126057989Y-109364633D01*
X125979051Y-109437854D01*
X125902416Y-109513460D01*
X125828173Y-109591404D01*
X125756411Y-109671639D01*
X125687217Y-109754117D01*
X125620679Y-109838791D01*
X125556886Y-109925614D01*
X125495925Y-110014539D01*
X73696366Y-115077659D02*
X73588462Y-115009146D01*
X73478098Y-114944702D01*
X73365436Y-114884373D01*
X73250637Y-114828209D01*
X73133864Y-114776258D01*
X73015278Y-114728569D01*
X72895041Y-114685191D01*
X72773316Y-114646172D01*
X72650263Y-114611561D01*
X72526046Y-114581408D01*
X72400825Y-114555759D01*
X72274763Y-114534665D01*
X72148023Y-114518174D01*
X72020765Y-114506334D01*
X71893151Y-114499194D01*
X71765345Y-114496804D01*
D11*
X123769815Y-93396673D02*
G75*
G03*
X124769815Y-93396673I500000J0D01*
G01*
D10*
X124915033Y-82146963D02*
X124916809Y-82254771D01*
X124922106Y-82362389D01*
X124930878Y-82469729D01*
X124943076Y-82576702D01*
X124958653Y-82683221D01*
X124977562Y-82789197D01*
X124999756Y-82894543D01*
X125025186Y-82999170D01*
X125053807Y-83102990D01*
X125085570Y-83205915D01*
X125120429Y-83307857D01*
X125158335Y-83408728D01*
X125199243Y-83508440D01*
X125243103Y-83606905D01*
X125289869Y-83704035D01*
X125339494Y-83799741D01*
X125391930Y-83893936D01*
X125447131Y-83986532D01*
X125505047Y-84077440D01*
X125565634Y-84166572D01*
X125628842Y-84253841D01*
X125694624Y-84339158D01*
X125762935Y-84422436D01*
X125833725Y-84503586D01*
X125906948Y-84582519D01*
X125982556Y-84659149D01*
X126060502Y-84733387D01*
X126140739Y-84805144D01*
X126223219Y-84874334D01*
X126307896Y-84940867D01*
X126394721Y-85004656D01*
X126483648Y-85065613D01*
D12*
X68765033Y-91647275D02*
X68765033Y-114496804D01*
D11*
X124773320Y-97198180D02*
G75*
G03*
X125273377Y-97698180I500080J80D01*
G01*
D12*
X76319815Y-88147793D02*
X76319815Y-86248180D01*
X113960251Y-78696621D02*
X116010251Y-78696621D01*
X71765486Y-91647275D02*
X68765033Y-91647275D01*
X75265033Y-88147793D02*
X76319815Y-88147793D01*
D11*
X124269815Y-98698180D02*
X130569815Y-98698180D01*
D10*
X74684188Y-90078694D02*
X74752698Y-89970797D01*
X74817142Y-89860441D01*
X74877470Y-89747786D01*
X74933633Y-89632995D01*
X74985583Y-89516230D01*
X75033271Y-89397651D01*
X75076649Y-89277422D01*
X75115667Y-89155704D01*
X75150277Y-89032659D01*
X75180430Y-88908450D01*
X75206078Y-88783237D01*
X75227172Y-88657183D01*
X75243663Y-88530449D01*
X75255502Y-88403198D01*
X75262642Y-88275592D01*
X75265033Y-88147793D01*
D12*
X128414719Y-108445968D02*
X131365033Y-108445968D01*
X124915033Y-78696621D02*
X116010251Y-78696621D01*
D11*
X125273377Y-97698180D02*
X130569815Y-97698180D01*
X130566253Y-92648180D02*
X125269815Y-92648180D01*
X130719815Y-96848180D02*
X130719815Y-93398180D01*
X123769815Y-98198180D02*
X123773377Y-97198180D01*
X124769815Y-93148180D02*
X124769815Y-93396673D01*
X129919815Y-96848180D02*
X129919815Y-93398180D01*
X123769815Y-93396673D02*
X123766253Y-92148180D01*
D12*
X75265033Y-121396621D02*
X84410251Y-121396621D01*
D11*
X124266253Y-91648153D02*
G75*
G03*
X123766253Y-92148180I-53J-499947D01*
G01*
X130719815Y-93398180D02*
G75*
G03*
X129919815Y-93398180I-400000J0D01*
G01*
D12*
X116010251Y-121396621D02*
X124915033Y-121396621D01*
D11*
X124773377Y-97198180D02*
G75*
G03*
X123773377Y-97198180I-500000J0D01*
G01*
D12*
X85960251Y-121396621D02*
X84410251Y-121396621D01*
D10*
X125495925Y-110014539D02*
X125427408Y-110122436D01*
X125362959Y-110232794D01*
X125302627Y-110345451D01*
X125246459Y-110460244D01*
X125194505Y-110577011D01*
X125146813Y-110695592D01*
X125103432Y-110815823D01*
X125064411Y-110937542D01*
X125029798Y-111060589D01*
X124999642Y-111184801D01*
X124973992Y-111310015D01*
X124952897Y-111436071D01*
X124936404Y-111562806D01*
X124924563Y-111690058D01*
X124917423Y-111817666D01*
X124915033Y-111945467D01*
D12*
X86210251Y-78696621D02*
X84160251Y-78696621D01*
X113960251Y-78696621D02*
X86210251Y-78696621D01*
D11*
X129919815Y-96848180D02*
G75*
G03*
X130719815Y-96848180I400000J0D01*
G01*
D10*
X75265033Y-117996305D02*
X75263256Y-117888497D01*
X75257958Y-117780880D01*
X75249187Y-117673542D01*
X75236988Y-117566569D01*
X75221410Y-117460052D01*
X75202500Y-117354076D01*
X75180306Y-117248731D01*
X75154874Y-117144105D01*
X75126252Y-117040286D01*
X75094488Y-116937361D01*
X75059628Y-116835420D01*
X75021720Y-116734549D01*
X74980811Y-116634837D01*
X74936949Y-116536372D01*
X74890181Y-116439243D01*
X74840555Y-116343537D01*
X74788117Y-116249342D01*
X74732914Y-116156746D01*
X74674996Y-116065838D01*
X74614407Y-115976705D01*
X74551197Y-115889436D01*
X74485412Y-115804118D01*
X74417100Y-115720840D01*
X74346307Y-115639690D01*
X74273082Y-115560756D01*
X74197472Y-115484126D01*
X74119523Y-115409888D01*
X74039284Y-115338129D01*
X73956801Y-115268939D01*
X73872122Y-115202405D01*
X73785294Y-115138616D01*
X73696366Y-115077659D01*
D11*
X130566253Y-91648180D02*
X124266253Y-91648180D01*
X130569815Y-98698220D02*
G75*
G03*
X130569815Y-97698180I-15J500020D01*
G01*
D12*
X84160251Y-78696621D02*
X75265033Y-78696621D01*
X68765033Y-114496804D02*
X71765345Y-114496804D01*
X131365033Y-85646445D02*
X128414582Y-85646445D01*
X75265033Y-117996305D02*
X75265033Y-121396621D01*
X76319815Y-86248180D02*
X75265033Y-86248180D01*
D11*
X130566253Y-92648220D02*
G75*
G03*
X130566253Y-91648180I-53J500020D01*
G01*
D10*
X71765486Y-91647275D02*
X71873296Y-91645498D01*
X71980916Y-91640201D01*
X72088257Y-91631430D01*
X72195232Y-91619232D01*
X72301753Y-91603655D01*
X72407731Y-91584747D01*
X72513078Y-91562554D01*
X72617707Y-91537123D01*
X72721528Y-91508503D01*
X72824455Y-91476741D01*
X72926399Y-91441883D01*
X73027272Y-91403978D01*
X73126985Y-91363071D01*
X73225452Y-91319212D01*
X73322583Y-91272447D01*
X73418292Y-91222823D01*
X73512488Y-91170388D01*
X73605085Y-91115189D01*
X73695995Y-91057274D01*
X73785129Y-90996689D01*
X73872400Y-90933482D01*
X73957719Y-90867701D01*
X74040998Y-90799392D01*
X74122149Y-90728603D01*
X74201084Y-90655382D01*
X74277716Y-90579775D01*
X74351955Y-90501831D01*
X74423714Y-90421595D01*
X74492905Y-90339117D01*
X74559439Y-90254442D01*
X74623230Y-90167618D01*
X74684188Y-90078694D01*
D12*
X124915033Y-82146963D02*
X124915033Y-78696621D01*
X85960251Y-121396621D02*
X113960251Y-121396621D01*
X113960251Y-121396621D02*
X116010251Y-121396621D01*
X75265033Y-78696621D02*
X75265033Y-86248180D01*
D11*
X125269815Y-92648215D02*
G75*
G03*
X124769815Y-93148180I-15J-499985D01*
G01*
D12*
X131365033Y-108445968D02*
X131365033Y-85646445D01*
M02*
