M48
METRIC,TZ
T1C0.300
T2C0.400
T3C0.600
T4C0.750
T5C1.000
T6C1.100
T7C2.200
%
G90
G05
T1
X-15650Y46200
X-15650Y45500
X-15650Y44800
X-14949Y44049
X-13450Y12800
X-13450Y12100
X-13450Y11400
X-13250Y47250
X-13050Y46450
X-13050Y45750
X-12800Y12800
X-12800Y12100
X-12800Y11400
X-12406Y8446
X-12000Y37500
X-11596Y42547
X-11200Y13700
X-11200Y13000
X-11028Y40272
X-11000Y45950
X-11000Y40900
X-10949Y47199
X-10800Y44950
X-10800Y14350
X-10762Y44062
X-10700Y29100
X-10500Y30550
X-10423Y40303
X-10300Y40950
X-10150Y14350
X-10100Y29100
X-9600Y36600
X-9000Y36800
X-9000Y36091
X-8876Y47149
X-8600Y46000
X-8543Y44589
X-8000Y13800
X-7500Y37400
X-7100Y43900
X-6650Y30453
X-6550Y47050
X-6350Y42000
X-6350Y41300
X-6350Y40350
X-6350Y39650
X-5700Y19700
X-5150Y23700
X-5017Y29440
X-4400Y13000
X-4300Y14950
X-4300Y14300
X-3300Y30703
X-3100Y23600
X-3100Y22000
X-2191Y26544
X-1900Y33400
X-1800Y25850
X-1550Y24701
X-1200Y25650
X-1200Y15900
X-1127Y33400
X-602Y31365
X-300Y15800
X400Y33350
X800Y36900
X1000Y33350
X1200Y20000
X1429Y36442
X1450Y35500
X2000Y38097
X2650Y26025
X2676Y23400
X2700Y26800
X2900Y28200
X3800Y24400
X4750Y15100
X4750Y14400
X4800Y13500
X5300Y35050
X5400Y41500
X5400Y39700
X5400Y37350
X5400Y31200
X5400Y25700
X5500Y42150
X6000Y18900
X6200Y42250
X6200Y41600
X6200Y37597
X6200Y31200
X6900Y42100
X6900Y41350
X6900Y37597
X7100Y17400
X7100Y14700
X7300Y23600
X7359Y15741
X7600Y37597
X7600Y24400
X8300Y37597
X8400Y15700
X8950Y42050
X8950Y41300
X9000Y37597
X9100Y14900
X9300Y15900
X9684Y26991
X10028Y36553
X10220Y27820
X10285Y30967
X10953Y28650
X11148Y24200
X11394Y29300
X11500Y25700
X12100Y32800
X12300Y20300
X14050Y14000
X14100Y35200
X14100Y23600
X14200Y22200
X14200Y16000
X14550Y29478
X14750Y31500
X14800Y25053
X14800Y23550
X14950Y12300
X15383Y36613
X15452Y40347
X15466Y41884
X15500Y29478
X15550Y23550
X15900Y27750
X15900Y27100
X15900Y26000
X15900Y25350
X16600Y26000
X16600Y25350
X17079Y28463
X17200Y15250
X17700Y28450
X17900Y35900
X18150Y15750
X18600Y35900
X19100Y29500
X19200Y14800
X19536Y36952
X19600Y31100
X19650Y20550
X19700Y19900
X19881Y30081
X19898Y28698
X19950Y22950
X19950Y21350
X20100Y36000
X20450Y18600
X20650Y19550
X20863Y25821
X21400Y33800
X21600Y20250
X21600Y19600
X21603Y26100
X21900Y32900
X21900Y26800
X22100Y15550
X22200Y32100
X22253Y36595
X22253Y35528
X22647Y15200
X22848Y32048
X23000Y37300
X23300Y21650
X23700Y37300
X23900Y21300
X25000Y19700
X25100Y24150
T2
X-29800Y31800
X-29800Y30800
X-29800Y29800
X-29800Y28800
X-29800Y27800
X-29800Y26800
X-29800Y25800
X-29800Y24800
X-29800Y23800
X-29800Y22800
X-29800Y21800
X-29800Y20800
X-29800Y19800
X-29800Y18800
X-28550Y19750
X-28550Y18750
X-28400Y23804
X-28400Y23004
X-27600Y23800
X-27600Y23000
X-27250Y31100
X-27250Y30100
X-27250Y29100
X-27250Y28100
X-26800Y23800
X-26800Y23000
X-26300Y35700
X-26300Y14200
X-25750Y17350
X-25750Y16350
X-25750Y15350
X-25300Y36200
X-25300Y13700
X-24475Y33425
X-24475Y32600
X-24300Y37200
X-24300Y12700
X-23800Y38200
X-23800Y11700
X-23300Y39200
X-23300Y10700
X-23300Y9598
X-23300Y8598
X-23300Y7600
X-23000Y48700
X-23000Y47200
X-23000Y45700
X-23000Y44400
X-23000Y43400
X-23000Y42550
X-22450Y31100
X-22450Y30100
X-22450Y29100
X-22450Y28100
X-22300Y7600
X-21850Y44050
X-21800Y40200
X-21300Y7600
X-21100Y36600
X-21100Y35700
X-20900Y30400
X-20900Y29400
X-20900Y28400
X-20850Y40200
X-20500Y44050
X-20500Y31700
X-20300Y7600
X-19700Y14200
X-19600Y27900
X-19400Y31700
X-19300Y43200
X-19300Y41900
X-19300Y7600
X-18900Y47300
X-18450Y19300
X-18300Y35900
X-18300Y32600
X-18300Y31800
X-18300Y7600
X-18200Y36800
X-18200Y27900
X-17720Y14580
X-17400Y31600
X-17350Y30500
X-17350Y29650
X-17350Y19300
X-17300Y36800
X-17300Y7600
X-16550Y19850
X-16400Y36800
X-16300Y7600
X-15750Y19850
X-15300Y14350
X-15300Y7600
X-15074Y40200
X-15000Y39250
X-14900Y19850
X-14400Y32300
X-14344Y42403
X-14300Y7600
X-14000Y33100
X-13697Y37423
X-13400Y27800
X-13400Y26900
X-13400Y25950
X-13300Y7600
X-12900Y37200
X-12800Y22800
X-12800Y22000
X-12400Y27800
X-12400Y26900
X-12400Y25950
X-12300Y7600
X-12000Y22800
X-12000Y22000
X-11300Y7600
X-10300Y7600
X-10000Y42500
X-9450Y17550
X-9300Y7600
X-9113Y26313
X-9113Y25318
X-9113Y24322
X-9100Y27300
X-8300Y7600
X-8135Y26800
X-8100Y28600
X-8100Y27700
X-8100Y15000
X-8000Y19750
X-7500Y20950
X-7300Y7600
X-7140Y26800
X-7100Y28600
X-7100Y27700
X-7000Y34100
X-6300Y7600
X-6000Y27000
X-5300Y7600
X-4900Y27000
X-4300Y7600
X-3800Y9450
X-3800Y8450
X-3300Y7600
X-2800Y9450
X-2800Y8450
X-2700Y42100
X-2700Y41200
X-2300Y7600
X-1800Y42100
X-1800Y41150
X-1300Y7600
X-500Y19100
X-500Y17500
X-300Y7600
X33Y40319
X700Y7600
X1000Y40300
X1100Y13950
X1400Y47950
X1700Y37250
X1700Y7600
X2236Y42141
X2236Y41291
X2400Y47950
X2700Y7600
X3243Y42141
X3243Y41291
X3400Y47950
X3700Y7600
X4250Y42150
X4250Y41300
X4400Y47950
X4700Y7600
X5200Y9400
X5200Y8400
X5400Y47950
X5700Y7600
X6200Y9400
X6200Y8400
X6400Y47950
X6700Y7600
X7400Y47950
X7700Y7600
X8400Y47950
X8700Y7600
X9500Y48800
X9500Y47950
X9500Y47100
X9700Y7600
X10150Y13800
X10700Y7600
X11000Y12150
X11700Y7600
X12700Y7600
X13700Y7600
X14200Y9450
X14200Y8450
X14400Y45800
X14400Y45000
X14400Y44200
X14400Y43400
X14700Y7600
X15200Y9450
X15200Y8450
X15450Y18000
X15450Y16750
X15450Y15550
X15700Y7600
X16700Y7600
X17700Y7600
X18700Y7600
X19100Y13850
X19700Y7600
X20700Y7600
X21700Y7600
X22700Y7600
X23200Y33753
X23700Y30100
X23700Y12550
X23700Y11550
X23700Y10550
X23700Y9550
X23700Y8550
X23700Y7600
T3
X-21000Y48003
T4
X-19500Y39900
X-17500Y39900
X-9950Y11000
X-8300Y16600
X-7950Y11000
X-6300Y16600
X-5950Y11000
X-4300Y16600
X-900Y11000
X700Y16600
X1100Y11000
X2700Y16600
X3100Y11000
X4700Y16600
X8100Y11000
X10100Y11000
X12100Y11000
X17100Y11000
X17130Y27240
X17150Y16600
X18400Y27240
X19100Y11000
X19150Y16600
X19670Y27240
X21100Y11000
X21150Y16600
T5
X-26800Y19200
X-4205Y44390
X-4205Y41850
X-4205Y39310
X-4205Y36770
X-4205Y34230
X11200Y47473
X13740Y47473
X16280Y47473
X18820Y47473
X21360Y47473
X23900Y47473
T6
X-22980Y17600
X-20440Y17600
X-17900Y17600
X-15360Y17600
X-12820Y17600
T7
X-28500Y34200
X-28500Y15900
X-16360Y34103
X17600Y22100
X29600Y40300
X29600Y22000
T0
M30
