%TF.GenerationSoftware,KiCad,Pcbnew,(6.0.7)*%
%TF.CreationDate,2022-10-03T23:56:51+03:00*%
%TF.ProjectId,hs12,68733132-2e6b-4696-9361-645f70636258,rev?*%
%TF.SameCoordinates,Original*%
%TF.FileFunction,Legend,Top*%
%TF.FilePolarity,Positive*%
%FSLAX46Y46*%
G04 Gerber Fmt 4.6, Leading zero omitted, Abs format (unit mm)*
G04 Created by KiCad (PCBNEW (6.0.7)) date 2022-10-03 23:56:51*
%MOMM*%
%LPD*%
G01*
G04 APERTURE LIST*
%ADD10C,0.120000*%
%ADD11C,0.200000*%
%ADD12C,0.175000*%
%ADD13C,0.230000*%
%ADD14C,0.125000*%
%ADD15C,0.100000*%
%ADD16C,0.150000*%
%ADD17C,0.152000*%
%ADD18C,0.153000*%
%ADD19C,0.254000*%
G04 APERTURE END LIST*
D10*
X-13400000Y11700000D02*
X-12800000Y12300000D01*
X-24250000Y35150000D02*
X-24250000Y36150000D01*
X-20300000Y47800000D02*
X-20000000Y48100000D01*
X15650000Y29600000D02*
X15850000Y29800000D01*
X-15000000Y12900000D02*
X-15300000Y13200000D01*
X-5300000Y21500000D02*
X-10850000Y21500000D01*
X22250000Y35300000D02*
X22250000Y37550000D01*
X-18300000Y48300000D02*
X-18300000Y48900000D01*
X-6950000Y23200000D02*
X-6950000Y21500000D01*
X-14700000Y11700000D02*
X-14000000Y11700000D01*
X1450000Y37600000D02*
X1700000Y37050000D01*
X21550000Y24700000D02*
X21350000Y24500000D01*
X-29000000Y31350000D02*
X-29250000Y31650000D01*
X14924264Y30400000D02*
G75*
G03*
X14924264Y30400000I-424264J0D01*
G01*
X-28575736Y26300000D02*
G75*
G03*
X-28575736Y26300000I-424264J0D01*
G01*
X21350000Y24500000D02*
X19150000Y24500000D01*
X-15600000Y12900000D02*
X-15300000Y13200000D01*
X-15300000Y12300000D02*
X-14700000Y11700000D01*
X-5300000Y23200000D02*
X-5300000Y21500000D01*
X-15300000Y13200000D02*
X-15000000Y12900000D01*
X1474264Y37750000D02*
G75*
G03*
X1474264Y37750000I-424264J0D01*
G01*
X-12800000Y13200000D02*
X-13100000Y12900000D01*
X-18500000Y48100000D02*
X-18300000Y48300000D01*
D11*
X-29000000Y18100000D02*
X-29000000Y20000000D01*
D10*
X15850000Y29800000D02*
X16000000Y29950000D01*
X-15300000Y13200000D02*
X-15300000Y12300000D01*
X-20000000Y48100000D02*
X-18700000Y48100000D01*
D11*
X-29000000Y20000000D02*
X-27600000Y20500000D01*
D10*
X22100000Y35000000D02*
X22250000Y35300000D01*
X22124264Y34800000D02*
G75*
G03*
X22124264Y34800000I-424264J0D01*
G01*
X-12800000Y12300000D02*
X-12800000Y13200000D01*
X-28900000Y26700000D02*
X-29000000Y26950000D01*
X-10850000Y21500000D02*
X-10360000Y19510000D01*
X22324264Y24950000D02*
G75*
G03*
X22324264Y24950000I-424264J0D01*
G01*
X-18700000Y48100000D02*
X-18500000Y48100000D01*
X-9000000Y23200000D02*
X-9000000Y21500000D01*
X21350000Y23750000D02*
X19150000Y23750000D01*
X15250000Y29600000D02*
X15650000Y29600000D01*
X-10850000Y23200000D02*
X-5300000Y23200000D01*
X1700000Y37050000D02*
X1700000Y34850000D01*
X-14000000Y11700000D02*
X-13400000Y11700000D01*
X-10850000Y21500000D02*
X-10850000Y23200000D01*
X-12800000Y13200000D02*
X-12500000Y12900000D01*
X-23975736Y34475736D02*
G75*
G03*
X-23975736Y34475736I-424264J0D01*
G01*
X21650000Y23600000D02*
X21350000Y23750000D01*
X22324264Y23950000D02*
G75*
G03*
X22324264Y23950000I-424264J0D01*
G01*
X-29000000Y26950000D02*
X-29000000Y31350000D01*
X16000000Y29950000D02*
X16000000Y32250000D01*
X-29250000Y31650000D02*
X-29850000Y31650000D01*
X14800000Y30050000D02*
X15250000Y29600000D01*
X-13100000Y12900000D02*
X-12800000Y13200000D01*
X-24100000Y34800000D02*
X-24250000Y35150000D01*
D12*
X-8600000Y35792808D02*
X-8533333Y35892808D01*
X-8466666Y35926141D01*
X-8333333Y35959475D01*
X-8133333Y35959475D01*
X-8000000Y35926141D01*
X-7933333Y35892808D01*
X-7866666Y35826141D01*
X-7866666Y35559475D01*
X-9266666Y35559475D01*
X-9266666Y35792808D01*
X-9200000Y35859475D01*
X-9133333Y35892808D01*
X-9000000Y35926141D01*
X-8866666Y35926141D01*
X-8733333Y35892808D01*
X-8666666Y35859475D01*
X-8600000Y35792808D01*
X-8600000Y35559475D01*
X-9266666Y36259475D02*
X-8133333Y36259475D01*
X-8000000Y36292808D01*
X-7933333Y36326141D01*
X-7866666Y36392808D01*
X-7866666Y36526141D01*
X-7933333Y36592808D01*
X-8000000Y36626141D01*
X-8133333Y36659475D01*
X-9266666Y36659475D01*
X-9266666Y36892808D02*
X-9266666Y37292808D01*
X-7866666Y37092808D02*
X-9266666Y37092808D01*
X-7866666Y37892808D02*
X-7866666Y37492808D01*
X-7866666Y37692808D02*
X-9266666Y37692808D01*
X-9066666Y37626141D01*
X-8933333Y37559475D01*
X-8866666Y37492808D01*
D13*
X-6469672Y22847619D02*
X-6194672Y21847619D01*
X-5669672Y22847619D01*
D14*
X-17942857Y41342857D02*
X-17857142Y41314285D01*
X-17828571Y41285714D01*
X-17800000Y41228571D01*
X-17800000Y41142857D01*
X-17828571Y41085714D01*
X-17857142Y41057142D01*
X-17914285Y41028571D01*
X-18142857Y41028571D01*
X-18142857Y41628571D01*
X-17942857Y41628571D01*
X-17885714Y41600000D01*
X-17857142Y41571428D01*
X-17828571Y41514285D01*
X-17828571Y41457142D01*
X-17857142Y41400000D01*
X-17885714Y41371428D01*
X-17942857Y41342857D01*
X-18142857Y41342857D01*
X-17571428Y41200000D02*
X-17285714Y41200000D01*
X-17628571Y41028571D02*
X-17428571Y41628571D01*
X-17228571Y41028571D01*
X-17114285Y41628571D02*
X-16771428Y41628571D01*
X-16942857Y41028571D02*
X-16942857Y41628571D01*
D11*
X18852380Y28271428D02*
X17852380Y28271428D01*
X17852380Y28461904D01*
X17900000Y28576190D01*
X17995238Y28652380D01*
X18090476Y28690476D01*
X18280952Y28728571D01*
X18423809Y28728571D01*
X18614285Y28690476D01*
X18709523Y28652380D01*
X18804761Y28576190D01*
X18852380Y28461904D01*
X18852380Y28271428D01*
X18947619Y29604761D02*
X18900000Y29528571D01*
X18804761Y29452380D01*
X18661904Y29338095D01*
X18614285Y29261904D01*
X18614285Y29185714D01*
X18852380Y29223809D02*
X18804761Y29147619D01*
X18709523Y29071428D01*
X18519047Y29033333D01*
X18185714Y29033333D01*
X17995238Y29071428D01*
X17900000Y29147619D01*
X17852380Y29223809D01*
X17852380Y29376190D01*
X17900000Y29452380D01*
X17995238Y29528571D01*
X18185714Y29566666D01*
X18519047Y29566666D01*
X18709523Y29528571D01*
X18804761Y29452380D01*
X18852380Y29376190D01*
X18852380Y29223809D01*
D14*
X1350000Y34978571D02*
X1350000Y35264285D01*
X1521428Y34921428D02*
X921428Y35121428D01*
X1521428Y35321428D01*
X1521428Y35864285D02*
X1235714Y35664285D01*
X1521428Y35521428D02*
X921428Y35521428D01*
X921428Y35750000D01*
X950000Y35807142D01*
X978571Y35835714D01*
X1035714Y35864285D01*
X1121428Y35864285D01*
X1178571Y35835714D01*
X1207142Y35807142D01*
X1235714Y35750000D01*
X1235714Y35521428D01*
X1207142Y36121428D02*
X1207142Y36321428D01*
X1521428Y36407142D02*
X1521428Y36121428D01*
X921428Y36121428D01*
X921428Y36407142D01*
X1207142Y36864285D02*
X1207142Y36664285D01*
X1521428Y36664285D02*
X921428Y36664285D01*
X921428Y36950000D01*
D12*
X-8150000Y12145238D02*
X-8050000Y12097619D01*
X-7883333Y12097619D01*
X-7816666Y12145238D01*
X-7783333Y12192857D01*
X-7750000Y12288095D01*
X-7750000Y12383333D01*
X-7783333Y12478571D01*
X-7816666Y12526190D01*
X-7883333Y12573809D01*
X-8016666Y12621428D01*
X-8083333Y12669047D01*
X-8116666Y12716666D01*
X-8150000Y12811904D01*
X-8150000Y12907142D01*
X-8116666Y13002380D01*
X-8083333Y13050000D01*
X-8016666Y13097619D01*
X-7850000Y13097619D01*
X-7750000Y13050000D01*
D14*
X15121428Y30057142D02*
X15121428Y30428571D01*
X15350000Y30228571D01*
X15350000Y30314285D01*
X15378571Y30371428D01*
X15407142Y30400000D01*
X15464285Y30428571D01*
X15607142Y30428571D01*
X15664285Y30400000D01*
X15692857Y30371428D01*
X15721428Y30314285D01*
X15721428Y30142857D01*
X15692857Y30085714D01*
X15664285Y30057142D01*
X15121428Y30600000D02*
X15721428Y30800000D01*
X15121428Y31000000D01*
X15407142Y31200000D02*
X15407142Y31400000D01*
X15721428Y31485714D02*
X15721428Y31200000D01*
X15121428Y31200000D01*
X15121428Y31485714D01*
X15721428Y31742857D02*
X15121428Y31742857D01*
X15721428Y32085714D01*
X15121428Y32085714D01*
X-25028571Y35535714D02*
X-25028571Y35250000D01*
X-24742857Y35221428D01*
X-24771428Y35250000D01*
X-24800000Y35307142D01*
X-24800000Y35450000D01*
X-24771428Y35507142D01*
X-24742857Y35535714D01*
X-24685714Y35564285D01*
X-24542857Y35564285D01*
X-24485714Y35535714D01*
X-24457142Y35507142D01*
X-24428571Y35450000D01*
X-24428571Y35307142D01*
X-24457142Y35250000D01*
X-24485714Y35221428D01*
X-25028571Y35735714D02*
X-24428571Y35935714D01*
X-25028571Y36135714D01*
D12*
X-6183333Y13097619D02*
X-5950000Y12097619D01*
X-5716666Y13097619D01*
X17233333Y13100000D02*
X17166666Y13147619D01*
X17066666Y13147619D01*
X16966666Y13100000D01*
X16900000Y13004761D01*
X16866666Y12909523D01*
X16833333Y12719047D01*
X16833333Y12576190D01*
X16866666Y12385714D01*
X16900000Y12290476D01*
X16966666Y12195238D01*
X17066666Y12147619D01*
X17133333Y12147619D01*
X17233333Y12195238D01*
X17266666Y12242857D01*
X17266666Y12576190D01*
X17133333Y12576190D01*
D14*
X-13547619Y12302380D02*
X-14023809Y12135714D01*
X-13547619Y12016666D02*
X-14547619Y12016666D01*
X-14547619Y12207142D01*
X-14500000Y12254761D01*
X-14452380Y12278571D01*
X-14357142Y12302380D01*
X-14214285Y12302380D01*
X-14119047Y12278571D01*
X-14071428Y12254761D01*
X-14023809Y12207142D01*
X-14023809Y12016666D01*
X-13595238Y12492857D02*
X-13547619Y12564285D01*
X-13547619Y12683333D01*
X-13595238Y12730952D01*
X-13642857Y12754761D01*
X-13738095Y12778571D01*
X-13833333Y12778571D01*
X-13928571Y12754761D01*
X-13976190Y12730952D01*
X-14023809Y12683333D01*
X-14071428Y12588095D01*
X-14119047Y12540476D01*
X-14166666Y12516666D01*
X-14261904Y12492857D01*
X-14357142Y12492857D01*
X-14452380Y12516666D01*
X-14500000Y12540476D01*
X-14547619Y12588095D01*
X-14547619Y12707142D01*
X-14500000Y12778571D01*
X-14214285Y13207142D02*
X-13547619Y13207142D01*
X-14595238Y13088095D02*
X-13880952Y12969047D01*
X-13880952Y13278571D01*
X-14119047Y13540476D02*
X-14166666Y13492857D01*
X-14214285Y13469047D01*
X-14309523Y13445238D01*
X-14357142Y13445238D01*
X-14452380Y13469047D01*
X-14500000Y13492857D01*
X-14547619Y13540476D01*
X-14547619Y13635714D01*
X-14500000Y13683333D01*
X-14452380Y13707142D01*
X-14357142Y13730952D01*
X-14309523Y13730952D01*
X-14214285Y13707142D01*
X-14166666Y13683333D01*
X-14119047Y13635714D01*
X-14119047Y13540476D01*
X-14071428Y13492857D01*
X-14023809Y13469047D01*
X-13928571Y13445238D01*
X-13738095Y13445238D01*
X-13642857Y13469047D01*
X-13595238Y13492857D01*
X-13547619Y13540476D01*
X-13547619Y13635714D01*
X-13595238Y13683333D01*
X-13642857Y13707142D01*
X-13738095Y13730952D01*
X-13928571Y13730952D01*
X-14023809Y13707142D01*
X-14071428Y13683333D01*
X-14119047Y13635714D01*
X-14547619Y14183333D02*
X-14547619Y13945238D01*
X-14071428Y13921428D01*
X-14119047Y13945238D01*
X-14166666Y13992857D01*
X-14166666Y14111904D01*
X-14119047Y14159523D01*
X-14071428Y14183333D01*
X-13976190Y14207142D01*
X-13738095Y14207142D01*
X-13642857Y14183333D01*
X-13595238Y14159523D01*
X-13547619Y14111904D01*
X-13547619Y13992857D01*
X-13595238Y13945238D01*
X-13642857Y13921428D01*
D11*
X20852380Y44036015D02*
X21852380Y44302682D01*
X20852380Y44569348D01*
X21757142Y45293158D02*
X21804761Y45255062D01*
X21852380Y45140777D01*
X21852380Y45064586D01*
X21804761Y44950301D01*
X21709523Y44874110D01*
X21614285Y44836015D01*
X21423809Y44797920D01*
X21280952Y44797920D01*
X21090476Y44836015D01*
X20995238Y44874110D01*
X20900000Y44950301D01*
X20852380Y45064586D01*
X20852380Y45140777D01*
X20900000Y45255062D01*
X20947619Y45293158D01*
X21757142Y46093158D02*
X21804761Y46055062D01*
X21852380Y45940777D01*
X21852380Y45864586D01*
X21804761Y45750301D01*
X21709523Y45674110D01*
X21614285Y45636015D01*
X21423809Y45597920D01*
X21280952Y45597920D01*
X21090476Y45636015D01*
X20995238Y45674110D01*
X20900000Y45750301D01*
X20852380Y45864586D01*
X20852380Y45940777D01*
X20900000Y46055062D01*
X20947619Y46093158D01*
D12*
X-9816666Y13050000D02*
X-9883333Y13097619D01*
X-9983333Y13097619D01*
X-10083333Y13050000D01*
X-10150000Y12954761D01*
X-10183333Y12859523D01*
X-10216666Y12669047D01*
X-10216666Y12526190D01*
X-10183333Y12335714D01*
X-10150000Y12240476D01*
X-10083333Y12145238D01*
X-9983333Y12097619D01*
X-9916666Y12097619D01*
X-9816666Y12145238D01*
X-9783333Y12192857D01*
X-9783333Y12526190D01*
X-9916666Y12526190D01*
D11*
X-20800000Y14200000D02*
X-20876190Y14238095D01*
X-20990476Y14238095D01*
X-21104761Y14200000D01*
X-21180952Y14123809D01*
X-21219047Y14047619D01*
X-21257142Y13895238D01*
X-21257142Y13780952D01*
X-21219047Y13628571D01*
X-21180952Y13552380D01*
X-21104761Y13476190D01*
X-20990476Y13438095D01*
X-20914285Y13438095D01*
X-20800000Y13476190D01*
X-20761904Y13514285D01*
X-20761904Y13780952D01*
X-20914285Y13780952D01*
X-20419047Y13438095D02*
X-20419047Y14238095D01*
X-20038095Y13438095D02*
X-20038095Y14238095D01*
X-19580952Y13438095D01*
X-19580952Y14238095D01*
D12*
X20866666Y13147619D02*
X21100000Y12147619D01*
X21333333Y13147619D01*
D14*
X25816666Y28288095D02*
X25578571Y28288095D01*
X25578571Y29088095D01*
X25959523Y28326190D02*
X26030952Y28288095D01*
X26150000Y28288095D01*
X26197619Y28326190D01*
X26221428Y28364285D01*
X26245238Y28440476D01*
X26245238Y28516666D01*
X26221428Y28592857D01*
X26197619Y28630952D01*
X26150000Y28669047D01*
X26054761Y28707142D01*
X26007142Y28745238D01*
X25983333Y28783333D01*
X25959523Y28859523D01*
X25959523Y28935714D01*
X25983333Y29011904D01*
X26007142Y29050000D01*
X26054761Y29088095D01*
X26173809Y29088095D01*
X26245238Y29050000D01*
X26459523Y28288095D02*
X26459523Y29088095D01*
X26626190Y28516666D01*
X26792857Y29088095D01*
X26792857Y28288095D01*
X26983333Y29088095D02*
X27292857Y29088095D01*
X27126190Y28783333D01*
X27197619Y28783333D01*
X27245238Y28745238D01*
X27269047Y28707142D01*
X27292857Y28630952D01*
X27292857Y28440476D01*
X27269047Y28364285D01*
X27245238Y28326190D01*
X27197619Y28288095D01*
X27054761Y28288095D01*
X27007142Y28326190D01*
X26983333Y28364285D01*
X27602380Y29088095D02*
X27650000Y29088095D01*
X27697619Y29050000D01*
X27721428Y29011904D01*
X27745238Y28935714D01*
X27769047Y28783333D01*
X27769047Y28592857D01*
X27745238Y28440476D01*
X27721428Y28364285D01*
X27697619Y28326190D01*
X27650000Y28288095D01*
X27602380Y28288095D01*
X27554761Y28326190D01*
X27530952Y28364285D01*
X27507142Y28440476D01*
X27483333Y28592857D01*
X27483333Y28783333D01*
X27507142Y28935714D01*
X27530952Y29011904D01*
X27554761Y29050000D01*
X27602380Y29088095D01*
X27935714Y29088095D02*
X28245238Y29088095D01*
X28078571Y28783333D01*
X28150000Y28783333D01*
X28197619Y28745238D01*
X28221428Y28707142D01*
X28245238Y28630952D01*
X28245238Y28440476D01*
X28221428Y28364285D01*
X28197619Y28326190D01*
X28150000Y28288095D01*
X28007142Y28288095D01*
X27959523Y28326190D01*
X27935714Y28364285D01*
X25923809Y31928571D02*
X25961904Y32000000D01*
X25961904Y32119047D01*
X25923809Y32166666D01*
X25885714Y32190476D01*
X25809523Y32214285D01*
X25733333Y32214285D01*
X25657142Y32190476D01*
X25619047Y32166666D01*
X25580952Y32119047D01*
X25542857Y32023809D01*
X25504761Y31976190D01*
X25466666Y31952380D01*
X25390476Y31928571D01*
X25314285Y31928571D01*
X25238095Y31952380D01*
X25200000Y31976190D01*
X25161904Y32023809D01*
X25161904Y32142857D01*
X25200000Y32214285D01*
X25961904Y32428571D02*
X25161904Y32428571D01*
X25542857Y32428571D02*
X25542857Y32714285D01*
X25961904Y32714285D02*
X25161904Y32714285D01*
X25161904Y32880952D02*
X25161904Y33166666D01*
X25961904Y33023809D02*
X25161904Y33023809D01*
X25238095Y33309523D02*
X25200000Y33333333D01*
X25161904Y33380952D01*
X25161904Y33500000D01*
X25200000Y33547619D01*
X25238095Y33571428D01*
X25314285Y33595238D01*
X25390476Y33595238D01*
X25504761Y33571428D01*
X25961904Y33285714D01*
X25961904Y33595238D01*
X25961904Y34071428D02*
X25961904Y33785714D01*
X25961904Y33928571D02*
X25161904Y33928571D01*
X25276190Y33880952D01*
X25352380Y33833333D01*
X25390476Y33785714D01*
X21471428Y35392857D02*
X21471428Y35764285D01*
X21700000Y35564285D01*
X21700000Y35650000D01*
X21728571Y35707142D01*
X21757142Y35735714D01*
X21814285Y35764285D01*
X21957142Y35764285D01*
X22014285Y35735714D01*
X22042857Y35707142D01*
X22071428Y35650000D01*
X22071428Y35478571D01*
X22042857Y35421428D01*
X22014285Y35392857D01*
X21471428Y35935714D02*
X22071428Y36135714D01*
X21471428Y36335714D01*
X22071428Y36535714D02*
X21471428Y36535714D01*
X21471428Y36678571D01*
X21500000Y36764285D01*
X21557142Y36821428D01*
X21614285Y36850000D01*
X21728571Y36878571D01*
X21814285Y36878571D01*
X21928571Y36850000D01*
X21985714Y36821428D01*
X22042857Y36764285D01*
X22071428Y36678571D01*
X22071428Y36535714D01*
X22014285Y37478571D02*
X22042857Y37450000D01*
X22071428Y37364285D01*
X22071428Y37307142D01*
X22042857Y37221428D01*
X21985714Y37164285D01*
X21928571Y37135714D01*
X21814285Y37107142D01*
X21728571Y37107142D01*
X21614285Y37135714D01*
X21557142Y37164285D01*
X21500000Y37221428D01*
X21471428Y37307142D01*
X21471428Y37364285D01*
X21500000Y37450000D01*
X21528571Y37478571D01*
X19271428Y23878571D02*
X19271428Y24478571D01*
X19557142Y23878571D02*
X19557142Y24478571D01*
X19900000Y23878571D01*
X19900000Y24478571D01*
X20100000Y24478571D02*
X20442857Y24478571D01*
X20271428Y23878571D02*
X20271428Y24478571D01*
X20957142Y23878571D02*
X20614285Y23878571D01*
X20785714Y23878571D02*
X20785714Y24478571D01*
X20728571Y24392857D01*
X20671428Y24335714D01*
X20614285Y24307142D01*
X-5019047Y46838095D02*
X-5019047Y47638095D01*
X-5019047Y47257142D02*
X-4733333Y47257142D01*
X-4733333Y46838095D02*
X-4733333Y47638095D01*
X-4209523Y46914285D02*
X-4233333Y46876190D01*
X-4304761Y46838095D01*
X-4352380Y46838095D01*
X-4423809Y46876190D01*
X-4471428Y46952380D01*
X-4495238Y47028571D01*
X-4519047Y47180952D01*
X-4519047Y47295238D01*
X-4495238Y47447619D01*
X-4471428Y47523809D01*
X-4423809Y47600000D01*
X-4352380Y47638095D01*
X-4304761Y47638095D01*
X-4233333Y47600000D01*
X-4209523Y47561904D01*
X-3733333Y46838095D02*
X-4019047Y46838095D01*
X-3876190Y46838095D02*
X-3876190Y47638095D01*
X-3923809Y47523809D01*
X-3971428Y47447619D01*
X-4019047Y47409523D01*
X-3542857Y47561904D02*
X-3519047Y47600000D01*
X-3471428Y47638095D01*
X-3352380Y47638095D01*
X-3304761Y47600000D01*
X-3280952Y47561904D01*
X-3257142Y47485714D01*
X-3257142Y47409523D01*
X-3280952Y47295238D01*
X-3566666Y46838095D01*
X-3257142Y46838095D01*
D11*
X-19883601Y43533485D02*
X-19121696Y43533485D01*
D12*
X-10083333Y24666666D02*
X-10316666Y25333333D01*
X-10483333Y24666666D02*
X-10483333Y26066666D01*
X-10216666Y26066666D01*
X-10150000Y26000000D01*
X-10116666Y25933333D01*
X-10083333Y25800000D01*
X-10083333Y25600000D01*
X-10116666Y25466666D01*
X-10150000Y25400000D01*
X-10216666Y25333333D01*
X-10483333Y25333333D01*
X-9816666Y24733333D02*
X-9716666Y24666666D01*
X-9550000Y24666666D01*
X-9483333Y24733333D01*
X-9450000Y24800000D01*
X-9416666Y24933333D01*
X-9416666Y25066666D01*
X-9450000Y25200000D01*
X-9483333Y25266666D01*
X-9550000Y25333333D01*
X-9683333Y25400000D01*
X-9750000Y25466666D01*
X-9783333Y25533333D01*
X-9816666Y25666666D01*
X-9816666Y25800000D01*
X-9783333Y25933333D01*
X-9750000Y26000000D01*
X-9683333Y26066666D01*
X-9516666Y26066666D01*
X-9416666Y26000000D01*
X-9216666Y26066666D02*
X-8816666Y26066666D01*
X-9016666Y24666666D02*
X-9016666Y26066666D01*
X7900000Y12195238D02*
X8000000Y12147619D01*
X8166666Y12147619D01*
X8233333Y12195238D01*
X8266666Y12242857D01*
X8300000Y12338095D01*
X8300000Y12433333D01*
X8266666Y12528571D01*
X8233333Y12576190D01*
X8166666Y12623809D01*
X8033333Y12671428D01*
X7966666Y12719047D01*
X7933333Y12766666D01*
X7900000Y12861904D01*
X7900000Y12957142D01*
X7933333Y13052380D01*
X7966666Y13100000D01*
X8033333Y13147619D01*
X8200000Y13147619D01*
X8300000Y13100000D01*
X-6550000Y17795238D02*
X-6450000Y17747619D01*
X-6283333Y17747619D01*
X-6216666Y17795238D01*
X-6183333Y17842857D01*
X-6150000Y17938095D01*
X-6150000Y18033333D01*
X-6183333Y18128571D01*
X-6216666Y18176190D01*
X-6283333Y18223809D01*
X-6416666Y18271428D01*
X-6483333Y18319047D01*
X-6516666Y18366666D01*
X-6550000Y18461904D01*
X-6550000Y18557142D01*
X-6516666Y18652380D01*
X-6483333Y18700000D01*
X-6416666Y18747619D01*
X-6250000Y18747619D01*
X-6150000Y18700000D01*
D11*
X-5895238Y33304761D02*
X-5847619Y33419047D01*
X-5847619Y33609523D01*
X-5895238Y33685714D01*
X-5942857Y33723809D01*
X-6038095Y33761904D01*
X-6133333Y33761904D01*
X-6228571Y33723809D01*
X-6276190Y33685714D01*
X-6323809Y33609523D01*
X-6371428Y33457142D01*
X-6419047Y33380952D01*
X-6466666Y33342857D01*
X-6561904Y33304761D01*
X-6657142Y33304761D01*
X-6752380Y33342857D01*
X-6800000Y33380952D01*
X-6847619Y33457142D01*
X-6847619Y33647619D01*
X-6800000Y33761904D01*
X-6371428Y34104761D02*
X-6371428Y34371428D01*
X-5847619Y34485714D02*
X-5847619Y34104761D01*
X-6847619Y34104761D01*
X-6847619Y34485714D01*
X-6847619Y34714285D02*
X-6847619Y35171428D01*
X-5847619Y34942857D02*
X-6847619Y34942857D01*
X14252380Y44664586D02*
X13776190Y44397920D01*
X14252380Y44207443D02*
X13252380Y44207443D01*
X13252380Y44512205D01*
X13300000Y44588396D01*
X13347619Y44626491D01*
X13442857Y44664586D01*
X13585714Y44664586D01*
X13680952Y44626491D01*
X13728571Y44588396D01*
X13776190Y44512205D01*
X13776190Y44207443D01*
X14204761Y44969348D02*
X14252380Y45083634D01*
X14252380Y45274110D01*
X14204761Y45350301D01*
X14157142Y45388396D01*
X14061904Y45426491D01*
X13966666Y45426491D01*
X13871428Y45388396D01*
X13823809Y45350301D01*
X13776190Y45274110D01*
X13728571Y45121729D01*
X13680952Y45045539D01*
X13633333Y45007443D01*
X13538095Y44969348D01*
X13442857Y44969348D01*
X13347619Y45007443D01*
X13300000Y45045539D01*
X13252380Y45121729D01*
X13252380Y45312205D01*
X13300000Y45426491D01*
X13252380Y45655062D02*
X13252380Y46112205D01*
X14252380Y45883634D02*
X13252380Y45883634D01*
D12*
X18950000Y17795238D02*
X19050000Y17747619D01*
X19216666Y17747619D01*
X19283333Y17795238D01*
X19316666Y17842857D01*
X19350000Y17938095D01*
X19350000Y18033333D01*
X19316666Y18128571D01*
X19283333Y18176190D01*
X19216666Y18223809D01*
X19083333Y18271428D01*
X19016666Y18319047D01*
X18983333Y18366666D01*
X18950000Y18461904D01*
X18950000Y18557142D01*
X18983333Y18652380D01*
X19016666Y18700000D01*
X19083333Y18747619D01*
X19250000Y18747619D01*
X19350000Y18700000D01*
X20916666Y18747619D02*
X21150000Y17747619D01*
X21383333Y18747619D01*
X2500000Y17795238D02*
X2600000Y17747619D01*
X2766666Y17747619D01*
X2833333Y17795238D01*
X2866666Y17842857D01*
X2900000Y17938095D01*
X2900000Y18033333D01*
X2866666Y18128571D01*
X2833333Y18176190D01*
X2766666Y18223809D01*
X2633333Y18271428D01*
X2566666Y18319047D01*
X2533333Y18366666D01*
X2500000Y18461904D01*
X2500000Y18557142D01*
X2533333Y18652380D01*
X2566666Y18700000D01*
X2633333Y18747619D01*
X2800000Y18747619D01*
X2900000Y18700000D01*
D11*
X16500000Y28709523D02*
X16452380Y28633333D01*
X16452380Y28519047D01*
X16500000Y28404761D01*
X16595238Y28328571D01*
X16690476Y28290476D01*
X16880952Y28252380D01*
X17023809Y28252380D01*
X17214285Y28290476D01*
X17309523Y28328571D01*
X17404761Y28404761D01*
X17452380Y28519047D01*
X17452380Y28595238D01*
X17404761Y28709523D01*
X17357142Y28747619D01*
X17023809Y28747619D01*
X17023809Y28595238D01*
X-6847619Y36190476D02*
X-6847619Y36647619D01*
X-5847619Y36419047D02*
X-6847619Y36419047D01*
X-6847619Y36838095D02*
X-5847619Y37371428D01*
X-6847619Y37371428D02*
X-5847619Y36838095D01*
D13*
X-8431577Y21895238D02*
X-8266101Y21847619D01*
X-7980386Y21847619D01*
X-7860148Y21895238D01*
X-7797053Y21942857D01*
X-7728005Y22038095D01*
X-7716101Y22133333D01*
X-7761339Y22228571D01*
X-7812529Y22276190D01*
X-7920863Y22323809D01*
X-8143482Y22371428D01*
X-8251815Y22419047D01*
X-8303005Y22466666D01*
X-8348244Y22561904D01*
X-8336339Y22657142D01*
X-8267291Y22752380D01*
X-8204196Y22800000D01*
X-8083958Y22847619D01*
X-7798244Y22847619D01*
X-7632767Y22800000D01*
D11*
X-17880952Y43528571D02*
X-17119047Y43528571D01*
X-17500000Y43147619D02*
X-17500000Y43909523D01*
D14*
X15478571Y24338095D02*
X15478571Y25138095D01*
X15597619Y25138095D01*
X15669047Y25100000D01*
X15716666Y25023809D01*
X15740476Y24947619D01*
X15764285Y24795238D01*
X15764285Y24680952D01*
X15740476Y24528571D01*
X15716666Y24452380D01*
X15669047Y24376190D01*
X15597619Y24338095D01*
X15478571Y24338095D01*
X15954761Y24376190D02*
X16026190Y24338095D01*
X16145238Y24338095D01*
X16192857Y24376190D01*
X16216666Y24414285D01*
X16240476Y24490476D01*
X16240476Y24566666D01*
X16216666Y24642857D01*
X16192857Y24680952D01*
X16145238Y24719047D01*
X16050000Y24757142D01*
X16002380Y24795238D01*
X15978571Y24833333D01*
X15954761Y24909523D01*
X15954761Y24985714D01*
X15978571Y25061904D01*
X16002380Y25100000D01*
X16050000Y25138095D01*
X16169047Y25138095D01*
X16240476Y25100000D01*
X16716666Y24338095D02*
X16430952Y24338095D01*
X16573809Y24338095D02*
X16573809Y25138095D01*
X16526190Y25023809D01*
X16478571Y24947619D01*
X16430952Y24909523D01*
X17002380Y24795238D02*
X16954761Y24833333D01*
X16930952Y24871428D01*
X16907142Y24947619D01*
X16907142Y24985714D01*
X16930952Y25061904D01*
X16954761Y25100000D01*
X17002380Y25138095D01*
X17097619Y25138095D01*
X17145238Y25100000D01*
X17169047Y25061904D01*
X17192857Y24985714D01*
X17192857Y24947619D01*
X17169047Y24871428D01*
X17145238Y24833333D01*
X17097619Y24795238D01*
X17002380Y24795238D01*
X16954761Y24757142D01*
X16930952Y24719047D01*
X16907142Y24642857D01*
X16907142Y24490476D01*
X16930952Y24414285D01*
X16954761Y24376190D01*
X17002380Y24338095D01*
X17097619Y24338095D01*
X17145238Y24376190D01*
X17169047Y24414285D01*
X17192857Y24490476D01*
X17192857Y24642857D01*
X17169047Y24719047D01*
X17145238Y24757142D01*
X17097619Y24795238D01*
X17573809Y24757142D02*
X17645238Y24719047D01*
X17669047Y24680952D01*
X17692857Y24604761D01*
X17692857Y24490476D01*
X17669047Y24414285D01*
X17645238Y24376190D01*
X17597619Y24338095D01*
X17407142Y24338095D01*
X17407142Y25138095D01*
X17573809Y25138095D01*
X17621428Y25100000D01*
X17645238Y25061904D01*
X17669047Y24985714D01*
X17669047Y24909523D01*
X17645238Y24833333D01*
X17621428Y24795238D01*
X17573809Y24757142D01*
X17407142Y24757142D01*
X17883333Y25061904D02*
X17907142Y25100000D01*
X17954761Y25138095D01*
X18073809Y25138095D01*
X18121428Y25100000D01*
X18145238Y25061904D01*
X18169047Y24985714D01*
X18169047Y24909523D01*
X18145238Y24795238D01*
X17859523Y24338095D01*
X18169047Y24338095D01*
X18478571Y25138095D02*
X18526190Y25138095D01*
X18573809Y25100000D01*
X18597619Y25061904D01*
X18621428Y24985714D01*
X18645238Y24833333D01*
X18645238Y24642857D01*
X18621428Y24490476D01*
X18597619Y24414285D01*
X18573809Y24376190D01*
X18526190Y24338095D01*
X18478571Y24338095D01*
X18430952Y24376190D01*
X18407142Y24414285D01*
X18383333Y24490476D01*
X18359523Y24642857D01*
X18359523Y24833333D01*
X18383333Y24985714D01*
X18407142Y25061904D01*
X18430952Y25100000D01*
X18478571Y25138095D01*
X-19957142Y41600000D02*
X-20014285Y41628571D01*
X-20100000Y41628571D01*
X-20185714Y41600000D01*
X-20242857Y41542857D01*
X-20271428Y41485714D01*
X-20300000Y41371428D01*
X-20300000Y41285714D01*
X-20271428Y41171428D01*
X-20242857Y41114285D01*
X-20185714Y41057142D01*
X-20100000Y41028571D01*
X-20042857Y41028571D01*
X-19957142Y41057142D01*
X-19928571Y41085714D01*
X-19928571Y41285714D01*
X-20042857Y41285714D01*
X-19671428Y41028571D02*
X-19671428Y41628571D01*
X-19328571Y41028571D01*
X-19328571Y41628571D01*
X-19042857Y41028571D02*
X-19042857Y41628571D01*
X-18900000Y41628571D01*
X-18814285Y41600000D01*
X-18757142Y41542857D01*
X-18728571Y41485714D01*
X-18700000Y41371428D01*
X-18700000Y41285714D01*
X-18728571Y41171428D01*
X-18757142Y41114285D01*
X-18814285Y41057142D01*
X-18900000Y41028571D01*
X-19042857Y41028571D01*
D12*
X900000Y12195238D02*
X1000000Y12147619D01*
X1166666Y12147619D01*
X1233333Y12195238D01*
X1266666Y12242857D01*
X1300000Y12338095D01*
X1300000Y12433333D01*
X1266666Y12528571D01*
X1233333Y12576190D01*
X1166666Y12623809D01*
X1033333Y12671428D01*
X966666Y12719047D01*
X933333Y12766666D01*
X900000Y12861904D01*
X900000Y12957142D01*
X933333Y13052380D01*
X966666Y13100000D01*
X1033333Y13147619D01*
X1200000Y13147619D01*
X1300000Y13100000D01*
D14*
X-19028571Y44414285D02*
X-19628571Y44414285D01*
X-19628571Y44642857D01*
X-19600000Y44700000D01*
X-19571428Y44728571D01*
X-19514285Y44757142D01*
X-19428571Y44757142D01*
X-19371428Y44728571D01*
X-19342857Y44700000D01*
X-19314285Y44642857D01*
X-19314285Y44414285D01*
X-19628571Y45128571D02*
X-19628571Y45242857D01*
X-19600000Y45300000D01*
X-19542857Y45357142D01*
X-19428571Y45385714D01*
X-19228571Y45385714D01*
X-19114285Y45357142D01*
X-19057142Y45300000D01*
X-19028571Y45242857D01*
X-19028571Y45128571D01*
X-19057142Y45071428D01*
X-19114285Y45014285D01*
X-19228571Y44985714D01*
X-19428571Y44985714D01*
X-19542857Y45014285D01*
X-19600000Y45071428D01*
X-19628571Y45128571D01*
X-19628571Y45585714D02*
X-19028571Y45728571D01*
X-19457142Y45842857D01*
X-19028571Y45957142D01*
X-19628571Y46100000D01*
X-19342857Y46328571D02*
X-19342857Y46528571D01*
X-19028571Y46614285D02*
X-19028571Y46328571D01*
X-19628571Y46328571D01*
X-19628571Y46614285D01*
X-19028571Y47214285D02*
X-19314285Y47014285D01*
X-19028571Y46871428D02*
X-19628571Y46871428D01*
X-19628571Y47100000D01*
X-19600000Y47157142D01*
X-19571428Y47185714D01*
X-19514285Y47214285D01*
X-19428571Y47214285D01*
X-19371428Y47185714D01*
X-19342857Y47157142D01*
X-19314285Y47100000D01*
X-19314285Y46871428D01*
D12*
X2866666Y13147619D02*
X3100000Y12147619D01*
X3333333Y13147619D01*
D11*
X19352380Y28233333D02*
X20352380Y28500000D01*
X19352380Y28766666D01*
X16752380Y43845539D02*
X15752380Y43845539D01*
X16466666Y44112205D01*
X15752380Y44378872D01*
X16752380Y44378872D01*
X15752380Y44912205D02*
X15752380Y45064586D01*
X15800000Y45140777D01*
X15895238Y45216967D01*
X16085714Y45255062D01*
X16419047Y45255062D01*
X16609523Y45216967D01*
X16704761Y45140777D01*
X16752380Y45064586D01*
X16752380Y44912205D01*
X16704761Y44836015D01*
X16609523Y44759824D01*
X16419047Y44721729D01*
X16085714Y44721729D01*
X15895238Y44759824D01*
X15800000Y44836015D01*
X15752380Y44912205D01*
X16704761Y45559824D02*
X16752380Y45674110D01*
X16752380Y45864586D01*
X16704761Y45940777D01*
X16657142Y45978872D01*
X16561904Y46016967D01*
X16466666Y46016967D01*
X16371428Y45978872D01*
X16323809Y45940777D01*
X16276190Y45864586D01*
X16228571Y45712205D01*
X16180952Y45636015D01*
X16133333Y45597920D01*
X16038095Y45559824D01*
X15942857Y45559824D01*
X15847619Y45597920D01*
X15800000Y45636015D01*
X15752380Y45712205D01*
X15752380Y45902682D01*
X15800000Y46016967D01*
X16752380Y46359824D02*
X15752380Y46359824D01*
D14*
X12661904Y36545238D02*
X12661904Y36854761D01*
X12966666Y36688095D01*
X12966666Y36759523D01*
X13004761Y36807142D01*
X13042857Y36830952D01*
X13119047Y36854761D01*
X13309523Y36854761D01*
X13385714Y36830952D01*
X13423809Y36807142D01*
X13461904Y36759523D01*
X13461904Y36616666D01*
X13423809Y36569047D01*
X13385714Y36545238D01*
X12738095Y37045238D02*
X12700000Y37069047D01*
X12661904Y37116666D01*
X12661904Y37235714D01*
X12700000Y37283333D01*
X12738095Y37307142D01*
X12814285Y37330952D01*
X12890476Y37330952D01*
X13004761Y37307142D01*
X13461904Y37021428D01*
X13461904Y37330952D01*
X13385714Y37545238D02*
X13423809Y37569047D01*
X13461904Y37545238D01*
X13423809Y37521428D01*
X13385714Y37545238D01*
X13461904Y37545238D01*
X12661904Y37735714D02*
X12661904Y38069047D01*
X13461904Y37854761D01*
X12661904Y38473809D02*
X12661904Y38378571D01*
X12700000Y38330952D01*
X12738095Y38307142D01*
X12852380Y38259523D01*
X13004761Y38235714D01*
X13309523Y38235714D01*
X13385714Y38259523D01*
X13423809Y38283333D01*
X13461904Y38330952D01*
X13461904Y38426190D01*
X13423809Y38473809D01*
X13385714Y38497619D01*
X13309523Y38521428D01*
X13119047Y38521428D01*
X13042857Y38497619D01*
X13004761Y38473809D01*
X12966666Y38426190D01*
X12966666Y38330952D01*
X13004761Y38283333D01*
X13042857Y38259523D01*
X13119047Y38235714D01*
X13004761Y38807142D02*
X12966666Y38759523D01*
X12928571Y38735714D01*
X12852380Y38711904D01*
X12814285Y38711904D01*
X12738095Y38735714D01*
X12700000Y38759523D01*
X12661904Y38807142D01*
X12661904Y38902380D01*
X12700000Y38950000D01*
X12738095Y38973809D01*
X12814285Y38997619D01*
X12852380Y38997619D01*
X12928571Y38973809D01*
X12966666Y38950000D01*
X13004761Y38902380D01*
X13004761Y38807142D01*
X13042857Y38759523D01*
X13080952Y38735714D01*
X13157142Y38711904D01*
X13309523Y38711904D01*
X13385714Y38735714D01*
X13423809Y38759523D01*
X13461904Y38807142D01*
X13461904Y38902380D01*
X13423809Y38950000D01*
X13385714Y38973809D01*
X13309523Y38997619D01*
X13157142Y38997619D01*
X13080952Y38973809D01*
X13042857Y38950000D01*
X13004761Y38902380D01*
X13461904Y39211904D02*
X12661904Y39211904D01*
X13157142Y39259523D02*
X13461904Y39402380D01*
X12928571Y39402380D02*
X13233333Y39211904D01*
X13461904Y39616666D02*
X12661904Y39616666D01*
X13042857Y39616666D02*
X13042857Y39902380D01*
X13461904Y39902380D02*
X12661904Y39902380D01*
X12928571Y40092857D02*
X12928571Y40354761D01*
X13461904Y40092857D01*
X13461904Y40354761D01*
D12*
X11000000Y48516666D02*
X11257142Y48483333D01*
X11685714Y48483333D01*
X11857142Y48516666D01*
X11942857Y48550000D01*
X12028571Y48616666D01*
X12028571Y48683333D01*
X11942857Y48750000D01*
X11857142Y48783333D01*
X11685714Y48816666D01*
X11342857Y48850000D01*
X11171428Y48883333D01*
X11085714Y48916666D01*
X11000000Y48983333D01*
X11000000Y49050000D01*
X11085714Y49116666D01*
X11171428Y49150000D01*
X11342857Y49183333D01*
X11771428Y49183333D01*
X12028571Y49150000D01*
X12800000Y48483333D02*
X12800000Y49183333D01*
X13485714Y49183333D01*
X13657142Y49150000D01*
X13742857Y49116666D01*
X13828571Y49050000D01*
X13828571Y48950000D01*
X13742857Y48883333D01*
X13657142Y48850000D01*
X13485714Y48816666D01*
X12800000Y48816666D01*
X14600000Y48483333D02*
X14600000Y49183333D01*
X17428571Y48850000D02*
X16828571Y48850000D01*
X16828571Y48483333D02*
X16828571Y49183333D01*
X17685714Y49183333D01*
X19228571Y48483333D02*
X18371428Y48483333D01*
X18371428Y49183333D01*
X19742857Y48683333D02*
X20600000Y48683333D01*
X19571428Y48483333D02*
X20171428Y49183333D01*
X20771428Y48483333D01*
X21285714Y48516666D02*
X21542857Y48483333D01*
X21971428Y48483333D01*
X22142857Y48516666D01*
X22228571Y48550000D01*
X22314285Y48616666D01*
X22314285Y48683333D01*
X22228571Y48750000D01*
X22142857Y48783333D01*
X21971428Y48816666D01*
X21628571Y48850000D01*
X21457142Y48883333D01*
X21371428Y48916666D01*
X21285714Y48983333D01*
X21285714Y49050000D01*
X21371428Y49116666D01*
X21457142Y49150000D01*
X21628571Y49183333D01*
X22057142Y49183333D01*
X22314285Y49150000D01*
X23085714Y48483333D02*
X23085714Y49183333D01*
X23085714Y48850000D02*
X24114285Y48850000D01*
X24114285Y48483333D02*
X24114285Y49183333D01*
D14*
X9285714Y9328571D02*
X9285714Y9928571D01*
X9285714Y9642857D02*
X9628571Y9642857D01*
X9628571Y9328571D02*
X9628571Y9928571D01*
X9885714Y9500000D02*
X10171428Y9500000D01*
X9828571Y9328571D02*
X10028571Y9928571D01*
X10228571Y9328571D01*
X10714285Y9328571D02*
X10428571Y9328571D01*
X10428571Y9928571D01*
X11200000Y9328571D02*
X10914285Y9328571D01*
X10914285Y9928571D01*
D11*
X19204761Y44074110D02*
X19252380Y44188396D01*
X19252380Y44378872D01*
X19204761Y44455062D01*
X19157142Y44493158D01*
X19061904Y44531253D01*
X18966666Y44531253D01*
X18871428Y44493158D01*
X18823809Y44455062D01*
X18776190Y44378872D01*
X18728571Y44226491D01*
X18680952Y44150301D01*
X18633333Y44112205D01*
X18538095Y44074110D01*
X18442857Y44074110D01*
X18347619Y44112205D01*
X18300000Y44150301D01*
X18252380Y44226491D01*
X18252380Y44416967D01*
X18300000Y44531253D01*
X19157142Y45331253D02*
X19204761Y45293158D01*
X19252380Y45178872D01*
X19252380Y45102682D01*
X19204761Y44988396D01*
X19109523Y44912205D01*
X19014285Y44874110D01*
X18823809Y44836015D01*
X18680952Y44836015D01*
X18490476Y44874110D01*
X18395238Y44912205D01*
X18300000Y44988396D01*
X18252380Y45102682D01*
X18252380Y45178872D01*
X18300000Y45293158D01*
X18347619Y45331253D01*
X19252380Y45674110D02*
X18252380Y45674110D01*
X19252380Y46131253D02*
X18680952Y45788396D01*
X18252380Y46131253D02*
X18823809Y45674110D01*
D12*
X-13100000Y35783333D02*
X-13033333Y35883333D01*
X-12966666Y35916666D01*
X-12833333Y35950000D01*
X-12633333Y35950000D01*
X-12500000Y35916666D01*
X-12433333Y35883333D01*
X-12366666Y35816666D01*
X-12366666Y35550000D01*
X-13766666Y35550000D01*
X-13766666Y35783333D01*
X-13700000Y35850000D01*
X-13633333Y35883333D01*
X-13500000Y35916666D01*
X-13366666Y35916666D01*
X-13233333Y35883333D01*
X-13166666Y35850000D01*
X-13100000Y35783333D01*
X-13100000Y35550000D01*
X-13766666Y36250000D02*
X-12633333Y36250000D01*
X-12500000Y36283333D01*
X-12433333Y36316666D01*
X-12366666Y36383333D01*
X-12366666Y36516666D01*
X-12433333Y36583333D01*
X-12500000Y36616666D01*
X-12633333Y36650000D01*
X-13766666Y36650000D01*
X-13766666Y36883333D02*
X-13766666Y37283333D01*
X-12366666Y37083333D02*
X-13766666Y37083333D01*
X-13633333Y37483333D02*
X-13700000Y37516666D01*
X-13766666Y37583333D01*
X-13766666Y37750000D01*
X-13700000Y37816666D01*
X-13633333Y37850000D01*
X-13500000Y37883333D01*
X-13366666Y37883333D01*
X-13166666Y37850000D01*
X-12366666Y37450000D01*
X-12366666Y37883333D01*
X10233333Y13100000D02*
X10166666Y13147619D01*
X10066666Y13147619D01*
X9966666Y13100000D01*
X9900000Y13004761D01*
X9866666Y12909523D01*
X9833333Y12719047D01*
X9833333Y12576190D01*
X9866666Y12385714D01*
X9900000Y12290476D01*
X9966666Y12195238D01*
X10066666Y12147619D01*
X10133333Y12147619D01*
X10233333Y12195238D01*
X10266666Y12242857D01*
X10266666Y12576190D01*
X10133333Y12576190D01*
X-766666Y13100000D02*
X-833333Y13147619D01*
X-933333Y13147619D01*
X-1033333Y13100000D01*
X-1100000Y13004761D01*
X-1133333Y12909523D01*
X-1166666Y12719047D01*
X-1166666Y12576190D01*
X-1133333Y12385714D01*
X-1100000Y12290476D01*
X-1033333Y12195238D01*
X-933333Y12147619D01*
X-866666Y12147619D01*
X-766666Y12195238D01*
X-733333Y12242857D01*
X-733333Y12576190D01*
X-866666Y12576190D01*
D14*
X-19866666Y48928571D02*
X-19700000Y48328571D01*
X-19533333Y48928571D01*
X-19080952Y48385714D02*
X-19104761Y48357142D01*
X-19176190Y48328571D01*
X-19223809Y48328571D01*
X-19295238Y48357142D01*
X-19342857Y48414285D01*
X-19366666Y48471428D01*
X-19390476Y48585714D01*
X-19390476Y48671428D01*
X-19366666Y48785714D01*
X-19342857Y48842857D01*
X-19295238Y48900000D01*
X-19223809Y48928571D01*
X-19176190Y48928571D01*
X-19104761Y48900000D01*
X-19080952Y48871428D01*
X-18580952Y48385714D02*
X-18604761Y48357142D01*
X-18676190Y48328571D01*
X-18723809Y48328571D01*
X-18795238Y48357142D01*
X-18842857Y48414285D01*
X-18866666Y48471428D01*
X-18890476Y48585714D01*
X-18890476Y48671428D01*
X-18866666Y48785714D01*
X-18842857Y48842857D01*
X-18795238Y48900000D01*
X-18723809Y48928571D01*
X-18676190Y48928571D01*
X-18604761Y48900000D01*
X-18580952Y48871428D01*
D11*
X-30400000Y18390476D02*
X-30457142Y18314285D01*
X-30457142Y18200000D01*
X-30400000Y18085714D01*
X-30285714Y18009523D01*
X-30171428Y17971428D01*
X-29942857Y17933333D01*
X-29771428Y17933333D01*
X-29542857Y17971428D01*
X-29428571Y18009523D01*
X-29314285Y18085714D01*
X-29257142Y18200000D01*
X-29257142Y18276190D01*
X-29314285Y18390476D01*
X-29371428Y18428571D01*
X-29771428Y18428571D01*
X-29771428Y18276190D01*
X-29257142Y18771428D02*
X-30457142Y18771428D01*
X-29257142Y19228571D01*
X-30457142Y19228571D01*
X-29257142Y19609523D02*
X-30457142Y19609523D01*
X-30457142Y19800000D01*
X-30400000Y19914285D01*
X-30285714Y19990476D01*
X-30171428Y20028571D01*
X-29942857Y20066666D01*
X-29771428Y20066666D01*
X-29542857Y20028571D01*
X-29428571Y19990476D01*
X-29314285Y19914285D01*
X-29257142Y19800000D01*
X-29257142Y19609523D01*
X-5847619Y39166666D02*
X-6323809Y38900000D01*
X-5847619Y38709523D02*
X-6847619Y38709523D01*
X-6847619Y39014285D01*
X-6800000Y39090476D01*
X-6752380Y39128571D01*
X-6657142Y39166666D01*
X-6514285Y39166666D01*
X-6419047Y39128571D01*
X-6371428Y39090476D01*
X-6323809Y39014285D01*
X-6323809Y38709523D01*
X-6847619Y39433333D02*
X-5847619Y39966666D01*
X-6847619Y39966666D02*
X-5847619Y39433333D01*
D12*
X17283333Y18700000D02*
X17216666Y18747619D01*
X17116666Y18747619D01*
X17016666Y18700000D01*
X16950000Y18604761D01*
X16916666Y18509523D01*
X16883333Y18319047D01*
X16883333Y18176190D01*
X16916666Y17985714D01*
X16950000Y17890476D01*
X17016666Y17795238D01*
X17116666Y17747619D01*
X17183333Y17747619D01*
X17283333Y17795238D01*
X17316666Y17842857D01*
X17316666Y18176190D01*
X17183333Y18176190D01*
D15*
X-6766666Y48152380D02*
X-6766666Y47961904D01*
X-8166666Y47961904D01*
X-7500000Y48285714D02*
X-7500000Y48419047D01*
X-6766666Y48476190D02*
X-6766666Y48285714D01*
X-8166666Y48285714D01*
X-8166666Y48476190D01*
X-6766666Y48647619D02*
X-8166666Y48647619D01*
X-8166666Y48742857D01*
X-8100000Y48800000D01*
X-7966666Y48838095D01*
X-7833333Y48857142D01*
X-7566666Y48876190D01*
X-7366666Y48876190D01*
X-7100000Y48857142D01*
X-6966666Y48838095D01*
X-6833333Y48800000D01*
X-6766666Y48742857D01*
X-6766666Y48647619D01*
X-6766666Y49257142D02*
X-6766666Y49028571D01*
X-6766666Y49142857D02*
X-8166666Y49142857D01*
X-7966666Y49104761D01*
X-7833333Y49066666D01*
X-7766666Y49028571D01*
D11*
X-23395238Y13438095D02*
X-23852380Y13438095D01*
X-23623809Y13438095D02*
X-23623809Y14238095D01*
X-23700000Y14123809D01*
X-23776190Y14047619D01*
X-23852380Y14009523D01*
X-23090476Y14161904D02*
X-23052380Y14200000D01*
X-22976190Y14238095D01*
X-22785714Y14238095D01*
X-22709523Y14200000D01*
X-22671428Y14161904D01*
X-22633333Y14085714D01*
X-22633333Y14009523D01*
X-22671428Y13895238D01*
X-23128571Y13438095D01*
X-22633333Y13438095D01*
X-22404761Y14238095D02*
X-22138095Y13438095D01*
X-21871428Y14238095D01*
X24352380Y43845539D02*
X23352380Y43845539D01*
X24066666Y44112205D01*
X23352380Y44378872D01*
X24352380Y44378872D01*
X24352380Y44759824D02*
X23352380Y44759824D01*
X24304761Y45102682D02*
X24352380Y45216967D01*
X24352380Y45407443D01*
X24304761Y45483634D01*
X24257142Y45521729D01*
X24161904Y45559824D01*
X24066666Y45559824D01*
X23971428Y45521729D01*
X23923809Y45483634D01*
X23876190Y45407443D01*
X23828571Y45255062D01*
X23780952Y45178872D01*
X23733333Y45140777D01*
X23638095Y45102682D01*
X23542857Y45102682D01*
X23447619Y45140777D01*
X23400000Y45178872D01*
X23352380Y45255062D01*
X23352380Y45445539D01*
X23400000Y45559824D01*
X23352380Y46055062D02*
X23352380Y46207443D01*
X23400000Y46283634D01*
X23495238Y46359824D01*
X23685714Y46397920D01*
X24019047Y46397920D01*
X24209523Y46359824D01*
X24304761Y46283634D01*
X24352380Y46207443D01*
X24352380Y46055062D01*
X24304761Y45978872D01*
X24209523Y45902682D01*
X24019047Y45864586D01*
X23685714Y45864586D01*
X23495238Y45902682D01*
X23400000Y45978872D01*
X23352380Y46055062D01*
X-12742857Y13857142D02*
X-12628571Y13819047D01*
X-12590476Y13780952D01*
X-12552380Y13704761D01*
X-12552380Y13590476D01*
X-12590476Y13514285D01*
X-12628571Y13476190D01*
X-12704761Y13438095D01*
X-13009523Y13438095D01*
X-13009523Y14238095D01*
X-12742857Y14238095D01*
X-12666666Y14200000D01*
X-12628571Y14161904D01*
X-12590476Y14085714D01*
X-12590476Y14009523D01*
X-12628571Y13933333D01*
X-12666666Y13895238D01*
X-12742857Y13857142D01*
X-13009523Y13857142D01*
D14*
X-29828571Y26835714D02*
X-29228571Y27035714D01*
X-29828571Y27235714D01*
X-29228571Y27435714D02*
X-29828571Y27435714D01*
X-29228571Y27721428D02*
X-29828571Y27721428D01*
X-29228571Y28064285D01*
X-29828571Y28064285D01*
X-29171428Y28207142D02*
X-29171428Y28664285D01*
X-29542857Y29007142D02*
X-29542857Y28807142D01*
X-29228571Y28807142D02*
X-29828571Y28807142D01*
X-29828571Y29092857D01*
X-29828571Y29321428D02*
X-29342857Y29321428D01*
X-29285714Y29350000D01*
X-29257142Y29378571D01*
X-29228571Y29435714D01*
X-29228571Y29550000D01*
X-29257142Y29607142D01*
X-29285714Y29635714D01*
X-29342857Y29664285D01*
X-29828571Y29664285D01*
X-29257142Y29921428D02*
X-29228571Y30007142D01*
X-29228571Y30150000D01*
X-29257142Y30207142D01*
X-29285714Y30235714D01*
X-29342857Y30264285D01*
X-29400000Y30264285D01*
X-29457142Y30235714D01*
X-29485714Y30207142D01*
X-29514285Y30150000D01*
X-29542857Y30035714D01*
X-29571428Y29978571D01*
X-29600000Y29950000D01*
X-29657142Y29921428D01*
X-29714285Y29921428D01*
X-29771428Y29950000D01*
X-29800000Y29978571D01*
X-29828571Y30035714D01*
X-29828571Y30178571D01*
X-29800000Y30264285D01*
X-29542857Y30521428D02*
X-29542857Y30721428D01*
X-29228571Y30807142D02*
X-29228571Y30521428D01*
X-29828571Y30521428D01*
X-29828571Y30807142D01*
X-29228571Y31064285D02*
X-29828571Y31064285D01*
X-29828571Y31207142D01*
X-29800000Y31292857D01*
X-29742857Y31350000D01*
X-29685714Y31378571D01*
X-29571428Y31407142D01*
X-29485714Y31407142D01*
X-29371428Y31378571D01*
X-29314285Y31350000D01*
X-29257142Y31292857D01*
X-29228571Y31207142D01*
X-29228571Y31064285D01*
D12*
X18900000Y12195238D02*
X19000000Y12147619D01*
X19166666Y12147619D01*
X19233333Y12195238D01*
X19266666Y12242857D01*
X19300000Y12338095D01*
X19300000Y12433333D01*
X19266666Y12528571D01*
X19233333Y12576190D01*
X19166666Y12623809D01*
X19033333Y12671428D01*
X18966666Y12719047D01*
X18933333Y12766666D01*
X18900000Y12861904D01*
X18900000Y12957142D01*
X18933333Y13052380D01*
X18966666Y13100000D01*
X19033333Y13147619D01*
X19200000Y13147619D01*
X19300000Y13100000D01*
D14*
X11235714Y8061571D02*
X11235714Y8661571D01*
X11235714Y8375857D02*
X11578571Y8375857D01*
X11578571Y8061571D02*
X11578571Y8661571D01*
X11835714Y8233000D02*
X12121428Y8233000D01*
X11778571Y8061571D02*
X11978571Y8661571D01*
X12178571Y8061571D01*
X12664285Y8061571D02*
X12378571Y8061571D01*
X12378571Y8661571D01*
X13150000Y8061571D02*
X12864285Y8061571D01*
X12864285Y8661571D01*
X10492857Y7124142D02*
X10578571Y7095571D01*
X10721428Y7095571D01*
X10778571Y7124142D01*
X10807142Y7152714D01*
X10835714Y7209857D01*
X10835714Y7267000D01*
X10807142Y7324142D01*
X10778571Y7352714D01*
X10721428Y7381285D01*
X10607142Y7409857D01*
X10550000Y7438428D01*
X10521428Y7467000D01*
X10492857Y7524142D01*
X10492857Y7581285D01*
X10521428Y7638428D01*
X10550000Y7667000D01*
X10607142Y7695571D01*
X10750000Y7695571D01*
X10835714Y7667000D01*
X11092857Y7409857D02*
X11292857Y7409857D01*
X11378571Y7095571D02*
X11092857Y7095571D01*
X11092857Y7695571D01*
X11378571Y7695571D01*
X11635714Y7095571D02*
X11635714Y7695571D01*
X11978571Y7095571D01*
X11978571Y7695571D01*
X12235714Y7124142D02*
X12321428Y7095571D01*
X12464285Y7095571D01*
X12521428Y7124142D01*
X12550000Y7152714D01*
X12578571Y7209857D01*
X12578571Y7267000D01*
X12550000Y7324142D01*
X12521428Y7352714D01*
X12464285Y7381285D01*
X12350000Y7409857D01*
X12292857Y7438428D01*
X12264285Y7467000D01*
X12235714Y7524142D01*
X12235714Y7581285D01*
X12264285Y7638428D01*
X12292857Y7667000D01*
X12350000Y7695571D01*
X12492857Y7695571D01*
X12578571Y7667000D01*
X12950000Y7695571D02*
X13064285Y7695571D01*
X13121428Y7667000D01*
X13178571Y7609857D01*
X13207142Y7495571D01*
X13207142Y7295571D01*
X13178571Y7181285D01*
X13121428Y7124142D01*
X13064285Y7095571D01*
X12950000Y7095571D01*
X12892857Y7124142D01*
X12835714Y7181285D01*
X12807142Y7295571D01*
X12807142Y7495571D01*
X12835714Y7609857D01*
X12892857Y7667000D01*
X12950000Y7695571D01*
X13807142Y7095571D02*
X13607142Y7381285D01*
X13464285Y7095571D02*
X13464285Y7695571D01*
X13692857Y7695571D01*
X13750000Y7667000D01*
X13778571Y7638428D01*
X13807142Y7581285D01*
X13807142Y7495571D01*
X13778571Y7438428D01*
X13750000Y7409857D01*
X13692857Y7381285D01*
X13464285Y7381285D01*
D11*
X-15490476Y13666666D02*
X-15109523Y13666666D01*
X-15566666Y13438095D02*
X-15300000Y14238095D01*
X-15033333Y13438095D01*
D13*
X-9611339Y22800180D02*
X-9719672Y22847799D01*
X-9891101Y22847799D01*
X-10068482Y22800180D01*
X-10194672Y22704941D01*
X-10263720Y22609703D01*
X-10344672Y22419227D01*
X-10362529Y22276370D01*
X-10329196Y22085894D01*
X-10283958Y21990656D01*
X-10181577Y21895418D01*
X-10016101Y21847799D01*
X-9901815Y21847799D01*
X-9724434Y21895418D01*
X-9661339Y21943037D01*
X-9619672Y22276370D01*
X-9848244Y22276370D01*
D11*
X-6800000Y41190476D02*
X-6847619Y41114285D01*
X-6847619Y41000000D01*
X-6800000Y40885714D01*
X-6704761Y40809523D01*
X-6609523Y40771428D01*
X-6419047Y40733333D01*
X-6276190Y40733333D01*
X-6085714Y40771428D01*
X-5990476Y40809523D01*
X-5895238Y40885714D01*
X-5847619Y41000000D01*
X-5847619Y41076190D01*
X-5895238Y41190476D01*
X-5942857Y41228571D01*
X-6276190Y41228571D01*
X-6276190Y41076190D01*
X-5847619Y41571428D02*
X-6847619Y41571428D01*
X-5847619Y42028571D01*
X-6847619Y42028571D01*
X-5847619Y42409523D02*
X-6847619Y42409523D01*
X-6847619Y42600000D01*
X-6800000Y42714285D01*
X-6704761Y42790476D01*
X-6609523Y42828571D01*
X-6419047Y42866666D01*
X-6276190Y42866666D01*
X-6085714Y42828571D01*
X-5990476Y42790476D01*
X-5895238Y42714285D01*
X-5847619Y42600000D01*
X-5847619Y42409523D01*
X-6853748Y43433333D02*
X-5853748Y43700000D01*
X-6853748Y43966666D01*
X-5948986Y44690476D02*
X-5901367Y44652380D01*
X-5853748Y44538095D01*
X-5853748Y44461904D01*
X-5901367Y44347619D01*
X-5996605Y44271428D01*
X-6091843Y44233333D01*
X-6282319Y44195238D01*
X-6425176Y44195238D01*
X-6615652Y44233333D01*
X-6710890Y44271428D01*
X-6806129Y44347619D01*
X-6853748Y44461904D01*
X-6853748Y44538095D01*
X-6806129Y44652380D01*
X-6758509Y44690476D01*
X-5948986Y45490476D02*
X-5901367Y45452380D01*
X-5853748Y45338095D01*
X-5853748Y45261904D01*
X-5901367Y45147619D01*
X-5996605Y45071428D01*
X-6091843Y45033333D01*
X-6282319Y44995238D01*
X-6425176Y44995238D01*
X-6615652Y45033333D01*
X-6710890Y45071428D01*
X-6806129Y45147619D01*
X-6853748Y45261904D01*
X-6853748Y45338095D01*
X-6806129Y45452380D01*
X-6758509Y45490476D01*
D15*
X-11366666Y48152380D02*
X-11366666Y47961904D01*
X-12766666Y47961904D01*
X-12100000Y48285714D02*
X-12100000Y48419047D01*
X-11366666Y48476190D02*
X-11366666Y48285714D01*
X-12766666Y48285714D01*
X-12766666Y48476190D01*
X-11366666Y48647619D02*
X-12766666Y48647619D01*
X-12766666Y48742857D01*
X-12700000Y48800000D01*
X-12566666Y48838095D01*
X-12433333Y48857142D01*
X-12166666Y48876190D01*
X-11966666Y48876190D01*
X-11700000Y48857142D01*
X-11566666Y48838095D01*
X-11433333Y48800000D01*
X-11366666Y48742857D01*
X-11366666Y48647619D01*
X-12766666Y49009523D02*
X-12766666Y49257142D01*
X-12233333Y49123809D01*
X-12233333Y49180952D01*
X-12166666Y49219047D01*
X-12100000Y49238095D01*
X-11966666Y49257142D01*
X-11633333Y49257142D01*
X-11500000Y49238095D01*
X-11433333Y49219047D01*
X-11366666Y49180952D01*
X-11366666Y49066666D01*
X-11433333Y49028571D01*
X-11500000Y49009523D01*
D12*
X-8216666Y18700000D02*
X-8283333Y18747619D01*
X-8383333Y18747619D01*
X-8483333Y18700000D01*
X-8550000Y18604761D01*
X-8583333Y18509523D01*
X-8616666Y18319047D01*
X-8616666Y18176190D01*
X-8583333Y17985714D01*
X-8550000Y17890476D01*
X-8483333Y17795238D01*
X-8383333Y17747619D01*
X-8316666Y17747619D01*
X-8216666Y17795238D01*
X-8183333Y17842857D01*
X-8183333Y18176190D01*
X-8316666Y18176190D01*
D15*
X-9066666Y48152380D02*
X-9066666Y47961904D01*
X-10466666Y47961904D01*
X-9800000Y48285714D02*
X-9800000Y48419047D01*
X-9066666Y48476190D02*
X-9066666Y48285714D01*
X-10466666Y48285714D01*
X-10466666Y48476190D01*
X-9066666Y48647619D02*
X-10466666Y48647619D01*
X-10466666Y48742857D01*
X-10400000Y48800000D01*
X-10266666Y48838095D01*
X-10133333Y48857142D01*
X-9866666Y48876190D01*
X-9666666Y48876190D01*
X-9400000Y48857142D01*
X-9266666Y48838095D01*
X-9133333Y48800000D01*
X-9066666Y48742857D01*
X-9066666Y48647619D01*
X-10000000Y49219047D02*
X-9066666Y49219047D01*
X-10533333Y49123809D02*
X-9533333Y49028571D01*
X-9533333Y49276190D01*
D12*
X-4583333Y18747619D02*
X-4350000Y17747619D01*
X-4116666Y18747619D01*
D15*
X-13466666Y48152380D02*
X-13466666Y47961904D01*
X-14866666Y47961904D01*
X-14200000Y48285714D02*
X-14200000Y48419047D01*
X-13466666Y48476190D02*
X-13466666Y48285714D01*
X-14866666Y48285714D01*
X-14866666Y48476190D01*
X-13466666Y48647619D02*
X-14866666Y48647619D01*
X-14866666Y48742857D01*
X-14800000Y48800000D01*
X-14666666Y48838095D01*
X-14533333Y48857142D01*
X-14266666Y48876190D01*
X-14066666Y48876190D01*
X-13800000Y48857142D01*
X-13666666Y48838095D01*
X-13533333Y48800000D01*
X-13466666Y48742857D01*
X-13466666Y48647619D01*
X-14733333Y49028571D02*
X-14800000Y49047619D01*
X-14866666Y49085714D01*
X-14866666Y49180952D01*
X-14800000Y49219047D01*
X-14733333Y49238095D01*
X-14600000Y49257142D01*
X-14466666Y49257142D01*
X-14266666Y49238095D01*
X-13466666Y49009523D01*
X-13466666Y49257142D01*
D12*
X833333Y18700000D02*
X766666Y18747619D01*
X666666Y18747619D01*
X566666Y18700000D01*
X500000Y18604761D01*
X466666Y18509523D01*
X433333Y18319047D01*
X433333Y18176190D01*
X466666Y17985714D01*
X500000Y17890476D01*
X566666Y17795238D01*
X666666Y17747619D01*
X733333Y17747619D01*
X833333Y17795238D01*
X866666Y17842857D01*
X866666Y18176190D01*
X733333Y18176190D01*
X4466666Y18747619D02*
X4700000Y17747619D01*
X4933333Y18747619D01*
D11*
X-19883601Y37328571D02*
X-19121696Y37328571D01*
D14*
X19271428Y24628571D02*
X19271428Y25228571D01*
X19557142Y24628571D02*
X19557142Y25228571D01*
X19900000Y24628571D01*
X19900000Y25228571D01*
X20100000Y25228571D02*
X20442857Y25228571D01*
X20271428Y24628571D02*
X20271428Y25228571D01*
X20614285Y25171428D02*
X20642857Y25200000D01*
X20700000Y25228571D01*
X20842857Y25228571D01*
X20900000Y25200000D01*
X20928571Y25171428D01*
X20957142Y25114285D01*
X20957142Y25057142D01*
X20928571Y24971428D01*
X20585714Y24628571D01*
X20957142Y24628571D01*
D11*
X-17880952Y37323657D02*
X-17119047Y37323657D01*
X-17500000Y36942705D02*
X-17500000Y37704609D01*
X-15490476Y13666666D02*
X-15109523Y13666666D01*
X-15566666Y13438095D02*
X-15300000Y14238095D01*
X-15033333Y13438095D01*
X10700000Y44490476D02*
X10652380Y44414285D01*
X10652380Y44300000D01*
X10700000Y44185714D01*
X10795238Y44109523D01*
X10890476Y44071428D01*
X11080952Y44033333D01*
X11223809Y44033333D01*
X11414285Y44071428D01*
X11509523Y44109523D01*
X11604761Y44185714D01*
X11652380Y44300000D01*
X11652380Y44376190D01*
X11604761Y44490476D01*
X11557142Y44528571D01*
X11223809Y44528571D01*
X11223809Y44376190D01*
X11652380Y44871428D02*
X10652380Y44871428D01*
X11652380Y45328571D01*
X10652380Y45328571D01*
X11652380Y45709523D02*
X10652380Y45709523D01*
X10652380Y45900000D01*
X10700000Y46014285D01*
X10795238Y46090476D01*
X10890476Y46128571D01*
X11080952Y46166666D01*
X11223809Y46166666D01*
X11414285Y46128571D01*
X11509523Y46090476D01*
X11604761Y46014285D01*
X11652380Y45900000D01*
X11652380Y45709523D01*
D14*
X-2873809Y31916666D02*
X-2635714Y31916666D01*
X-2921428Y31688095D02*
X-2754761Y32488095D01*
X-2588095Y31688095D01*
X-2492857Y32488095D02*
X-2207142Y32488095D01*
X-2350000Y31688095D02*
X-2350000Y32488095D01*
X-2040476Y31688095D02*
X-2040476Y32221428D01*
X-2040476Y32145238D02*
X-2016666Y32183333D01*
X-1969047Y32221428D01*
X-1897619Y32221428D01*
X-1850000Y32183333D01*
X-1826190Y32107142D01*
X-1826190Y31688095D01*
X-1826190Y32107142D02*
X-1802380Y32183333D01*
X-1754761Y32221428D01*
X-1683333Y32221428D01*
X-1635714Y32183333D01*
X-1611904Y32107142D01*
X-1611904Y31688095D01*
X-1183333Y31726190D02*
X-1230952Y31688095D01*
X-1326190Y31688095D01*
X-1373809Y31726190D01*
X-1397619Y31802380D01*
X-1397619Y32107142D01*
X-1373809Y32183333D01*
X-1326190Y32221428D01*
X-1230952Y32221428D01*
X-1183333Y32183333D01*
X-1159523Y32107142D01*
X-1159523Y32030952D01*
X-1397619Y31954761D01*
X-730952Y32221428D02*
X-730952Y31573809D01*
X-754761Y31497619D01*
X-778571Y31459523D01*
X-826190Y31421428D01*
X-897619Y31421428D01*
X-945238Y31459523D01*
X-730952Y31726190D02*
X-778571Y31688095D01*
X-873809Y31688095D01*
X-921428Y31726190D01*
X-945238Y31764285D01*
X-969047Y31840476D01*
X-969047Y32069047D01*
X-945238Y32145238D01*
X-921428Y32183333D01*
X-873809Y32221428D01*
X-778571Y32221428D01*
X-730952Y32183333D01*
X-278571Y31688095D02*
X-278571Y32107142D01*
X-302380Y32183333D01*
X-350000Y32221428D01*
X-445238Y32221428D01*
X-492857Y32183333D01*
X-278571Y31726190D02*
X-326190Y31688095D01*
X-445238Y31688095D01*
X-492857Y31726190D01*
X-516666Y31802380D01*
X-516666Y31878571D01*
X-492857Y31954761D01*
X-445238Y31992857D01*
X-326190Y31992857D01*
X-278571Y32030952D01*
X221428Y31688095D02*
X-64285Y31688095D01*
X78571Y31688095D02*
X78571Y32488095D01*
X30952Y32373809D01*
X-16666Y32297619D01*
X-64285Y32259523D01*
X650000Y32488095D02*
X554761Y32488095D01*
X507142Y32450000D01*
X483333Y32411904D01*
X435714Y32297619D01*
X411904Y32145238D01*
X411904Y31840476D01*
X435714Y31764285D01*
X459523Y31726190D01*
X507142Y31688095D01*
X602380Y31688095D01*
X650000Y31726190D01*
X673809Y31764285D01*
X697619Y31840476D01*
X697619Y32030952D01*
X673809Y32107142D01*
X650000Y32145238D01*
X602380Y32183333D01*
X507142Y32183333D01*
X459523Y32145238D01*
X435714Y32107142D01*
X411904Y32030952D01*
X1126190Y32221428D02*
X1126190Y31688095D01*
X1007142Y32526190D02*
X888095Y31954761D01*
X1197619Y31954761D01*
X1388095Y31688095D02*
X1388095Y32488095D01*
X1578571Y32488095D01*
X1626190Y32450000D01*
X1649999Y32411904D01*
X1673809Y32335714D01*
X1673809Y32221428D01*
X1649999Y32145238D01*
X1626190Y32107142D01*
X1578571Y32069047D01*
X1388095Y32069047D01*
D12*
X11916666Y13147619D02*
X12150000Y12147619D01*
X12383333Y13147619D01*
D11*
X-18409523Y14200000D02*
X-18485714Y14238095D01*
X-18600000Y14238095D01*
X-18714285Y14200000D01*
X-18790476Y14123809D01*
X-18828571Y14047619D01*
X-18866666Y13895238D01*
X-18866666Y13780952D01*
X-18828571Y13628571D01*
X-18790476Y13552380D01*
X-18714285Y13476190D01*
X-18600000Y13438095D01*
X-18523809Y13438095D01*
X-18409523Y13476190D01*
X-18371428Y13514285D01*
X-18371428Y13780952D01*
X-18523809Y13780952D01*
X-18028571Y13438095D02*
X-18028571Y14238095D01*
X-17571428Y13438095D01*
X-17571428Y14238095D01*
X-17190476Y13438095D02*
X-17190476Y14238095D01*
X-17000000Y14238095D01*
X-16885714Y14200000D01*
X-16809523Y14123809D01*
X-16771428Y14047619D01*
X-16733333Y13895238D01*
X-16733333Y13780952D01*
X-16771428Y13628571D01*
X-16809523Y13552380D01*
X-16885714Y13476190D01*
X-17000000Y13438095D01*
X-17190476Y13438095D01*
D16*
%TO.C,DD5*%
X25908604Y31322817D02*
X25857019Y31313721D01*
X26018390Y31303492D02*
X25863634Y31276204D01*
X26128175Y31284167D02*
X25870249Y31238688D01*
X26237961Y31264842D02*
X25876865Y31201171D01*
X26296161Y31236422D02*
X25883480Y31163655D01*
X26405947Y31217097D02*
X25890095Y31126138D01*
X26515732Y31197772D02*
X25896710Y31088622D01*
X26625518Y31178447D02*
X25903325Y31051105D01*
X26735303Y31159123D02*
X25909940Y31013589D01*
X26638748Y31103414D02*
X25916556Y30976072D01*
X26542193Y31047706D02*
X25923171Y30938556D01*
X26445638Y30991998D02*
X25929786Y30901039D01*
X26349082Y30936290D02*
X25936401Y30863523D01*
X26304112Y30889677D02*
X25943016Y30826006D01*
X26207557Y30833969D02*
X25949631Y30788490D01*
X26111002Y30778261D02*
X25956247Y30750973D01*
X25962862Y30713457D02*
X26683718Y31150027D01*
X25857019Y31313721D01*
X26014447Y30722553D02*
X25962862Y30713457D01*
X26735303Y31159123D02*
X25969477Y30675940D01*
X25850404Y31351237D01*
X26735303Y31159123D01*
X1148811Y21909613D02*
X1098215Y21923170D01*
X1240143Y21845701D02*
X1088355Y21886373D01*
X1331476Y21781790D02*
X1078495Y21849576D01*
X1422808Y21717878D02*
X1068635Y21812779D01*
X1463544Y21667524D02*
X1058776Y21775981D01*
X1554877Y21603612D02*
X1048916Y21739184D01*
X1646209Y21539701D02*
X1039056Y21702387D01*
X1737542Y21475789D02*
X1029196Y21665590D01*
X1828874Y21411878D02*
X1019336Y21628793D01*
X1717822Y21402195D02*
X1009477Y21591996D01*
X1606770Y21392512D02*
X999617Y21555198D01*
X1495718Y21382829D02*
X989757Y21518401D01*
X1384666Y21373147D02*
X979897Y21481604D01*
X1324210Y21349907D02*
X970038Y21444807D01*
X1213158Y21340224D02*
X960178Y21408010D01*
X1102106Y21330541D02*
X950318Y21371213D01*
X940458Y21334415D02*
X1778278Y21425435D01*
X1098215Y21923170D01*
X991054Y21320858D02*
X940458Y21334415D01*
X1828874Y21411878D02*
X930598Y21297618D01*
X1108074Y21959967D01*
X1828874Y21411878D01*
X22646581Y28481223D02*
X22613247Y28538958D01*
X22672008Y28341944D02*
X22572008Y28515149D01*
X22697435Y28202664D02*
X22530769Y28491339D01*
X22722863Y28063385D02*
X22489529Y28467530D01*
X22714957Y27981840D02*
X22448290Y28443720D01*
X22740384Y27842561D02*
X22407051Y28419911D01*
X22765811Y27703281D02*
X22365811Y28396101D01*
X22791239Y27564001D02*
X22324572Y28372292D01*
X22816666Y27424722D02*
X22283333Y28348482D01*
X22708760Y27516382D02*
X22242094Y28324673D01*
X22600854Y27608043D02*
X22200854Y28300863D01*
X22492948Y27699703D02*
X22159615Y28277054D01*
X22385042Y27791364D02*
X22118376Y28253244D01*
X22310470Y27825289D02*
X22077136Y28229435D01*
X22202564Y27916950D02*
X22035897Y28205625D01*
X22094658Y28008611D02*
X21994658Y28181816D01*
X21953418Y28158006D02*
X22783333Y27482457D01*
X22613247Y28538958D01*
X21986752Y28100271D02*
X21953418Y28158006D01*
X22816666Y27424722D02*
X21912179Y28134197D01*
X22654487Y28562768D01*
X22816666Y27424722D01*
D17*
%TO.C,R68*%
X-4450000Y22200000D02*
X-4450000Y23400000D01*
X-1750000Y22200000D02*
X-4450000Y22200000D01*
X-1800000Y23400000D02*
X-4450000Y23400000D01*
X-1750000Y22200000D02*
X-1750000Y23400000D01*
%TO.C,R28*%
X-11900000Y33850000D02*
X-11900000Y31150000D01*
X-11900000Y33850000D02*
X-13100000Y33850000D01*
X-13100000Y33800000D02*
X-13100000Y31150000D01*
X-11900000Y31150000D02*
X-13100000Y31150000D01*
D11*
%TO.C,HL2*%
X-19215000Y11665000D02*
X-19215000Y13135000D01*
X-19215000Y13135000D02*
X-21500000Y13135000D01*
X-21500000Y11665000D02*
X-19215000Y11665000D01*
%TO.C,HL5*%
X-11229976Y45000000D02*
X-11229976Y47285000D01*
X-12699976Y47285000D02*
X-12699976Y45000000D01*
X-11229976Y47285000D02*
X-12699976Y47285000D01*
%TO.C,kibuzzard-633978C2*%
G36*
X22254959Y19591698D02*
G01*
X22185869Y19601947D01*
X22118117Y19618918D01*
X22052354Y19642448D01*
X21989214Y19672311D01*
X21929305Y19708219D01*
X21873205Y19749826D01*
X21821452Y19796731D01*
X21774547Y19848484D01*
X21732940Y19904584D01*
X21697032Y19964493D01*
X21667169Y20027633D01*
X21643638Y20093396D01*
X21626667Y20161149D01*
X21616419Y20230238D01*
X21612992Y20300000D01*
X21616419Y20369762D01*
X21626667Y20438851D01*
X21643638Y20506604D01*
X21667169Y20572367D01*
X21697032Y20635507D01*
X21732940Y20695416D01*
X21766989Y20741325D01*
X22457012Y20741325D01*
X22693550Y20741325D01*
X22693550Y19720563D01*
X22871350Y19720563D01*
X23238062Y19720563D01*
X23425387Y19720563D01*
X23569850Y20184112D01*
X23573025Y20184112D01*
X23719075Y19720563D01*
X23912750Y19720563D01*
X23687325Y20311113D01*
X23785413Y20561938D01*
X24088962Y20561938D01*
X24362012Y20714338D01*
X24365187Y20712750D01*
X24365187Y19720563D01*
X24542987Y19720563D01*
X24542987Y20879437D01*
X24366775Y20879437D01*
X24088962Y20717513D01*
X24088962Y20561938D01*
X23785413Y20561938D01*
X23909575Y20879437D01*
X23725425Y20879437D01*
X23579375Y20434938D01*
X23576200Y20434938D01*
X23431737Y20879437D01*
X23242825Y20879437D01*
X23465075Y20311113D01*
X23238062Y19720563D01*
X22871350Y19720563D01*
X22871350Y20741325D01*
X23107887Y20741325D01*
X23107887Y20879437D01*
X22457012Y20879437D01*
X22457012Y20741325D01*
X21766989Y20741325D01*
X21774547Y20751516D01*
X21821452Y20803269D01*
X21873205Y20850174D01*
X21929305Y20891781D01*
X21989214Y20927689D01*
X22052354Y20957552D01*
X22118117Y20981082D01*
X22185869Y20998053D01*
X22254959Y21008302D01*
X22324721Y21011729D01*
X24675279Y21011729D01*
X24745041Y21008302D01*
X24814131Y20998053D01*
X24881883Y20981082D01*
X24947646Y20957552D01*
X25010786Y20927689D01*
X25070695Y20891781D01*
X25126795Y20850174D01*
X25178548Y20803269D01*
X25225453Y20751516D01*
X25267060Y20695416D01*
X25302968Y20635507D01*
X25332831Y20572367D01*
X25356362Y20506604D01*
X25373333Y20438851D01*
X25383581Y20369762D01*
X25387008Y20300000D01*
X25383581Y20230238D01*
X25373333Y20161149D01*
X25356362Y20093396D01*
X25332831Y20027633D01*
X25302968Y19964493D01*
X25267060Y19904584D01*
X25225453Y19848484D01*
X25178548Y19796731D01*
X25126795Y19749826D01*
X25070695Y19708219D01*
X25010786Y19672311D01*
X24947646Y19642448D01*
X24881883Y19618918D01*
X24814131Y19601947D01*
X24745041Y19591698D01*
X24675279Y19588271D01*
X22324721Y19588271D01*
X22254959Y19591698D01*
G37*
D10*
%TO.C,DA5*%
X29960000Y31350000D02*
X29960000Y34350000D01*
X26740000Y32850000D02*
X26740000Y34350000D01*
%TO.C,SB3*%
X-7100000Y39450000D02*
X-7400000Y39450000D01*
X-9900000Y42750000D02*
X-9900000Y39450000D01*
X-9600000Y42750000D02*
X-9900000Y42750000D01*
X-9900000Y39450000D02*
X-9600000Y39450000D01*
X-7400000Y42750000D02*
X-7100000Y42750000D01*
X-7100000Y42750000D02*
X-7100000Y39450000D01*
%TO.C,XT15*%
X-3190000Y14490000D02*
X-1940000Y14490000D01*
X-9750000Y15400000D02*
X-7800000Y15400000D01*
X-2850000Y18900000D02*
X-9750000Y18900000D01*
X-7800000Y15400000D02*
X-7800000Y14790000D01*
X-7200000Y18900000D02*
X-7200000Y18400000D01*
X-3700000Y14590000D02*
X-3700000Y14790000D01*
X-10360000Y16100000D02*
X-9750000Y16100000D01*
X-7200000Y18400000D02*
X-7400000Y18400000D01*
X-10360000Y17400000D02*
X-9750000Y17400000D01*
X-4800000Y14790000D02*
X-4800000Y15400000D01*
X-2240000Y14790000D02*
X-2240000Y19510000D01*
X-7300000Y18900000D02*
X-7300000Y18400000D01*
X-5400000Y18400000D02*
X-5400000Y18900000D01*
X-2850000Y15400000D02*
X-2850000Y18900000D01*
X-7400000Y18400000D02*
X-7400000Y18900000D01*
X-5200000Y18400000D02*
X-5400000Y18400000D01*
X-4000000Y14790000D02*
X-4000000Y14590000D01*
X-4800000Y15400000D02*
X-2850000Y15400000D01*
X-2240000Y16100000D02*
X-2850000Y16100000D01*
X-4000000Y14590000D02*
X-3700000Y14590000D01*
X-2240000Y17400000D02*
X-2850000Y17400000D01*
X-5300000Y18900000D02*
X-5300000Y18400000D01*
X-1940000Y14490000D02*
X-1940000Y15740000D01*
X-10360000Y19510000D02*
X-10360000Y14790000D01*
X-4000000Y14690000D02*
X-3700000Y14690000D01*
X-10360000Y14790000D02*
X-2240000Y14790000D01*
X-2240000Y19510000D02*
X-10360000Y19510000D01*
X-9750000Y18900000D02*
X-9750000Y15400000D01*
X-5200000Y18900000D02*
X-5200000Y18400000D01*
D18*
%TO.C,C25*%
X4700000Y36600000D02*
X3700000Y36600000D01*
X4700000Y37800000D02*
X3700000Y37800000D01*
X2350000Y37200000D02*
X2350000Y36950000D01*
X2700000Y37800000D02*
X3700000Y37800000D01*
X5050000Y37200000D02*
X5050000Y37450000D01*
X2350000Y37200000D02*
X2350000Y37450000D01*
X2700000Y36600000D02*
X3700000Y36600000D01*
X5050000Y37200000D02*
X5050000Y36950000D01*
X4700000Y36600000D02*
G75*
G03*
X5050000Y36950000I-1J350001D01*
G01*
X2350000Y36950000D02*
G75*
G03*
X2700000Y36600000I350000J0D01*
G01*
X2700000Y37800000D02*
G75*
G03*
X2350000Y37450000I0J-350000D01*
G01*
X5050000Y37450000D02*
G75*
G03*
X4700000Y37800000I-350001J-1D01*
G01*
D11*
%TO.C,HL3*%
X-13465000Y47285000D02*
X-14935000Y47285000D01*
X-13465000Y45000000D02*
X-13465000Y47285000D01*
X-14935000Y47285000D02*
X-14935000Y45000000D01*
D17*
%TO.C,R62*%
X300000Y35750000D02*
X300000Y34550000D01*
X-2350000Y34550000D02*
X300000Y34550000D01*
X-2400000Y35750000D02*
X-2400000Y34550000D01*
X-2400000Y35750000D02*
X300000Y35750000D01*
D10*
%TO.C,DD2*%
X16600000Y25390000D02*
X20200000Y25390000D01*
X18400000Y29840001D02*
G75*
G03*
X16561522Y25401522I0J-2600001D01*
G01*
X20238478Y25401522D02*
G75*
G03*
X18400000Y29840000I-1838478J1838478D01*
G01*
D17*
%TO.C,R63*%
X16750000Y35500000D02*
X14050000Y35500000D01*
X14050000Y35500000D02*
X14050000Y36700000D01*
X16700000Y36700000D02*
X14050000Y36700000D01*
X16750000Y35500000D02*
X16750000Y36700000D01*
D18*
%TO.C,C18*%
X8850000Y18600000D02*
X8850000Y18350000D01*
X11550000Y18600000D02*
X11550000Y18850000D01*
X11200000Y19200000D02*
X10200000Y19200000D01*
X9200000Y18000000D02*
X10200000Y18000000D01*
X9200000Y19200000D02*
X10200000Y19200000D01*
X8850000Y18600000D02*
X8850000Y18850000D01*
X11550000Y18600000D02*
X11550000Y18350000D01*
X11200000Y18000000D02*
X10200000Y18000000D01*
X8850000Y18350000D02*
G75*
G03*
X9200000Y18000000I350000J0D01*
G01*
X9200000Y19200000D02*
G75*
G03*
X8850000Y18850000I0J-350000D01*
G01*
X11550000Y18850000D02*
G75*
G03*
X11200000Y19200000I-350001J-1D01*
G01*
X11200000Y18000000D02*
G75*
G03*
X11550000Y18350000I-1J350001D01*
G01*
D10*
%TO.C,C4*%
X-27645563Y22340000D02*
X-25960000Y22340000D01*
X-26960000Y21100000D02*
X-26960000Y22100000D01*
X-28710000Y30860000D02*
X-25960000Y30860000D01*
X-21254437Y22340000D02*
X-20190000Y23404437D01*
X-20190000Y30860000D02*
X-22940000Y30860000D01*
X-27645563Y22340000D02*
X-28710000Y23404437D01*
X-27460000Y21600000D02*
X-26460000Y21600000D01*
X-21254437Y22340000D02*
X-22940000Y22340000D01*
X-28710000Y23404437D02*
X-28710000Y30860000D01*
X-20190000Y23404437D02*
X-20190000Y30860000D01*
D18*
%TO.C,C19*%
X8500000Y18500000D02*
X8500000Y17500000D01*
X7900000Y18850000D02*
X8150000Y18850000D01*
X7900000Y16150000D02*
X8150000Y16150000D01*
X7300000Y18500000D02*
X7300000Y17500000D01*
X7900000Y18850000D02*
X7650000Y18850000D01*
X7900000Y16150000D02*
X7650000Y16150000D01*
X8500000Y16500000D02*
X8500000Y17500000D01*
X7300000Y16500000D02*
X7300000Y17500000D01*
X7300000Y16500000D02*
G75*
G03*
X7650000Y16150000I350001J1D01*
G01*
X8500000Y18500000D02*
G75*
G03*
X8150000Y18850000I-350000J0D01*
G01*
X8150000Y16150000D02*
G75*
G03*
X8500000Y16500000I-1J350001D01*
G01*
X7650000Y18850000D02*
G75*
G03*
X7300000Y18500000I0J-350000D01*
G01*
%TO.C,kibuzzard-63397779*%
G36*
X-21881425Y9433275D02*
G01*
X-21986200Y9412638D01*
X-22102088Y9449944D01*
X-22143362Y9555513D01*
X-22130464Y9627347D01*
X-22091769Y9677750D01*
X-22024498Y9707516D01*
X-21925875Y9717438D01*
X-21881425Y9717438D01*
X-21881425Y9433275D01*
G37*
G36*
X-19548792Y10000211D02*
G01*
X-19500969Y9953181D01*
X-19474180Y9862892D01*
X-19465250Y9717438D01*
X-19474180Y9571983D01*
X-19500969Y9481694D01*
X-19548792Y9434664D01*
X-19620825Y9418988D01*
X-19692858Y9434664D01*
X-19740681Y9481694D01*
X-19767470Y9571983D01*
X-19776400Y9717438D01*
X-19767470Y9862892D01*
X-19740681Y9953181D01*
X-19692858Y10000211D01*
X-19620825Y10015888D01*
X-19548792Y10000211D01*
G37*
G36*
X-23307378Y9160101D02*
G01*
X-23379550Y9170807D01*
X-23450325Y9188535D01*
X-23519021Y9213115D01*
X-23584978Y9244310D01*
X-23647559Y9281820D01*
X-23678392Y9304687D01*
X-23102213Y9304687D01*
X-22924413Y9304687D01*
X-22924413Y9785700D01*
X-22862500Y9785700D01*
X-22766456Y9754744D01*
X-22736095Y9710095D01*
X-22710100Y9638062D01*
X-22618025Y9304687D01*
X-22435463Y9304687D01*
X-22511694Y9555513D01*
X-22311638Y9555513D01*
X-22290405Y9442800D01*
X-22226706Y9358662D01*
X-22162236Y9319857D01*
X-22082067Y9296574D01*
X-21986200Y9288813D01*
X-21889715Y9294457D01*
X-21797111Y9311390D01*
X-21708388Y9339612D01*
X-21708388Y9717438D01*
X-21533763Y9717438D01*
X-21524414Y9576944D01*
X-21496368Y9466612D01*
X-21449625Y9386444D01*
X-21382774Y9332204D01*
X-21294403Y9299660D01*
X-21184513Y9288813D01*
X-21086088Y9294457D01*
X-20996129Y9311390D01*
X-20914638Y9339612D01*
X-20914638Y10130188D01*
X-20660638Y10130188D01*
X-20660638Y10001600D01*
X-20449500Y10001600D01*
X-20449500Y9304687D01*
X-20271700Y9304687D01*
X-20271700Y9717438D01*
X-19954200Y9717438D01*
X-19945028Y9580913D01*
X-19917511Y9471904D01*
X-19871650Y9390412D01*
X-19807092Y9333968D01*
X-19723483Y9300101D01*
X-19620825Y9288813D01*
X-19518167Y9300101D01*
X-19434558Y9333968D01*
X-19370000Y9390412D01*
X-19324139Y9471904D01*
X-19296622Y9580913D01*
X-19287450Y9717438D01*
X-19296622Y9853963D01*
X-19324139Y9962971D01*
X-19370000Y10044463D01*
X-19434558Y10100907D01*
X-19518167Y10134774D01*
X-19620825Y10146063D01*
X-19723483Y10134774D01*
X-19807092Y10100907D01*
X-19871650Y10044463D01*
X-19917511Y9962971D01*
X-19945028Y9853963D01*
X-19954200Y9717438D01*
X-20271700Y9717438D01*
X-20271700Y10130188D01*
X-20660638Y10130188D01*
X-20914638Y10130188D01*
X-20914638Y10177813D01*
X-19128700Y10177813D01*
X-19112230Y10065100D01*
X-19062819Y9971438D01*
X-19008226Y9916404D01*
X-18932291Y9863487D01*
X-18835013Y9812687D01*
X-18766948Y9771809D01*
X-18721506Y9725375D01*
X-18695908Y9669019D01*
X-18687375Y9598375D01*
X-18698488Y9524358D01*
X-18731825Y9470581D01*
X-18785006Y9437839D01*
X-18855650Y9426925D01*
X-18948607Y9438390D01*
X-19036978Y9472786D01*
X-19120763Y9530113D01*
X-19120763Y9365012D01*
X-19039271Y9322679D01*
X-18949313Y9297279D01*
X-18850888Y9288813D01*
X-18728015Y9301513D01*
X-18632448Y9339613D01*
X-18564185Y9403112D01*
X-18523228Y9492013D01*
X-18509575Y9606313D01*
X-18525039Y9717438D01*
X-18355588Y9717438D01*
X-18345445Y9586469D01*
X-18315018Y9479312D01*
X-18264306Y9395969D01*
X-18193310Y9336437D01*
X-18102028Y9300719D01*
X-17990463Y9288813D01*
X-17879734Y9298734D01*
X-17856478Y9304687D01*
X-17541200Y9304687D01*
X-17366575Y9304687D01*
X-17366575Y9980963D01*
X-17258625Y10015888D01*
X-17141150Y9984138D01*
X-17109400Y9868250D01*
X-17109400Y9304687D01*
X-16937950Y9304687D01*
X-16937950Y9860313D01*
X-16944445Y9915875D01*
X-16736337Y9915875D01*
X-16720463Y9824395D01*
X-16672838Y9753156D01*
X-16587509Y9697792D01*
X-16458525Y9653938D01*
X-16353750Y9606313D01*
X-16325175Y9526937D01*
X-16361687Y9443594D01*
X-16482337Y9417400D01*
X-16601797Y9432878D01*
X-16728400Y9479312D01*
X-16728400Y9339612D01*
X-16643733Y9311390D01*
X-16552717Y9294457D01*
X-16455350Y9288813D01*
X-16325770Y9304291D01*
X-16229131Y9350725D01*
X-16169005Y9425734D01*
X-16148963Y9526937D01*
X-16164242Y9628538D01*
X-16210081Y9701562D01*
X-16297989Y9755537D01*
X-16439475Y9799987D01*
X-16533931Y9844438D01*
X-16561712Y9915875D01*
X-16527184Y9993266D01*
X-16423600Y10019063D01*
X-16302950Y10009141D01*
X-16175950Y9979375D01*
X-16175950Y10111138D01*
X-16257349Y10130188D01*
X-15191700Y10130188D01*
X-14969450Y9304687D01*
X-14747200Y9304687D01*
X-14188400Y9304687D01*
X-13934400Y9304687D01*
X-13934400Y9574562D01*
X-14188400Y9574562D01*
X-14188400Y9304687D01*
X-14747200Y9304687D01*
X-14524950Y10130188D01*
X-14699575Y10130188D01*
X-14853562Y9431688D01*
X-14856738Y9431688D01*
X-15010725Y10130188D01*
X-15191700Y10130188D01*
X-16257349Y10130188D01*
X-16258853Y10130540D01*
X-16346694Y10142182D01*
X-16439475Y10146063D01*
X-13551812Y10146063D01*
X-13278762Y10298463D01*
X-13275588Y10296875D01*
X-13275588Y9304687D01*
X-13097788Y9304687D01*
X-13097788Y10463563D01*
X-13274000Y10463563D01*
X-13551812Y10301638D01*
X-13551812Y10146063D01*
X-16439475Y10146063D01*
X-16568856Y10131180D01*
X-16661725Y10086531D01*
X-16717684Y10014102D01*
X-16736337Y9915875D01*
X-16944445Y9915875D01*
X-16954420Y10001203D01*
X-17003831Y10087325D01*
X-17061951Y10119957D01*
X-17148470Y10139536D01*
X-17263388Y10146063D01*
X-17365517Y10138654D01*
X-17458121Y10116429D01*
X-17541200Y10079387D01*
X-17541200Y9304687D01*
X-17856478Y9304687D01*
X-17763450Y9328500D01*
X-17763450Y9460262D01*
X-17872194Y9428116D01*
X-17969825Y9417400D01*
X-18054955Y9431092D01*
X-18116669Y9472169D01*
X-18156158Y9545789D01*
X-18174613Y9657112D01*
X-17723762Y9657112D01*
X-17720588Y9720613D01*
X-17728878Y9856167D01*
X-17753749Y9964382D01*
X-17795200Y10045256D01*
X-17853585Y10101260D01*
X-17929256Y10134862D01*
X-18022212Y10146063D01*
X-18124077Y10134156D01*
X-18207421Y10098438D01*
X-18272244Y10038906D01*
X-18318546Y9955563D01*
X-18346327Y9848406D01*
X-18355588Y9717438D01*
X-18525039Y9717438D01*
X-18526641Y9728947D01*
X-18577838Y9826975D01*
X-18635869Y9883596D01*
X-18718949Y9939158D01*
X-18827075Y9993663D01*
X-18897631Y10041111D01*
X-18939964Y10105140D01*
X-18954075Y10185750D01*
X-18942963Y10250838D01*
X-18909625Y10300050D01*
X-18856841Y10331006D01*
X-18787388Y10341325D01*
X-18663959Y10324259D01*
X-18541325Y10273063D01*
X-18541325Y10431812D01*
X-18626697Y10458271D01*
X-18715597Y10474146D01*
X-18808025Y10479438D01*
X-18902834Y10470618D01*
X-18981944Y10444160D01*
X-19045356Y10400062D01*
X-19107864Y10304813D01*
X-19128700Y10177813D01*
X-20914638Y10177813D01*
X-20914638Y10312750D01*
X-20481250Y10312750D01*
X-20271700Y10312750D01*
X-20271700Y10511188D01*
X-20481250Y10511188D01*
X-20481250Y10312750D01*
X-20914638Y10312750D01*
X-20914638Y10495313D01*
X-21089263Y10495313D01*
X-21089263Y10111138D01*
X-21162684Y10137331D01*
X-21240075Y10146063D01*
X-21331003Y10134950D01*
X-21404822Y10101613D01*
X-21461531Y10046050D01*
X-21501660Y9965088D01*
X-21525737Y9855550D01*
X-21533763Y9717438D01*
X-21708388Y9717438D01*
X-21708388Y9831737D01*
X-21715178Y9942863D01*
X-21735551Y10026471D01*
X-21769506Y10082563D01*
X-21859002Y10130188D01*
X-22005250Y10146063D01*
X-22090622Y10140418D01*
X-22179522Y10123485D01*
X-22271950Y10095263D01*
X-22271950Y9958737D01*
X-22179875Y9990488D01*
X-22094150Y10009538D01*
X-22014775Y10015888D01*
X-21906031Y9986519D01*
X-21881425Y9863488D01*
X-21881425Y9836500D01*
X-21925875Y9836500D01*
X-22044144Y9828474D01*
X-22140717Y9804397D01*
X-22215594Y9764269D01*
X-22287627Y9675964D01*
X-22311638Y9555513D01*
X-22511694Y9555513D01*
X-22533888Y9628538D01*
X-22584688Y9753156D01*
X-22645013Y9831737D01*
X-22645013Y9834912D01*
X-22567225Y9880355D01*
X-22511663Y9945244D01*
X-22478325Y10029580D01*
X-22467213Y10133363D01*
X-22477002Y10242283D01*
X-22506371Y10329860D01*
X-22555319Y10396094D01*
X-22625257Y10442396D01*
X-22717597Y10470177D01*
X-22832338Y10479438D01*
X-22923707Y10475910D01*
X-23013665Y10465326D01*
X-23102213Y10447688D01*
X-23102213Y9304687D01*
X-23678392Y9304687D01*
X-23706162Y9325283D01*
X-23760223Y9374281D01*
X-23809221Y9428342D01*
X-23852685Y9486945D01*
X-23890194Y9549526D01*
X-23921389Y9615483D01*
X-23945969Y9684179D01*
X-23963698Y9754954D01*
X-23974403Y9827126D01*
X-23977983Y9900000D01*
X-23974403Y9972874D01*
X-23963698Y10045046D01*
X-23945969Y10115821D01*
X-23921389Y10184517D01*
X-23890194Y10250474D01*
X-23852685Y10313055D01*
X-23809221Y10371658D01*
X-23760223Y10425719D01*
X-23706162Y10474717D01*
X-23647559Y10518180D01*
X-23584978Y10555690D01*
X-23519021Y10586885D01*
X-23450325Y10611465D01*
X-23379550Y10629193D01*
X-23307378Y10639899D01*
X-23234504Y10643479D01*
X-12965496Y10643479D01*
X-12892622Y10639899D01*
X-12820450Y10629193D01*
X-12749675Y10611465D01*
X-12680979Y10586885D01*
X-12615022Y10555690D01*
X-12552441Y10518180D01*
X-12493838Y10474717D01*
X-12439777Y10425719D01*
X-12390779Y10371658D01*
X-12347315Y10313055D01*
X-12309806Y10250474D01*
X-12278611Y10184517D01*
X-12254031Y10115821D01*
X-12236302Y10045046D01*
X-12225597Y9972874D01*
X-12222017Y9900000D01*
X-12225597Y9827126D01*
X-12236302Y9754954D01*
X-12254031Y9684179D01*
X-12278611Y9615483D01*
X-12309806Y9549526D01*
X-12347315Y9486945D01*
X-12390779Y9428342D01*
X-12439777Y9374281D01*
X-12493838Y9325283D01*
X-12552441Y9281820D01*
X-12615022Y9244310D01*
X-12680979Y9213115D01*
X-12749675Y9188535D01*
X-12820450Y9170807D01*
X-12892622Y9160101D01*
X-12965496Y9156521D01*
X-23234504Y9156521D01*
X-23307378Y9160101D01*
G37*
G36*
X-21146809Y10002394D02*
G01*
X-21089263Y9961912D01*
X-21089263Y9433275D01*
X-21192450Y9412638D01*
X-21265872Y9429703D01*
X-21317863Y9480900D01*
X-21348819Y9574166D01*
X-21359138Y9717438D01*
X-21350605Y9856939D01*
X-21325006Y9948419D01*
X-21281945Y9999020D01*
X-21221025Y10015888D01*
X-21146809Y10002394D01*
G37*
G36*
X-22747803Y10328823D02*
G01*
X-22687875Y10291319D01*
X-22652156Y10226827D01*
X-22640250Y10133363D01*
X-22652950Y10035731D01*
X-22691050Y9971438D01*
X-22759312Y9935719D01*
X-22862500Y9923812D01*
X-22924413Y9923812D01*
X-22924413Y10328625D01*
X-22832338Y10341325D01*
X-22747803Y10328823D01*
G37*
G36*
X-17926963Y9965881D02*
G01*
X-17901563Y9892261D01*
X-17892038Y9780937D01*
X-18174613Y9780937D01*
X-18161119Y9895237D01*
X-18133338Y9968263D01*
X-18089284Y10007553D01*
X-18026975Y10020650D01*
X-17926963Y9965881D01*
G37*
D10*
%TO.C,XT3*%
X15700000Y18900000D02*
X15700000Y15400000D01*
X18250000Y18400000D02*
X18050000Y18400000D01*
X15090000Y16100000D02*
X15700000Y16100000D01*
X23210000Y17400000D02*
X22600000Y17400000D01*
X20250000Y18900000D02*
X20250000Y18400000D01*
X20050000Y18400000D02*
X20050000Y18900000D01*
X15090000Y19510000D02*
X15090000Y14790000D01*
X18150000Y18900000D02*
X18150000Y18400000D01*
X15090000Y14790000D02*
X23210000Y14790000D01*
X15700000Y15400000D02*
X17650000Y15400000D01*
X15090000Y17400000D02*
X15700000Y17400000D01*
X23210000Y16100000D02*
X22600000Y16100000D01*
X22600000Y18900000D02*
X15700000Y18900000D01*
X21450000Y14690000D02*
X21750000Y14690000D01*
X20650000Y15400000D02*
X22600000Y15400000D01*
X21450000Y14590000D02*
X21750000Y14590000D01*
X20250000Y18400000D02*
X20050000Y18400000D01*
X18250000Y18900000D02*
X18250000Y18400000D01*
X22600000Y15400000D02*
X22600000Y18900000D01*
X21750000Y14590000D02*
X21750000Y14790000D01*
X23210000Y14790000D02*
X23210000Y19510000D01*
X18050000Y18400000D02*
X18050000Y18900000D01*
X21450000Y14790000D02*
X21450000Y14590000D01*
X20150000Y18900000D02*
X20150000Y18400000D01*
X17650000Y15400000D02*
X17650000Y14790000D01*
X23210000Y19510000D02*
X15090000Y19510000D01*
X20650000Y14790000D02*
X20650000Y15400000D01*
X22260000Y14490000D02*
X23510000Y14490000D01*
X23510000Y14490000D02*
X23510000Y15740000D01*
D18*
%TO.C,C38*%
X21100000Y31600000D02*
X22100000Y31600000D01*
X23100000Y30400000D02*
X22100000Y30400000D01*
X23450000Y31000000D02*
X23450000Y30750000D01*
X23450000Y31000000D02*
X23450000Y31250000D01*
X23100000Y31600000D02*
X22100000Y31600000D01*
X21100000Y30400000D02*
X22100000Y30400000D01*
X20750000Y31000000D02*
X20750000Y30750000D01*
X20750000Y31000000D02*
X20750000Y31250000D01*
X23100000Y30400000D02*
G75*
G03*
X23450000Y30750000I-1J350001D01*
G01*
X21100000Y31600000D02*
G75*
G03*
X20750000Y31250000I0J-350000D01*
G01*
X20750000Y30750000D02*
G75*
G03*
X21100000Y30400000I350000J0D01*
G01*
X23450000Y31250000D02*
G75*
G03*
X23100000Y31600000I-350001J-1D01*
G01*
D10*
%TO.C,XT13*%
X2600000Y9800000D02*
X4550000Y9800000D01*
X200000Y12800000D02*
X0Y12800000D01*
X4210000Y8890000D02*
X5460000Y8890000D01*
X4550000Y13300000D02*
X-2350000Y13300000D01*
X-2350000Y9800000D02*
X-400000Y9800000D01*
X-2960000Y10500000D02*
X-2350000Y10500000D01*
X3400000Y9090000D02*
X3700000Y9090000D01*
X3400000Y8990000D02*
X3700000Y8990000D01*
X2000000Y12800000D02*
X2000000Y13300000D01*
X3700000Y8990000D02*
X3700000Y9190000D01*
X2600000Y9190000D02*
X2600000Y9800000D01*
X100000Y13300000D02*
X100000Y12800000D01*
X4550000Y9800000D02*
X4550000Y13300000D01*
X5160000Y13910000D02*
X-2960000Y13910000D01*
X2100000Y13300000D02*
X2100000Y12800000D01*
X2200000Y12800000D02*
X2000000Y12800000D01*
X-2960000Y11800000D02*
X-2350000Y11800000D01*
X5160000Y9190000D02*
X5160000Y13910000D01*
X-2350000Y13300000D02*
X-2350000Y9800000D01*
X2200000Y13300000D02*
X2200000Y12800000D01*
X-400000Y9800000D02*
X-400000Y9190000D01*
X0Y12800000D02*
X0Y13300000D01*
X200000Y13300000D02*
X200000Y12800000D01*
X5160000Y10500000D02*
X4550000Y10500000D01*
X5160000Y11800000D02*
X4550000Y11800000D01*
X-2960000Y13910000D02*
X-2960000Y9190000D01*
X-2960000Y9190000D02*
X5160000Y9190000D01*
X3400000Y9190000D02*
X3400000Y8990000D01*
X5460000Y8890000D02*
X5460000Y10140000D01*
%TO.C,XT1*%
X4200000Y14790000D02*
X4200000Y15400000D01*
X5000000Y14690000D02*
X5300000Y14690000D01*
X3600000Y18400000D02*
X3600000Y18900000D01*
X5000000Y14590000D02*
X5300000Y14590000D01*
X-1360000Y17400000D02*
X-750000Y17400000D01*
X1800000Y18400000D02*
X1600000Y18400000D01*
X3700000Y18900000D02*
X3700000Y18400000D01*
X-1360000Y16100000D02*
X-750000Y16100000D01*
X5300000Y14590000D02*
X5300000Y14790000D01*
X-750000Y15400000D02*
X1200000Y15400000D01*
X6150000Y18900000D02*
X-750000Y18900000D01*
X3800000Y18400000D02*
X3600000Y18400000D01*
X3800000Y18900000D02*
X3800000Y18400000D01*
X1700000Y18900000D02*
X1700000Y18400000D01*
X6760000Y19510000D02*
X-1360000Y19510000D01*
X6150000Y15400000D02*
X6150000Y18900000D01*
X6760000Y17400000D02*
X6150000Y17400000D01*
X6760000Y14790000D02*
X6760000Y19510000D01*
X-1360000Y19510000D02*
X-1360000Y14790000D01*
X-750000Y18900000D02*
X-750000Y15400000D01*
X1600000Y18400000D02*
X1600000Y18900000D01*
X5000000Y14790000D02*
X5000000Y14590000D01*
X4200000Y15400000D02*
X6150000Y15400000D01*
X7060000Y14490000D02*
X7060000Y15740000D01*
X5810000Y14490000D02*
X7060000Y14490000D01*
X-1360000Y14790000D02*
X6760000Y14790000D01*
X1200000Y15400000D02*
X1200000Y14790000D01*
X1800000Y18900000D02*
X1800000Y18400000D01*
X6760000Y16100000D02*
X6150000Y16100000D01*
D19*
%TO.C,DA4*%
X-4500000Y46525000D02*
X-5500000Y46525000D01*
D10*
X-5535000Y43120000D02*
X-2875000Y43120000D01*
X-5535000Y45720000D02*
X-4205000Y45720000D01*
X-2875000Y43120000D02*
X-2875000Y32900000D01*
X-5535000Y32900000D02*
X-2875000Y32900000D01*
X-5535000Y44390000D02*
X-5535000Y45720000D01*
X-5535000Y43120000D02*
X-5535000Y32900000D01*
D19*
X-4575000Y32000000D02*
X-5575000Y32000000D01*
X-5500000Y46025000D02*
X-5500000Y46525000D01*
X22100000Y45525000D02*
X22100000Y46525000D01*
X22025000Y33000000D02*
X22025000Y32000000D01*
X21100000Y46525000D02*
X22100000Y46525000D01*
X21025000Y32000000D02*
X22025000Y32000000D01*
X-5575000Y32400000D02*
X-5575000Y32000000D01*
%TO.C,kibuzzard-6339789C*%
G36*
X-5882488Y20314262D02*
G01*
X-6136488Y20314262D01*
X-6136488Y20319025D01*
X-5885663Y20833375D01*
X-5882488Y20833375D01*
X-5882488Y20314262D01*
G37*
G36*
X-7225922Y19775899D02*
G01*
X-7296553Y19786377D01*
X-7365817Y19803726D01*
X-7433046Y19827781D01*
X-7497594Y19858310D01*
X-7558839Y19895019D01*
X-7616191Y19937554D01*
X-7669098Y19985506D01*
X-7717050Y20038413D01*
X-7759585Y20095765D01*
X-7796294Y20157010D01*
X-7826823Y20221558D01*
X-7850878Y20288788D01*
X-7868228Y20358051D01*
X-7878705Y20428682D01*
X-7882208Y20500000D01*
X-7878705Y20571318D01*
X-7868228Y20641949D01*
X-7850878Y20711212D01*
X-7826823Y20778442D01*
X-7819612Y20793688D01*
X-7022313Y20793688D01*
X-7005842Y20680975D01*
X-6956431Y20587313D01*
X-6901839Y20532279D01*
X-6825903Y20479362D01*
X-6728625Y20428562D01*
X-6660561Y20387684D01*
X-6615119Y20341250D01*
X-6589520Y20284894D01*
X-6580988Y20214250D01*
X-6592100Y20140233D01*
X-6625438Y20086456D01*
X-6678619Y20053714D01*
X-6749263Y20042800D01*
X-6842219Y20054265D01*
X-6930590Y20088661D01*
X-7014375Y20145988D01*
X-7014375Y19980887D01*
X-6932883Y19938554D01*
X-6842925Y19913154D01*
X-6744500Y19904688D01*
X-6621628Y19917388D01*
X-6526060Y19955488D01*
X-6457798Y20018987D01*
X-6416840Y20107888D01*
X-6408497Y20177737D01*
X-6276188Y20177737D01*
X-5882488Y20177737D01*
X-5882488Y19920563D01*
X-5707863Y19920563D01*
X-5707863Y20177737D01*
X-5577688Y20177737D01*
X-5577688Y20314262D01*
X-5707863Y20314262D01*
X-5707863Y21079437D01*
X-5899950Y21079437D01*
X-6276188Y20314262D01*
X-6276188Y20177737D01*
X-6408497Y20177737D01*
X-6403188Y20222188D01*
X-6420253Y20344822D01*
X-6471450Y20442850D01*
X-6529482Y20499471D01*
X-6612561Y20555033D01*
X-6720688Y20609538D01*
X-6791243Y20656986D01*
X-6833576Y20721015D01*
X-6847688Y20801625D01*
X-6836575Y20866713D01*
X-6803238Y20915925D01*
X-6750453Y20946881D01*
X-6681000Y20957200D01*
X-6557572Y20940134D01*
X-6434938Y20888938D01*
X-6434938Y21047688D01*
X-6520310Y21074146D01*
X-6609210Y21090021D01*
X-6701638Y21095313D01*
X-6796447Y21086493D01*
X-6875557Y21060035D01*
X-6938969Y21015937D01*
X-7001477Y20920688D01*
X-7022313Y20793688D01*
X-7819612Y20793688D01*
X-7796294Y20842990D01*
X-7759585Y20904235D01*
X-7717050Y20961587D01*
X-7669098Y21014494D01*
X-7616191Y21062446D01*
X-7558839Y21104981D01*
X-7497594Y21141690D01*
X-7433046Y21172219D01*
X-7365817Y21196274D01*
X-7296553Y21213623D01*
X-7225922Y21224101D01*
X-7154604Y21227604D01*
X-5445396Y21227604D01*
X-5374078Y21224101D01*
X-5303447Y21213623D01*
X-5234183Y21196274D01*
X-5166954Y21172219D01*
X-5102406Y21141690D01*
X-5041161Y21104981D01*
X-4983809Y21062446D01*
X-4930902Y21014494D01*
X-4882950Y20961587D01*
X-4840415Y20904235D01*
X-4803706Y20842990D01*
X-4773177Y20778442D01*
X-4749122Y20711212D01*
X-4731772Y20641949D01*
X-4721295Y20571318D01*
X-4717792Y20500000D01*
X-4721295Y20428682D01*
X-4731772Y20358051D01*
X-4749122Y20288788D01*
X-4773177Y20221558D01*
X-4803706Y20157010D01*
X-4840415Y20095765D01*
X-4882950Y20038413D01*
X-4930902Y19985506D01*
X-4983809Y19937554D01*
X-5041161Y19895019D01*
X-5102406Y19858310D01*
X-5166954Y19827781D01*
X-5234183Y19803726D01*
X-5303447Y19786377D01*
X-5374078Y19775899D01*
X-5445396Y19772396D01*
X-7154604Y19772396D01*
X-7225922Y19775899D01*
G37*
D10*
%TO.C,XT4*%
X6040000Y9190000D02*
X14160000Y9190000D01*
X11600000Y9800000D02*
X13550000Y9800000D01*
X6040000Y10500000D02*
X6650000Y10500000D01*
X11200000Y12800000D02*
X11000000Y12800000D01*
X9100000Y13300000D02*
X9100000Y12800000D01*
X11600000Y9190000D02*
X11600000Y9800000D01*
X14160000Y13910000D02*
X6040000Y13910000D01*
X14460000Y8890000D02*
X14460000Y10140000D01*
X6650000Y13300000D02*
X6650000Y9800000D01*
X13550000Y13300000D02*
X6650000Y13300000D01*
X12400000Y9090000D02*
X12700000Y9090000D01*
X9200000Y13300000D02*
X9200000Y12800000D01*
X12400000Y9190000D02*
X12400000Y8990000D01*
X14160000Y10500000D02*
X13550000Y10500000D01*
X11100000Y13300000D02*
X11100000Y12800000D01*
X6040000Y11800000D02*
X6650000Y11800000D01*
X9200000Y12800000D02*
X9000000Y12800000D01*
X13550000Y9800000D02*
X13550000Y13300000D01*
X13210000Y8890000D02*
X14460000Y8890000D01*
X11000000Y12800000D02*
X11000000Y13300000D01*
X9000000Y12800000D02*
X9000000Y13300000D01*
X12700000Y8990000D02*
X12700000Y9190000D01*
X6040000Y13910000D02*
X6040000Y9190000D01*
X14160000Y9190000D02*
X14160000Y13910000D01*
X11200000Y13300000D02*
X11200000Y12800000D01*
X12400000Y8990000D02*
X12700000Y8990000D01*
X8600000Y9800000D02*
X8600000Y9190000D01*
X14160000Y11800000D02*
X13550000Y11800000D01*
X6650000Y9800000D02*
X8600000Y9800000D01*
D18*
%TO.C,C24*%
X19800000Y35000000D02*
X19800000Y34000000D01*
X19800000Y33000000D02*
X19800000Y34000000D01*
X21000000Y35000000D02*
X21000000Y34000000D01*
X20400000Y35350000D02*
X20650000Y35350000D01*
X20400000Y32650000D02*
X20650000Y32650000D01*
X20400000Y32650000D02*
X20150000Y32650000D01*
X21000000Y33000000D02*
X21000000Y34000000D01*
X20400000Y35350000D02*
X20150000Y35350000D01*
X20650000Y32650000D02*
G75*
G03*
X21000000Y33000000I-1J350001D01*
G01*
X20150000Y35350000D02*
G75*
G03*
X19800000Y35000000I0J-350000D01*
G01*
X19800000Y33000000D02*
G75*
G03*
X20150000Y32650000I350001J1D01*
G01*
X21000000Y35000000D02*
G75*
G03*
X20650000Y35350000I-350000J0D01*
G01*
D17*
%TO.C,R44*%
X-18850000Y11800000D02*
X-18850000Y13000000D01*
X-16150000Y11800000D02*
X-18850000Y11800000D01*
X-16150000Y11800000D02*
X-16150000Y13000000D01*
X-16200000Y13000000D02*
X-18850000Y13000000D01*
D18*
%TO.C,C17*%
X-1400000Y28400000D02*
X-1400000Y27400000D01*
X-1400000Y26400000D02*
X-1400000Y27400000D01*
X-200000Y28400000D02*
X-200000Y27400000D01*
X-800000Y26050000D02*
X-550000Y26050000D01*
X-200000Y26400000D02*
X-200000Y27400000D01*
X-800000Y28750000D02*
X-1050000Y28750000D01*
X-800000Y26050000D02*
X-1050000Y26050000D01*
X-800000Y28750000D02*
X-550000Y28750000D01*
X-1400000Y26400000D02*
G75*
G03*
X-1050000Y26050000I350000J0D01*
G01*
X-1050000Y28750000D02*
G75*
G03*
X-1400000Y28400000I1J-350001D01*
G01*
X-200000Y28400000D02*
G75*
G03*
X-550000Y28750000I-350001J-1D01*
G01*
X-550000Y26050000D02*
G75*
G03*
X-200000Y26400000I0J350000D01*
G01*
%TO.C,C16*%
X15400000Y27700000D02*
X15400000Y26700000D01*
X14800000Y25350000D02*
X14550000Y25350000D01*
X14200000Y27700000D02*
X14200000Y26700000D01*
X14800000Y25350000D02*
X15050000Y25350000D01*
X14800000Y28050000D02*
X15050000Y28050000D01*
X14800000Y28050000D02*
X14550000Y28050000D01*
X15400000Y25700000D02*
X15400000Y26700000D01*
X14200000Y25700000D02*
X14200000Y26700000D01*
X14550000Y28050000D02*
G75*
G03*
X14200000Y27700000I0J-350000D01*
G01*
X15400000Y27700000D02*
G75*
G03*
X15050000Y28050000I-350000J0D01*
G01*
X14200000Y25700000D02*
G75*
G03*
X14550000Y25350000I350001J1D01*
G01*
X15050000Y25350000D02*
G75*
G03*
X15400000Y25700000I-1J350001D01*
G01*
%TO.C,kibuzzard-63397852*%
G36*
X-8737816Y6875899D02*
G01*
X-8808446Y6886377D01*
X-8877710Y6903726D01*
X-8944940Y6927781D01*
X-9009488Y6958310D01*
X-9070733Y6995019D01*
X-9128085Y7037554D01*
X-9180992Y7085506D01*
X-9228944Y7138413D01*
X-9271479Y7195765D01*
X-9308187Y7257010D01*
X-9338717Y7321558D01*
X-9362772Y7388788D01*
X-9380121Y7458051D01*
X-9390598Y7528682D01*
X-9394102Y7600000D01*
X-9390598Y7671318D01*
X-9380121Y7741949D01*
X-9362772Y7811212D01*
X-9338717Y7878442D01*
X-9331506Y7893688D01*
X-8534206Y7893688D01*
X-8517736Y7780975D01*
X-8468325Y7687313D01*
X-8413733Y7632279D01*
X-8337797Y7579362D01*
X-8240519Y7528562D01*
X-8172455Y7487684D01*
X-8127012Y7441250D01*
X-8101414Y7384894D01*
X-8092881Y7314250D01*
X-8103994Y7240233D01*
X-8137331Y7186456D01*
X-8190512Y7153714D01*
X-8261156Y7142800D01*
X-8354113Y7154265D01*
X-8442484Y7188661D01*
X-8526269Y7245988D01*
X-8526269Y7080887D01*
X-8444777Y7038554D01*
X-8354819Y7013154D01*
X-8256394Y7004688D01*
X-8133521Y7017388D01*
X-8037954Y7055488D01*
X-7969691Y7118987D01*
X-7928734Y7207888D01*
X-7915081Y7322188D01*
X-7932147Y7444822D01*
X-7983344Y7542850D01*
X-8041376Y7599471D01*
X-8124455Y7655033D01*
X-8232581Y7709538D01*
X-8303137Y7756986D01*
X-8345470Y7821015D01*
X-8352634Y7861938D01*
X-7719819Y7861938D01*
X-7446769Y8014338D01*
X-7443594Y8012750D01*
X-7443594Y7020563D01*
X-7265794Y7020563D01*
X-7265794Y8179437D01*
X-7442006Y8179437D01*
X-7719819Y8017513D01*
X-7719819Y7861938D01*
X-8352634Y7861938D01*
X-8359581Y7901625D01*
X-8348469Y7966713D01*
X-8315131Y8015925D01*
X-8262347Y8046881D01*
X-8192894Y8057200D01*
X-8069466Y8040134D01*
X-7946831Y7988938D01*
X-7946831Y8147688D01*
X-8032203Y8174146D01*
X-8121103Y8190021D01*
X-8213531Y8195313D01*
X-8308340Y8186493D01*
X-8387451Y8160035D01*
X-8450862Y8115937D01*
X-8513370Y8020688D01*
X-8534206Y7893688D01*
X-9331506Y7893688D01*
X-9308187Y7942990D01*
X-9271479Y8004235D01*
X-9228944Y8061587D01*
X-9180992Y8114494D01*
X-9128085Y8162446D01*
X-9070733Y8204981D01*
X-9009488Y8241690D01*
X-8944940Y8272219D01*
X-8877710Y8296274D01*
X-8808446Y8313623D01*
X-8737816Y8324101D01*
X-8666498Y8327604D01*
X-7133502Y8327604D01*
X-7062184Y8324101D01*
X-6991554Y8313623D01*
X-6922290Y8296274D01*
X-6855060Y8272219D01*
X-6790512Y8241690D01*
X-6729267Y8204981D01*
X-6671915Y8162446D01*
X-6619008Y8114494D01*
X-6571056Y8061587D01*
X-6528521Y8004235D01*
X-6491813Y7942990D01*
X-6461283Y7878442D01*
X-6437228Y7811212D01*
X-6419879Y7741949D01*
X-6409402Y7671318D01*
X-6405898Y7600000D01*
X-6409402Y7528682D01*
X-6419879Y7458051D01*
X-6437228Y7388788D01*
X-6461283Y7321558D01*
X-6491813Y7257010D01*
X-6528521Y7195765D01*
X-6571056Y7138413D01*
X-6619008Y7085506D01*
X-6671915Y7037554D01*
X-6729267Y6995019D01*
X-6790512Y6958310D01*
X-6855060Y6927781D01*
X-6922290Y6903726D01*
X-6991554Y6886377D01*
X-7062184Y6875899D01*
X-7133502Y6872396D01*
X-8666498Y6872396D01*
X-8737816Y6875899D01*
G37*
%TO.C,kibuzzard-63397848*%
G36*
X7546303Y7325899D02*
G01*
X7475672Y7336377D01*
X7406408Y7353726D01*
X7339179Y7377781D01*
X7274631Y7408310D01*
X7213386Y7445019D01*
X7156034Y7487554D01*
X7103127Y7535506D01*
X7055175Y7588413D01*
X7012640Y7645765D01*
X6975931Y7707010D01*
X6945402Y7771558D01*
X6921347Y7838788D01*
X6903997Y7908051D01*
X6893520Y7978682D01*
X6890017Y8050000D01*
X6893520Y8121318D01*
X6903997Y8191949D01*
X6921347Y8261212D01*
X6945402Y8328442D01*
X6952613Y8343688D01*
X7749912Y8343688D01*
X7766383Y8230975D01*
X7815794Y8137313D01*
X7870386Y8082279D01*
X7946322Y8029362D01*
X8043600Y7978562D01*
X8111664Y7937684D01*
X8157106Y7891250D01*
X8182705Y7834894D01*
X8191237Y7764250D01*
X8180125Y7690233D01*
X8146787Y7636456D01*
X8093606Y7603714D01*
X8022962Y7592800D01*
X7930006Y7604265D01*
X7841635Y7638661D01*
X7757850Y7695988D01*
X7757850Y7530887D01*
X7839342Y7488554D01*
X7929300Y7463154D01*
X8027725Y7454688D01*
X8150597Y7467388D01*
X8246162Y7505487D01*
X8538900Y7505487D01*
X8663519Y7467387D01*
X8792900Y7454688D01*
X8902041Y7464389D01*
X8991337Y7493493D01*
X9060791Y7542000D01*
X9110400Y7609910D01*
X9140166Y7697222D01*
X9150087Y7803937D01*
X9137189Y7915459D01*
X9098494Y8000788D01*
X9034002Y8059922D01*
X8943712Y8092862D01*
X8943712Y8094450D01*
X9027056Y8134832D01*
X9086587Y8195653D01*
X9122306Y8276913D01*
X9134212Y8378613D01*
X9114369Y8490333D01*
X9054837Y8574669D01*
X8958397Y8627652D01*
X8827825Y8645313D01*
X8741747Y8639139D01*
X8652847Y8620618D01*
X8561125Y8589750D01*
X8561125Y8442113D01*
X8684156Y8492119D01*
X8796075Y8508788D01*
X8887797Y8491854D01*
X8942831Y8441054D01*
X8961175Y8356388D01*
X8946887Y8267091D01*
X8904025Y8205575D01*
X8829016Y8169856D01*
X8718287Y8157950D01*
X8686537Y8157950D01*
X8686537Y8018250D01*
X8718287Y8018250D01*
X8837350Y8006145D01*
X8915137Y7969831D01*
X8958000Y7906133D01*
X8972287Y7811875D01*
X8959786Y7716030D01*
X8922281Y7647569D01*
X8859773Y7606492D01*
X8772262Y7592800D01*
X8654391Y7609072D01*
X8538900Y7657888D01*
X8538900Y7505487D01*
X8246162Y7505487D01*
X8246165Y7505488D01*
X8314427Y7568987D01*
X8355385Y7657888D01*
X8369037Y7772188D01*
X8351972Y7894822D01*
X8300775Y7992850D01*
X8242743Y8049471D01*
X8159664Y8105033D01*
X8051537Y8159538D01*
X7980982Y8206986D01*
X7938649Y8271015D01*
X7924537Y8351625D01*
X7935650Y8416713D01*
X7968987Y8465925D01*
X8021772Y8496881D01*
X8091225Y8507200D01*
X8214653Y8490134D01*
X8337287Y8438938D01*
X8337287Y8597688D01*
X8251915Y8624146D01*
X8163015Y8640021D01*
X8070587Y8645313D01*
X7975778Y8636493D01*
X7896668Y8610035D01*
X7833256Y8565937D01*
X7770748Y8470688D01*
X7749912Y8343688D01*
X6952613Y8343688D01*
X6975931Y8392990D01*
X7012640Y8454235D01*
X7055175Y8511587D01*
X7103127Y8564494D01*
X7156034Y8612446D01*
X7213386Y8654981D01*
X7274631Y8691690D01*
X7339179Y8722219D01*
X7406408Y8746274D01*
X7475672Y8763623D01*
X7546303Y8774101D01*
X7617621Y8777604D01*
X9282379Y8777604D01*
X9353697Y8774101D01*
X9424328Y8763623D01*
X9493592Y8746274D01*
X9560821Y8722219D01*
X9625369Y8691690D01*
X9686614Y8654981D01*
X9743966Y8612446D01*
X9796873Y8564494D01*
X9844825Y8511587D01*
X9887360Y8454235D01*
X9924069Y8392990D01*
X9954598Y8328442D01*
X9978653Y8261212D01*
X9996003Y8191949D01*
X10006480Y8121318D01*
X10009983Y8050000D01*
X10006480Y7978682D01*
X9996003Y7908051D01*
X9978653Y7838788D01*
X9954598Y7771558D01*
X9924069Y7707010D01*
X9887360Y7645765D01*
X9844825Y7588413D01*
X9796873Y7535506D01*
X9743966Y7487554D01*
X9686614Y7445019D01*
X9625369Y7408310D01*
X9560821Y7377781D01*
X9493592Y7353726D01*
X9424328Y7336377D01*
X9353697Y7325899D01*
X9282379Y7322396D01*
X7617621Y7322396D01*
X7546303Y7325899D01*
G37*
%TO.C,C14*%
X14600000Y35075000D02*
X14850000Y35075000D01*
X14600000Y32375000D02*
X14850000Y32375000D01*
X15200000Y32725000D02*
X15200000Y33725000D01*
X14600000Y32375000D02*
X14350000Y32375000D01*
X15200000Y34725000D02*
X15200000Y33725000D01*
X14000000Y34725000D02*
X14000000Y33725000D01*
X14000000Y32725000D02*
X14000000Y33725000D01*
X14600000Y35075000D02*
X14350000Y35075000D01*
X14350000Y35075000D02*
G75*
G03*
X14000000Y34725000I1J-350001D01*
G01*
X15200000Y34725000D02*
G75*
G03*
X14850000Y35075000I-350001J-1D01*
G01*
X14850000Y32375000D02*
G75*
G03*
X15200000Y32725000I0J350000D01*
G01*
X14000000Y32725000D02*
G75*
G03*
X14350000Y32375000I350000J0D01*
G01*
D16*
%TO.C,C44*%
X1603553Y45350000D02*
X1603553Y38590000D01*
X5010000Y39100000D02*
X5000000Y45350000D01*
X4500000Y45850000D02*
X2103553Y45850000D01*
X2103553Y45850000D02*
G75*
G03*
X1603553Y45350000I1J-500001D01*
G01*
X5000000Y45350000D02*
G75*
G03*
X4500000Y45850000I-500001J-1D01*
G01*
%TO.C,kibuzzard-633979A2*%
G36*
X-22210300Y40823794D02*
G01*
X-22754813Y40931744D01*
X-22754813Y40933331D01*
X-22210300Y41041281D01*
X-22210300Y40823794D01*
G37*
G36*
X-21625899Y39640697D02*
G01*
X-21636377Y39570066D01*
X-21653726Y39500802D01*
X-21677781Y39433573D01*
X-21708310Y39369024D01*
X-21745019Y39307779D01*
X-21787554Y39250427D01*
X-21835506Y39197521D01*
X-21888413Y39149569D01*
X-21945765Y39107034D01*
X-22007010Y39070325D01*
X-22071558Y39039796D01*
X-22138788Y39015741D01*
X-22208051Y38998391D01*
X-22278682Y38987914D01*
X-22350000Y38984410D01*
X-22421318Y38987914D01*
X-22491949Y38998391D01*
X-22561212Y39015741D01*
X-22628442Y39039796D01*
X-22692990Y39070325D01*
X-22754235Y39107034D01*
X-22811587Y39149569D01*
X-22864494Y39197521D01*
X-22912446Y39250427D01*
X-22954981Y39307779D01*
X-22991690Y39369024D01*
X-23022219Y39433573D01*
X-23046274Y39500802D01*
X-23063623Y39570066D01*
X-23074101Y39640697D01*
X-23077604Y39712015D01*
X-23077604Y40101481D01*
X-22945313Y40101481D01*
X-22937375Y39970512D01*
X-22913563Y39844306D01*
X-21786437Y39844306D01*
X-21768799Y39931795D01*
X-21758215Y40020695D01*
X-21754688Y40111006D01*
X-21764389Y40223542D01*
X-21793493Y40315617D01*
X-21842000Y40387231D01*
X-21909910Y40438384D01*
X-21997222Y40469076D01*
X-22103937Y40479306D01*
X-22210300Y40464027D01*
X-22300788Y40418187D01*
X-22367066Y40349330D01*
X-22400800Y40264994D01*
X-22402387Y40264994D01*
X-22434931Y40339408D01*
X-22491288Y40397550D01*
X-22566694Y40435055D01*
X-22656388Y40447556D01*
X-22760401Y40433713D01*
X-22841300Y40392184D01*
X-22899085Y40322969D01*
X-22933756Y40226068D01*
X-22945313Y40101481D01*
X-23077604Y40101481D01*
X-23077604Y40831731D01*
X-22929437Y40831731D01*
X-21770563Y40558681D01*
X-21770563Y40736481D01*
X-22075362Y40796806D01*
X-22075362Y41068269D01*
X-21770563Y41128594D01*
X-21770563Y41312744D01*
X-22929437Y41038106D01*
X-22929437Y40831731D01*
X-23077604Y40831731D01*
X-23077604Y41404819D01*
X-22929437Y41404819D01*
X-22791325Y41404819D01*
X-22791325Y41641356D01*
X-21770563Y41641356D01*
X-21770563Y41819156D01*
X-22791325Y41819156D01*
X-22791325Y42055694D01*
X-22929437Y42055694D01*
X-22929437Y41404819D01*
X-23077604Y41404819D01*
X-23077604Y42187985D01*
X-23074101Y42259303D01*
X-23063623Y42329934D01*
X-23046274Y42399198D01*
X-23022219Y42466427D01*
X-22991690Y42530976D01*
X-22954981Y42592221D01*
X-22912446Y42649573D01*
X-22864494Y42702479D01*
X-22811587Y42750431D01*
X-22754235Y42792966D01*
X-22692990Y42829675D01*
X-22628442Y42860204D01*
X-22561212Y42884259D01*
X-22491949Y42901609D01*
X-22421318Y42912086D01*
X-22350000Y42915590D01*
X-22278682Y42912086D01*
X-22208051Y42901609D01*
X-22138788Y42884259D01*
X-22071558Y42860204D01*
X-22007010Y42829675D01*
X-21945765Y42792966D01*
X-21888413Y42750431D01*
X-21835506Y42702479D01*
X-21787554Y42649573D01*
X-21745019Y42592221D01*
X-21708310Y42530976D01*
X-21677781Y42466427D01*
X-21653726Y42399198D01*
X-21636377Y42329934D01*
X-21625899Y42259303D01*
X-21622396Y42187985D01*
X-21622396Y39712015D01*
X-21625899Y39640697D01*
G37*
G36*
X-22561733Y40264994D02*
G01*
X-22504781Y40226894D01*
X-22472039Y40161806D01*
X-22461125Y40068144D01*
X-22461125Y40022106D01*
X-22796087Y40022106D01*
X-22808788Y40101481D01*
X-22790619Y40199377D01*
X-22736115Y40258115D01*
X-22645275Y40277694D01*
X-22561733Y40264994D01*
G37*
G36*
X-22009680Y40294164D02*
G01*
X-21942806Y40257850D01*
X-21904111Y40196930D01*
X-21891213Y40111006D01*
X-21903912Y40022106D01*
X-22326188Y40022106D01*
X-22326188Y40088781D01*
X-22313091Y40186412D01*
X-22273800Y40253881D01*
X-22205934Y40293172D01*
X-22107113Y40306269D01*
X-22009680Y40294164D01*
G37*
D11*
%TO.C,HL1*%
X-17265000Y47285000D02*
X-18735000Y47285000D01*
X-18735000Y47285000D02*
X-18735000Y45000000D01*
X-17265000Y45000000D02*
X-17265000Y47285000D01*
%TO.C,kibuzzard-633978AE*%
G36*
X-836294Y19683799D02*
G01*
X-906154Y19694162D01*
X-974662Y19711322D01*
X-1041159Y19735115D01*
X-1105003Y19765311D01*
X-1165580Y19801619D01*
X-1180420Y19812625D01*
X-633462Y19812625D01*
X-455662Y19812625D01*
X-455662Y20293637D01*
X-393750Y20293637D01*
X-297706Y20262681D01*
X-267345Y20218033D01*
X-241350Y20146000D01*
X-149275Y19812625D01*
X33288Y19812625D01*
X128538Y19812625D01*
X315863Y19812625D01*
X460325Y20276175D01*
X463500Y20276175D01*
X609550Y19812625D01*
X803225Y19812625D01*
X577800Y20403175D01*
X675888Y20654000D01*
X979438Y20654000D01*
X1252488Y20806400D01*
X1255663Y20804812D01*
X1255663Y19812625D01*
X1433463Y19812625D01*
X1433463Y20971500D01*
X1257250Y20971500D01*
X979438Y20809575D01*
X979438Y20654000D01*
X675888Y20654000D01*
X800050Y20971500D01*
X615900Y20971500D01*
X469850Y20527000D01*
X466675Y20527000D01*
X322213Y20971500D01*
X133300Y20971500D01*
X355550Y20403175D01*
X128538Y19812625D01*
X33288Y19812625D01*
X-65137Y20136475D01*
X-115937Y20261094D01*
X-176262Y20339675D01*
X-176262Y20342850D01*
X-98475Y20388292D01*
X-42912Y20453181D01*
X-9575Y20537517D01*
X1538Y20641300D01*
X-8252Y20750220D01*
X-37621Y20837797D01*
X-86569Y20904031D01*
X-156507Y20950333D01*
X-248847Y20978115D01*
X-363587Y20987375D01*
X-454957Y20983847D01*
X-544915Y20973264D01*
X-633462Y20955625D01*
X-633462Y19812625D01*
X-1180420Y19812625D01*
X-1222306Y19843690D01*
X-1274635Y19891119D01*
X-1322064Y19943448D01*
X-1364135Y20000175D01*
X-1400443Y20060751D01*
X-1430639Y20124595D01*
X-1454432Y20191092D01*
X-1471593Y20259600D01*
X-1481955Y20329460D01*
X-1485421Y20400000D01*
X-1481955Y20470540D01*
X-1471593Y20540400D01*
X-1454432Y20608908D01*
X-1430639Y20675405D01*
X-1400443Y20739249D01*
X-1364135Y20799825D01*
X-1322064Y20856552D01*
X-1274635Y20908881D01*
X-1222306Y20956310D01*
X-1165580Y20998381D01*
X-1105003Y21034689D01*
X-1041159Y21064885D01*
X-974662Y21088678D01*
X-906154Y21105838D01*
X-836294Y21116201D01*
X-765754Y21119667D01*
X1565754Y21119667D01*
X1636294Y21116201D01*
X1706154Y21105838D01*
X1774662Y21088678D01*
X1841159Y21064885D01*
X1905003Y21034689D01*
X1965580Y20998381D01*
X2022306Y20956310D01*
X2074635Y20908881D01*
X2122064Y20856552D01*
X2164135Y20799825D01*
X2200443Y20739249D01*
X2230639Y20675405D01*
X2254432Y20608908D01*
X2271593Y20540400D01*
X2281955Y20470540D01*
X2285421Y20400000D01*
X2281955Y20329460D01*
X2271593Y20259600D01*
X2254432Y20191092D01*
X2230639Y20124595D01*
X2200443Y20060751D01*
X2164135Y20000175D01*
X2122064Y19943448D01*
X2074635Y19891119D01*
X2022306Y19843690D01*
X1965580Y19801619D01*
X1905003Y19765311D01*
X1841159Y19735115D01*
X1774662Y19711322D01*
X1706154Y19694162D01*
X1636294Y19683799D01*
X1565754Y19680333D01*
X-765754Y19680333D01*
X-836294Y19683799D01*
G37*
G36*
X-279053Y20836761D02*
G01*
X-219125Y20799256D01*
X-183406Y20734764D01*
X-171500Y20641300D01*
X-184200Y20543669D01*
X-222300Y20479375D01*
X-290562Y20443656D01*
X-393750Y20431750D01*
X-455662Y20431750D01*
X-455662Y20836562D01*
X-363587Y20849263D01*
X-279053Y20836761D01*
G37*
D17*
%TO.C,R27*%
X-9900000Y27850000D02*
X-9900000Y30550000D01*
X-8700000Y27900000D02*
X-8700000Y30550000D01*
X-9900000Y30550000D02*
X-8700000Y30550000D01*
X-9900000Y27850000D02*
X-8700000Y27850000D01*
D11*
%TO.C,C46*%
X-18700000Y35100000D02*
X-18700000Y36100000D01*
X-23646447Y35100000D02*
X-23646447Y36153553D01*
X-23146447Y34600000D02*
X-19150000Y34600000D01*
X-23146447Y36600000D02*
X-19150000Y36600000D01*
X-19200000Y34600000D02*
G75*
G03*
X-18700000Y35100000I10J499990D01*
G01*
X-23146447Y36600000D02*
G75*
G03*
X-23646447Y36100000I1J-500001D01*
G01*
X-18700000Y36100000D02*
G75*
G03*
X-19200000Y36600000I-500000J0D01*
G01*
X-23646447Y35100000D02*
G75*
G03*
X-23146447Y34600000I500001J1D01*
G01*
D18*
%TO.C,C13*%
X8200000Y34800000D02*
X8200000Y35800000D01*
X7600000Y34450000D02*
X7350000Y34450000D01*
X7000000Y34800000D02*
X7000000Y35800000D01*
X7600000Y34450000D02*
X7850000Y34450000D01*
X7600000Y37150000D02*
X7850000Y37150000D01*
X7000000Y36800000D02*
X7000000Y35800000D01*
X8200000Y36800000D02*
X8200000Y35800000D01*
X7600000Y37150000D02*
X7350000Y37150000D01*
X7000000Y34800000D02*
G75*
G03*
X7350000Y34450000I350001J1D01*
G01*
X7350000Y37150000D02*
G75*
G03*
X7000000Y36800000I0J-350000D01*
G01*
X8200000Y36800000D02*
G75*
G03*
X7850000Y37150000I-350000J0D01*
G01*
X7850000Y34450000D02*
G75*
G03*
X8200000Y34800000I-1J350001D01*
G01*
%TO.C,kibuzzard-6339783C*%
G36*
X205828Y6875899D02*
G01*
X135197Y6886377D01*
X65933Y6903726D01*
X-1296Y6927781D01*
X-65844Y6958310D01*
X-127089Y6995019D01*
X-184441Y7037554D01*
X-237348Y7085506D01*
X-285300Y7138413D01*
X-327835Y7195765D01*
X-364544Y7257010D01*
X-395073Y7321558D01*
X-419128Y7388788D01*
X-436478Y7458051D01*
X-446955Y7528682D01*
X-450458Y7600000D01*
X-446955Y7671318D01*
X-436478Y7741949D01*
X-419128Y7811212D01*
X-395073Y7878442D01*
X-387862Y7893688D01*
X409437Y7893688D01*
X425908Y7780975D01*
X475319Y7687313D01*
X529911Y7632279D01*
X605847Y7579362D01*
X703125Y7528562D01*
X771189Y7487684D01*
X816631Y7441250D01*
X842230Y7384894D01*
X850762Y7314250D01*
X839650Y7240233D01*
X806312Y7186456D01*
X753131Y7153714D01*
X682487Y7142800D01*
X589531Y7154265D01*
X501160Y7188661D01*
X417375Y7245988D01*
X417375Y7080887D01*
X498867Y7038554D01*
X588825Y7013154D01*
X687250Y7004688D01*
X810122Y7017388D01*
X818086Y7020563D01*
X1219062Y7020563D01*
X1790562Y7020563D01*
X1790562Y7158675D01*
X1403212Y7158675D01*
X1403212Y7161850D01*
X1496329Y7272777D01*
X1575655Y7376956D01*
X1641189Y7474389D01*
X1692931Y7565075D01*
X1742761Y7678317D01*
X1772659Y7785208D01*
X1782625Y7885750D01*
X1764567Y8019695D01*
X1710394Y8116731D01*
X1622089Y8175667D01*
X1501637Y8195313D01*
X1401096Y8186140D01*
X1306904Y8158624D01*
X1219062Y8112763D01*
X1219062Y7963538D01*
X1308492Y8015572D01*
X1390512Y8046793D01*
X1465125Y8057200D01*
X1569106Y8014338D01*
X1594705Y7958775D01*
X1603237Y7877813D01*
X1595397Y7790824D01*
X1571876Y7698587D01*
X1532675Y7601102D01*
X1477793Y7498368D01*
X1407230Y7390385D01*
X1320986Y7277154D01*
X1219062Y7158675D01*
X1219062Y7020563D01*
X818086Y7020563D01*
X905690Y7055488D01*
X973952Y7118987D01*
X1014910Y7207888D01*
X1028562Y7322188D01*
X1011497Y7444822D01*
X960300Y7542850D01*
X902268Y7599471D01*
X819189Y7655033D01*
X711062Y7709538D01*
X640507Y7756986D01*
X598174Y7821015D01*
X584062Y7901625D01*
X595175Y7966713D01*
X628512Y8015925D01*
X681297Y8046881D01*
X750750Y8057200D01*
X874178Y8040134D01*
X996812Y7988938D01*
X996812Y8147688D01*
X911440Y8174146D01*
X822540Y8190021D01*
X730112Y8195313D01*
X635303Y8186493D01*
X556193Y8160035D01*
X492781Y8115937D01*
X430273Y8020688D01*
X409437Y7893688D01*
X-387862Y7893688D01*
X-364544Y7942990D01*
X-327835Y8004235D01*
X-285300Y8061587D01*
X-237348Y8114494D01*
X-184441Y8162446D01*
X-127089Y8204981D01*
X-65844Y8241690D01*
X-1296Y8272219D01*
X65933Y8296274D01*
X135197Y8313623D01*
X205828Y8324101D01*
X277146Y8327604D01*
X1922854Y8327604D01*
X1994172Y8324101D01*
X2064803Y8313623D01*
X2134067Y8296274D01*
X2201296Y8272219D01*
X2265844Y8241690D01*
X2327089Y8204981D01*
X2384441Y8162446D01*
X2437348Y8114494D01*
X2485300Y8061587D01*
X2527835Y8004235D01*
X2564544Y7942990D01*
X2595073Y7878442D01*
X2619128Y7811212D01*
X2636478Y7741949D01*
X2646955Y7671318D01*
X2650458Y7600000D01*
X2646955Y7528682D01*
X2636478Y7458051D01*
X2619128Y7388788D01*
X2595073Y7321558D01*
X2564544Y7257010D01*
X2527835Y7195765D01*
X2485300Y7138413D01*
X2437348Y7085506D01*
X2384441Y7037554D01*
X2327089Y6995019D01*
X2265844Y6958310D01*
X2201296Y6927781D01*
X2134067Y6903726D01*
X2064803Y6886377D01*
X1994172Y6875899D01*
X1922854Y6872396D01*
X277146Y6872396D01*
X205828Y6875899D01*
G37*
D17*
%TO.C,R72*%
X-4450000Y20700000D02*
X-4450000Y21900000D01*
X-1800000Y21900000D02*
X-4450000Y21900000D01*
X-1750000Y20700000D02*
X-1750000Y21900000D01*
X-1750000Y20700000D02*
X-4450000Y20700000D01*
D10*
%TO.C,BQ3*%
X12350000Y34050000D02*
X12350000Y41950000D01*
X10450000Y34050000D02*
X12350000Y34050000D01*
D16*
%TO.C,DD3*%
X12263878Y21625000D02*
X11588878Y21625000D01*
X12263878Y21625000D02*
X12263878Y22300000D01*
X1913878Y21625000D02*
X1913878Y22300000D01*
X1913878Y31975000D02*
X2588878Y31975000D01*
X1913878Y21625000D02*
X2488878Y21625000D01*
X12263878Y31975000D02*
X12263878Y31300000D01*
X12263878Y31975000D02*
X11588878Y31975000D01*
X2488878Y21625000D02*
X2488878Y20350000D01*
X1913878Y31975000D02*
X1913878Y31300000D01*
D17*
%TO.C,R9*%
X-8350000Y32225000D02*
X-8350000Y29575000D01*
X-7150000Y32275000D02*
X-8350000Y32275000D01*
X-7150000Y29575000D02*
X-8350000Y29575000D01*
X-7150000Y32275000D02*
X-7150000Y29575000D01*
D10*
%TO.C,DA6*%
X17500000Y32040000D02*
X16700000Y32040000D01*
X17500000Y32040000D02*
X18300000Y32040000D01*
X17500000Y35160000D02*
X15700000Y35160000D01*
X17500000Y35160000D02*
X18300000Y35160000D01*
%TO.C,XP1*%
X-25300000Y19200000D02*
G75*
G03*
X-25300000Y19200000I-1500000J0D01*
G01*
D18*
%TO.C,C9*%
X9100000Y34450000D02*
X8850000Y34450000D01*
X8500000Y34800000D02*
X8500000Y35800000D01*
X9100000Y37150000D02*
X9350000Y37150000D01*
X9700000Y34800000D02*
X9700000Y35800000D01*
X8500000Y36800000D02*
X8500000Y35800000D01*
X9700000Y36800000D02*
X9700000Y35800000D01*
X9100000Y37150000D02*
X8850000Y37150000D01*
X9100000Y34450000D02*
X9350000Y34450000D01*
X9700000Y36800000D02*
G75*
G03*
X9350000Y37150000I-350000J0D01*
G01*
X8500000Y34800000D02*
G75*
G03*
X8850000Y34450000I350001J1D01*
G01*
X8850000Y37150000D02*
G75*
G03*
X8500000Y36800000I0J-350000D01*
G01*
X9350000Y34450000D02*
G75*
G03*
X9700000Y34800000I-1J350001D01*
G01*
D10*
%TO.C,C45*%
X-11240000Y23404437D02*
X-11240000Y30860000D01*
X-19760000Y23404437D02*
X-19760000Y30860000D01*
X-18510000Y21600000D02*
X-17510000Y21600000D01*
X-18010000Y21100000D02*
X-18010000Y22100000D01*
X-18695563Y22340000D02*
X-17010000Y22340000D01*
X-12304437Y22340000D02*
X-13990000Y22340000D01*
X-11240000Y30860000D02*
X-13990000Y30860000D01*
X-18695563Y22340000D02*
X-19760000Y23404437D01*
X-12304437Y22340000D02*
X-11240000Y23404437D01*
X-19760000Y30860000D02*
X-17010000Y30860000D01*
D17*
%TO.C,R67*%
X-2400000Y37350000D02*
X-2400000Y36150000D01*
X-2350000Y36150000D02*
X300000Y36150000D01*
X-2400000Y37350000D02*
X300000Y37350000D01*
X300000Y37350000D02*
X300000Y36150000D01*
D18*
%TO.C,C15*%
X14550000Y18600000D02*
X14550000Y18850000D01*
X12200000Y18000000D02*
X13200000Y18000000D01*
X14200000Y18000000D02*
X13200000Y18000000D01*
X11850000Y18600000D02*
X11850000Y18850000D01*
X14200000Y19200000D02*
X13200000Y19200000D01*
X11850000Y18600000D02*
X11850000Y18350000D01*
X14550000Y18600000D02*
X14550000Y18350000D01*
X12200000Y19200000D02*
X13200000Y19200000D01*
X11850000Y18350000D02*
G75*
G03*
X12200000Y18000000I350001J1D01*
G01*
X14550000Y18850000D02*
G75*
G03*
X14200000Y19200000I-350000J0D01*
G01*
X14200000Y18000000D02*
G75*
G03*
X14550000Y18350000I0J350000D01*
G01*
X12200000Y19200000D02*
G75*
G03*
X11850000Y18850000I1J-350001D01*
G01*
D11*
%TO.C,HL4*%
X-8229927Y47285000D02*
X-8229927Y45000000D01*
X-6759927Y45000000D02*
X-6759927Y47285000D01*
X-6759927Y47285000D02*
X-8229927Y47285000D01*
D17*
%TO.C,R26*%
X-3450000Y27900000D02*
X-3450000Y30550000D01*
X-4650000Y27850000D02*
X-3450000Y27850000D01*
X-4650000Y30550000D02*
X-3450000Y30550000D01*
X-4650000Y27850000D02*
X-4650000Y30550000D01*
%TO.C,R66*%
X-2400000Y38950000D02*
X300000Y38950000D01*
X300000Y38950000D02*
X300000Y37750000D01*
X-2350000Y37750000D02*
X300000Y37750000D01*
X-2400000Y38950000D02*
X-2400000Y37750000D01*
D10*
%TO.C,SB1*%
X-11600000Y42750000D02*
X-11600000Y39450000D01*
X-11900000Y42750000D02*
X-11600000Y42750000D01*
X-14100000Y42750000D02*
X-14400000Y42750000D01*
X-11600000Y39450000D02*
X-11900000Y39450000D01*
X-14400000Y39450000D02*
X-14100000Y39450000D01*
X-14400000Y42750000D02*
X-14400000Y39450000D01*
D18*
%TO.C,C40*%
X28550000Y27900000D02*
X28800000Y27900000D01*
X28550000Y25200000D02*
X28300000Y25200000D01*
X27950000Y25550000D02*
X27950000Y26550000D01*
X28550000Y25200000D02*
X28800000Y25200000D01*
X29150000Y27550000D02*
X29150000Y26550000D01*
X29150000Y25550000D02*
X29150000Y26550000D01*
X28550000Y27900000D02*
X28300000Y27900000D01*
X27950000Y27550000D02*
X27950000Y26550000D01*
X27950000Y25550000D02*
G75*
G03*
X28300000Y25200000I350000J0D01*
G01*
X28800000Y25200000D02*
G75*
G03*
X29150000Y25550000I0J350000D01*
G01*
X29150000Y27550000D02*
G75*
G03*
X28800000Y27900000I-350001J-1D01*
G01*
X28300000Y27900000D02*
G75*
G03*
X27950000Y27550000I1J-350001D01*
G01*
D17*
%TO.C,R46*%
X16250000Y31600000D02*
X16250000Y30400000D01*
X18950000Y31600000D02*
X18950000Y30400000D01*
X16250000Y31600000D02*
X18950000Y31600000D01*
X16300000Y30400000D02*
X18950000Y30400000D01*
D10*
%TO.C,XT6*%
X-5350000Y8990000D02*
X-5350000Y9190000D01*
X-8850000Y12800000D02*
X-9050000Y12800000D01*
X-6950000Y13300000D02*
X-6950000Y12800000D01*
X-6450000Y9800000D02*
X-4500000Y9800000D01*
X-4500000Y9800000D02*
X-4500000Y13300000D01*
X-3890000Y9190000D02*
X-3890000Y13910000D01*
X-3890000Y10500000D02*
X-4500000Y10500000D01*
X-7050000Y12800000D02*
X-7050000Y13300000D01*
X-9450000Y9800000D02*
X-9450000Y9190000D01*
X-6850000Y13300000D02*
X-6850000Y12800000D01*
X-11400000Y13300000D02*
X-11400000Y9800000D01*
X-4500000Y13300000D02*
X-11400000Y13300000D01*
X-4840000Y8890000D02*
X-3590000Y8890000D01*
X-12010000Y9190000D02*
X-3890000Y9190000D01*
X-8850000Y13300000D02*
X-8850000Y12800000D01*
X-5650000Y8990000D02*
X-5350000Y8990000D01*
X-8950000Y13300000D02*
X-8950000Y12800000D01*
X-3590000Y8890000D02*
X-3590000Y10140000D01*
X-11400000Y9800000D02*
X-9450000Y9800000D01*
X-6850000Y12800000D02*
X-7050000Y12800000D01*
X-12010000Y13910000D02*
X-12010000Y9190000D01*
X-9050000Y12800000D02*
X-9050000Y13300000D01*
X-12010000Y10500000D02*
X-11400000Y10500000D01*
X-5650000Y9190000D02*
X-5650000Y8990000D01*
X-3890000Y11800000D02*
X-4500000Y11800000D01*
X-3890000Y13910000D02*
X-12010000Y13910000D01*
X-5650000Y9090000D02*
X-5350000Y9090000D01*
X-12010000Y11800000D02*
X-11400000Y11800000D01*
X-6450000Y9190000D02*
X-6450000Y9800000D01*
D11*
%TO.C,HL6*%
X-8965000Y47285000D02*
X-10435000Y47285000D01*
X-10435000Y47285000D02*
X-10435000Y45000000D01*
X-8965000Y45000000D02*
X-8965000Y47285000D01*
D10*
%TO.C,XT16*%
X23160000Y11800000D02*
X22550000Y11800000D01*
X23160000Y13910000D02*
X15040000Y13910000D01*
X23160000Y9190000D02*
X23160000Y13910000D01*
X21400000Y8990000D02*
X21700000Y8990000D01*
X20600000Y9800000D02*
X22550000Y9800000D01*
X15650000Y9800000D02*
X17600000Y9800000D01*
X21400000Y9090000D02*
X21700000Y9090000D01*
X18200000Y13300000D02*
X18200000Y12800000D01*
X15040000Y13910000D02*
X15040000Y9190000D01*
X23160000Y10500000D02*
X22550000Y10500000D01*
X18000000Y12800000D02*
X18000000Y13300000D01*
X20100000Y13300000D02*
X20100000Y12800000D01*
X22550000Y13300000D02*
X15650000Y13300000D01*
X18100000Y13300000D02*
X18100000Y12800000D01*
X20600000Y9190000D02*
X20600000Y9800000D01*
X20200000Y12800000D02*
X20000000Y12800000D01*
X20000000Y12800000D02*
X20000000Y13300000D01*
X15040000Y11800000D02*
X15650000Y11800000D01*
X20200000Y13300000D02*
X20200000Y12800000D01*
X21700000Y8990000D02*
X21700000Y9190000D01*
X23460000Y8890000D02*
X23460000Y10140000D01*
X15040000Y10500000D02*
X15650000Y10500000D01*
X21400000Y9190000D02*
X21400000Y8990000D01*
X15040000Y9190000D02*
X23160000Y9190000D01*
X17600000Y9800000D02*
X17600000Y9190000D01*
X18200000Y12800000D02*
X18000000Y12800000D01*
X22210000Y8890000D02*
X23460000Y8890000D01*
X22550000Y9800000D02*
X22550000Y13300000D01*
X15650000Y13300000D02*
X15650000Y9800000D01*
%TO.C,kibuzzard-6339785C*%
G36*
X18200272Y6875899D02*
G01*
X18129641Y6886377D01*
X18060377Y6903726D01*
X17993148Y6927781D01*
X17928599Y6958310D01*
X17867354Y6995019D01*
X17810002Y7037554D01*
X17757096Y7085506D01*
X17709144Y7138413D01*
X17666609Y7195765D01*
X17629900Y7257010D01*
X17599371Y7321558D01*
X17575316Y7388788D01*
X17557966Y7458051D01*
X17547489Y7528682D01*
X17543985Y7600000D01*
X17547489Y7671318D01*
X17557966Y7741949D01*
X17575316Y7811212D01*
X17599371Y7878442D01*
X17606582Y7893688D01*
X18403881Y7893688D01*
X18420352Y7780975D01*
X18469762Y7687313D01*
X18524355Y7632279D01*
X18600290Y7579362D01*
X18697569Y7528562D01*
X18765633Y7487684D01*
X18811075Y7441250D01*
X18836673Y7384894D01*
X18845206Y7314250D01*
X18834094Y7240233D01*
X18800756Y7186456D01*
X18747575Y7153714D01*
X18676931Y7142800D01*
X18583974Y7154265D01*
X18495603Y7188661D01*
X18411819Y7245988D01*
X18411819Y7080887D01*
X18493310Y7038554D01*
X18583269Y7013154D01*
X18681694Y7004688D01*
X18804566Y7017388D01*
X18892167Y7052312D01*
X19224619Y7052312D01*
X19333759Y7016594D01*
X19451631Y7004688D01*
X19560463Y7014565D01*
X19647776Y7044199D01*
X19713569Y7093587D01*
X19759430Y7165907D01*
X19786947Y7264332D01*
X19796119Y7388863D01*
X19785959Y7523165D01*
X19755479Y7627623D01*
X19704679Y7702235D01*
X19633559Y7747003D01*
X19542119Y7761925D01*
X19466712Y7752003D01*
X19402419Y7722238D01*
X19399244Y7722238D01*
X19410356Y8042913D01*
X19764369Y8042913D01*
X19764369Y8179437D01*
X19248431Y8179437D01*
X19232556Y7563488D01*
X19378606Y7563488D01*
X19433772Y7611113D01*
X19494494Y7626988D01*
X19588156Y7572219D01*
X19610778Y7498995D01*
X19618319Y7388863D01*
X19607603Y7272777D01*
X19575456Y7197569D01*
X19519894Y7156492D01*
X19438931Y7142800D01*
X19332966Y7157881D01*
X19224619Y7203125D01*
X19224619Y7052312D01*
X18892167Y7052312D01*
X18900134Y7055488D01*
X18968396Y7118987D01*
X19009354Y7207888D01*
X19023006Y7322188D01*
X19005941Y7444822D01*
X18954744Y7542850D01*
X18896712Y7599471D01*
X18813633Y7655033D01*
X18705506Y7709538D01*
X18634951Y7756986D01*
X18592617Y7821015D01*
X18578506Y7901625D01*
X18589619Y7966713D01*
X18622956Y8015925D01*
X18675741Y8046881D01*
X18745194Y8057200D01*
X18868622Y8040134D01*
X18991256Y7988938D01*
X18991256Y8147688D01*
X18905884Y8174146D01*
X18816984Y8190021D01*
X18724556Y8195313D01*
X18629747Y8186493D01*
X18550637Y8160035D01*
X18487225Y8115937D01*
X18424717Y8020688D01*
X18403881Y7893688D01*
X17606582Y7893688D01*
X17629900Y7942990D01*
X17666609Y8004235D01*
X17709144Y8061587D01*
X17757096Y8114494D01*
X17810002Y8162446D01*
X17867354Y8204981D01*
X17928599Y8241690D01*
X17993148Y8272219D01*
X18060377Y8296274D01*
X18129641Y8313623D01*
X18200272Y8324101D01*
X18271590Y8327604D01*
X19928410Y8327604D01*
X19999728Y8324101D01*
X20070359Y8313623D01*
X20139623Y8296274D01*
X20206852Y8272219D01*
X20271401Y8241690D01*
X20332646Y8204981D01*
X20389998Y8162446D01*
X20442904Y8114494D01*
X20490856Y8061587D01*
X20533391Y8004235D01*
X20570100Y7942990D01*
X20600629Y7878442D01*
X20624684Y7811212D01*
X20642034Y7741949D01*
X20652511Y7671318D01*
X20656015Y7600000D01*
X20652511Y7528682D01*
X20642034Y7458051D01*
X20624684Y7388788D01*
X20600629Y7321558D01*
X20570100Y7257010D01*
X20533391Y7195765D01*
X20490856Y7138413D01*
X20442904Y7085506D01*
X20389998Y7037554D01*
X20332646Y6995019D01*
X20271401Y6958310D01*
X20206852Y6927781D01*
X20139623Y6903726D01*
X20070359Y6886377D01*
X19999728Y6875899D01*
X19928410Y6872396D01*
X18271590Y6872396D01*
X18200272Y6875899D01*
G37*
D18*
%TO.C,C26*%
X23200000Y36850000D02*
X23450000Y36850000D01*
X23200000Y34150000D02*
X23450000Y34150000D01*
X22600000Y34500000D02*
X22600000Y35500000D01*
X23800000Y34500000D02*
X23800000Y35500000D01*
X23800000Y36500000D02*
X23800000Y35500000D01*
X22600000Y36500000D02*
X22600000Y35500000D01*
X23200000Y36850000D02*
X22950000Y36850000D01*
X23200000Y34150000D02*
X22950000Y34150000D01*
X23450000Y34150000D02*
G75*
G03*
X23800000Y34500000I-1J350001D01*
G01*
X23800000Y36500000D02*
G75*
G03*
X23450000Y36850000I-350000J0D01*
G01*
X22600000Y34500000D02*
G75*
G03*
X22950000Y34150000I350001J1D01*
G01*
X22950000Y36850000D02*
G75*
G03*
X22600000Y36500000I0J-350000D01*
G01*
%TO.C,kibuzzard-633978F6*%
G36*
X19374437Y40420600D02*
G01*
X18939462Y40420600D01*
X19155362Y41509625D01*
X19158537Y41509625D01*
X19374437Y40420600D01*
G37*
G36*
X18005131Y39283396D02*
G01*
X17866951Y39303893D01*
X17731446Y39337835D01*
X17599920Y39384896D01*
X17473641Y39444622D01*
X17353823Y39516438D01*
X17320536Y39541125D01*
X18409237Y39541125D01*
X18764837Y39541125D01*
X18885487Y40150725D01*
X19428412Y40150725D01*
X19549062Y39541125D01*
X19917362Y39541125D01*
X20149137Y39541125D01*
X20498387Y39541125D01*
X20498387Y41223875D01*
X20504737Y41223875D01*
X21000037Y39541125D01*
X21355637Y39541125D01*
X21355637Y41582650D01*
X21689012Y41582650D01*
X22162087Y41582650D01*
X22162087Y39541125D01*
X22517687Y39541125D01*
X22517687Y41582650D01*
X22990762Y41582650D01*
X22990762Y41858875D01*
X21689012Y41858875D01*
X21689012Y41582650D01*
X21355637Y41582650D01*
X21355637Y41858875D01*
X21022262Y41858875D01*
X21022262Y40176125D01*
X21012737Y40176125D01*
X20517437Y41858875D01*
X20149137Y41858875D01*
X20149137Y39541125D01*
X19917362Y39541125D01*
X19368087Y41858875D01*
X18955337Y41858875D01*
X18409237Y39541125D01*
X17320536Y39541125D01*
X17241622Y39599652D01*
X17138117Y39693463D01*
X17044306Y39796968D01*
X16961092Y39909169D01*
X16889276Y40028986D01*
X16829550Y40155266D01*
X16782489Y40286792D01*
X16748547Y40422297D01*
X16728050Y40560477D01*
X16721196Y40700000D01*
X16728050Y40839523D01*
X16748547Y40977703D01*
X16782489Y41113208D01*
X16829550Y41244734D01*
X16889276Y41371014D01*
X16961092Y41490831D01*
X17044306Y41603032D01*
X17138117Y41706537D01*
X17241622Y41800348D01*
X17353823Y41883562D01*
X17473641Y41955378D01*
X17599920Y42015104D01*
X17731446Y42062165D01*
X17866951Y42096107D01*
X18005131Y42116604D01*
X18144654Y42123458D01*
X23255346Y42123458D01*
X23394869Y42116604D01*
X23533049Y42096107D01*
X23668554Y42062165D01*
X23800080Y42015104D01*
X23926359Y41955378D01*
X24046177Y41883562D01*
X24158378Y41800348D01*
X24261883Y41706537D01*
X24355694Y41603032D01*
X24438908Y41490831D01*
X24510724Y41371014D01*
X24570450Y41244734D01*
X24617511Y41113208D01*
X24651453Y40977703D01*
X24671950Y40839523D01*
X24678804Y40700000D01*
X24671950Y40560477D01*
X24651453Y40422297D01*
X24617511Y40286792D01*
X24570450Y40155266D01*
X24510724Y40028986D01*
X24438908Y39909169D01*
X24355694Y39796968D01*
X24261883Y39693463D01*
X24158378Y39599652D01*
X24046177Y39516438D01*
X23926359Y39444622D01*
X23800080Y39384896D01*
X23668554Y39337835D01*
X23533049Y39303893D01*
X23394869Y39283396D01*
X23255346Y39276542D01*
X18144654Y39276542D01*
X18005131Y39283396D01*
G37*
D10*
%TO.C,XT2*%
X-24540000Y20760000D02*
X-11260000Y20760000D01*
X-11260000Y20760000D02*
X-11260000Y14440000D01*
X-24780000Y14200000D02*
X-24280000Y14200000D01*
X-24540000Y15000000D02*
X-11260000Y15000000D01*
X-24540000Y20300000D02*
X-11260000Y20300000D01*
X-24540000Y14440000D02*
X-11260000Y14440000D01*
X-24540000Y20760000D02*
X-24540000Y14440000D01*
X-24780000Y14940000D02*
X-24780000Y14200000D01*
D17*
%TO.C,R29*%
X-11450000Y32400000D02*
X-8750000Y32400000D01*
X-11400000Y31200000D02*
X-8750000Y31200000D01*
X-11450000Y32400000D02*
X-11450000Y31200000D01*
X-8750000Y32400000D02*
X-8750000Y31200000D01*
D18*
%TO.C,C7*%
X6700000Y36800000D02*
X6700000Y35800000D01*
X5500000Y36800000D02*
X5500000Y35800000D01*
X6100000Y37150000D02*
X5850000Y37150000D01*
X6100000Y34450000D02*
X6350000Y34450000D01*
X6700000Y34800000D02*
X6700000Y35800000D01*
X6100000Y34450000D02*
X5850000Y34450000D01*
X6100000Y37150000D02*
X6350000Y37150000D01*
X5500000Y34800000D02*
X5500000Y35800000D01*
X6350000Y34450000D02*
G75*
G03*
X6700000Y34800000I0J350000D01*
G01*
X5500000Y34800000D02*
G75*
G03*
X5850000Y34450000I350000J0D01*
G01*
X5850000Y37150000D02*
G75*
G03*
X5500000Y36800000I1J-350001D01*
G01*
X6700000Y36800000D02*
G75*
G03*
X6350000Y37150000I-350001J-1D01*
G01*
D11*
%TO.C,C47*%
X-19100000Y32700000D02*
X-19100000Y33700000D01*
X-24046447Y32700000D02*
X-24046447Y33753553D01*
X-23546447Y34200000D02*
X-19550000Y34200000D01*
X-23546447Y32200000D02*
X-19550000Y32200000D01*
X-24046447Y32700000D02*
G75*
G03*
X-23546447Y32200000I500001J1D01*
G01*
X-19100000Y33700000D02*
G75*
G03*
X-19600000Y34200000I-500000J0D01*
G01*
X-19600000Y32200000D02*
G75*
G03*
X-19100000Y32700000I10J499990D01*
G01*
X-23546447Y34200000D02*
G75*
G03*
X-24046447Y33700000I1J-500001D01*
G01*
D18*
%TO.C,C37*%
X23100000Y30000000D02*
X22100000Y30000000D01*
X21100000Y28800000D02*
X22100000Y28800000D01*
X23450000Y29400000D02*
X23450000Y29650000D01*
X23100000Y28800000D02*
X22100000Y28800000D01*
X21100000Y30000000D02*
X22100000Y30000000D01*
X23450000Y29400000D02*
X23450000Y29150000D01*
X20750000Y29400000D02*
X20750000Y29650000D01*
X20750000Y29400000D02*
X20750000Y29150000D01*
X23100000Y28800000D02*
G75*
G03*
X23450000Y29150000I-1J350001D01*
G01*
X20750000Y29150000D02*
G75*
G03*
X21100000Y28800000I350000J0D01*
G01*
X21100000Y30000000D02*
G75*
G03*
X20750000Y29650000I0J-350000D01*
G01*
X23450000Y29650000D02*
G75*
G03*
X23100000Y30000000I-350001J-1D01*
G01*
%TO.C,C34*%
X-2400000Y45125000D02*
X-2400000Y44125000D01*
X-1800000Y42775000D02*
X-2050000Y42775000D01*
X-1800000Y42775000D02*
X-1550000Y42775000D01*
X-2400000Y43125000D02*
X-2400000Y44125000D01*
X-1200000Y45125000D02*
X-1200000Y44125000D01*
X-1800000Y45475000D02*
X-1550000Y45475000D01*
X-1800000Y45475000D02*
X-2050000Y45475000D01*
X-1200000Y43125000D02*
X-1200000Y44125000D01*
X-1550000Y42775000D02*
G75*
G03*
X-1200000Y43125000I0J350000D01*
G01*
X-2050000Y45475000D02*
G75*
G03*
X-2400000Y45125000I1J-350001D01*
G01*
X-2400000Y43125000D02*
G75*
G03*
X-2050000Y42775000I350000J0D01*
G01*
X-1200000Y45125000D02*
G75*
G03*
X-1550000Y45475000I-350001J-1D01*
G01*
D11*
%TO.C,C42*%
X1200000Y45358947D02*
X1200000Y41362500D01*
X-300000Y45858947D02*
X753553Y45858947D01*
X-800000Y45358947D02*
X-800000Y41362500D01*
X-300000Y40912500D02*
X700000Y40912500D01*
X-800000Y41412500D02*
G75*
G03*
X-300000Y40912500I499990J-10D01*
G01*
X-300000Y45858947D02*
G75*
G03*
X-800000Y45358947I1J-500001D01*
G01*
X700000Y40912500D02*
G75*
G03*
X1200000Y41412500I0J500000D01*
G01*
X1200000Y45358947D02*
G75*
G03*
X700000Y45858947I-500001J-1D01*
G01*
D10*
%TO.C,XB3*%
X-20300000Y48000000D02*
G75*
G03*
X-20300000Y48000000I-700000J0D01*
G01*
D18*
%TO.C,C21*%
X-2500000Y27850000D02*
X-2750000Y27850000D01*
X-3100000Y28200000D02*
X-3100000Y29200000D01*
X-2500000Y30550000D02*
X-2250000Y30550000D01*
X-2500000Y30550000D02*
X-2750000Y30550000D01*
X-1900000Y30200000D02*
X-1900000Y29200000D01*
X-1900000Y28200000D02*
X-1900000Y29200000D01*
X-2500000Y27850000D02*
X-2250000Y27850000D01*
X-3100000Y30200000D02*
X-3100000Y29200000D01*
X-2750000Y30550000D02*
G75*
G03*
X-3100000Y30200000I0J-350000D01*
G01*
X-3100000Y28200000D02*
G75*
G03*
X-2750000Y27850000I350001J1D01*
G01*
X-2250000Y27850000D02*
G75*
G03*
X-1900000Y28200000I-1J350001D01*
G01*
X-1900000Y30200000D02*
G75*
G03*
X-2250000Y30550000I-350000J0D01*
G01*
D10*
%TO.C,L2*%
X3100378Y34840000D02*
X3899622Y34840000D01*
X3100378Y35960000D02*
X3899622Y35960000D01*
%TO.C,BQ1*%
X13700000Y17750000D02*
X9700000Y17750000D01*
X13700000Y14450000D02*
X13700000Y17750000D01*
D18*
%TO.C,C39*%
X21200000Y20850000D02*
X20950000Y20850000D01*
X20600000Y23200000D02*
X20600000Y22200000D01*
X20600000Y21200000D02*
X20600000Y22200000D01*
X21200000Y20850000D02*
X21450000Y20850000D01*
X21800000Y23200000D02*
X21800000Y22200000D01*
X21200000Y23550000D02*
X20950000Y23550000D01*
X21800000Y21200000D02*
X21800000Y22200000D01*
X21200000Y23550000D02*
X21450000Y23550000D01*
X20600000Y21200000D02*
G75*
G03*
X20950000Y20850000I350000J0D01*
G01*
X20950000Y23550000D02*
G75*
G03*
X20600000Y23200000I1J-350001D01*
G01*
X21800000Y23200000D02*
G75*
G03*
X21450000Y23550000I-350001J-1D01*
G01*
X21450000Y20850000D02*
G75*
G03*
X21800000Y21200000I0J350000D01*
G01*
D16*
%TO.C,C41*%
X8860000Y39100000D02*
X8850000Y45350000D01*
X5453553Y45350000D02*
X5453553Y38590000D01*
X8350000Y45850000D02*
X5953553Y45850000D01*
X8850000Y45350000D02*
G75*
G03*
X8350000Y45850000I-500001J-1D01*
G01*
X5953553Y45850000D02*
G75*
G03*
X5453553Y45350000I1J-500001D01*
G01*
D10*
%TO.C,SB2*%
X-4150000Y26700000D02*
X-4150000Y26400000D01*
X-7450000Y23900000D02*
X-4150000Y23900000D01*
X-7450000Y26700000D02*
X-4150000Y26700000D01*
X-4150000Y23900000D02*
X-4150000Y24200000D01*
X-7450000Y26400000D02*
X-7450000Y26700000D01*
X-7450000Y24200000D02*
X-7450000Y23900000D01*
D19*
%TO.C,DD5*%
X25585000Y22365000D02*
X26635000Y22365000D01*
X24465000Y22365000D02*
X23415000Y22365000D01*
X25585000Y27585000D02*
X26675000Y27585000D01*
D10*
%TO.C,XT10*%
X-16050000Y42200000D02*
X-20950000Y42200000D01*
X-21560000Y42810000D02*
X-21560000Y38090000D01*
X-15140000Y37790000D02*
X-15140000Y39040000D01*
X-21560000Y40700000D02*
X-20950000Y40700000D01*
X-15440000Y38090000D02*
X-15440000Y42810000D01*
X-17200000Y37890000D02*
X-16900000Y37890000D01*
X-18000000Y38090000D02*
X-18000000Y38700000D01*
X-18000000Y38700000D02*
X-16050000Y38700000D01*
X-18600000Y41700000D02*
X-18600000Y42200000D01*
X-17200000Y37990000D02*
X-16900000Y37990000D01*
X-21560000Y39400000D02*
X-20950000Y39400000D01*
X-17200000Y38090000D02*
X-17200000Y37890000D01*
X-20950000Y42200000D02*
X-20950000Y38700000D01*
X-18400000Y41700000D02*
X-18600000Y41700000D01*
X-19000000Y38700000D02*
X-19000000Y38090000D01*
X-15440000Y42810000D02*
X-21560000Y42810000D01*
X-16390000Y37790000D02*
X-15140000Y37790000D01*
X-20950000Y38700000D02*
X-19000000Y38700000D01*
X-15440000Y39400000D02*
X-16050000Y39400000D01*
X-21560000Y38090000D02*
X-15440000Y38090000D01*
X-16050000Y38700000D02*
X-16050000Y42200000D01*
X-15440000Y40700000D02*
X-16050000Y40700000D01*
X-16900000Y37890000D02*
X-16900000Y38090000D01*
X-18400000Y42200000D02*
X-18400000Y41700000D01*
X-18500000Y42200000D02*
X-18500000Y41700000D01*
%TD*%
M02*
