%TF.GenerationSoftware,KiCad,Pcbnew,(6.0.7)*%
%TF.CreationDate,2022-10-03T23:56:51+03:00*%
%TF.ProjectId,hs12,68733132-2e6b-4696-9361-645f70636258,rev?*%
%TF.SameCoordinates,Original*%
%TF.FileFunction,Soldermask,Top*%
%TF.FilePolarity,Negative*%
%FSLAX46Y46*%
G04 Gerber Fmt 4.6, Leading zero omitted, Abs format (unit mm)*
G04 Created by KiCad (PCBNEW (6.0.7)) date 2022-10-03 23:56:51*
%MOMM*%
%LPD*%
G01*
G04 APERTURE LIST*
G04 Aperture macros list*
%AMRoundRect*
0 Rectangle with rounded corners*
0 $1 Rounding radius*
0 $2 $3 $4 $5 $6 $7 $8 $9 X,Y pos of 4 corners*
0 Add a 4 corners polygon primitive as box body*
4,1,4,$2,$3,$4,$5,$6,$7,$8,$9,$2,$3,0*
0 Add four circle primitives for the rounded corners*
1,1,$1+$1,$2,$3*
1,1,$1+$1,$4,$5*
1,1,$1+$1,$6,$7*
1,1,$1+$1,$8,$9*
0 Add four rect primitives between the rounded corners*
20,1,$1+$1,$2,$3,$4,$5,0*
20,1,$1+$1,$4,$5,$6,$7,0*
20,1,$1+$1,$6,$7,$8,$9,0*
20,1,$1+$1,$8,$9,$2,$3,0*%
G04 Aperture macros list end*
%ADD10RoundRect,0.200000X0.200000X0.275000X-0.200000X0.275000X-0.200000X-0.275000X0.200000X-0.275000X0*%
%ADD11RoundRect,0.200000X-0.275000X0.200000X-0.275000X-0.200000X0.275000X-0.200000X0.275000X0.200000X0*%
%ADD12RoundRect,0.218750X0.218750X0.256250X-0.218750X0.256250X-0.218750X-0.256250X0.218750X-0.256250X0*%
%ADD13RoundRect,0.218750X-0.256250X0.218750X-0.256250X-0.218750X0.256250X-0.218750X0.256250X0.218750X0*%
%ADD14RoundRect,0.100000X0.100000X-0.300000X0.100000X0.300000X-0.100000X0.300000X-0.100000X-0.300000X0*%
%ADD15R,2.400000X1.500000*%
%ADD16R,1.700000X1.100000*%
%ADD17RoundRect,0.250000X0.350000X0.625000X-0.350000X0.625000X-0.350000X-0.625000X0.350000X-0.625000X0*%
%ADD18O,1.200000X1.750000*%
%ADD19RoundRect,0.225000X0.225000X0.250000X-0.225000X0.250000X-0.225000X-0.250000X0.225000X-0.250000X0*%
%ADD20C,0.600000*%
%ADD21RoundRect,0.200000X-0.200000X-0.275000X0.200000X-0.275000X0.200000X0.275000X-0.200000X0.275000X0*%
%ADD22R,1.050000X1.500000*%
%ADD23O,1.050000X1.500000*%
%ADD24C,3.800000*%
%ADD25RoundRect,0.250000X1.000000X-1.750000X1.000000X1.750000X-1.000000X1.750000X-1.000000X-1.750000X0*%
%ADD26RoundRect,0.225000X0.250000X-0.225000X0.250000X0.225000X-0.250000X0.225000X-0.250000X-0.225000X0*%
%ADD27R,1.700000X1.700000*%
%ADD28O,1.700000X1.700000*%
%ADD29RoundRect,0.225000X-0.250000X0.225000X-0.250000X-0.225000X0.250000X-0.225000X0.250000X0.225000X0*%
%ADD30C,0.500000*%
%ADD31RoundRect,0.250000X-0.925000X0.787500X-0.925000X-0.787500X0.925000X-0.787500X0.925000X0.787500X0*%
%ADD32RoundRect,0.200000X0.275000X-0.200000X0.275000X0.200000X-0.275000X0.200000X-0.275000X-0.200000X0*%
%ADD33RoundRect,0.250001X-0.462499X-0.624999X0.462499X-0.624999X0.462499X0.624999X-0.462499X0.624999X0*%
%ADD34R,0.600000X1.200000*%
%ADD35R,0.550000X1.500000*%
%ADD36R,1.500000X0.550000*%
%ADD37RoundRect,0.150000X-0.512500X-0.150000X0.512500X-0.150000X0.512500X0.150000X-0.512500X0.150000X0*%
%ADD38C,2.000000*%
%ADD39RoundRect,0.225000X-0.225000X-0.250000X0.225000X-0.250000X0.225000X0.250000X-0.225000X0.250000X0*%
%ADD40R,2.200000X2.200000*%
%ADD41C,2.200000*%
%ADD42RoundRect,0.250001X-0.624999X0.462499X-0.624999X-0.462499X0.624999X-0.462499X0.624999X0.462499X0*%
%ADD43C,1.000000*%
%ADD44RoundRect,0.218750X-0.218750X-0.381250X0.218750X-0.381250X0.218750X0.381250X-0.218750X0.381250X0*%
%ADD45R,1.400000X1.200000*%
%ADD46R,1.100000X1.700000*%
%ADD47RoundRect,0.125000X-0.675000X-0.125000X0.675000X-0.125000X0.675000X0.125000X-0.675000X0.125000X0*%
%ADD48RoundRect,0.125000X0.125000X-0.675000X0.125000X0.675000X-0.125000X0.675000X-0.125000X-0.675000X0*%
G04 APERTURE END LIST*
D10*
%TO.C,R68*%
X-2275000Y22800000D03*
X-3925000Y22800000D03*
%TD*%
D11*
%TO.C,R28*%
X-12500000Y33325000D03*
X-12500000Y31675000D03*
%TD*%
D12*
%TO.C,HL2*%
X-19912500Y12400000D03*
X-21487500Y12400000D03*
%TD*%
D13*
%TO.C,HL5*%
X-11964976Y46587500D03*
X-11964976Y45012500D03*
%TD*%
D14*
%TO.C,DA5*%
X27350000Y31400000D03*
X28350000Y31400000D03*
X29350000Y31400000D03*
X29350000Y34300000D03*
X28350000Y34300000D03*
X27350000Y34300000D03*
D15*
X28350000Y32850000D03*
%TD*%
D16*
%TO.C,SB3*%
X-8500000Y43200000D03*
X-8500000Y39000000D03*
%TD*%
D17*
%TO.C,XT15*%
X-4300000Y16600000D03*
D18*
X-6300000Y16600000D03*
X-8300000Y16600000D03*
%TD*%
D19*
%TO.C,C25*%
X4475000Y37200000D03*
X2925000Y37200000D03*
%TD*%
D13*
%TO.C,HL3*%
X-14200000Y46587500D03*
X-14200000Y45012500D03*
%TD*%
D20*
%TO.C,XB6*%
X21700000Y34800000D03*
%TD*%
D21*
%TO.C,R62*%
X-1875000Y35150000D03*
X-225000Y35150000D03*
%TD*%
D22*
%TO.C,DD2*%
X17130000Y27240000D03*
D23*
X18400000Y27240000D03*
X19670000Y27240000D03*
%TD*%
D10*
%TO.C,R63*%
X16225000Y36100000D03*
X14575000Y36100000D03*
%TD*%
D19*
%TO.C,C18*%
X10975000Y18600000D03*
X9425000Y18600000D03*
%TD*%
D24*
%TO.C,J3*%
X-28500000Y34200000D03*
%TD*%
D25*
%TO.C,C4*%
X-24450000Y23550000D03*
X-24450000Y29650000D03*
%TD*%
D26*
%TO.C,C19*%
X7900000Y16725000D03*
X7900000Y18275000D03*
%TD*%
D20*
%TO.C,XB11*%
X21900000Y23950000D03*
%TD*%
D17*
%TO.C,XT3*%
X21150000Y16600000D03*
D18*
X19150000Y16600000D03*
X17150000Y16600000D03*
%TD*%
D19*
%TO.C,C38*%
X22875000Y31000000D03*
X21325000Y31000000D03*
%TD*%
D20*
%TO.C,XB10*%
X21900000Y24950000D03*
%TD*%
D17*
%TO.C,XT13*%
X3100000Y11000000D03*
D18*
X1100000Y11000000D03*
X-900000Y11000000D03*
%TD*%
D17*
%TO.C,XT1*%
X4700000Y16600000D03*
D18*
X2700000Y16600000D03*
X700000Y16600000D03*
%TD*%
D27*
%TO.C,DA4*%
X-4205000Y44390000D03*
D28*
X-4205000Y41850000D03*
X-4205000Y39310000D03*
X-4205000Y36770000D03*
X-4205000Y34230000D03*
%TD*%
D24*
%TO.C,J4*%
X-28500000Y15900000D03*
%TD*%
D20*
%TO.C,XB4*%
X-29000000Y26300000D03*
%TD*%
D17*
%TO.C,XT4*%
X12100000Y11000000D03*
D18*
X10100000Y11000000D03*
X8100000Y11000000D03*
%TD*%
D26*
%TO.C,C24*%
X20400000Y33225000D03*
X20400000Y34775000D03*
%TD*%
D10*
%TO.C,R44*%
X-16675000Y12400000D03*
X-18325000Y12400000D03*
%TD*%
D29*
%TO.C,C17*%
X-800000Y28175000D03*
X-800000Y26625000D03*
%TD*%
D26*
%TO.C,C16*%
X14800000Y25925000D03*
X14800000Y27475000D03*
%TD*%
D30*
%TO.C,XB2*%
X1050000Y37750000D03*
%TD*%
D29*
%TO.C,C14*%
X14600000Y34500000D03*
X14600000Y32950000D03*
%TD*%
D31*
%TO.C,C44*%
X3300000Y44562500D03*
X3300000Y39637500D03*
%TD*%
D13*
%TO.C,HL1*%
X-18000000Y46587500D03*
X-18000000Y45012500D03*
%TD*%
D32*
%TO.C,R27*%
X-9300000Y28375000D03*
X-9300000Y30025000D03*
%TD*%
D33*
%TO.C,C46*%
X-22687500Y35600000D03*
X-19712500Y35600000D03*
%TD*%
D26*
%TO.C,C13*%
X7600000Y35025000D03*
X7600000Y36575000D03*
%TD*%
D10*
%TO.C,R72*%
X-2275000Y21300000D03*
X-3925000Y21300000D03*
%TD*%
D34*
%TO.C,BQ3*%
X11850000Y34850000D03*
X11850000Y41150000D03*
X10950000Y41150000D03*
X10950000Y34850000D03*
%TD*%
D35*
%TO.C,DD3*%
X3088878Y21100000D03*
X3888878Y21100000D03*
X4688878Y21100000D03*
X5488878Y21100000D03*
X6288878Y21100000D03*
X7088878Y21100000D03*
X7888878Y21100000D03*
X8688878Y21100000D03*
X9488878Y21100000D03*
X10288878Y21100000D03*
X11088878Y21100000D03*
D36*
X12788878Y22800000D03*
X12788878Y23600000D03*
X12788878Y24400000D03*
X12788878Y25200000D03*
X12788878Y26000000D03*
X12788878Y26800000D03*
X12788878Y27600000D03*
X12788878Y28400000D03*
X12788878Y29200000D03*
X12788878Y30000000D03*
X12788878Y30800000D03*
D35*
X11088878Y32500000D03*
X10288878Y32500000D03*
X9488878Y32500000D03*
X8688878Y32500000D03*
X7888878Y32500000D03*
X7088878Y32500000D03*
X6288878Y32500000D03*
X5488878Y32500000D03*
X4688878Y32500000D03*
X3888878Y32500000D03*
X3088878Y32500000D03*
D36*
X1388878Y30800000D03*
X1388878Y30000000D03*
X1388878Y29200000D03*
X1388878Y28400000D03*
X1388878Y27600000D03*
X1388878Y26800000D03*
X1388878Y26000000D03*
X1388878Y25200000D03*
X1388878Y24400000D03*
X1388878Y23600000D03*
X1388878Y22800000D03*
%TD*%
D11*
%TO.C,R9*%
X-7750000Y31750000D03*
X-7750000Y30100000D03*
%TD*%
D37*
%TO.C,DA6*%
X16362500Y34550000D03*
X16362500Y33600000D03*
X16362500Y32650000D03*
X18637500Y32650000D03*
X18637500Y34550000D03*
%TD*%
D38*
%TO.C,XP1*%
X-26800000Y19200000D03*
%TD*%
D26*
%TO.C,C9*%
X9100000Y35025000D03*
X9100000Y36575000D03*
%TD*%
D20*
%TO.C,XB7*%
X14500000Y30400000D03*
%TD*%
D24*
%TO.C,J2*%
X17600000Y22100000D03*
%TD*%
D25*
%TO.C,C45*%
X-15500000Y23550000D03*
X-15500000Y29650000D03*
%TD*%
D21*
%TO.C,R67*%
X-1875000Y36750000D03*
X-225000Y36750000D03*
%TD*%
D39*
%TO.C,C15*%
X12425000Y18600000D03*
X13975000Y18600000D03*
%TD*%
D13*
%TO.C,HL4*%
X-7494927Y46587500D03*
X-7494927Y45012500D03*
%TD*%
D32*
%TO.C,R26*%
X-4050000Y28375000D03*
X-4050000Y30025000D03*
%TD*%
D24*
%TO.C,J1*%
X-16359564Y34103118D03*
%TD*%
D21*
%TO.C,R66*%
X-1875000Y38350000D03*
X-225000Y38350000D03*
%TD*%
D16*
%TO.C,SB1*%
X-13000000Y43200000D03*
X-13000000Y39000000D03*
%TD*%
D29*
%TO.C,C40*%
X28550000Y27325000D03*
X28550000Y25775000D03*
%TD*%
D21*
%TO.C,R46*%
X16775000Y31000000D03*
X18425000Y31000000D03*
%TD*%
D17*
%TO.C,XT6*%
X-5950000Y11000000D03*
D18*
X-7950000Y11000000D03*
X-9950000Y11000000D03*
%TD*%
D13*
%TO.C,HL6*%
X-9700000Y46587500D03*
X-9700000Y45012500D03*
%TD*%
D17*
%TO.C,XT16*%
X21100000Y11000000D03*
D18*
X19100000Y11000000D03*
X17100000Y11000000D03*
%TD*%
D26*
%TO.C,C26*%
X23200000Y34725000D03*
X23200000Y36275000D03*
%TD*%
D40*
%TO.C,XT2*%
X-22980000Y17600000D03*
D41*
X-20440000Y17600000D03*
X-17900000Y17600000D03*
X-15360000Y17600000D03*
X-12820000Y17600000D03*
%TD*%
D24*
%TO.C,J5*%
X29600000Y40300000D03*
%TD*%
D21*
%TO.C,R29*%
X-10925000Y31800000D03*
X-9275000Y31800000D03*
%TD*%
D29*
%TO.C,C7*%
X6100000Y36575000D03*
X6100000Y35025000D03*
%TD*%
D33*
%TO.C,C47*%
X-23087500Y33200000D03*
X-20112500Y33200000D03*
%TD*%
D19*
%TO.C,C37*%
X22875000Y29400000D03*
X21325000Y29400000D03*
%TD*%
D29*
%TO.C,C34*%
X-1800000Y44900000D03*
X-1800000Y43350000D03*
%TD*%
D42*
%TO.C,C42*%
X200000Y44900000D03*
X200000Y41925000D03*
%TD*%
D43*
%TO.C,XB3*%
X-21000000Y48000000D03*
%TD*%
D20*
%TO.C,XB5*%
X-24400000Y34500000D03*
%TD*%
D24*
%TO.C,J6*%
X29600000Y22000000D03*
%TD*%
D26*
%TO.C,C21*%
X-2500000Y28425000D03*
X-2500000Y29975000D03*
%TD*%
D44*
%TO.C,L2*%
X2437500Y35400000D03*
X4562500Y35400000D03*
%TD*%
D45*
%TO.C,BQ1*%
X12800000Y16950000D03*
X10600000Y16950000D03*
X10600000Y15250000D03*
X12800000Y15250000D03*
%TD*%
D29*
%TO.C,C39*%
X21200000Y22975000D03*
X21200000Y21425000D03*
%TD*%
D31*
%TO.C,C41*%
X7150000Y44562500D03*
X7150000Y39637500D03*
%TD*%
D46*
%TO.C,SB2*%
X-7900000Y25300000D03*
X-3700000Y25300000D03*
%TD*%
D47*
%TO.C,DD5*%
X23675000Y26975000D03*
X23675000Y26175000D03*
X23675000Y25375000D03*
X23675000Y24575000D03*
X23675000Y23775000D03*
X23675000Y22975000D03*
D48*
X25025000Y22675000D03*
D47*
X26375000Y22975000D03*
X26375000Y23775000D03*
X26375000Y24575000D03*
X26375000Y25375000D03*
X26375000Y26175000D03*
X26375000Y26975000D03*
D48*
X25025000Y27275000D03*
%TD*%
D17*
%TO.C,XT10*%
X-17500000Y39900000D03*
D18*
X-19500000Y39900000D03*
%TD*%
D27*
%TO.C,XT9*%
X23900000Y47473180D03*
D28*
X21360000Y47473180D03*
X18820000Y47473180D03*
X16280000Y47473180D03*
X13740000Y47473180D03*
X11200000Y47473180D03*
%TD*%
M02*
