%TF.GenerationSoftware,KiCad,Pcbnew,(6.0.7)*%
%TF.CreationDate,2022-10-03T23:56:52+03:00*%
%TF.ProjectId,hs12,68733132-2e6b-4696-9361-645f70636258,rev?*%
%TF.SameCoordinates,Original*%
%TF.FileFunction,Profile,NP*%
%FSLAX46Y46*%
G04 Gerber Fmt 4.6, Leading zero omitted, Abs format (unit mm)*
G04 Created by KiCad (PCBNEW (6.0.7)) date 2022-10-03 23:56:52*
%MOMM*%
%LPD*%
G01*
G04 APERTURE LIST*
%ADD10C,0.100000*%
%TA.AperFunction,Profile*%
%ADD11C,0.050000*%
%TD*%
%TA.AperFunction,Profile*%
%ADD12C,0.100000*%
%TD*%
G04 APERTURE END LIST*
D10*
X26963833Y43082567D02*
X27071731Y43014057D01*
X27182089Y42949615D01*
X27294746Y42889288D01*
X27409539Y42833126D01*
X27526307Y42781177D01*
X27644887Y42733490D01*
X27765118Y42690114D01*
X27886838Y42651097D01*
X28009885Y42616488D01*
X28134097Y42586335D01*
X28259312Y42560688D01*
X28385368Y42539594D01*
X28512104Y42523104D01*
X28639356Y42511264D01*
X28766965Y42504125D01*
X28894767Y42501735D01*
D11*
X24250000Y29950000D02*
G75*
G03*
X24750000Y29450000I500000J0D01*
G01*
D12*
X25395218Y6751559D02*
X25395218Y16202713D01*
D10*
X28894904Y19702212D02*
X28787091Y19700435D01*
X28679470Y19695138D01*
X28572126Y19686367D01*
X28465149Y19674169D01*
X28358626Y19658592D01*
X28252646Y19639684D01*
X28147296Y19617491D01*
X28042665Y19592061D01*
X27938841Y19563441D01*
X27835911Y19531679D01*
X27733964Y19496821D01*
X27633089Y19458916D01*
X27533372Y19418010D01*
X27434903Y19374151D01*
X27337768Y19327386D01*
X27242057Y19277763D01*
X27147857Y19225328D01*
X27055257Y19170129D01*
X26964344Y19112214D01*
X26875207Y19051630D01*
X26787933Y18988423D01*
X26702611Y18922642D01*
X26619329Y18854334D01*
X26538174Y18783546D01*
X26459236Y18710325D01*
X26382601Y18634719D01*
X26308358Y18556775D01*
X26236596Y18476540D01*
X26167402Y18394062D01*
X26100864Y18309388D01*
X26037071Y18222565D01*
X25976110Y18133641D01*
X-25823449Y13070521D02*
X-25931352Y13139033D01*
X-26041716Y13203477D01*
X-26154378Y13263806D01*
X-26269177Y13319970D01*
X-26385950Y13371921D01*
X-26504536Y13419610D01*
X-26624773Y13462988D01*
X-26746499Y13502007D01*
X-26869551Y13536618D01*
X-26993768Y13566771D01*
X-27118989Y13592420D01*
X-27245051Y13613514D01*
X-27371791Y13630005D01*
X-27499049Y13641845D01*
X-27626663Y13648985D01*
X-27754470Y13651376D01*
D11*
X24250000Y34751507D02*
G75*
G03*
X25250000Y34751507I500000J0D01*
G01*
D10*
X25395218Y46001217D02*
X25396994Y45893408D01*
X25402291Y45785790D01*
X25411063Y45678450D01*
X25423261Y45571477D01*
X25438838Y45464958D01*
X25457747Y45358982D01*
X25479941Y45253636D01*
X25505371Y45149009D01*
X25533992Y45045189D01*
X25565755Y44942264D01*
X25600614Y44840322D01*
X25638520Y44739451D01*
X25679428Y44639739D01*
X25723288Y44541274D01*
X25770054Y44444144D01*
X25819679Y44348438D01*
X25872115Y44254243D01*
X25927316Y44161647D01*
X25985232Y44070739D01*
X26045819Y43981607D01*
X26109027Y43894338D01*
X26174809Y43809021D01*
X26243120Y43725743D01*
X26313910Y43644594D01*
X26387133Y43565660D01*
X26462741Y43489030D01*
X26540687Y43414792D01*
X26620924Y43343035D01*
X26703404Y43273845D01*
X26788081Y43207312D01*
X26874906Y43143523D01*
X26963833Y43082567D01*
D12*
X-30754782Y36500905D02*
X-30754782Y13651376D01*
D11*
X25253600Y30950000D02*
G75*
G03*
X25753562Y30450000I500000J0D01*
G01*
D12*
X-23200000Y40000387D02*
X-23200000Y41900000D01*
X14440436Y49451559D02*
X16490436Y49451559D01*
X-27754329Y36500905D02*
X-30754782Y36500905D01*
X-24254782Y40000387D02*
X-23200000Y40000387D01*
D11*
X24750000Y29450000D02*
X31050000Y29450000D01*
D10*
X-24835627Y38069486D02*
X-24767116Y38177382D01*
X-24702672Y38287738D01*
X-24642344Y38400393D01*
X-24586181Y38515184D01*
X-24534231Y38631949D01*
X-24486543Y38750528D01*
X-24443165Y38870757D01*
X-24404147Y38992475D01*
X-24369537Y39115520D01*
X-24339384Y39239729D01*
X-24313736Y39364942D01*
X-24292642Y39490996D01*
X-24276151Y39617730D01*
X-24264312Y39744981D01*
X-24257172Y39872587D01*
X-24254782Y40000387D01*
D12*
X28894904Y19702212D02*
X31845218Y19702212D01*
X25395218Y49451559D02*
X16490436Y49451559D01*
D11*
X25753562Y30450000D02*
X31050000Y30450000D01*
X31046438Y35500000D02*
X25750000Y35500000D01*
X31200000Y31300000D02*
X31200000Y34750000D01*
X24250000Y29950000D02*
X24253562Y30950000D01*
X25250000Y35000000D02*
X25250000Y34751507D01*
X30400000Y31300000D02*
X30400000Y34750000D01*
X24250000Y34751507D02*
X24246438Y36000000D01*
D12*
X-24254782Y6751559D02*
X-15109564Y6751559D01*
D11*
X24746438Y36500062D02*
G75*
G03*
X24246438Y36000000I62J-500062D01*
G01*
X31200000Y34750000D02*
G75*
G03*
X30400000Y34750000I-400000J0D01*
G01*
D12*
X16490436Y6751559D02*
X25395218Y6751559D01*
D11*
X25253562Y30950000D02*
G75*
G03*
X24253562Y30950000I-500000J0D01*
G01*
D12*
X-13559564Y6751559D02*
X-15109564Y6751559D01*
D10*
X25976110Y18133641D02*
X25907593Y18025743D01*
X25843144Y17915385D01*
X25782812Y17802728D01*
X25726644Y17687935D01*
X25674690Y17571168D01*
X25626998Y17452587D01*
X25583617Y17332356D01*
X25544596Y17210637D01*
X25509983Y17087590D01*
X25479827Y16963378D01*
X25454177Y16838164D01*
X25433082Y16712108D01*
X25416589Y16585373D01*
X25404748Y16458121D01*
X25397608Y16330513D01*
X25395218Y16202713D01*
D12*
X-13309564Y49451559D02*
X-15359564Y49451559D01*
X14440436Y49451559D02*
X-13309564Y49451559D01*
D11*
X30400000Y31300000D02*
G75*
G03*
X31200000Y31300000I400000J0D01*
G01*
D10*
X-24254782Y10151875D02*
X-24256558Y10259682D01*
X-24261856Y10367299D01*
X-24270627Y10474637D01*
X-24282826Y10581610D01*
X-24298404Y10688127D01*
X-24317314Y10794103D01*
X-24339508Y10899448D01*
X-24364940Y11004074D01*
X-24393562Y11107893D01*
X-24425326Y11210818D01*
X-24460186Y11312759D01*
X-24498094Y11413630D01*
X-24539003Y11513342D01*
X-24582865Y11611807D01*
X-24629633Y11708936D01*
X-24679259Y11804642D01*
X-24731697Y11898837D01*
X-24786900Y11991433D01*
X-24844818Y12082341D01*
X-24905407Y12171474D01*
X-24968617Y12258743D01*
X-25034402Y12344061D01*
X-25102714Y12427339D01*
X-25173507Y12508489D01*
X-25246732Y12587423D01*
X-25322342Y12664053D01*
X-25400291Y12738291D01*
X-25480530Y12810050D01*
X-25563013Y12879240D01*
X-25647692Y12945774D01*
X-25734520Y13009563D01*
X-25823449Y13070521D01*
D11*
X31046438Y36500000D02*
X24746438Y36500000D01*
X31050000Y29450000D02*
G75*
G03*
X31050000Y30450000I0J500000D01*
G01*
D12*
X-15359564Y49451559D02*
X-24254782Y49451559D01*
X-30754782Y13651376D02*
X-27754470Y13651376D01*
X31845218Y42501735D02*
X28894767Y42501735D01*
X-24254782Y10151875D02*
X-24254782Y6751559D01*
X-23200000Y41900000D02*
X-24254782Y41900000D01*
D11*
X31046438Y35500000D02*
G75*
G03*
X31046438Y36500000I-38J500000D01*
G01*
D10*
X-27754329Y36500905D02*
X-27646518Y36502681D01*
X-27538898Y36507978D01*
X-27431557Y36516749D01*
X-27324582Y36528947D01*
X-27218061Y36544524D01*
X-27112083Y36563432D01*
X-27006736Y36585625D01*
X-26902108Y36611056D01*
X-26798286Y36639676D01*
X-26695359Y36671438D01*
X-26593415Y36706296D01*
X-26492542Y36744201D01*
X-26392829Y36785108D01*
X-26294362Y36828967D01*
X-26197231Y36875732D01*
X-26101523Y36925356D01*
X-26007326Y36977791D01*
X-25914729Y37032990D01*
X-25823819Y37090905D01*
X-25734685Y37151490D01*
X-25647414Y37214697D01*
X-25562095Y37280478D01*
X-25478816Y37348787D01*
X-25397665Y37419576D01*
X-25318730Y37492797D01*
X-25242098Y37568404D01*
X-25167859Y37646348D01*
X-25096100Y37726584D01*
X-25026909Y37809062D01*
X-24960375Y37893737D01*
X-24896584Y37980561D01*
X-24835627Y38069486D01*
D12*
X25395218Y46001217D02*
X25395218Y49451559D01*
X-13559564Y6751559D02*
X14440436Y6751559D01*
X14440436Y6751559D02*
X16490436Y6751559D01*
X-24254782Y49451559D02*
X-24254782Y41900000D01*
D11*
X25750000Y35500000D02*
G75*
G03*
X25250000Y35000000I0J-500000D01*
G01*
D12*
X31845218Y19702212D02*
X31845218Y42501735D01*
M02*
