%TF.GenerationSoftware,KiCad,Pcbnew,7.0.7*%
%TF.CreationDate,2023-10-01T16:40:48+03:00*%
%TF.ProjectId,RadioSens,52616469-6f53-4656-9e73-2e6b69636164,rev?*%
%TF.SameCoordinates,Original*%
%TF.FileFunction,Legend,Bot*%
%TF.FilePolarity,Positive*%
%FSLAX46Y46*%
G04 Gerber Fmt 4.6, Leading zero omitted, Abs format (unit mm)*
G04 Created by KiCad (PCBNEW 7.0.7) date 2023-10-01 16:40:48*
%MOMM*%
%LPD*%
G01*
G04 APERTURE LIST*
%ADD10C,0.120000*%
%ADD11C,0.200000*%
%ADD12C,0.175000*%
%ADD13C,0.125000*%
%ADD14C,0.152000*%
%ADD15C,0.153000*%
G04 APERTURE END LIST*
D10*
X128719815Y-103198180D02*
X129769815Y-103198180D01*
X105219815Y-86448180D02*
X105219815Y-84648180D01*
X110144079Y-98848180D02*
X110819815Y-99548180D01*
X128369815Y-103548180D02*
X128719815Y-103198180D01*
X83694079Y-98498180D02*
G75*
G03*
X83694079Y-98498180I-424264J0D01*
G01*
D11*
X120119815Y-106048180D02*
G75*
G03*
X120119815Y-106048180I-3000000J0D01*
G01*
D10*
X84019815Y-98198180D02*
X85019815Y-98198180D01*
X128394079Y-103648180D02*
G75*
G03*
X128394079Y-103648180I-424264J0D01*
G01*
D11*
X86160251Y-94045062D02*
G75*
G03*
X86160251Y-94045062I-3000000J0D01*
G01*
D10*
X83719815Y-98498180D02*
X84019815Y-98198180D01*
X110144079Y-98848180D02*
G75*
G03*
X110144079Y-98848180I-424264J0D01*
G01*
X105619815Y-86848180D02*
X105219815Y-86448180D01*
X110819815Y-99548180D02*
X110819815Y-104548180D01*
D11*
X83029338Y-108445970D02*
X83105528Y-108407875D01*
X83105528Y-108407875D02*
X83219814Y-108407875D01*
X83219814Y-108407875D02*
X83334100Y-108445970D01*
X83334100Y-108445970D02*
X83410290Y-108522160D01*
X83410290Y-108522160D02*
X83448385Y-108598351D01*
X83448385Y-108598351D02*
X83486481Y-108750732D01*
X83486481Y-108750732D02*
X83486481Y-108865018D01*
X83486481Y-108865018D02*
X83448385Y-109017399D01*
X83448385Y-109017399D02*
X83410290Y-109093589D01*
X83410290Y-109093589D02*
X83334100Y-109169780D01*
X83334100Y-109169780D02*
X83219814Y-109207875D01*
X83219814Y-109207875D02*
X83143623Y-109207875D01*
X83143623Y-109207875D02*
X83029338Y-109169780D01*
X83029338Y-109169780D02*
X82991242Y-109131684D01*
X82991242Y-109131684D02*
X82991242Y-108865018D01*
X82991242Y-108865018D02*
X83143623Y-108865018D01*
X82648385Y-109207875D02*
X82648385Y-108407875D01*
X82648385Y-108407875D02*
X82191242Y-109207875D01*
X82191242Y-109207875D02*
X82191242Y-108407875D01*
X81810290Y-109207875D02*
X81810290Y-108407875D01*
X81810290Y-108407875D02*
X81619814Y-108407875D01*
X81619814Y-108407875D02*
X81505528Y-108445970D01*
X81505528Y-108445970D02*
X81429338Y-108522160D01*
X81429338Y-108522160D02*
X81391243Y-108598351D01*
X81391243Y-108598351D02*
X81353147Y-108750732D01*
X81353147Y-108750732D02*
X81353147Y-108865018D01*
X81353147Y-108865018D02*
X81391243Y-109017399D01*
X81391243Y-109017399D02*
X81429338Y-109093589D01*
X81429338Y-109093589D02*
X81505528Y-109169780D01*
X81505528Y-109169780D02*
X81619814Y-109207875D01*
X81619814Y-109207875D02*
X81810290Y-109207875D01*
D12*
X106719814Y-109051699D02*
X106719814Y-109861222D01*
X106719814Y-109861222D02*
X106686481Y-109956460D01*
X106686481Y-109956460D02*
X106653147Y-110004080D01*
X106653147Y-110004080D02*
X106586481Y-110051699D01*
X106586481Y-110051699D02*
X106453147Y-110051699D01*
X106453147Y-110051699D02*
X106386481Y-110004080D01*
X106386481Y-110004080D02*
X106353147Y-109956460D01*
X106353147Y-109956460D02*
X106319814Y-109861222D01*
X106319814Y-109861222D02*
X106319814Y-109051699D01*
X105986481Y-110051699D02*
X105986481Y-109051699D01*
X105986481Y-109051699D02*
X105719814Y-109051699D01*
X105719814Y-109051699D02*
X105653148Y-109099318D01*
X105653148Y-109099318D02*
X105619814Y-109146937D01*
X105619814Y-109146937D02*
X105586481Y-109242175D01*
X105586481Y-109242175D02*
X105586481Y-109385032D01*
X105586481Y-109385032D02*
X105619814Y-109480270D01*
X105619814Y-109480270D02*
X105653148Y-109527889D01*
X105653148Y-109527889D02*
X105719814Y-109575508D01*
X105719814Y-109575508D02*
X105986481Y-109575508D01*
X111553148Y-89996937D02*
X111519815Y-89949318D01*
X111519815Y-89949318D02*
X111453148Y-89901699D01*
X111453148Y-89901699D02*
X111286482Y-89901699D01*
X111286482Y-89901699D02*
X111219815Y-89949318D01*
X111219815Y-89949318D02*
X111186482Y-89996937D01*
X111186482Y-89996937D02*
X111153148Y-90092175D01*
X111153148Y-90092175D02*
X111153148Y-90187413D01*
X111153148Y-90187413D02*
X111186482Y-90330270D01*
X111186482Y-90330270D02*
X111586482Y-90901699D01*
X111586482Y-90901699D02*
X111153148Y-90901699D01*
X110553148Y-90235032D02*
X110553148Y-90901699D01*
X110719815Y-89854080D02*
X110886481Y-90568365D01*
X110886481Y-90568365D02*
X110453148Y-90568365D01*
X109853148Y-90901699D02*
X110186481Y-90901699D01*
X110186481Y-90901699D02*
X110186481Y-89901699D01*
X109219814Y-90806460D02*
X109253147Y-90854080D01*
X109253147Y-90854080D02*
X109353147Y-90901699D01*
X109353147Y-90901699D02*
X109419814Y-90901699D01*
X109419814Y-90901699D02*
X109519814Y-90854080D01*
X109519814Y-90854080D02*
X109586481Y-90758841D01*
X109586481Y-90758841D02*
X109619814Y-90663603D01*
X109619814Y-90663603D02*
X109653147Y-90473127D01*
X109653147Y-90473127D02*
X109653147Y-90330270D01*
X109653147Y-90330270D02*
X109619814Y-90139794D01*
X109619814Y-90139794D02*
X109586481Y-90044556D01*
X109586481Y-90044556D02*
X109519814Y-89949318D01*
X109519814Y-89949318D02*
X109419814Y-89901699D01*
X109419814Y-89901699D02*
X109353147Y-89901699D01*
X109353147Y-89901699D02*
X109253147Y-89949318D01*
X109253147Y-89949318D02*
X109219814Y-89996937D01*
X108619814Y-89901699D02*
X108753147Y-89901699D01*
X108753147Y-89901699D02*
X108819814Y-89949318D01*
X108819814Y-89949318D02*
X108853147Y-89996937D01*
X108853147Y-89996937D02*
X108919814Y-90139794D01*
X108919814Y-90139794D02*
X108953147Y-90330270D01*
X108953147Y-90330270D02*
X108953147Y-90711222D01*
X108953147Y-90711222D02*
X108919814Y-90806460D01*
X108919814Y-90806460D02*
X108886481Y-90854080D01*
X108886481Y-90854080D02*
X108819814Y-90901699D01*
X108819814Y-90901699D02*
X108686481Y-90901699D01*
X108686481Y-90901699D02*
X108619814Y-90854080D01*
X108619814Y-90854080D02*
X108586481Y-90806460D01*
X108586481Y-90806460D02*
X108553147Y-90711222D01*
X108553147Y-90711222D02*
X108553147Y-90473127D01*
X108553147Y-90473127D02*
X108586481Y-90377889D01*
X108586481Y-90377889D02*
X108619814Y-90330270D01*
X108619814Y-90330270D02*
X108686481Y-90282651D01*
X108686481Y-90282651D02*
X108819814Y-90282651D01*
X108819814Y-90282651D02*
X108886481Y-90330270D01*
X108886481Y-90330270D02*
X108919814Y-90377889D01*
X108919814Y-90377889D02*
X108953147Y-90473127D01*
X107953147Y-90235032D02*
X107953147Y-90901699D01*
X108119814Y-89854080D02*
X108286480Y-90568365D01*
X108286480Y-90568365D02*
X107853147Y-90568365D01*
X89953148Y-110201699D02*
X89953148Y-109201699D01*
X89953148Y-109201699D02*
X89786481Y-109201699D01*
X89786481Y-109201699D02*
X89686481Y-109249318D01*
X89686481Y-109249318D02*
X89619815Y-109344556D01*
X89619815Y-109344556D02*
X89586481Y-109439794D01*
X89586481Y-109439794D02*
X89553148Y-109630270D01*
X89553148Y-109630270D02*
X89553148Y-109773127D01*
X89553148Y-109773127D02*
X89586481Y-109963603D01*
X89586481Y-109963603D02*
X89619815Y-110058841D01*
X89619815Y-110058841D02*
X89686481Y-110154080D01*
X89686481Y-110154080D02*
X89786481Y-110201699D01*
X89786481Y-110201699D02*
X89953148Y-110201699D01*
X89319815Y-109201699D02*
X89153148Y-110201699D01*
X89153148Y-110201699D02*
X89019815Y-109487413D01*
X89019815Y-109487413D02*
X88886481Y-110201699D01*
X88886481Y-110201699D02*
X88719815Y-109201699D01*
X122053148Y-111001699D02*
X121819815Y-112001699D01*
X121819815Y-112001699D02*
X121586481Y-111001699D01*
D11*
X86712672Y-108638827D02*
X86598386Y-108676922D01*
X86598386Y-108676922D02*
X86560291Y-108715018D01*
X86560291Y-108715018D02*
X86522195Y-108791208D01*
X86522195Y-108791208D02*
X86522195Y-108905494D01*
X86522195Y-108905494D02*
X86560291Y-108981684D01*
X86560291Y-108981684D02*
X86598386Y-109019780D01*
X86598386Y-109019780D02*
X86674576Y-109057875D01*
X86674576Y-109057875D02*
X86979338Y-109057875D01*
X86979338Y-109057875D02*
X86979338Y-108257875D01*
X86979338Y-108257875D02*
X86712672Y-108257875D01*
X86712672Y-108257875D02*
X86636481Y-108295970D01*
X86636481Y-108295970D02*
X86598386Y-108334065D01*
X86598386Y-108334065D02*
X86560291Y-108410256D01*
X86560291Y-108410256D02*
X86560291Y-108486446D01*
X86560291Y-108486446D02*
X86598386Y-108562637D01*
X86598386Y-108562637D02*
X86636481Y-108600732D01*
X86636481Y-108600732D02*
X86712672Y-108638827D01*
X86712672Y-108638827D02*
X86979338Y-108638827D01*
D12*
X89853148Y-121101699D02*
X89853148Y-120101699D01*
X89853148Y-120101699D02*
X89686481Y-120101699D01*
X89686481Y-120101699D02*
X89586481Y-120149318D01*
X89586481Y-120149318D02*
X89519815Y-120244556D01*
X89519815Y-120244556D02*
X89486481Y-120339794D01*
X89486481Y-120339794D02*
X89453148Y-120530270D01*
X89453148Y-120530270D02*
X89453148Y-120673127D01*
X89453148Y-120673127D02*
X89486481Y-120863603D01*
X89486481Y-120863603D02*
X89519815Y-120958841D01*
X89519815Y-120958841D02*
X89586481Y-121054080D01*
X89586481Y-121054080D02*
X89686481Y-121101699D01*
X89686481Y-121101699D02*
X89853148Y-121101699D01*
X89219815Y-120101699D02*
X89053148Y-121101699D01*
X89053148Y-121101699D02*
X88919815Y-120387413D01*
X88919815Y-120387413D02*
X88786481Y-121101699D01*
X88786481Y-121101699D02*
X88619815Y-120101699D01*
X93815032Y-120150140D02*
X93815032Y-120959663D01*
X93815032Y-120959663D02*
X93781699Y-121054901D01*
X93781699Y-121054901D02*
X93748365Y-121102521D01*
X93748365Y-121102521D02*
X93681699Y-121150140D01*
X93681699Y-121150140D02*
X93548365Y-121150140D01*
X93548365Y-121150140D02*
X93481699Y-121102521D01*
X93481699Y-121102521D02*
X93448365Y-121054901D01*
X93448365Y-121054901D02*
X93415032Y-120959663D01*
X93415032Y-120959663D02*
X93415032Y-120150140D01*
X93081699Y-121150140D02*
X93081699Y-120150140D01*
X93081699Y-120150140D02*
X92815032Y-120150140D01*
X92815032Y-120150140D02*
X92748366Y-120197759D01*
X92748366Y-120197759D02*
X92715032Y-120245378D01*
X92715032Y-120245378D02*
X92681699Y-120340616D01*
X92681699Y-120340616D02*
X92681699Y-120483473D01*
X92681699Y-120483473D02*
X92715032Y-120578711D01*
X92715032Y-120578711D02*
X92748366Y-120626330D01*
X92748366Y-120626330D02*
X92815032Y-120673949D01*
X92815032Y-120673949D02*
X93081699Y-120673949D01*
X101419814Y-111204080D02*
X101319814Y-111251699D01*
X101319814Y-111251699D02*
X101153148Y-111251699D01*
X101153148Y-111251699D02*
X101086481Y-111204080D01*
X101086481Y-111204080D02*
X101053148Y-111156460D01*
X101053148Y-111156460D02*
X101019814Y-111061222D01*
X101019814Y-111061222D02*
X101019814Y-110965984D01*
X101019814Y-110965984D02*
X101053148Y-110870746D01*
X101053148Y-110870746D02*
X101086481Y-110823127D01*
X101086481Y-110823127D02*
X101153148Y-110775508D01*
X101153148Y-110775508D02*
X101286481Y-110727889D01*
X101286481Y-110727889D02*
X101353148Y-110680270D01*
X101353148Y-110680270D02*
X101386481Y-110632651D01*
X101386481Y-110632651D02*
X101419814Y-110537413D01*
X101419814Y-110537413D02*
X101419814Y-110442175D01*
X101419814Y-110442175D02*
X101386481Y-110346937D01*
X101386481Y-110346937D02*
X101353148Y-110299318D01*
X101353148Y-110299318D02*
X101286481Y-110251699D01*
X101286481Y-110251699D02*
X101119814Y-110251699D01*
X101119814Y-110251699D02*
X101019814Y-110299318D01*
D13*
X83276600Y-87805323D02*
X83305172Y-87891037D01*
X83305172Y-87891037D02*
X83333743Y-87919608D01*
X83333743Y-87919608D02*
X83390886Y-87948180D01*
X83390886Y-87948180D02*
X83476600Y-87948180D01*
X83476600Y-87948180D02*
X83533743Y-87919608D01*
X83533743Y-87919608D02*
X83562315Y-87891037D01*
X83562315Y-87891037D02*
X83590886Y-87833894D01*
X83590886Y-87833894D02*
X83590886Y-87605323D01*
X83590886Y-87605323D02*
X82990886Y-87605323D01*
X82990886Y-87605323D02*
X82990886Y-87805323D01*
X82990886Y-87805323D02*
X83019457Y-87862466D01*
X83019457Y-87862466D02*
X83048029Y-87891037D01*
X83048029Y-87891037D02*
X83105172Y-87919608D01*
X83105172Y-87919608D02*
X83162315Y-87919608D01*
X83162315Y-87919608D02*
X83219457Y-87891037D01*
X83219457Y-87891037D02*
X83248029Y-87862466D01*
X83248029Y-87862466D02*
X83276600Y-87805323D01*
X83276600Y-87805323D02*
X83276600Y-87605323D01*
X83419457Y-88176751D02*
X83419457Y-88462466D01*
X83590886Y-88119608D02*
X82990886Y-88319608D01*
X82990886Y-88319608D02*
X83590886Y-88519608D01*
X82990886Y-88633894D02*
X82990886Y-88976752D01*
X83590886Y-88805323D02*
X82990886Y-88805323D01*
D12*
X105553148Y-111051699D02*
X105319815Y-112051699D01*
X105319815Y-112051699D02*
X105086481Y-111051699D01*
X104003148Y-116551699D02*
X103769815Y-117551699D01*
X103769815Y-117551699D02*
X103536481Y-116551699D01*
D11*
X123872034Y-83491037D02*
X122872034Y-83491037D01*
X122872034Y-83491037D02*
X123586319Y-83757703D01*
X123586319Y-83757703D02*
X122872034Y-84024370D01*
X122872034Y-84024370D02*
X123872034Y-84024370D01*
X123872034Y-84405323D02*
X122872034Y-84405323D01*
X123824415Y-84748179D02*
X123872034Y-84862465D01*
X123872034Y-84862465D02*
X123872034Y-85052941D01*
X123872034Y-85052941D02*
X123824415Y-85129132D01*
X123824415Y-85129132D02*
X123776795Y-85167227D01*
X123776795Y-85167227D02*
X123681557Y-85205322D01*
X123681557Y-85205322D02*
X123586319Y-85205322D01*
X123586319Y-85205322D02*
X123491081Y-85167227D01*
X123491081Y-85167227D02*
X123443462Y-85129132D01*
X123443462Y-85129132D02*
X123395843Y-85052941D01*
X123395843Y-85052941D02*
X123348224Y-84900560D01*
X123348224Y-84900560D02*
X123300605Y-84824370D01*
X123300605Y-84824370D02*
X123252986Y-84786275D01*
X123252986Y-84786275D02*
X123157748Y-84748179D01*
X123157748Y-84748179D02*
X123062510Y-84748179D01*
X123062510Y-84748179D02*
X122967272Y-84786275D01*
X122967272Y-84786275D02*
X122919653Y-84824370D01*
X122919653Y-84824370D02*
X122872034Y-84900560D01*
X122872034Y-84900560D02*
X122872034Y-85091037D01*
X122872034Y-85091037D02*
X122919653Y-85205322D01*
X122872034Y-85700561D02*
X122872034Y-85852942D01*
X122872034Y-85852942D02*
X122919653Y-85929132D01*
X122919653Y-85929132D02*
X123014891Y-86005323D01*
X123014891Y-86005323D02*
X123205367Y-86043418D01*
X123205367Y-86043418D02*
X123538700Y-86043418D01*
X123538700Y-86043418D02*
X123729176Y-86005323D01*
X123729176Y-86005323D02*
X123824415Y-85929132D01*
X123824415Y-85929132D02*
X123872034Y-85852942D01*
X123872034Y-85852942D02*
X123872034Y-85700561D01*
X123872034Y-85700561D02*
X123824415Y-85624370D01*
X123824415Y-85624370D02*
X123729176Y-85548180D01*
X123729176Y-85548180D02*
X123538700Y-85510084D01*
X123538700Y-85510084D02*
X123205367Y-85510084D01*
X123205367Y-85510084D02*
X123014891Y-85548180D01*
X123014891Y-85548180D02*
X122919653Y-85624370D01*
X122919653Y-85624370D02*
X122872034Y-85700561D01*
X96986482Y-88195960D02*
X96719815Y-88672151D01*
X96529339Y-88195960D02*
X96529339Y-89195960D01*
X96529339Y-89195960D02*
X96834101Y-89195960D01*
X96834101Y-89195960D02*
X96910291Y-89148341D01*
X96910291Y-89148341D02*
X96948386Y-89100722D01*
X96948386Y-89100722D02*
X96986482Y-89005484D01*
X96986482Y-89005484D02*
X96986482Y-88862627D01*
X96986482Y-88862627D02*
X96948386Y-88767389D01*
X96948386Y-88767389D02*
X96910291Y-88719770D01*
X96910291Y-88719770D02*
X96834101Y-88672151D01*
X96834101Y-88672151D02*
X96529339Y-88672151D01*
X97253148Y-89195960D02*
X97786482Y-88195960D01*
X97786482Y-89195960D02*
X97253148Y-88195960D01*
D12*
X99548366Y-121150140D02*
X99548366Y-120150140D01*
X99548366Y-120150140D02*
X99381699Y-120150140D01*
X99381699Y-120150140D02*
X99281699Y-120197759D01*
X99281699Y-120197759D02*
X99215033Y-120292997D01*
X99215033Y-120292997D02*
X99181699Y-120388235D01*
X99181699Y-120388235D02*
X99148366Y-120578711D01*
X99148366Y-120578711D02*
X99148366Y-120721568D01*
X99148366Y-120721568D02*
X99181699Y-120912044D01*
X99181699Y-120912044D02*
X99215033Y-121007282D01*
X99215033Y-121007282D02*
X99281699Y-121102521D01*
X99281699Y-121102521D02*
X99381699Y-121150140D01*
X99381699Y-121150140D02*
X99548366Y-121150140D01*
X98915033Y-120150140D02*
X98748366Y-121150140D01*
X98748366Y-121150140D02*
X98615033Y-120435854D01*
X98615033Y-120435854D02*
X98481699Y-121150140D01*
X98481699Y-121150140D02*
X98315033Y-120150140D01*
D11*
X116272034Y-83491037D02*
X115272034Y-83491037D01*
X115272034Y-83491037D02*
X115986319Y-83757703D01*
X115986319Y-83757703D02*
X115272034Y-84024370D01*
X115272034Y-84024370D02*
X116272034Y-84024370D01*
X115272034Y-84557704D02*
X115272034Y-84710085D01*
X115272034Y-84710085D02*
X115319653Y-84786275D01*
X115319653Y-84786275D02*
X115414891Y-84862466D01*
X115414891Y-84862466D02*
X115605367Y-84900561D01*
X115605367Y-84900561D02*
X115938700Y-84900561D01*
X115938700Y-84900561D02*
X116129176Y-84862466D01*
X116129176Y-84862466D02*
X116224415Y-84786275D01*
X116224415Y-84786275D02*
X116272034Y-84710085D01*
X116272034Y-84710085D02*
X116272034Y-84557704D01*
X116272034Y-84557704D02*
X116224415Y-84481513D01*
X116224415Y-84481513D02*
X116129176Y-84405323D01*
X116129176Y-84405323D02*
X115938700Y-84367227D01*
X115938700Y-84367227D02*
X115605367Y-84367227D01*
X115605367Y-84367227D02*
X115414891Y-84405323D01*
X115414891Y-84405323D02*
X115319653Y-84481513D01*
X115319653Y-84481513D02*
X115272034Y-84557704D01*
X116224415Y-85205322D02*
X116272034Y-85319608D01*
X116272034Y-85319608D02*
X116272034Y-85510084D01*
X116272034Y-85510084D02*
X116224415Y-85586275D01*
X116224415Y-85586275D02*
X116176795Y-85624370D01*
X116176795Y-85624370D02*
X116081557Y-85662465D01*
X116081557Y-85662465D02*
X115986319Y-85662465D01*
X115986319Y-85662465D02*
X115891081Y-85624370D01*
X115891081Y-85624370D02*
X115843462Y-85586275D01*
X115843462Y-85586275D02*
X115795843Y-85510084D01*
X115795843Y-85510084D02*
X115748224Y-85357703D01*
X115748224Y-85357703D02*
X115700605Y-85281513D01*
X115700605Y-85281513D02*
X115652986Y-85243418D01*
X115652986Y-85243418D02*
X115557748Y-85205322D01*
X115557748Y-85205322D02*
X115462510Y-85205322D01*
X115462510Y-85205322D02*
X115367272Y-85243418D01*
X115367272Y-85243418D02*
X115319653Y-85281513D01*
X115319653Y-85281513D02*
X115272034Y-85357703D01*
X115272034Y-85357703D02*
X115272034Y-85548180D01*
X115272034Y-85548180D02*
X115319653Y-85662465D01*
X116272034Y-86005323D02*
X115272034Y-86005323D01*
D12*
X117769814Y-116404080D02*
X117669814Y-116451699D01*
X117669814Y-116451699D02*
X117503148Y-116451699D01*
X117503148Y-116451699D02*
X117436481Y-116404080D01*
X117436481Y-116404080D02*
X117403148Y-116356460D01*
X117403148Y-116356460D02*
X117369814Y-116261222D01*
X117369814Y-116261222D02*
X117369814Y-116165984D01*
X117369814Y-116165984D02*
X117403148Y-116070746D01*
X117403148Y-116070746D02*
X117436481Y-116023127D01*
X117436481Y-116023127D02*
X117503148Y-115975508D01*
X117503148Y-115975508D02*
X117636481Y-115927889D01*
X117636481Y-115927889D02*
X117703148Y-115880270D01*
X117703148Y-115880270D02*
X117736481Y-115832651D01*
X117736481Y-115832651D02*
X117769814Y-115737413D01*
X117769814Y-115737413D02*
X117769814Y-115642175D01*
X117769814Y-115642175D02*
X117736481Y-115546937D01*
X117736481Y-115546937D02*
X117703148Y-115499318D01*
X117703148Y-115499318D02*
X117636481Y-115451699D01*
X117636481Y-115451699D02*
X117469814Y-115451699D01*
X117469814Y-115451699D02*
X117369814Y-115499318D01*
D11*
X81688863Y-89676913D02*
X82450768Y-89676913D01*
X82069815Y-89295960D02*
X82069815Y-90057865D01*
D13*
X104990886Y-85133893D02*
X104990886Y-84791036D01*
X104990886Y-84962465D02*
X104390886Y-84962465D01*
X104390886Y-84962465D02*
X104476600Y-84905322D01*
X104476600Y-84905322D02*
X104533743Y-84848179D01*
X104533743Y-84848179D02*
X104562315Y-84791036D01*
X104933743Y-85391037D02*
X104962315Y-85419608D01*
X104962315Y-85419608D02*
X104990886Y-85391037D01*
X104990886Y-85391037D02*
X104962315Y-85362465D01*
X104962315Y-85362465D02*
X104933743Y-85391037D01*
X104933743Y-85391037D02*
X104990886Y-85391037D01*
X104448029Y-85648179D02*
X104419457Y-85676751D01*
X104419457Y-85676751D02*
X104390886Y-85733894D01*
X104390886Y-85733894D02*
X104390886Y-85876751D01*
X104390886Y-85876751D02*
X104419457Y-85933894D01*
X104419457Y-85933894D02*
X104448029Y-85962465D01*
X104448029Y-85962465D02*
X104505172Y-85991036D01*
X104505172Y-85991036D02*
X104562315Y-85991036D01*
X104562315Y-85991036D02*
X104648029Y-85962465D01*
X104648029Y-85962465D02*
X104990886Y-85619608D01*
X104990886Y-85619608D02*
X104990886Y-85991036D01*
X104390886Y-86162465D02*
X104990886Y-86362465D01*
X104990886Y-86362465D02*
X104390886Y-86562465D01*
D12*
X104819814Y-118701699D02*
X104819814Y-119511222D01*
X104819814Y-119511222D02*
X104786481Y-119606460D01*
X104786481Y-119606460D02*
X104753147Y-119654080D01*
X104753147Y-119654080D02*
X104686481Y-119701699D01*
X104686481Y-119701699D02*
X104553147Y-119701699D01*
X104553147Y-119701699D02*
X104486481Y-119654080D01*
X104486481Y-119654080D02*
X104453147Y-119606460D01*
X104453147Y-119606460D02*
X104419814Y-119511222D01*
X104419814Y-119511222D02*
X104419814Y-118701699D01*
X104086481Y-119701699D02*
X104086481Y-118701699D01*
X104086481Y-118701699D02*
X103819814Y-118701699D01*
X103819814Y-118701699D02*
X103753148Y-118749318D01*
X103753148Y-118749318D02*
X103719814Y-118796937D01*
X103719814Y-118796937D02*
X103686481Y-118892175D01*
X103686481Y-118892175D02*
X103686481Y-119035032D01*
X103686481Y-119035032D02*
X103719814Y-119130270D01*
X103719814Y-119130270D02*
X103753148Y-119177889D01*
X103753148Y-119177889D02*
X103819814Y-119225508D01*
X103819814Y-119225508D02*
X104086481Y-119225508D01*
D11*
X96510291Y-91845960D02*
X96967434Y-91845960D01*
X96738862Y-90845960D02*
X96738862Y-91845960D01*
X97157910Y-91845960D02*
X97691244Y-90845960D01*
X97691244Y-91845960D02*
X97157910Y-90845960D01*
D12*
X106503148Y-119651699D02*
X106503148Y-118651699D01*
X106503148Y-118651699D02*
X106336481Y-118651699D01*
X106336481Y-118651699D02*
X106236481Y-118699318D01*
X106236481Y-118699318D02*
X106169815Y-118794556D01*
X106169815Y-118794556D02*
X106136481Y-118889794D01*
X106136481Y-118889794D02*
X106103148Y-119080270D01*
X106103148Y-119080270D02*
X106103148Y-119223127D01*
X106103148Y-119223127D02*
X106136481Y-119413603D01*
X106136481Y-119413603D02*
X106169815Y-119508841D01*
X106169815Y-119508841D02*
X106236481Y-119604080D01*
X106236481Y-119604080D02*
X106336481Y-119651699D01*
X106336481Y-119651699D02*
X106503148Y-119651699D01*
X105869815Y-118651699D02*
X105703148Y-119651699D01*
X105703148Y-119651699D02*
X105569815Y-118937413D01*
X105569815Y-118937413D02*
X105436481Y-119651699D01*
X105436481Y-119651699D02*
X105269815Y-118651699D01*
D11*
X113772034Y-82612767D02*
X113295843Y-82346100D01*
X113772034Y-82155624D02*
X112772034Y-82155624D01*
X112772034Y-82155624D02*
X112772034Y-82460386D01*
X112772034Y-82460386D02*
X112819653Y-82536576D01*
X112819653Y-82536576D02*
X112867272Y-82574671D01*
X112867272Y-82574671D02*
X112962510Y-82612767D01*
X112962510Y-82612767D02*
X113105367Y-82612767D01*
X113105367Y-82612767D02*
X113200605Y-82574671D01*
X113200605Y-82574671D02*
X113248224Y-82536576D01*
X113248224Y-82536576D02*
X113295843Y-82460386D01*
X113295843Y-82460386D02*
X113295843Y-82155624D01*
X113724415Y-82917528D02*
X113772034Y-83031814D01*
X113772034Y-83031814D02*
X113772034Y-83222290D01*
X113772034Y-83222290D02*
X113724415Y-83298481D01*
X113724415Y-83298481D02*
X113676795Y-83336576D01*
X113676795Y-83336576D02*
X113581557Y-83374671D01*
X113581557Y-83374671D02*
X113486319Y-83374671D01*
X113486319Y-83374671D02*
X113391081Y-83336576D01*
X113391081Y-83336576D02*
X113343462Y-83298481D01*
X113343462Y-83298481D02*
X113295843Y-83222290D01*
X113295843Y-83222290D02*
X113248224Y-83069909D01*
X113248224Y-83069909D02*
X113200605Y-82993719D01*
X113200605Y-82993719D02*
X113152986Y-82955624D01*
X113152986Y-82955624D02*
X113057748Y-82917528D01*
X113057748Y-82917528D02*
X112962510Y-82917528D01*
X112962510Y-82917528D02*
X112867272Y-82955624D01*
X112867272Y-82955624D02*
X112819653Y-82993719D01*
X112819653Y-82993719D02*
X112772034Y-83069909D01*
X112772034Y-83069909D02*
X112772034Y-83260386D01*
X112772034Y-83260386D02*
X112819653Y-83374671D01*
X112772034Y-83603243D02*
X112772034Y-84060386D01*
X113772034Y-83831814D02*
X112772034Y-83831814D01*
X110219653Y-82438656D02*
X110172034Y-82362466D01*
X110172034Y-82362466D02*
X110172034Y-82248180D01*
X110172034Y-82248180D02*
X110219653Y-82133894D01*
X110219653Y-82133894D02*
X110314891Y-82057704D01*
X110314891Y-82057704D02*
X110410129Y-82019609D01*
X110410129Y-82019609D02*
X110600605Y-81981513D01*
X110600605Y-81981513D02*
X110743462Y-81981513D01*
X110743462Y-81981513D02*
X110933938Y-82019609D01*
X110933938Y-82019609D02*
X111029176Y-82057704D01*
X111029176Y-82057704D02*
X111124415Y-82133894D01*
X111124415Y-82133894D02*
X111172034Y-82248180D01*
X111172034Y-82248180D02*
X111172034Y-82324371D01*
X111172034Y-82324371D02*
X111124415Y-82438656D01*
X111124415Y-82438656D02*
X111076795Y-82476752D01*
X111076795Y-82476752D02*
X110743462Y-82476752D01*
X110743462Y-82476752D02*
X110743462Y-82324371D01*
X111172034Y-82819609D02*
X110172034Y-82819609D01*
X110172034Y-82819609D02*
X111172034Y-83276752D01*
X111172034Y-83276752D02*
X110172034Y-83276752D01*
X111172034Y-83657704D02*
X110172034Y-83657704D01*
X110172034Y-83657704D02*
X110172034Y-83848180D01*
X110172034Y-83848180D02*
X110219653Y-83962466D01*
X110219653Y-83962466D02*
X110314891Y-84038656D01*
X110314891Y-84038656D02*
X110410129Y-84076751D01*
X110410129Y-84076751D02*
X110600605Y-84114847D01*
X110600605Y-84114847D02*
X110743462Y-84114847D01*
X110743462Y-84114847D02*
X110933938Y-84076751D01*
X110933938Y-84076751D02*
X111029176Y-84038656D01*
X111029176Y-84038656D02*
X111124415Y-83962466D01*
X111124415Y-83962466D02*
X111172034Y-83848180D01*
X111172034Y-83848180D02*
X111172034Y-83657704D01*
X118372034Y-98519609D02*
X117372034Y-98519609D01*
X117372034Y-98519609D02*
X117372034Y-98710085D01*
X117372034Y-98710085D02*
X117419653Y-98824371D01*
X117419653Y-98824371D02*
X117514891Y-98900561D01*
X117514891Y-98900561D02*
X117610129Y-98938656D01*
X117610129Y-98938656D02*
X117800605Y-98976752D01*
X117800605Y-98976752D02*
X117943462Y-98976752D01*
X117943462Y-98976752D02*
X118133938Y-98938656D01*
X118133938Y-98938656D02*
X118229176Y-98900561D01*
X118229176Y-98900561D02*
X118324415Y-98824371D01*
X118324415Y-98824371D02*
X118372034Y-98710085D01*
X118372034Y-98710085D02*
X118372034Y-98519609D01*
X118467272Y-99852942D02*
X118419653Y-99776752D01*
X118419653Y-99776752D02*
X118324415Y-99700561D01*
X118324415Y-99700561D02*
X118181557Y-99586275D01*
X118181557Y-99586275D02*
X118133938Y-99510085D01*
X118133938Y-99510085D02*
X118133938Y-99433894D01*
X118372034Y-99471990D02*
X118324415Y-99395799D01*
X118324415Y-99395799D02*
X118229176Y-99319609D01*
X118229176Y-99319609D02*
X118038700Y-99281513D01*
X118038700Y-99281513D02*
X117705367Y-99281513D01*
X117705367Y-99281513D02*
X117514891Y-99319609D01*
X117514891Y-99319609D02*
X117419653Y-99395799D01*
X117419653Y-99395799D02*
X117372034Y-99471990D01*
X117372034Y-99471990D02*
X117372034Y-99624371D01*
X117372034Y-99624371D02*
X117419653Y-99700561D01*
X117419653Y-99700561D02*
X117514891Y-99776752D01*
X117514891Y-99776752D02*
X117705367Y-99814847D01*
X117705367Y-99814847D02*
X118038700Y-99814847D01*
X118038700Y-99814847D02*
X118229176Y-99776752D01*
X118229176Y-99776752D02*
X118324415Y-99700561D01*
X118324415Y-99700561D02*
X118372034Y-99624371D01*
X118372034Y-99624371D02*
X118372034Y-99471990D01*
D12*
X94898366Y-116050140D02*
X94665033Y-117050140D01*
X94665033Y-117050140D02*
X94431699Y-116050140D01*
X90369816Y-104701699D02*
X89903149Y-105701699D01*
X89903149Y-104701699D02*
X90369816Y-105701699D01*
X89303149Y-105701699D02*
X89636482Y-105701699D01*
X89636482Y-105701699D02*
X89636482Y-104701699D01*
X88769815Y-105035032D02*
X88769815Y-105701699D01*
X88936482Y-104654080D02*
X89103148Y-105368365D01*
X89103148Y-105368365D02*
X88669815Y-105368365D01*
X88269815Y-104701699D02*
X88203148Y-104701699D01*
X88203148Y-104701699D02*
X88136481Y-104749318D01*
X88136481Y-104749318D02*
X88103148Y-104796937D01*
X88103148Y-104796937D02*
X88069815Y-104892175D01*
X88069815Y-104892175D02*
X88036481Y-105082651D01*
X88036481Y-105082651D02*
X88036481Y-105320746D01*
X88036481Y-105320746D02*
X88069815Y-105511222D01*
X88069815Y-105511222D02*
X88103148Y-105606460D01*
X88103148Y-105606460D02*
X88136481Y-105654080D01*
X88136481Y-105654080D02*
X88203148Y-105701699D01*
X88203148Y-105701699D02*
X88269815Y-105701699D01*
X88269815Y-105701699D02*
X88336481Y-105654080D01*
X88336481Y-105654080D02*
X88369815Y-105606460D01*
X88369815Y-105606460D02*
X88403148Y-105511222D01*
X88403148Y-105511222D02*
X88436481Y-105320746D01*
X88436481Y-105320746D02*
X88436481Y-105082651D01*
X88436481Y-105082651D02*
X88403148Y-104892175D01*
X88403148Y-104892175D02*
X88369815Y-104796937D01*
X88369815Y-104796937D02*
X88336481Y-104749318D01*
X88336481Y-104749318D02*
X88269815Y-104701699D01*
X87369814Y-105701699D02*
X87769814Y-105701699D01*
X87569814Y-105701699D02*
X87569814Y-104701699D01*
X87569814Y-104701699D02*
X87636481Y-104844556D01*
X87636481Y-104844556D02*
X87703148Y-104939794D01*
X87703148Y-104939794D02*
X87769814Y-104987413D01*
X86736481Y-104701699D02*
X87069814Y-104701699D01*
X87069814Y-104701699D02*
X87103147Y-105177889D01*
X87103147Y-105177889D02*
X87069814Y-105130270D01*
X87069814Y-105130270D02*
X87003147Y-105082651D01*
X87003147Y-105082651D02*
X86836481Y-105082651D01*
X86836481Y-105082651D02*
X86769814Y-105130270D01*
X86769814Y-105130270D02*
X86736481Y-105177889D01*
X86736481Y-105177889D02*
X86703147Y-105273127D01*
X86703147Y-105273127D02*
X86703147Y-105511222D01*
X86703147Y-105511222D02*
X86736481Y-105606460D01*
X86736481Y-105606460D02*
X86769814Y-105654080D01*
X86769814Y-105654080D02*
X86836481Y-105701699D01*
X86836481Y-105701699D02*
X87003147Y-105701699D01*
X87003147Y-105701699D02*
X87069814Y-105654080D01*
X87069814Y-105654080D02*
X87103147Y-105606460D01*
D11*
X97010291Y-86698341D02*
X96934101Y-86745960D01*
X96934101Y-86745960D02*
X96819815Y-86745960D01*
X96819815Y-86745960D02*
X96705529Y-86698341D01*
X96705529Y-86698341D02*
X96629339Y-86603103D01*
X96629339Y-86603103D02*
X96591244Y-86507865D01*
X96591244Y-86507865D02*
X96553148Y-86317389D01*
X96553148Y-86317389D02*
X96553148Y-86174532D01*
X96553148Y-86174532D02*
X96591244Y-85984056D01*
X96591244Y-85984056D02*
X96629339Y-85888818D01*
X96629339Y-85888818D02*
X96705529Y-85793580D01*
X96705529Y-85793580D02*
X96819815Y-85745960D01*
X96819815Y-85745960D02*
X96896006Y-85745960D01*
X96896006Y-85745960D02*
X97010291Y-85793580D01*
X97010291Y-85793580D02*
X97048387Y-85841199D01*
X97048387Y-85841199D02*
X97048387Y-86174532D01*
X97048387Y-86174532D02*
X96896006Y-86174532D01*
X97391244Y-85745960D02*
X97391244Y-86745960D01*
X97391244Y-86745960D02*
X97848387Y-85745960D01*
X97848387Y-85745960D02*
X97848387Y-86745960D01*
X98229339Y-85745960D02*
X98229339Y-86745960D01*
X98229339Y-86745960D02*
X98419815Y-86745960D01*
X98419815Y-86745960D02*
X98534101Y-86698341D01*
X98534101Y-86698341D02*
X98610291Y-86603103D01*
X98610291Y-86603103D02*
X98648386Y-86507865D01*
X98648386Y-86507865D02*
X98686482Y-86317389D01*
X98686482Y-86317389D02*
X98686482Y-86174532D01*
X98686482Y-86174532D02*
X98648386Y-85984056D01*
X98648386Y-85984056D02*
X98610291Y-85888818D01*
X98610291Y-85888818D02*
X98534101Y-85793580D01*
X98534101Y-85793580D02*
X98419815Y-85745960D01*
X98419815Y-85745960D02*
X98229339Y-85745960D01*
D12*
X122053148Y-116551699D02*
X121819815Y-117551699D01*
X121819815Y-117551699D02*
X121586481Y-116551699D01*
X92369814Y-112604080D02*
X92269814Y-112651699D01*
X92269814Y-112651699D02*
X92103148Y-112651699D01*
X92103148Y-112651699D02*
X92036481Y-112604080D01*
X92036481Y-112604080D02*
X92003148Y-112556460D01*
X92003148Y-112556460D02*
X91969814Y-112461222D01*
X91969814Y-112461222D02*
X91969814Y-112365984D01*
X91969814Y-112365984D02*
X92003148Y-112270746D01*
X92003148Y-112270746D02*
X92036481Y-112223127D01*
X92036481Y-112223127D02*
X92103148Y-112175508D01*
X92103148Y-112175508D02*
X92236481Y-112127889D01*
X92236481Y-112127889D02*
X92303148Y-112080270D01*
X92303148Y-112080270D02*
X92336481Y-112032651D01*
X92336481Y-112032651D02*
X92369814Y-111937413D01*
X92369814Y-111937413D02*
X92369814Y-111842175D01*
X92369814Y-111842175D02*
X92336481Y-111746937D01*
X92336481Y-111746937D02*
X92303148Y-111699318D01*
X92303148Y-111699318D02*
X92236481Y-111651699D01*
X92236481Y-111651699D02*
X92069814Y-111651699D01*
X92069814Y-111651699D02*
X91969814Y-111699318D01*
X98786481Y-111099318D02*
X98853148Y-111051699D01*
X98853148Y-111051699D02*
X98953148Y-111051699D01*
X98953148Y-111051699D02*
X99053148Y-111099318D01*
X99053148Y-111099318D02*
X99119815Y-111194556D01*
X99119815Y-111194556D02*
X99153148Y-111289794D01*
X99153148Y-111289794D02*
X99186481Y-111480270D01*
X99186481Y-111480270D02*
X99186481Y-111623127D01*
X99186481Y-111623127D02*
X99153148Y-111813603D01*
X99153148Y-111813603D02*
X99119815Y-111908841D01*
X99119815Y-111908841D02*
X99053148Y-112004080D01*
X99053148Y-112004080D02*
X98953148Y-112051699D01*
X98953148Y-112051699D02*
X98886481Y-112051699D01*
X98886481Y-112051699D02*
X98786481Y-112004080D01*
X98786481Y-112004080D02*
X98753148Y-111956460D01*
X98753148Y-111956460D02*
X98753148Y-111623127D01*
X98753148Y-111623127D02*
X98886481Y-111623127D01*
X89936481Y-110999318D02*
X90003148Y-110951699D01*
X90003148Y-110951699D02*
X90103148Y-110951699D01*
X90103148Y-110951699D02*
X90203148Y-110999318D01*
X90203148Y-110999318D02*
X90269815Y-111094556D01*
X90269815Y-111094556D02*
X90303148Y-111189794D01*
X90303148Y-111189794D02*
X90336481Y-111380270D01*
X90336481Y-111380270D02*
X90336481Y-111523127D01*
X90336481Y-111523127D02*
X90303148Y-111713603D01*
X90303148Y-111713603D02*
X90269815Y-111808841D01*
X90269815Y-111808841D02*
X90203148Y-111904080D01*
X90203148Y-111904080D02*
X90103148Y-111951699D01*
X90103148Y-111951699D02*
X90036481Y-111951699D01*
X90036481Y-111951699D02*
X89936481Y-111904080D01*
X89936481Y-111904080D02*
X89903148Y-111856460D01*
X89903148Y-111856460D02*
X89903148Y-111523127D01*
X89903148Y-111523127D02*
X90036481Y-111523127D01*
D11*
X79462823Y-112496621D02*
X79424728Y-112420431D01*
X79424728Y-112420431D02*
X79424728Y-112306145D01*
X79424728Y-112306145D02*
X79462823Y-112191859D01*
X79462823Y-112191859D02*
X79539013Y-112115669D01*
X79539013Y-112115669D02*
X79615204Y-112077574D01*
X79615204Y-112077574D02*
X79767585Y-112039478D01*
X79767585Y-112039478D02*
X79881871Y-112039478D01*
X79881871Y-112039478D02*
X80034252Y-112077574D01*
X80034252Y-112077574D02*
X80110442Y-112115669D01*
X80110442Y-112115669D02*
X80186633Y-112191859D01*
X80186633Y-112191859D02*
X80224728Y-112306145D01*
X80224728Y-112306145D02*
X80224728Y-112382336D01*
X80224728Y-112382336D02*
X80186633Y-112496621D01*
X80186633Y-112496621D02*
X80148537Y-112534717D01*
X80148537Y-112534717D02*
X79881871Y-112534717D01*
X79881871Y-112534717D02*
X79881871Y-112382336D01*
X80224728Y-112877574D02*
X79424728Y-112877574D01*
X80224728Y-113258526D02*
X79424728Y-113258526D01*
X79424728Y-113258526D02*
X80224728Y-113715669D01*
X80224728Y-113715669D02*
X79424728Y-113715669D01*
X118772034Y-99331513D02*
X119772034Y-99598180D01*
X119772034Y-99598180D02*
X118772034Y-99864846D01*
D13*
X110490886Y-100076750D02*
X110205172Y-99876750D01*
X110490886Y-99733893D02*
X109890886Y-99733893D01*
X109890886Y-99733893D02*
X109890886Y-99962464D01*
X109890886Y-99962464D02*
X109919457Y-100019607D01*
X109919457Y-100019607D02*
X109948029Y-100048178D01*
X109948029Y-100048178D02*
X110005172Y-100076750D01*
X110005172Y-100076750D02*
X110090886Y-100076750D01*
X110090886Y-100076750D02*
X110148029Y-100048178D01*
X110148029Y-100048178D02*
X110176600Y-100019607D01*
X110176600Y-100019607D02*
X110205172Y-99962464D01*
X110205172Y-99962464D02*
X110205172Y-99733893D01*
X110462315Y-100305321D02*
X110490886Y-100391036D01*
X110490886Y-100391036D02*
X110490886Y-100533893D01*
X110490886Y-100533893D02*
X110462315Y-100591036D01*
X110462315Y-100591036D02*
X110433743Y-100619607D01*
X110433743Y-100619607D02*
X110376600Y-100648178D01*
X110376600Y-100648178D02*
X110319457Y-100648178D01*
X110319457Y-100648178D02*
X110262315Y-100619607D01*
X110262315Y-100619607D02*
X110233743Y-100591036D01*
X110233743Y-100591036D02*
X110205172Y-100533893D01*
X110205172Y-100533893D02*
X110176600Y-100419607D01*
X110176600Y-100419607D02*
X110148029Y-100362464D01*
X110148029Y-100362464D02*
X110119457Y-100333893D01*
X110119457Y-100333893D02*
X110062315Y-100305321D01*
X110062315Y-100305321D02*
X110005172Y-100305321D01*
X110005172Y-100305321D02*
X109948029Y-100333893D01*
X109948029Y-100333893D02*
X109919457Y-100362464D01*
X109919457Y-100362464D02*
X109890886Y-100419607D01*
X109890886Y-100419607D02*
X109890886Y-100562464D01*
X109890886Y-100562464D02*
X109919457Y-100648178D01*
X110090886Y-101162465D02*
X110490886Y-101162465D01*
X109862315Y-101019607D02*
X110290886Y-100876750D01*
X110290886Y-100876750D02*
X110290886Y-101248179D01*
X110148029Y-101562465D02*
X110119457Y-101505322D01*
X110119457Y-101505322D02*
X110090886Y-101476751D01*
X110090886Y-101476751D02*
X110033743Y-101448179D01*
X110033743Y-101448179D02*
X110005172Y-101448179D01*
X110005172Y-101448179D02*
X109948029Y-101476751D01*
X109948029Y-101476751D02*
X109919457Y-101505322D01*
X109919457Y-101505322D02*
X109890886Y-101562465D01*
X109890886Y-101562465D02*
X109890886Y-101676751D01*
X109890886Y-101676751D02*
X109919457Y-101733894D01*
X109919457Y-101733894D02*
X109948029Y-101762465D01*
X109948029Y-101762465D02*
X110005172Y-101791036D01*
X110005172Y-101791036D02*
X110033743Y-101791036D01*
X110033743Y-101791036D02*
X110090886Y-101762465D01*
X110090886Y-101762465D02*
X110119457Y-101733894D01*
X110119457Y-101733894D02*
X110148029Y-101676751D01*
X110148029Y-101676751D02*
X110148029Y-101562465D01*
X110148029Y-101562465D02*
X110176600Y-101505322D01*
X110176600Y-101505322D02*
X110205172Y-101476751D01*
X110205172Y-101476751D02*
X110262315Y-101448179D01*
X110262315Y-101448179D02*
X110376600Y-101448179D01*
X110376600Y-101448179D02*
X110433743Y-101476751D01*
X110433743Y-101476751D02*
X110462315Y-101505322D01*
X110462315Y-101505322D02*
X110490886Y-101562465D01*
X110490886Y-101562465D02*
X110490886Y-101676751D01*
X110490886Y-101676751D02*
X110462315Y-101733894D01*
X110462315Y-101733894D02*
X110433743Y-101762465D01*
X110433743Y-101762465D02*
X110376600Y-101791036D01*
X110376600Y-101791036D02*
X110262315Y-101791036D01*
X110262315Y-101791036D02*
X110205172Y-101762465D01*
X110205172Y-101762465D02*
X110176600Y-101733894D01*
X110176600Y-101733894D02*
X110148029Y-101676751D01*
X109890886Y-102333894D02*
X109890886Y-102048180D01*
X109890886Y-102048180D02*
X110176600Y-102019608D01*
X110176600Y-102019608D02*
X110148029Y-102048180D01*
X110148029Y-102048180D02*
X110119457Y-102105323D01*
X110119457Y-102105323D02*
X110119457Y-102248180D01*
X110119457Y-102248180D02*
X110148029Y-102305323D01*
X110148029Y-102305323D02*
X110176600Y-102333894D01*
X110176600Y-102333894D02*
X110233743Y-102362465D01*
X110233743Y-102362465D02*
X110376600Y-102362465D01*
X110376600Y-102362465D02*
X110433743Y-102333894D01*
X110433743Y-102333894D02*
X110462315Y-102305323D01*
X110462315Y-102305323D02*
X110490886Y-102248180D01*
X110490886Y-102248180D02*
X110490886Y-102105323D01*
X110490886Y-102105323D02*
X110462315Y-102048180D01*
X110462315Y-102048180D02*
X110433743Y-102019608D01*
X110548029Y-102476752D02*
X110548029Y-102933894D01*
X110462315Y-103048180D02*
X110490886Y-103133895D01*
X110490886Y-103133895D02*
X110490886Y-103276752D01*
X110490886Y-103276752D02*
X110462315Y-103333895D01*
X110462315Y-103333895D02*
X110433743Y-103362466D01*
X110433743Y-103362466D02*
X110376600Y-103391037D01*
X110376600Y-103391037D02*
X110319457Y-103391037D01*
X110319457Y-103391037D02*
X110262315Y-103362466D01*
X110262315Y-103362466D02*
X110233743Y-103333895D01*
X110233743Y-103333895D02*
X110205172Y-103276752D01*
X110205172Y-103276752D02*
X110176600Y-103162466D01*
X110176600Y-103162466D02*
X110148029Y-103105323D01*
X110148029Y-103105323D02*
X110119457Y-103076752D01*
X110119457Y-103076752D02*
X110062315Y-103048180D01*
X110062315Y-103048180D02*
X110005172Y-103048180D01*
X110005172Y-103048180D02*
X109948029Y-103076752D01*
X109948029Y-103076752D02*
X109919457Y-103105323D01*
X109919457Y-103105323D02*
X109890886Y-103162466D01*
X109890886Y-103162466D02*
X109890886Y-103305323D01*
X109890886Y-103305323D02*
X109919457Y-103391037D01*
X110176600Y-103648181D02*
X110176600Y-103848181D01*
X110490886Y-103933895D02*
X110490886Y-103648181D01*
X110490886Y-103648181D02*
X109890886Y-103648181D01*
X109890886Y-103648181D02*
X109890886Y-103933895D01*
X109890886Y-104105323D02*
X109890886Y-104448181D01*
X110490886Y-104276752D02*
X109890886Y-104276752D01*
D12*
X110036481Y-115299318D02*
X110103148Y-115251699D01*
X110103148Y-115251699D02*
X110203148Y-115251699D01*
X110203148Y-115251699D02*
X110303148Y-115299318D01*
X110303148Y-115299318D02*
X110369815Y-115394556D01*
X110369815Y-115394556D02*
X110403148Y-115489794D01*
X110403148Y-115489794D02*
X110436481Y-115680270D01*
X110436481Y-115680270D02*
X110436481Y-115823127D01*
X110436481Y-115823127D02*
X110403148Y-116013603D01*
X110403148Y-116013603D02*
X110369815Y-116108841D01*
X110369815Y-116108841D02*
X110303148Y-116204080D01*
X110303148Y-116204080D02*
X110203148Y-116251699D01*
X110203148Y-116251699D02*
X110136481Y-116251699D01*
X110136481Y-116251699D02*
X110036481Y-116204080D01*
X110036481Y-116204080D02*
X110003148Y-116156460D01*
X110003148Y-116156460D02*
X110003148Y-115823127D01*
X110003148Y-115823127D02*
X110136481Y-115823127D01*
D11*
X84410291Y-108929303D02*
X84029338Y-108929303D01*
X84486481Y-109157875D02*
X84219814Y-108357875D01*
X84219814Y-108357875D02*
X83953148Y-109157875D01*
D12*
X90719814Y-116354080D02*
X90619814Y-116401699D01*
X90619814Y-116401699D02*
X90453148Y-116401699D01*
X90453148Y-116401699D02*
X90386481Y-116354080D01*
X90386481Y-116354080D02*
X90353148Y-116306460D01*
X90353148Y-116306460D02*
X90319814Y-116211222D01*
X90319814Y-116211222D02*
X90319814Y-116115984D01*
X90319814Y-116115984D02*
X90353148Y-116020746D01*
X90353148Y-116020746D02*
X90386481Y-115973127D01*
X90386481Y-115973127D02*
X90453148Y-115925508D01*
X90453148Y-115925508D02*
X90586481Y-115877889D01*
X90586481Y-115877889D02*
X90653148Y-115830270D01*
X90653148Y-115830270D02*
X90686481Y-115782651D01*
X90686481Y-115782651D02*
X90719814Y-115687413D01*
X90719814Y-115687413D02*
X90719814Y-115592175D01*
X90719814Y-115592175D02*
X90686481Y-115496937D01*
X90686481Y-115496937D02*
X90653148Y-115449318D01*
X90653148Y-115449318D02*
X90586481Y-115401699D01*
X90586481Y-115401699D02*
X90419814Y-115401699D01*
X90419814Y-115401699D02*
X90319814Y-115449318D01*
D11*
X96524576Y-93493580D02*
X96638862Y-93445960D01*
X96638862Y-93445960D02*
X96829338Y-93445960D01*
X96829338Y-93445960D02*
X96905529Y-93493580D01*
X96905529Y-93493580D02*
X96943624Y-93541199D01*
X96943624Y-93541199D02*
X96981719Y-93636437D01*
X96981719Y-93636437D02*
X96981719Y-93731675D01*
X96981719Y-93731675D02*
X96943624Y-93826913D01*
X96943624Y-93826913D02*
X96905529Y-93874532D01*
X96905529Y-93874532D02*
X96829338Y-93922151D01*
X96829338Y-93922151D02*
X96676957Y-93969770D01*
X96676957Y-93969770D02*
X96600767Y-94017389D01*
X96600767Y-94017389D02*
X96562672Y-94065008D01*
X96562672Y-94065008D02*
X96524576Y-94160246D01*
X96524576Y-94160246D02*
X96524576Y-94255484D01*
X96524576Y-94255484D02*
X96562672Y-94350722D01*
X96562672Y-94350722D02*
X96600767Y-94398341D01*
X96600767Y-94398341D02*
X96676957Y-94445960D01*
X96676957Y-94445960D02*
X96867434Y-94445960D01*
X96867434Y-94445960D02*
X96981719Y-94398341D01*
X97324577Y-93969770D02*
X97591243Y-93969770D01*
X97705529Y-93445960D02*
X97324577Y-93445960D01*
X97324577Y-93445960D02*
X97324577Y-94445960D01*
X97324577Y-94445960D02*
X97705529Y-94445960D01*
X97934101Y-94445960D02*
X98391244Y-94445960D01*
X98162672Y-93445960D02*
X98162672Y-94445960D01*
X116019653Y-99707703D02*
X115972034Y-99631513D01*
X115972034Y-99631513D02*
X115972034Y-99517227D01*
X115972034Y-99517227D02*
X116019653Y-99402941D01*
X116019653Y-99402941D02*
X116114891Y-99326751D01*
X116114891Y-99326751D02*
X116210129Y-99288656D01*
X116210129Y-99288656D02*
X116400605Y-99250560D01*
X116400605Y-99250560D02*
X116543462Y-99250560D01*
X116543462Y-99250560D02*
X116733938Y-99288656D01*
X116733938Y-99288656D02*
X116829176Y-99326751D01*
X116829176Y-99326751D02*
X116924415Y-99402941D01*
X116924415Y-99402941D02*
X116972034Y-99517227D01*
X116972034Y-99517227D02*
X116972034Y-99593418D01*
X116972034Y-99593418D02*
X116924415Y-99707703D01*
X116924415Y-99707703D02*
X116876795Y-99745799D01*
X116876795Y-99745799D02*
X116543462Y-99745799D01*
X116543462Y-99745799D02*
X116543462Y-99593418D01*
D12*
X113003148Y-116651699D02*
X112769815Y-117651699D01*
X112769815Y-117651699D02*
X112536481Y-116651699D01*
X113769814Y-118651699D02*
X113769814Y-119461222D01*
X113769814Y-119461222D02*
X113736481Y-119556460D01*
X113736481Y-119556460D02*
X113703147Y-119604080D01*
X113703147Y-119604080D02*
X113636481Y-119651699D01*
X113636481Y-119651699D02*
X113503147Y-119651699D01*
X113503147Y-119651699D02*
X113436481Y-119604080D01*
X113436481Y-119604080D02*
X113403147Y-119556460D01*
X113403147Y-119556460D02*
X113369814Y-119461222D01*
X113369814Y-119461222D02*
X113369814Y-118651699D01*
X113036481Y-119651699D02*
X113036481Y-118651699D01*
X113036481Y-118651699D02*
X112769814Y-118651699D01*
X112769814Y-118651699D02*
X112703148Y-118699318D01*
X112703148Y-118699318D02*
X112669814Y-118746937D01*
X112669814Y-118746937D02*
X112636481Y-118842175D01*
X112636481Y-118842175D02*
X112636481Y-118985032D01*
X112636481Y-118985032D02*
X112669814Y-119080270D01*
X112669814Y-119080270D02*
X112703148Y-119127889D01*
X112703148Y-119127889D02*
X112769814Y-119175508D01*
X112769814Y-119175508D02*
X113036481Y-119175508D01*
X106619814Y-117554080D02*
X106519814Y-117601699D01*
X106519814Y-117601699D02*
X106353148Y-117601699D01*
X106353148Y-117601699D02*
X106286481Y-117554080D01*
X106286481Y-117554080D02*
X106253148Y-117506460D01*
X106253148Y-117506460D02*
X106219814Y-117411222D01*
X106219814Y-117411222D02*
X106219814Y-117315984D01*
X106219814Y-117315984D02*
X106253148Y-117220746D01*
X106253148Y-117220746D02*
X106286481Y-117173127D01*
X106286481Y-117173127D02*
X106353148Y-117125508D01*
X106353148Y-117125508D02*
X106486481Y-117077889D01*
X106486481Y-117077889D02*
X106553148Y-117030270D01*
X106553148Y-117030270D02*
X106586481Y-116982651D01*
X106586481Y-116982651D02*
X106619814Y-116887413D01*
X106619814Y-116887413D02*
X106619814Y-116792175D01*
X106619814Y-116792175D02*
X106586481Y-116696937D01*
X106586481Y-116696937D02*
X106553148Y-116649318D01*
X106553148Y-116649318D02*
X106486481Y-116601699D01*
X106486481Y-116601699D02*
X106319814Y-116601699D01*
X106319814Y-116601699D02*
X106219814Y-116649318D01*
X122869814Y-118701699D02*
X122869814Y-119511222D01*
X122869814Y-119511222D02*
X122836481Y-119606460D01*
X122836481Y-119606460D02*
X122803147Y-119654080D01*
X122803147Y-119654080D02*
X122736481Y-119701699D01*
X122736481Y-119701699D02*
X122603147Y-119701699D01*
X122603147Y-119701699D02*
X122536481Y-119654080D01*
X122536481Y-119654080D02*
X122503147Y-119606460D01*
X122503147Y-119606460D02*
X122469814Y-119511222D01*
X122469814Y-119511222D02*
X122469814Y-118701699D01*
X122136481Y-119701699D02*
X122136481Y-118701699D01*
X122136481Y-118701699D02*
X121869814Y-118701699D01*
X121869814Y-118701699D02*
X121803148Y-118749318D01*
X121803148Y-118749318D02*
X121769814Y-118796937D01*
X121769814Y-118796937D02*
X121736481Y-118892175D01*
X121736481Y-118892175D02*
X121736481Y-119035032D01*
X121736481Y-119035032D02*
X121769814Y-119130270D01*
X121769814Y-119130270D02*
X121803148Y-119177889D01*
X121803148Y-119177889D02*
X121869814Y-119225508D01*
X121869814Y-119225508D02*
X122136481Y-119225508D01*
X115286481Y-116599318D02*
X115353148Y-116551699D01*
X115353148Y-116551699D02*
X115453148Y-116551699D01*
X115453148Y-116551699D02*
X115553148Y-116599318D01*
X115553148Y-116599318D02*
X115619815Y-116694556D01*
X115619815Y-116694556D02*
X115653148Y-116789794D01*
X115653148Y-116789794D02*
X115686481Y-116980270D01*
X115686481Y-116980270D02*
X115686481Y-117123127D01*
X115686481Y-117123127D02*
X115653148Y-117313603D01*
X115653148Y-117313603D02*
X115619815Y-117408841D01*
X115619815Y-117408841D02*
X115553148Y-117504080D01*
X115553148Y-117504080D02*
X115453148Y-117551699D01*
X115453148Y-117551699D02*
X115386481Y-117551699D01*
X115386481Y-117551699D02*
X115286481Y-117504080D01*
X115286481Y-117504080D02*
X115253148Y-117456460D01*
X115253148Y-117456460D02*
X115253148Y-117123127D01*
X115253148Y-117123127D02*
X115386481Y-117123127D01*
X104986481Y-95054080D02*
X104886481Y-95101699D01*
X104886481Y-95101699D02*
X104719815Y-95101699D01*
X104719815Y-95101699D02*
X104653148Y-95054080D01*
X104653148Y-95054080D02*
X104619815Y-95006460D01*
X104619815Y-95006460D02*
X104586481Y-94911222D01*
X104586481Y-94911222D02*
X104586481Y-94815984D01*
X104586481Y-94815984D02*
X104619815Y-94720746D01*
X104619815Y-94720746D02*
X104653148Y-94673127D01*
X104653148Y-94673127D02*
X104719815Y-94625508D01*
X104719815Y-94625508D02*
X104853148Y-94577889D01*
X104853148Y-94577889D02*
X104919815Y-94530270D01*
X104919815Y-94530270D02*
X104953148Y-94482651D01*
X104953148Y-94482651D02*
X104986481Y-94387413D01*
X104986481Y-94387413D02*
X104986481Y-94292175D01*
X104986481Y-94292175D02*
X104953148Y-94196937D01*
X104953148Y-94196937D02*
X104919815Y-94149318D01*
X104919815Y-94149318D02*
X104853148Y-94101699D01*
X104853148Y-94101699D02*
X104686481Y-94101699D01*
X104686481Y-94101699D02*
X104586481Y-94149318D01*
X104386481Y-94101699D02*
X103986481Y-94101699D01*
X104186481Y-95101699D02*
X104186481Y-94101699D01*
X103453148Y-94435032D02*
X103453148Y-95101699D01*
X103619815Y-94054080D02*
X103786481Y-94768365D01*
X103786481Y-94768365D02*
X103353148Y-94768365D01*
X102986481Y-94530270D02*
X103053148Y-94482651D01*
X103053148Y-94482651D02*
X103086481Y-94435032D01*
X103086481Y-94435032D02*
X103119814Y-94339794D01*
X103119814Y-94339794D02*
X103119814Y-94292175D01*
X103119814Y-94292175D02*
X103086481Y-94196937D01*
X103086481Y-94196937D02*
X103053148Y-94149318D01*
X103053148Y-94149318D02*
X102986481Y-94101699D01*
X102986481Y-94101699D02*
X102853148Y-94101699D01*
X102853148Y-94101699D02*
X102786481Y-94149318D01*
X102786481Y-94149318D02*
X102753148Y-94196937D01*
X102753148Y-94196937D02*
X102719814Y-94292175D01*
X102719814Y-94292175D02*
X102719814Y-94339794D01*
X102719814Y-94339794D02*
X102753148Y-94435032D01*
X102753148Y-94435032D02*
X102786481Y-94482651D01*
X102786481Y-94482651D02*
X102853148Y-94530270D01*
X102853148Y-94530270D02*
X102986481Y-94530270D01*
X102986481Y-94530270D02*
X103053148Y-94577889D01*
X103053148Y-94577889D02*
X103086481Y-94625508D01*
X103086481Y-94625508D02*
X103119814Y-94720746D01*
X103119814Y-94720746D02*
X103119814Y-94911222D01*
X103119814Y-94911222D02*
X103086481Y-95006460D01*
X103086481Y-95006460D02*
X103053148Y-95054080D01*
X103053148Y-95054080D02*
X102986481Y-95101699D01*
X102986481Y-95101699D02*
X102853148Y-95101699D01*
X102853148Y-95101699D02*
X102786481Y-95054080D01*
X102786481Y-95054080D02*
X102753148Y-95006460D01*
X102753148Y-95006460D02*
X102719814Y-94911222D01*
X102719814Y-94911222D02*
X102719814Y-94720746D01*
X102719814Y-94720746D02*
X102753148Y-94625508D01*
X102753148Y-94625508D02*
X102786481Y-94577889D01*
X102786481Y-94577889D02*
X102853148Y-94530270D01*
X102086481Y-94101699D02*
X102419814Y-94101699D01*
X102419814Y-94101699D02*
X102453147Y-94577889D01*
X102453147Y-94577889D02*
X102419814Y-94530270D01*
X102419814Y-94530270D02*
X102353147Y-94482651D01*
X102353147Y-94482651D02*
X102186481Y-94482651D01*
X102186481Y-94482651D02*
X102119814Y-94530270D01*
X102119814Y-94530270D02*
X102086481Y-94577889D01*
X102086481Y-94577889D02*
X102053147Y-94673127D01*
X102053147Y-94673127D02*
X102053147Y-94911222D01*
X102053147Y-94911222D02*
X102086481Y-95006460D01*
X102086481Y-95006460D02*
X102119814Y-95054080D01*
X102119814Y-95054080D02*
X102186481Y-95101699D01*
X102186481Y-95101699D02*
X102353147Y-95101699D01*
X102353147Y-95101699D02*
X102419814Y-95054080D01*
X102419814Y-95054080D02*
X102453147Y-95006460D01*
D11*
X118724415Y-83719608D02*
X118772034Y-83833894D01*
X118772034Y-83833894D02*
X118772034Y-84024370D01*
X118772034Y-84024370D02*
X118724415Y-84100561D01*
X118724415Y-84100561D02*
X118676795Y-84138656D01*
X118676795Y-84138656D02*
X118581557Y-84176751D01*
X118581557Y-84176751D02*
X118486319Y-84176751D01*
X118486319Y-84176751D02*
X118391081Y-84138656D01*
X118391081Y-84138656D02*
X118343462Y-84100561D01*
X118343462Y-84100561D02*
X118295843Y-84024370D01*
X118295843Y-84024370D02*
X118248224Y-83871989D01*
X118248224Y-83871989D02*
X118200605Y-83795799D01*
X118200605Y-83795799D02*
X118152986Y-83757704D01*
X118152986Y-83757704D02*
X118057748Y-83719608D01*
X118057748Y-83719608D02*
X117962510Y-83719608D01*
X117962510Y-83719608D02*
X117867272Y-83757704D01*
X117867272Y-83757704D02*
X117819653Y-83795799D01*
X117819653Y-83795799D02*
X117772034Y-83871989D01*
X117772034Y-83871989D02*
X117772034Y-84062466D01*
X117772034Y-84062466D02*
X117819653Y-84176751D01*
X118676795Y-84976752D02*
X118724415Y-84938656D01*
X118724415Y-84938656D02*
X118772034Y-84824371D01*
X118772034Y-84824371D02*
X118772034Y-84748180D01*
X118772034Y-84748180D02*
X118724415Y-84633894D01*
X118724415Y-84633894D02*
X118629176Y-84557704D01*
X118629176Y-84557704D02*
X118533938Y-84519609D01*
X118533938Y-84519609D02*
X118343462Y-84481513D01*
X118343462Y-84481513D02*
X118200605Y-84481513D01*
X118200605Y-84481513D02*
X118010129Y-84519609D01*
X118010129Y-84519609D02*
X117914891Y-84557704D01*
X117914891Y-84557704D02*
X117819653Y-84633894D01*
X117819653Y-84633894D02*
X117772034Y-84748180D01*
X117772034Y-84748180D02*
X117772034Y-84824371D01*
X117772034Y-84824371D02*
X117819653Y-84938656D01*
X117819653Y-84938656D02*
X117867272Y-84976752D01*
X118772034Y-85319609D02*
X117772034Y-85319609D01*
X118772034Y-85776752D02*
X118200605Y-85433894D01*
X117772034Y-85776752D02*
X118343462Y-85319609D01*
D12*
X115603148Y-119701699D02*
X115603148Y-118701699D01*
X115603148Y-118701699D02*
X115436481Y-118701699D01*
X115436481Y-118701699D02*
X115336481Y-118749318D01*
X115336481Y-118749318D02*
X115269815Y-118844556D01*
X115269815Y-118844556D02*
X115236481Y-118939794D01*
X115236481Y-118939794D02*
X115203148Y-119130270D01*
X115203148Y-119130270D02*
X115203148Y-119273127D01*
X115203148Y-119273127D02*
X115236481Y-119463603D01*
X115236481Y-119463603D02*
X115269815Y-119558841D01*
X115269815Y-119558841D02*
X115336481Y-119654080D01*
X115336481Y-119654080D02*
X115436481Y-119701699D01*
X115436481Y-119701699D02*
X115603148Y-119701699D01*
X114969815Y-118701699D02*
X114803148Y-119701699D01*
X114803148Y-119701699D02*
X114669815Y-118987413D01*
X114669815Y-118987413D02*
X114536481Y-119701699D01*
X114536481Y-119701699D02*
X114369815Y-118701699D01*
D11*
X75124728Y-110101382D02*
X75124728Y-109644239D01*
X75124728Y-109872811D02*
X74324728Y-109872811D01*
X74324728Y-109872811D02*
X74439013Y-109796620D01*
X74439013Y-109796620D02*
X74515204Y-109720430D01*
X74515204Y-109720430D02*
X74553299Y-109644239D01*
X74400918Y-110406144D02*
X74362823Y-110444240D01*
X74362823Y-110444240D02*
X74324728Y-110520430D01*
X74324728Y-110520430D02*
X74324728Y-110710906D01*
X74324728Y-110710906D02*
X74362823Y-110787097D01*
X74362823Y-110787097D02*
X74400918Y-110825192D01*
X74400918Y-110825192D02*
X74477109Y-110863287D01*
X74477109Y-110863287D02*
X74553299Y-110863287D01*
X74553299Y-110863287D02*
X74667585Y-110825192D01*
X74667585Y-110825192D02*
X75124728Y-110368049D01*
X75124728Y-110368049D02*
X75124728Y-110863287D01*
X74324728Y-111091859D02*
X75124728Y-111358526D01*
X75124728Y-111358526D02*
X74324728Y-111625192D01*
D12*
X97481699Y-115897759D02*
X97548366Y-115850140D01*
X97548366Y-115850140D02*
X97648366Y-115850140D01*
X97648366Y-115850140D02*
X97748366Y-115897759D01*
X97748366Y-115897759D02*
X97815033Y-115992997D01*
X97815033Y-115992997D02*
X97848366Y-116088235D01*
X97848366Y-116088235D02*
X97881699Y-116278711D01*
X97881699Y-116278711D02*
X97881699Y-116421568D01*
X97881699Y-116421568D02*
X97848366Y-116612044D01*
X97848366Y-116612044D02*
X97815033Y-116707282D01*
X97815033Y-116707282D02*
X97748366Y-116802521D01*
X97748366Y-116802521D02*
X97648366Y-116850140D01*
X97648366Y-116850140D02*
X97581699Y-116850140D01*
X97581699Y-116850140D02*
X97481699Y-116802521D01*
X97481699Y-116802521D02*
X97448366Y-116754901D01*
X97448366Y-116754901D02*
X97448366Y-116421568D01*
X97448366Y-116421568D02*
X97581699Y-116421568D01*
D11*
X120372034Y-83681513D02*
X121372034Y-83948180D01*
X121372034Y-83948180D02*
X120372034Y-84214846D01*
X121276795Y-84938656D02*
X121324415Y-84900560D01*
X121324415Y-84900560D02*
X121372034Y-84786275D01*
X121372034Y-84786275D02*
X121372034Y-84710084D01*
X121372034Y-84710084D02*
X121324415Y-84595798D01*
X121324415Y-84595798D02*
X121229176Y-84519608D01*
X121229176Y-84519608D02*
X121133938Y-84481513D01*
X121133938Y-84481513D02*
X120943462Y-84443417D01*
X120943462Y-84443417D02*
X120800605Y-84443417D01*
X120800605Y-84443417D02*
X120610129Y-84481513D01*
X120610129Y-84481513D02*
X120514891Y-84519608D01*
X120514891Y-84519608D02*
X120419653Y-84595798D01*
X120419653Y-84595798D02*
X120372034Y-84710084D01*
X120372034Y-84710084D02*
X120372034Y-84786275D01*
X120372034Y-84786275D02*
X120419653Y-84900560D01*
X120419653Y-84900560D02*
X120467272Y-84938656D01*
X121276795Y-85738656D02*
X121324415Y-85700560D01*
X121324415Y-85700560D02*
X121372034Y-85586275D01*
X121372034Y-85586275D02*
X121372034Y-85510084D01*
X121372034Y-85510084D02*
X121324415Y-85395798D01*
X121324415Y-85395798D02*
X121229176Y-85319608D01*
X121229176Y-85319608D02*
X121133938Y-85281513D01*
X121133938Y-85281513D02*
X120943462Y-85243417D01*
X120943462Y-85243417D02*
X120800605Y-85243417D01*
X120800605Y-85243417D02*
X120610129Y-85281513D01*
X120610129Y-85281513D02*
X120514891Y-85319608D01*
X120514891Y-85319608D02*
X120419653Y-85395798D01*
X120419653Y-85395798D02*
X120372034Y-85510084D01*
X120372034Y-85510084D02*
X120372034Y-85586275D01*
X120372034Y-85586275D02*
X120419653Y-85700560D01*
X120419653Y-85700560D02*
X120467272Y-85738656D01*
D13*
X84684100Y-97704965D02*
X84884100Y-97704965D01*
X84884100Y-98019251D02*
X84884100Y-97419251D01*
X84884100Y-97419251D02*
X84598386Y-97419251D01*
X84169814Y-97704965D02*
X84084100Y-97733537D01*
X84084100Y-97733537D02*
X84055529Y-97762108D01*
X84055529Y-97762108D02*
X84026957Y-97819251D01*
X84026957Y-97819251D02*
X84026957Y-97904965D01*
X84026957Y-97904965D02*
X84055529Y-97962108D01*
X84055529Y-97962108D02*
X84084100Y-97990680D01*
X84084100Y-97990680D02*
X84141243Y-98019251D01*
X84141243Y-98019251D02*
X84369814Y-98019251D01*
X84369814Y-98019251D02*
X84369814Y-97419251D01*
X84369814Y-97419251D02*
X84169814Y-97419251D01*
X84169814Y-97419251D02*
X84112672Y-97447822D01*
X84112672Y-97447822D02*
X84084100Y-97476394D01*
X84084100Y-97476394D02*
X84055529Y-97533537D01*
X84055529Y-97533537D02*
X84055529Y-97590680D01*
X84055529Y-97590680D02*
X84084100Y-97647822D01*
X84084100Y-97647822D02*
X84112672Y-97676394D01*
X84112672Y-97676394D02*
X84169814Y-97704965D01*
X84169814Y-97704965D02*
X84369814Y-97704965D01*
X78569457Y-87791037D02*
X78540886Y-87733895D01*
X78540886Y-87733895D02*
X78540886Y-87648180D01*
X78540886Y-87648180D02*
X78569457Y-87562466D01*
X78569457Y-87562466D02*
X78626600Y-87505323D01*
X78626600Y-87505323D02*
X78683743Y-87476752D01*
X78683743Y-87476752D02*
X78798029Y-87448180D01*
X78798029Y-87448180D02*
X78883743Y-87448180D01*
X78883743Y-87448180D02*
X78998029Y-87476752D01*
X78998029Y-87476752D02*
X79055172Y-87505323D01*
X79055172Y-87505323D02*
X79112315Y-87562466D01*
X79112315Y-87562466D02*
X79140886Y-87648180D01*
X79140886Y-87648180D02*
X79140886Y-87705323D01*
X79140886Y-87705323D02*
X79112315Y-87791037D01*
X79112315Y-87791037D02*
X79083743Y-87819609D01*
X79083743Y-87819609D02*
X78883743Y-87819609D01*
X78883743Y-87819609D02*
X78883743Y-87705323D01*
X79140886Y-88076752D02*
X78540886Y-88076752D01*
X78540886Y-88076752D02*
X79140886Y-88419609D01*
X79140886Y-88419609D02*
X78540886Y-88419609D01*
X79140886Y-88705323D02*
X78540886Y-88705323D01*
X78540886Y-88705323D02*
X78540886Y-88848180D01*
X78540886Y-88848180D02*
X78569457Y-88933894D01*
X78569457Y-88933894D02*
X78626600Y-88991037D01*
X78626600Y-88991037D02*
X78683743Y-89019608D01*
X78683743Y-89019608D02*
X78798029Y-89048180D01*
X78798029Y-89048180D02*
X78883743Y-89048180D01*
X78883743Y-89048180D02*
X78998029Y-89019608D01*
X78998029Y-89019608D02*
X79055172Y-88991037D01*
X79055172Y-88991037D02*
X79112315Y-88933894D01*
X79112315Y-88933894D02*
X79140886Y-88848180D01*
X79140886Y-88848180D02*
X79140886Y-88705323D01*
D12*
X97569814Y-109201699D02*
X97569814Y-110011222D01*
X97569814Y-110011222D02*
X97536481Y-110106460D01*
X97536481Y-110106460D02*
X97503147Y-110154080D01*
X97503147Y-110154080D02*
X97436481Y-110201699D01*
X97436481Y-110201699D02*
X97303147Y-110201699D01*
X97303147Y-110201699D02*
X97236481Y-110154080D01*
X97236481Y-110154080D02*
X97203147Y-110106460D01*
X97203147Y-110106460D02*
X97169814Y-110011222D01*
X97169814Y-110011222D02*
X97169814Y-109201699D01*
X96836481Y-110201699D02*
X96836481Y-109201699D01*
X96836481Y-109201699D02*
X96569814Y-109201699D01*
X96569814Y-109201699D02*
X96503148Y-109249318D01*
X96503148Y-109249318D02*
X96469814Y-109296937D01*
X96469814Y-109296937D02*
X96436481Y-109392175D01*
X96436481Y-109392175D02*
X96436481Y-109535032D01*
X96436481Y-109535032D02*
X96469814Y-109630270D01*
X96469814Y-109630270D02*
X96503148Y-109677889D01*
X96503148Y-109677889D02*
X96569814Y-109725508D01*
X96569814Y-109725508D02*
X96836481Y-109725508D01*
D11*
X79686214Y-89681827D02*
X80448119Y-89681827D01*
D12*
X115286481Y-111049318D02*
X115353148Y-111001699D01*
X115353148Y-111001699D02*
X115453148Y-111001699D01*
X115453148Y-111001699D02*
X115553148Y-111049318D01*
X115553148Y-111049318D02*
X115619815Y-111144556D01*
X115619815Y-111144556D02*
X115653148Y-111239794D01*
X115653148Y-111239794D02*
X115686481Y-111430270D01*
X115686481Y-111430270D02*
X115686481Y-111573127D01*
X115686481Y-111573127D02*
X115653148Y-111763603D01*
X115653148Y-111763603D02*
X115619815Y-111858841D01*
X115619815Y-111858841D02*
X115553148Y-111954080D01*
X115553148Y-111954080D02*
X115453148Y-112001699D01*
X115453148Y-112001699D02*
X115386481Y-112001699D01*
X115386481Y-112001699D02*
X115286481Y-111954080D01*
X115286481Y-111954080D02*
X115253148Y-111906460D01*
X115253148Y-111906460D02*
X115253148Y-111573127D01*
X115253148Y-111573127D02*
X115386481Y-111573127D01*
X96603148Y-111051699D02*
X96369815Y-112051699D01*
X96369815Y-112051699D02*
X96136481Y-111051699D01*
D13*
X129676957Y-103019251D02*
X129676957Y-102419251D01*
X129676957Y-102419251D02*
X129534100Y-102419251D01*
X129534100Y-102419251D02*
X129448386Y-102447822D01*
X129448386Y-102447822D02*
X129391243Y-102504965D01*
X129391243Y-102504965D02*
X129362672Y-102562108D01*
X129362672Y-102562108D02*
X129334100Y-102676394D01*
X129334100Y-102676394D02*
X129334100Y-102762108D01*
X129334100Y-102762108D02*
X129362672Y-102876394D01*
X129362672Y-102876394D02*
X129391243Y-102933537D01*
X129391243Y-102933537D02*
X129448386Y-102990680D01*
X129448386Y-102990680D02*
X129534100Y-103019251D01*
X129534100Y-103019251D02*
X129676957Y-103019251D01*
X128734100Y-103019251D02*
X128934100Y-102733537D01*
X129076957Y-103019251D02*
X129076957Y-102419251D01*
X129076957Y-102419251D02*
X128848386Y-102419251D01*
X128848386Y-102419251D02*
X128791243Y-102447822D01*
X128791243Y-102447822D02*
X128762672Y-102476394D01*
X128762672Y-102476394D02*
X128734100Y-102533537D01*
X128734100Y-102533537D02*
X128734100Y-102619251D01*
X128734100Y-102619251D02*
X128762672Y-102676394D01*
X128762672Y-102676394D02*
X128791243Y-102704965D01*
X128791243Y-102704965D02*
X128848386Y-102733537D01*
X128848386Y-102733537D02*
X129076957Y-102733537D01*
D12*
X99103148Y-110051699D02*
X99103148Y-109051699D01*
X99103148Y-109051699D02*
X98936481Y-109051699D01*
X98936481Y-109051699D02*
X98836481Y-109099318D01*
X98836481Y-109099318D02*
X98769815Y-109194556D01*
X98769815Y-109194556D02*
X98736481Y-109289794D01*
X98736481Y-109289794D02*
X98703148Y-109480270D01*
X98703148Y-109480270D02*
X98703148Y-109623127D01*
X98703148Y-109623127D02*
X98736481Y-109813603D01*
X98736481Y-109813603D02*
X98769815Y-109908841D01*
X98769815Y-109908841D02*
X98836481Y-110004080D01*
X98836481Y-110004080D02*
X98936481Y-110051699D01*
X98936481Y-110051699D02*
X99103148Y-110051699D01*
X98469815Y-109051699D02*
X98303148Y-110051699D01*
X98303148Y-110051699D02*
X98169815Y-109337413D01*
X98169815Y-109337413D02*
X98036481Y-110051699D01*
X98036481Y-110051699D02*
X97869815Y-109051699D01*
D11*
X97512813Y-84863287D02*
X96512813Y-84596620D01*
X96512813Y-84596620D02*
X97512813Y-84329954D01*
X96608052Y-83606144D02*
X96560433Y-83644240D01*
X96560433Y-83644240D02*
X96512813Y-83758525D01*
X96512813Y-83758525D02*
X96512813Y-83834716D01*
X96512813Y-83834716D02*
X96560433Y-83949002D01*
X96560433Y-83949002D02*
X96655671Y-84025192D01*
X96655671Y-84025192D02*
X96750909Y-84063287D01*
X96750909Y-84063287D02*
X96941385Y-84101383D01*
X96941385Y-84101383D02*
X97084242Y-84101383D01*
X97084242Y-84101383D02*
X97274718Y-84063287D01*
X97274718Y-84063287D02*
X97369956Y-84025192D01*
X97369956Y-84025192D02*
X97465194Y-83949002D01*
X97465194Y-83949002D02*
X97512813Y-83834716D01*
X97512813Y-83834716D02*
X97512813Y-83758525D01*
X97512813Y-83758525D02*
X97465194Y-83644240D01*
X97465194Y-83644240D02*
X97417575Y-83606144D01*
X96608052Y-82806144D02*
X96560433Y-82844240D01*
X96560433Y-82844240D02*
X96512813Y-82958525D01*
X96512813Y-82958525D02*
X96512813Y-83034716D01*
X96512813Y-83034716D02*
X96560433Y-83149002D01*
X96560433Y-83149002D02*
X96655671Y-83225192D01*
X96655671Y-83225192D02*
X96750909Y-83263287D01*
X96750909Y-83263287D02*
X96941385Y-83301383D01*
X96941385Y-83301383D02*
X97084242Y-83301383D01*
X97084242Y-83301383D02*
X97274718Y-83263287D01*
X97274718Y-83263287D02*
X97369956Y-83225192D01*
X97369956Y-83225192D02*
X97465194Y-83149002D01*
X97465194Y-83149002D02*
X97512813Y-83034716D01*
X97512813Y-83034716D02*
X97512813Y-82958525D01*
X97512813Y-82958525D02*
X97465194Y-82844240D01*
X97465194Y-82844240D02*
X97417575Y-82806144D01*
D12*
X119769814Y-110954080D02*
X119669814Y-111001699D01*
X119669814Y-111001699D02*
X119503148Y-111001699D01*
X119503148Y-111001699D02*
X119436481Y-110954080D01*
X119436481Y-110954080D02*
X119403148Y-110906460D01*
X119403148Y-110906460D02*
X119369814Y-110811222D01*
X119369814Y-110811222D02*
X119369814Y-110715984D01*
X119369814Y-110715984D02*
X119403148Y-110620746D01*
X119403148Y-110620746D02*
X119436481Y-110573127D01*
X119436481Y-110573127D02*
X119503148Y-110525508D01*
X119503148Y-110525508D02*
X119636481Y-110477889D01*
X119636481Y-110477889D02*
X119703148Y-110430270D01*
X119703148Y-110430270D02*
X119736481Y-110382651D01*
X119736481Y-110382651D02*
X119769814Y-110287413D01*
X119769814Y-110287413D02*
X119769814Y-110192175D01*
X119769814Y-110192175D02*
X119736481Y-110096937D01*
X119736481Y-110096937D02*
X119703148Y-110049318D01*
X119703148Y-110049318D02*
X119636481Y-110001699D01*
X119636481Y-110001699D02*
X119469814Y-110001699D01*
X119469814Y-110001699D02*
X119369814Y-110049318D01*
X99719814Y-116404080D02*
X99619814Y-116451699D01*
X99619814Y-116451699D02*
X99453148Y-116451699D01*
X99453148Y-116451699D02*
X99386481Y-116404080D01*
X99386481Y-116404080D02*
X99353148Y-116356460D01*
X99353148Y-116356460D02*
X99319814Y-116261222D01*
X99319814Y-116261222D02*
X99319814Y-116165984D01*
X99319814Y-116165984D02*
X99353148Y-116070746D01*
X99353148Y-116070746D02*
X99386481Y-116023127D01*
X99386481Y-116023127D02*
X99453148Y-115975508D01*
X99453148Y-115975508D02*
X99586481Y-115927889D01*
X99586481Y-115927889D02*
X99653148Y-115880270D01*
X99653148Y-115880270D02*
X99686481Y-115832651D01*
X99686481Y-115832651D02*
X99719814Y-115737413D01*
X99719814Y-115737413D02*
X99719814Y-115642175D01*
X99719814Y-115642175D02*
X99686481Y-115546937D01*
X99686481Y-115546937D02*
X99653148Y-115499318D01*
X99653148Y-115499318D02*
X99586481Y-115451699D01*
X99586481Y-115451699D02*
X99419814Y-115451699D01*
X99419814Y-115451699D02*
X99319814Y-115499318D01*
X88236481Y-116549318D02*
X88303148Y-116501699D01*
X88303148Y-116501699D02*
X88403148Y-116501699D01*
X88403148Y-116501699D02*
X88503148Y-116549318D01*
X88503148Y-116549318D02*
X88569815Y-116644556D01*
X88569815Y-116644556D02*
X88603148Y-116739794D01*
X88603148Y-116739794D02*
X88636481Y-116930270D01*
X88636481Y-116930270D02*
X88636481Y-117073127D01*
X88636481Y-117073127D02*
X88603148Y-117263603D01*
X88603148Y-117263603D02*
X88569815Y-117358841D01*
X88569815Y-117358841D02*
X88503148Y-117454080D01*
X88503148Y-117454080D02*
X88403148Y-117501699D01*
X88403148Y-117501699D02*
X88336481Y-117501699D01*
X88336481Y-117501699D02*
X88236481Y-117454080D01*
X88236481Y-117454080D02*
X88203148Y-117406460D01*
X88203148Y-117406460D02*
X88203148Y-117073127D01*
X88203148Y-117073127D02*
X88336481Y-117073127D01*
D11*
X82108813Y-105197143D02*
X81570065Y-104658395D01*
X82122281Y-105116331D02*
X81650877Y-104644926D01*
X82169422Y-105069190D02*
X81698017Y-104597786D01*
X82182891Y-104988378D02*
X81778830Y-104584317D01*
X82230031Y-104941238D02*
X81825970Y-104537177D01*
X82243500Y-104860426D02*
X81906782Y-104523708D01*
X82290640Y-104813285D02*
X81953923Y-104476568D01*
X82304109Y-104732473D02*
X82034735Y-104463099D01*
X82317578Y-104651661D02*
X82115547Y-104449630D01*
X82364718Y-104604520D02*
X82162687Y-104402490D01*
X82378187Y-104523708D02*
X82243500Y-104389021D01*
X82425327Y-104476568D02*
X82290640Y-104341881D01*
X82405124Y-104362084D02*
X82452265Y-104314943D01*
X82438796Y-104395755D02*
X82371452Y-104328412D01*
X82061672Y-105244284D02*
X82499405Y-104267803D01*
X82499405Y-104267803D02*
X81522924Y-104705535D01*
X82546545Y-104220662D02*
X81489252Y-104671864D01*
X81489252Y-104671864D02*
X82095344Y-105277955D01*
X82095344Y-105277955D02*
X82546545Y-104220662D01*
X104995869Y-95934827D02*
X105746199Y-96067130D01*
X105031188Y-96008750D02*
X105687727Y-96124515D01*
X105019612Y-96074404D02*
X105676150Y-96190169D01*
X105054931Y-96148326D02*
X105617678Y-96247554D01*
X105043354Y-96213980D02*
X105606102Y-96313208D01*
X105078673Y-96287903D02*
X105547629Y-96370593D01*
X105067097Y-96353557D02*
X105536053Y-96436246D01*
X105102416Y-96427480D02*
X105477581Y-96493631D01*
X105137735Y-96501402D02*
X105419109Y-96551016D01*
X105126158Y-96567056D02*
X105407532Y-96616670D01*
X105161477Y-96640979D02*
X105349060Y-96674055D01*
X105149901Y-96706633D02*
X105337483Y-96739709D01*
X105232116Y-96788825D02*
X105220539Y-96854479D01*
X105185220Y-96780556D02*
X105279011Y-96797094D01*
X105007446Y-95869173D02*
X105208963Y-96920132D01*
X105208963Y-96920132D02*
X105757776Y-96001476D01*
X105197386Y-96985786D02*
X105804671Y-96009745D01*
X105804671Y-96009745D02*
X104960550Y-95860904D01*
X104960550Y-95860904D02*
X105197386Y-96985786D01*
X109808813Y-97997143D02*
X109270065Y-97458395D01*
X109822281Y-97916331D02*
X109350877Y-97444926D01*
X109869422Y-97869190D02*
X109398017Y-97397786D01*
X109882891Y-97788378D02*
X109478830Y-97384317D01*
X109930031Y-97741238D02*
X109525970Y-97337177D01*
X109943500Y-97660426D02*
X109606782Y-97323708D01*
X109990640Y-97613285D02*
X109653923Y-97276568D01*
X110004109Y-97532473D02*
X109734735Y-97263099D01*
X110017578Y-97451661D02*
X109815547Y-97249630D01*
X110064718Y-97404520D02*
X109862687Y-97202490D01*
X110078187Y-97323708D02*
X109943500Y-97189021D01*
X110125327Y-97276568D02*
X109990640Y-97141881D01*
X110105124Y-97162084D02*
X110152265Y-97114943D01*
X110138796Y-97195755D02*
X110071452Y-97128412D01*
X109761672Y-98044284D02*
X110199405Y-97067803D01*
X110199405Y-97067803D02*
X109222924Y-97505535D01*
X110246545Y-97020662D02*
X109189252Y-97471864D01*
X109189252Y-97471864D02*
X109795344Y-98077955D01*
X109795344Y-98077955D02*
X110246545Y-97020662D01*
D14*
%TO.C,R34*%
X119169815Y-108948180D02*
X119169815Y-110148180D01*
X119169815Y-108948180D02*
X116469815Y-108948180D01*
X119119815Y-110148180D02*
X116469815Y-110148180D01*
X116469815Y-108948180D02*
X116469815Y-110148180D01*
D15*
%TO.C,C8*%
X104719815Y-108698180D02*
X104469815Y-108698180D01*
X104719815Y-108698180D02*
X104969815Y-108698180D01*
X104119815Y-108348180D02*
X104119815Y-107348180D01*
X105319815Y-108348180D02*
X105319815Y-107348180D01*
X104119815Y-106348180D02*
X104119815Y-107348180D01*
X105319815Y-106348180D02*
X105319815Y-107348180D01*
X104719815Y-105998180D02*
X104469815Y-105998180D01*
X104719815Y-105998180D02*
X104969815Y-105998180D01*
X104119815Y-108348180D02*
G75*
G03*
X104469815Y-108698180I350001J1D01*
G01*
X104969815Y-108698180D02*
G75*
G03*
X105319815Y-108348180I-1J350001D01*
G01*
X104469815Y-105998180D02*
G75*
G03*
X104119815Y-106348180I0J-350000D01*
G01*
X105319815Y-106348180D02*
G75*
G03*
X104969815Y-105998180I-350000J0D01*
G01*
%TO.C,C2*%
X94119815Y-115698180D02*
X93869815Y-115698180D01*
X94119815Y-115698180D02*
X94369815Y-115698180D01*
X93519815Y-115348180D02*
X93519815Y-114348180D01*
X94719815Y-115348180D02*
X94719815Y-114348180D01*
X93519815Y-113348180D02*
X93519815Y-114348180D01*
X94719815Y-113348180D02*
X94719815Y-114348180D01*
X94119815Y-112998180D02*
X93869815Y-112998180D01*
X94119815Y-112998180D02*
X94369815Y-112998180D01*
X93519815Y-115348180D02*
G75*
G03*
X93869815Y-115698180I350001J1D01*
G01*
X94369815Y-115698180D02*
G75*
G03*
X94719815Y-115348180I-1J350001D01*
G01*
X93869815Y-112998180D02*
G75*
G03*
X93519815Y-113348180I0J-350000D01*
G01*
X94719815Y-113348180D02*
G75*
G03*
X94369815Y-112998180I-350000J0D01*
G01*
D10*
%TO.C,FU1*%
X82679815Y-85189602D02*
X82679815Y-85706758D01*
X81259815Y-85189602D02*
X81259815Y-85706758D01*
D14*
%TO.C,R6*%
X109369815Y-101748180D02*
X109369815Y-102948180D01*
X109369815Y-101748180D02*
X106669815Y-101748180D01*
X109319815Y-102948180D02*
X106669815Y-102948180D01*
X106669815Y-101748180D02*
X106669815Y-102948180D01*
D11*
%TO.C,VD9*%
X94549815Y-107908180D02*
X94549815Y-106448180D01*
X94549815Y-107908180D02*
X93619815Y-107908180D01*
X91389815Y-107908180D02*
X91389815Y-105748180D01*
X91389815Y-107908180D02*
X92319815Y-107908180D01*
D14*
%TO.C,R37*%
X92619815Y-90298180D02*
X91419815Y-90298180D01*
X92619815Y-90298180D02*
X92619815Y-87598180D01*
X91419815Y-90248180D02*
X91419815Y-87598180D01*
X92619815Y-87598180D02*
X91419815Y-87598180D01*
D10*
%TO.C,FU2*%
X73321879Y-107458180D02*
X72117751Y-107458180D01*
X73321879Y-105638180D02*
X72117751Y-105638180D01*
D11*
%TO.C,DA2*%
X108439815Y-86388180D02*
X108439815Y-87848180D01*
X108439815Y-86388180D02*
X109369815Y-86388180D01*
X111599815Y-86388180D02*
X111599815Y-88548180D01*
X111599815Y-86388180D02*
X110669815Y-86388180D01*
D15*
%TO.C,C10*%
X122469815Y-106048180D02*
X122469815Y-106298180D01*
X122469815Y-106048180D02*
X122469815Y-105798180D01*
X122119815Y-106648180D02*
X121119815Y-106648180D01*
X122119815Y-105448180D02*
X121119815Y-105448180D01*
X120119815Y-106648180D02*
X121119815Y-106648180D01*
X120119815Y-105448180D02*
X121119815Y-105448180D01*
X119769815Y-106048180D02*
X119769815Y-106298180D01*
X119769815Y-106048180D02*
X119769815Y-105798180D01*
X122119815Y-106648180D02*
G75*
G03*
X122469815Y-106298180I-1J350001D01*
G01*
X122469815Y-105798180D02*
G75*
G03*
X122119815Y-105448180I-350001J-1D01*
G01*
X119769815Y-106298180D02*
G75*
G03*
X120119815Y-106648180I350000J0D01*
G01*
X120119815Y-105448180D02*
G75*
G03*
X119769815Y-105798180I0J-350000D01*
G01*
%TO.C,C18*%
X107419815Y-88723180D02*
X107169815Y-88723180D01*
X107419815Y-88723180D02*
X107669815Y-88723180D01*
X106819815Y-88373180D02*
X106819815Y-87373180D01*
X108019815Y-88373180D02*
X108019815Y-87373180D01*
X106819815Y-86373180D02*
X106819815Y-87373180D01*
X108019815Y-86373180D02*
X108019815Y-87373180D01*
X107419815Y-86023180D02*
X107169815Y-86023180D01*
X107419815Y-86023180D02*
X107669815Y-86023180D01*
X106819815Y-88373180D02*
G75*
G03*
X107169815Y-88723180I350001J1D01*
G01*
X107669815Y-88723180D02*
G75*
G03*
X108019815Y-88373180I-1J350001D01*
G01*
X107169815Y-86023180D02*
G75*
G03*
X106819815Y-86373180I0J-350000D01*
G01*
X108019815Y-86373180D02*
G75*
G03*
X107669815Y-86023180I-350000J0D01*
G01*
D11*
%TO.C,VD1*%
X92859815Y-100128180D02*
X94319815Y-100128180D01*
X92859815Y-100128180D02*
X92859815Y-99198180D01*
X92859815Y-96968180D02*
X95019815Y-96968180D01*
X92859815Y-96968180D02*
X92859815Y-97898180D01*
%TO.C,C28*%
X86169815Y-105898180D02*
X86169815Y-105198180D01*
X85669815Y-106398180D02*
X83169815Y-106398180D01*
X85669815Y-104698180D02*
X83169815Y-104698180D01*
X82669815Y-105898180D02*
X82669815Y-105198180D01*
X85669815Y-106398180D02*
G75*
G03*
X86169815Y-105898180I-1J500001D01*
G01*
X86169815Y-105198180D02*
G75*
G03*
X85669815Y-104698180I-500001J-1D01*
G01*
X82669815Y-105898180D02*
G75*
G03*
X83169815Y-106398180I500000J0D01*
G01*
X83169815Y-104698180D02*
G75*
G03*
X82669815Y-105198180I0J-500000D01*
G01*
D10*
%TO.C,L2*%
X70994815Y-103848180D02*
X70994815Y-100173180D01*
X72744815Y-103848180D02*
X70994815Y-103848180D01*
X76444815Y-103848180D02*
X78194815Y-103848180D01*
X78194815Y-103848180D02*
X78194815Y-100173180D01*
X70994815Y-96498180D02*
X70994815Y-100173180D01*
X72744815Y-96498180D02*
X70994815Y-96498180D01*
X76444815Y-96498180D02*
X78194815Y-96498180D01*
X78194815Y-96498180D02*
X78194815Y-100173180D01*
D14*
%TO.C,R1*%
X90619815Y-92898180D02*
X91819815Y-92898180D01*
X90619815Y-92898180D02*
X90619815Y-95598180D01*
X91819815Y-92948180D02*
X91819815Y-95598180D01*
X90619815Y-95598180D02*
X91819815Y-95598180D01*
D15*
%TO.C,VD5*%
X80119815Y-80548180D02*
X80119815Y-85948180D01*
X76819815Y-80548180D02*
X80119815Y-80548180D01*
X76819815Y-80548180D02*
X76819815Y-85948180D01*
D11*
%TO.C,VD10*%
X120199815Y-115108180D02*
X120199815Y-113648180D01*
X120199815Y-115108180D02*
X119269815Y-115108180D01*
X117039815Y-115108180D02*
X117039815Y-112948180D01*
X117039815Y-115108180D02*
X117969815Y-115108180D01*
D15*
%TO.C,C25*%
X105719815Y-105398180D02*
X105469815Y-105398180D01*
X105719815Y-105398180D02*
X105969815Y-105398180D01*
X105119815Y-105048180D02*
X105119815Y-104048180D01*
X106319815Y-105048180D02*
X106319815Y-104048180D01*
X105119815Y-103048180D02*
X105119815Y-104048180D01*
X106319815Y-103048180D02*
X106319815Y-104048180D01*
X105719815Y-102698180D02*
X105469815Y-102698180D01*
X105719815Y-102698180D02*
X105969815Y-102698180D01*
X105119815Y-105048180D02*
G75*
G03*
X105469815Y-105398180I350001J1D01*
G01*
X105969815Y-105398180D02*
G75*
G03*
X106319815Y-105048180I-1J350001D01*
G01*
X105469815Y-102698180D02*
G75*
G03*
X105119815Y-103048180I0J-350000D01*
G01*
X106319815Y-103048180D02*
G75*
G03*
X105969815Y-102698180I-350000J0D01*
G01*
D14*
%TO.C,R4*%
X108947246Y-96121407D02*
X108947246Y-97321407D01*
X108947246Y-96121407D02*
X106247246Y-96121407D01*
X108897246Y-97321407D02*
X106247246Y-97321407D01*
X106247246Y-96121407D02*
X106247246Y-97321407D01*
%TO.C,R50*%
X104669815Y-90948180D02*
X104669815Y-92148180D01*
X104669815Y-90948180D02*
X101969815Y-90948180D01*
X104619815Y-92148180D02*
X101969815Y-92148180D01*
X101969815Y-90948180D02*
X101969815Y-92148180D01*
%TO.C,R60*%
X123969815Y-99448180D02*
X123969815Y-100648180D01*
X123969815Y-99448180D02*
X121269815Y-99448180D01*
X123919815Y-100648180D02*
X121269815Y-100648180D01*
X121269815Y-99448180D02*
X121269815Y-100648180D01*
D15*
%TO.C,C42*%
X89719815Y-95598180D02*
X89469815Y-95598180D01*
X89719815Y-95598180D02*
X89969815Y-95598180D01*
X89119815Y-95248180D02*
X89119815Y-94248180D01*
X90319815Y-95248180D02*
X90319815Y-94248180D01*
X89119815Y-93248180D02*
X89119815Y-94248180D01*
X90319815Y-93248180D02*
X90319815Y-94248180D01*
X89719815Y-92898180D02*
X89469815Y-92898180D01*
X89719815Y-92898180D02*
X89969815Y-92898180D01*
X89119815Y-95248180D02*
G75*
G03*
X89469815Y-95598180I350001J1D01*
G01*
X89969815Y-95598180D02*
G75*
G03*
X90319815Y-95248180I-1J350001D01*
G01*
X89469815Y-92898180D02*
G75*
G03*
X89119815Y-93248180I0J-350000D01*
G01*
X90319815Y-93248180D02*
G75*
G03*
X89969815Y-92898180I-350000J0D01*
G01*
D14*
%TO.C,R24*%
X105169815Y-109048180D02*
X105169815Y-110248180D01*
X105169815Y-109048180D02*
X102469815Y-109048180D01*
X105119815Y-110248180D02*
X102469815Y-110248180D01*
X102469815Y-109048180D02*
X102469815Y-110248180D01*
%TO.C,R57*%
X85869815Y-97248180D02*
X85869815Y-96048180D01*
X85869815Y-97248180D02*
X88569815Y-97248180D01*
X85919815Y-96048180D02*
X88569815Y-96048180D01*
X88569815Y-97248180D02*
X88569815Y-96048180D01*
D10*
%TO.C,R63*%
X76242751Y-112138180D02*
X77696879Y-112138180D01*
X76242751Y-113958180D02*
X77696879Y-113958180D01*
D15*
%TO.C,VD12*%
X75219815Y-104598180D02*
X80919815Y-104598180D01*
X75219815Y-108898180D02*
X75219815Y-104598180D01*
X75219815Y-108898180D02*
X80919815Y-108898180D01*
D14*
%TO.C,R61*%
X118269815Y-95398180D02*
X117069815Y-95398180D01*
X118269815Y-95398180D02*
X118269815Y-92698180D01*
X117069815Y-95348180D02*
X117069815Y-92698180D01*
X118269815Y-92698180D02*
X117069815Y-92698180D01*
%TO.C,R59*%
X123969815Y-102048180D02*
X123969815Y-103248180D01*
X123969815Y-102048180D02*
X121269815Y-102048180D01*
X123919815Y-103248180D02*
X121269815Y-103248180D01*
X121269815Y-102048180D02*
X121269815Y-103248180D01*
%TO.C,R8*%
X104469815Y-95548180D02*
X104469815Y-96748180D01*
X104469815Y-95548180D02*
X101769815Y-95548180D01*
X104419815Y-96748180D02*
X101769815Y-96748180D01*
X101769815Y-95548180D02*
X101769815Y-96748180D01*
D15*
%TO.C,C1*%
X98569815Y-95848180D02*
X98569815Y-95598180D01*
X98569815Y-95848180D02*
X98569815Y-96098180D01*
X98919815Y-95248180D02*
X99919815Y-95248180D01*
X98919815Y-96448180D02*
X99919815Y-96448180D01*
X100919815Y-95248180D02*
X99919815Y-95248180D01*
X100919815Y-96448180D02*
X99919815Y-96448180D01*
X101269815Y-95848180D02*
X101269815Y-95598180D01*
X101269815Y-95848180D02*
X101269815Y-96098180D01*
X98919815Y-95248180D02*
G75*
G03*
X98569815Y-95598180I1J-350001D01*
G01*
X98569815Y-96098180D02*
G75*
G03*
X98919815Y-96448180I350001J1D01*
G01*
X101269815Y-95598180D02*
G75*
G03*
X100919815Y-95248180I-350000J0D01*
G01*
X100919815Y-96448180D02*
G75*
G03*
X101269815Y-96098180I0J350000D01*
G01*
D11*
%TO.C,C32*%
X75873368Y-94448180D02*
X75873368Y-95501733D01*
X76373368Y-93948180D02*
X80369815Y-93948180D01*
X76373368Y-95948180D02*
X80369815Y-95948180D01*
X80819815Y-94448180D02*
X80819815Y-95448180D01*
X76373368Y-93948180D02*
G75*
G03*
X75873368Y-94448180I1J-500001D01*
G01*
X75873368Y-95448180D02*
G75*
G03*
X76373368Y-95948180I500001J1D01*
G01*
X80819815Y-94448180D02*
G75*
G03*
X80319815Y-93948180I-500000J0D01*
G01*
X80319815Y-95948180D02*
G75*
G03*
X80819815Y-95448180I0J500000D01*
G01*
%TO.C,VD6*%
X122699815Y-109308180D02*
X122699815Y-107848180D01*
X122699815Y-109308180D02*
X121769815Y-109308180D01*
X119539815Y-109308180D02*
X119539815Y-107148180D01*
X119539815Y-109308180D02*
X120469815Y-109308180D01*
D14*
%TO.C,R41*%
X96169815Y-109098180D02*
X96169815Y-110298180D01*
X96169815Y-109098180D02*
X93469815Y-109098180D01*
X96119815Y-110298180D02*
X93469815Y-110298180D01*
X93469815Y-109098180D02*
X93469815Y-110298180D01*
%TO.C,R68*%
X83769815Y-113348180D02*
X83769815Y-112148180D01*
X83769815Y-113348180D02*
X86469815Y-113348180D01*
X83819815Y-112148180D02*
X86469815Y-112148180D01*
X86469815Y-113348180D02*
X86469815Y-112148180D01*
%TO.C,R39*%
X100469815Y-118648180D02*
X100469815Y-119848180D01*
X100469815Y-118648180D02*
X97769815Y-118648180D01*
X100419815Y-119848180D02*
X97769815Y-119848180D01*
X97769815Y-118648180D02*
X97769815Y-119848180D01*
%TO.C,R5*%
X108969815Y-97671407D02*
X108969815Y-98871407D01*
X108969815Y-97671407D02*
X106269815Y-97671407D01*
X108919815Y-98871407D02*
X106269815Y-98871407D01*
X106269815Y-97671407D02*
X106269815Y-98871407D01*
D15*
%TO.C,C30*%
X74019815Y-95298180D02*
X73769815Y-95298180D01*
X74019815Y-95298180D02*
X74269815Y-95298180D01*
X73419815Y-94948180D02*
X73419815Y-93948180D01*
X74619815Y-94948180D02*
X74619815Y-93948180D01*
X73419815Y-92948180D02*
X73419815Y-93948180D01*
X74619815Y-92948180D02*
X74619815Y-93948180D01*
X74019815Y-92598180D02*
X73769815Y-92598180D01*
X74019815Y-92598180D02*
X74269815Y-92598180D01*
X73419815Y-94948180D02*
G75*
G03*
X73769815Y-95298180I350001J1D01*
G01*
X74269815Y-95298180D02*
G75*
G03*
X74619815Y-94948180I-1J350001D01*
G01*
X73769815Y-92598180D02*
G75*
G03*
X73419815Y-92948180I0J-350000D01*
G01*
X74619815Y-92948180D02*
G75*
G03*
X74269815Y-92598180I-350000J0D01*
G01*
D14*
%TO.C,R58*%
X88969815Y-97248180D02*
X88969815Y-96048180D01*
X88969815Y-97248180D02*
X91669815Y-97248180D01*
X89019815Y-96048180D02*
X91669815Y-96048180D01*
X91669815Y-97248180D02*
X91669815Y-96048180D01*
%TO.C,R2*%
X114569815Y-89548180D02*
X114569815Y-90748180D01*
X114569815Y-89548180D02*
X111869815Y-89548180D01*
X114519815Y-90748180D02*
X111869815Y-90748180D01*
X111869815Y-89548180D02*
X111869815Y-90748180D01*
%TO.C,R69*%
X112444815Y-118648180D02*
X112444815Y-119848180D01*
X112444815Y-118648180D02*
X109744815Y-118648180D01*
X112394815Y-119848180D02*
X109744815Y-119848180D01*
X109744815Y-118648180D02*
X109744815Y-119848180D01*
%TO.C,R54*%
X108719815Y-106748180D02*
X107519815Y-106748180D01*
X108719815Y-106748180D02*
X108719815Y-104048180D01*
X107519815Y-106698180D02*
X107519815Y-104048180D01*
X108719815Y-104048180D02*
X107519815Y-104048180D01*
D15*
%TO.C,C40*%
X116369815Y-97748180D02*
X116369815Y-97998180D01*
X116369815Y-97748180D02*
X116369815Y-97498180D01*
X116019815Y-98348180D02*
X115019815Y-98348180D01*
X116019815Y-97148180D02*
X115019815Y-97148180D01*
X114019815Y-98348180D02*
X115019815Y-98348180D01*
X114019815Y-97148180D02*
X115019815Y-97148180D01*
X113669815Y-97748180D02*
X113669815Y-97998180D01*
X113669815Y-97748180D02*
X113669815Y-97498180D01*
X116019815Y-98348180D02*
G75*
G03*
X116369815Y-97998180I-1J350001D01*
G01*
X116369815Y-97498180D02*
G75*
G03*
X116019815Y-97148180I-350001J-1D01*
G01*
X113669815Y-97998180D02*
G75*
G03*
X114019815Y-98348180I350000J0D01*
G01*
X114019815Y-97148180D02*
G75*
G03*
X113669815Y-97498180I0J-350000D01*
G01*
%TO.C,C7*%
X119269815Y-102648180D02*
X119269815Y-102898180D01*
X119269815Y-102648180D02*
X119269815Y-102398180D01*
X118919815Y-103248180D02*
X117919815Y-103248180D01*
X118919815Y-102048180D02*
X117919815Y-102048180D01*
X116919815Y-103248180D02*
X117919815Y-103248180D01*
X116919815Y-102048180D02*
X117919815Y-102048180D01*
X116569815Y-102648180D02*
X116569815Y-102898180D01*
X116569815Y-102648180D02*
X116569815Y-102398180D01*
X118919815Y-103248180D02*
G75*
G03*
X119269815Y-102898180I-1J350001D01*
G01*
X119269815Y-102398180D02*
G75*
G03*
X118919815Y-102048180I-350001J-1D01*
G01*
X116569815Y-102898180D02*
G75*
G03*
X116919815Y-103248180I350000J0D01*
G01*
X116919815Y-102048180D02*
G75*
G03*
X116569815Y-102398180I0J-350000D01*
G01*
D14*
%TO.C,R33*%
X124319815Y-109898180D02*
X123119815Y-109898180D01*
X124319815Y-109898180D02*
X124319815Y-107198180D01*
X123119815Y-109848180D02*
X123119815Y-107198180D01*
X124319815Y-107198180D02*
X123119815Y-107198180D01*
%TO.C,R14*%
X91569815Y-118648180D02*
X91569815Y-119848180D01*
X91569815Y-118648180D02*
X88869815Y-118648180D01*
X91519815Y-119848180D02*
X88869815Y-119848180D01*
X88869815Y-118648180D02*
X88869815Y-119848180D01*
%TO.C,R62*%
X85869815Y-119748180D02*
X85869815Y-118548180D01*
X85869815Y-119748180D02*
X88569815Y-119748180D01*
X85919815Y-118548180D02*
X88569815Y-118548180D01*
X88569815Y-119748180D02*
X88569815Y-118548180D01*
D11*
%TO.C,VD7*%
X89439815Y-84888180D02*
X89439815Y-86348180D01*
X89439815Y-84888180D02*
X90369815Y-84888180D01*
X92599815Y-84888180D02*
X92599815Y-87048180D01*
X92599815Y-84888180D02*
X91669815Y-84888180D01*
%TO.C,VD4*%
X103199815Y-107808180D02*
X103199815Y-106348180D01*
X103199815Y-107808180D02*
X102269815Y-107808180D01*
X100039815Y-107808180D02*
X100039815Y-105648180D01*
X100039815Y-107808180D02*
X100969815Y-107808180D01*
D14*
%TO.C,R38*%
X103469815Y-118648180D02*
X103469815Y-119848180D01*
X103469815Y-118648180D02*
X100769815Y-118648180D01*
X103419815Y-119848180D02*
X100769815Y-119848180D01*
X100769815Y-118648180D02*
X100769815Y-119848180D01*
%TO.C,R52*%
X120969815Y-81898180D02*
X120969815Y-83098180D01*
X120969815Y-81898180D02*
X118269815Y-81898180D01*
X120919815Y-83098180D02*
X118269815Y-83098180D01*
X118269815Y-81898180D02*
X118269815Y-83098180D01*
%TO.C,R70*%
X109469815Y-118648180D02*
X109469815Y-119848180D01*
X109469815Y-118648180D02*
X106769815Y-118648180D01*
X109419815Y-119848180D02*
X106769815Y-119848180D01*
X106769815Y-118648180D02*
X106769815Y-119848180D01*
%TO.C,R46*%
X113969815Y-115548180D02*
X113969815Y-114348180D01*
X113969815Y-115548180D02*
X116669815Y-115548180D01*
X114019815Y-114348180D02*
X116669815Y-114348180D01*
X116669815Y-115548180D02*
X116669815Y-114348180D01*
%TO.C,R48*%
X90419815Y-83298180D02*
X89219815Y-83298180D01*
X90419815Y-83298180D02*
X90419815Y-80598180D01*
X89219815Y-83248180D02*
X89219815Y-80598180D01*
X90419815Y-80598180D02*
X89219815Y-80598180D01*
D15*
%TO.C,C29*%
X85869815Y-98198180D02*
X85869815Y-97948180D01*
X85869815Y-98198180D02*
X85869815Y-98448180D01*
X86219815Y-97598180D02*
X87219815Y-97598180D01*
X86219815Y-98798180D02*
X87219815Y-98798180D01*
X88219815Y-97598180D02*
X87219815Y-97598180D01*
X88219815Y-98798180D02*
X87219815Y-98798180D01*
X88569815Y-98198180D02*
X88569815Y-97948180D01*
X88569815Y-98198180D02*
X88569815Y-98448180D01*
X86219815Y-97598180D02*
G75*
G03*
X85869815Y-97948180I1J-350001D01*
G01*
X85869815Y-98448180D02*
G75*
G03*
X86219815Y-98798180I350001J1D01*
G01*
X88569815Y-97948180D02*
G75*
G03*
X88219815Y-97598180I-350000J0D01*
G01*
X88219815Y-98798180D02*
G75*
G03*
X88569815Y-98448180I0J350000D01*
G01*
D14*
%TO.C,R12*%
X85919815Y-83298180D02*
X84719815Y-83298180D01*
X85919815Y-83298180D02*
X85919815Y-80598180D01*
X84719815Y-83248180D02*
X84719815Y-80598180D01*
X85919815Y-80598180D02*
X84719815Y-80598180D01*
D15*
%TO.C,C12*%
X95569815Y-108698180D02*
X95319815Y-108698180D01*
X95569815Y-108698180D02*
X95819815Y-108698180D01*
X94969815Y-108348180D02*
X94969815Y-107348180D01*
X96169815Y-108348180D02*
X96169815Y-107348180D01*
X94969815Y-106348180D02*
X94969815Y-107348180D01*
X96169815Y-106348180D02*
X96169815Y-107348180D01*
X95569815Y-105998180D02*
X95319815Y-105998180D01*
X95569815Y-105998180D02*
X95819815Y-105998180D01*
X94969815Y-108348180D02*
G75*
G03*
X95319815Y-108698180I350001J1D01*
G01*
X95819815Y-108698180D02*
G75*
G03*
X96169815Y-108348180I-1J350001D01*
G01*
X95319815Y-105998180D02*
G75*
G03*
X94969815Y-106348180I0J-350000D01*
G01*
X96169815Y-106348180D02*
G75*
G03*
X95819815Y-105998180I-350000J0D01*
G01*
D14*
%TO.C,R40*%
X97419815Y-112698180D02*
X98619815Y-112698180D01*
X97419815Y-112698180D02*
X97419815Y-115398180D01*
X98619815Y-112748180D02*
X98619815Y-115398180D01*
X97419815Y-115398180D02*
X98619815Y-115398180D01*
%TO.C,R44*%
X121469815Y-118648180D02*
X121469815Y-119848180D01*
X121469815Y-118648180D02*
X118769815Y-118648180D01*
X121419815Y-119848180D02*
X118769815Y-119848180D01*
X118769815Y-118648180D02*
X118769815Y-119848180D01*
D11*
%TO.C,VD2*%
X93099815Y-115108180D02*
X93099815Y-113648180D01*
X93099815Y-115108180D02*
X92169815Y-115108180D01*
X89939815Y-115108180D02*
X89939815Y-112948180D01*
X89939815Y-115108180D02*
X90869815Y-115108180D01*
D15*
%TO.C,C41*%
X86069815Y-91448180D02*
X86069815Y-91198180D01*
X86069815Y-91448180D02*
X86069815Y-91698180D01*
X86419815Y-90848180D02*
X87419815Y-90848180D01*
X86419815Y-92048180D02*
X87419815Y-92048180D01*
X88419815Y-90848180D02*
X87419815Y-90848180D01*
X88419815Y-92048180D02*
X87419815Y-92048180D01*
X88769815Y-91448180D02*
X88769815Y-91198180D01*
X88769815Y-91448180D02*
X88769815Y-91698180D01*
X86419815Y-90848180D02*
G75*
G03*
X86069815Y-91198180I1J-350001D01*
G01*
X86069815Y-91698180D02*
G75*
G03*
X86419815Y-92048180I350001J1D01*
G01*
X88769815Y-91198180D02*
G75*
G03*
X88419815Y-90848180I-350000J0D01*
G01*
X88419815Y-92048180D02*
G75*
G03*
X88769815Y-91698180I0J350000D01*
G01*
D14*
%TO.C,R65*%
X101269815Y-103148180D02*
X101269815Y-104348180D01*
X101269815Y-103148180D02*
X98569815Y-103148180D01*
X101219815Y-104348180D02*
X98569815Y-104348180D01*
X98569815Y-103148180D02*
X98569815Y-104348180D01*
D10*
%TO.C,XT9*%
X123419815Y-81945000D02*
X124689815Y-81945000D01*
X124689815Y-81945000D02*
X124689815Y-80675000D01*
X110339815Y-79632071D02*
X110339815Y-79235000D01*
X111099815Y-79632071D02*
X111099815Y-79235000D01*
X112879815Y-79632071D02*
X112879815Y-79235000D01*
X113639815Y-79632071D02*
X113639815Y-79235000D01*
X115419815Y-79632071D02*
X115419815Y-79235000D01*
X116179815Y-79632071D02*
X116179815Y-79235000D01*
X117959815Y-79632071D02*
X117959815Y-79235000D01*
X118719815Y-79632071D02*
X118719815Y-79235000D01*
X120499815Y-79632071D02*
X120499815Y-79235000D01*
X121259815Y-79632071D02*
X121259815Y-79235000D01*
X123039815Y-79565000D02*
X123039815Y-79235000D01*
X123799815Y-79565000D02*
X123799815Y-79235000D01*
X109389815Y-79235000D02*
X109389815Y-76575000D01*
X111989815Y-79235000D02*
X111989815Y-76575000D01*
X114529815Y-79235000D02*
X114529815Y-76575000D01*
X117069815Y-79235000D02*
X117069815Y-76575000D01*
X119609815Y-79235000D02*
X119609815Y-76575000D01*
X122149815Y-79235000D02*
X122149815Y-76575000D01*
X124749815Y-79235000D02*
X109389815Y-79235000D01*
X109389815Y-76575000D02*
X124749815Y-76575000D01*
X111099815Y-76575000D02*
X111099815Y-70575000D01*
X113639815Y-76575000D02*
X113639815Y-70575000D01*
X116179815Y-76575000D02*
X116179815Y-70575000D01*
X118719815Y-76575000D02*
X118719815Y-70575000D01*
X121259815Y-76575000D02*
X121259815Y-70575000D01*
X123139815Y-76575000D02*
X123139815Y-70575000D01*
X123259815Y-76575000D02*
X123259815Y-70575000D01*
X123379815Y-76575000D02*
X123379815Y-70575000D01*
X123499815Y-76575000D02*
X123499815Y-70575000D01*
X123619815Y-76575000D02*
X123619815Y-70575000D01*
X123739815Y-76575000D02*
X123739815Y-70575000D01*
X123799815Y-76575000D02*
X123799815Y-70575000D01*
X124749815Y-76575000D02*
X124749815Y-79235000D01*
X110339815Y-70575000D02*
X110339815Y-76575000D01*
X111099815Y-70575000D02*
X110339815Y-70575000D01*
X112879815Y-70575000D02*
X112879815Y-76575000D01*
X113639815Y-70575000D02*
X112879815Y-70575000D01*
X115419815Y-70575000D02*
X115419815Y-76575000D01*
X116179815Y-70575000D02*
X115419815Y-70575000D01*
X117959815Y-70575000D02*
X117959815Y-76575000D01*
X118719815Y-70575000D02*
X117959815Y-70575000D01*
X120499815Y-70575000D02*
X120499815Y-76575000D01*
X121259815Y-70575000D02*
X120499815Y-70575000D01*
X123039815Y-70575000D02*
X123039815Y-76575000D01*
X123799815Y-70575000D02*
X123039815Y-70575000D01*
D14*
%TO.C,R3*%
X121269815Y-104798180D02*
X121269815Y-103598180D01*
X121269815Y-104798180D02*
X123969815Y-104798180D01*
X121319815Y-103598180D02*
X123969815Y-103598180D01*
X123969815Y-104798180D02*
X123969815Y-103598180D01*
%TO.C,R66*%
X89494815Y-112148180D02*
X89494815Y-113348180D01*
X89494815Y-112148180D02*
X86794815Y-112148180D01*
X89444815Y-113348180D02*
X86794815Y-113348180D01*
X86794815Y-112148180D02*
X86794815Y-113348180D01*
%TO.C,R67*%
X80769815Y-113348180D02*
X80769815Y-112148180D01*
X80769815Y-113348180D02*
X83469815Y-113348180D01*
X80819815Y-112148180D02*
X83469815Y-112148180D01*
X83469815Y-113348180D02*
X83469815Y-112148180D01*
D15*
%TO.C,C43*%
X104219815Y-102698180D02*
X104469815Y-102698180D01*
X104219815Y-102698180D02*
X103969815Y-102698180D01*
X104819815Y-103048180D02*
X104819815Y-104048180D01*
X103619815Y-103048180D02*
X103619815Y-104048180D01*
X104819815Y-105048180D02*
X104819815Y-104048180D01*
X103619815Y-105048180D02*
X103619815Y-104048180D01*
X104219815Y-105398180D02*
X104469815Y-105398180D01*
X104219815Y-105398180D02*
X103969815Y-105398180D01*
X104819815Y-103048180D02*
G75*
G03*
X104469815Y-102698180I-350001J-1D01*
G01*
X103969815Y-102698180D02*
G75*
G03*
X103619815Y-103048180I1J-350001D01*
G01*
X104469815Y-105398180D02*
G75*
G03*
X104819815Y-105048180I0J350000D01*
G01*
X103619815Y-105048180D02*
G75*
G03*
X103969815Y-105398180I350000J0D01*
G01*
D10*
%TO.C,VT1*%
X84819815Y-114378180D02*
X78474815Y-114378180D01*
X84364815Y-119518180D02*
X78474815Y-119518180D01*
D14*
%TO.C,R51*%
X115169815Y-83148180D02*
X115169815Y-81948180D01*
X115169815Y-83148180D02*
X117869815Y-83148180D01*
X115219815Y-81948180D02*
X117869815Y-81948180D01*
X117869815Y-83148180D02*
X117869815Y-81948180D01*
D10*
%TO.C,BQ3*%
X114350000Y-112200000D02*
X108600000Y-112200000D01*
X114350000Y-108600000D02*
X114350000Y-112200000D01*
X108600000Y-108600000D02*
X114350000Y-108600000D01*
%TO.C,XB3*%
X106319815Y-87548180D02*
G75*
G03*
X106319815Y-87548180I-700000J0D01*
G01*
D14*
%TO.C,R45*%
X118469815Y-118648180D02*
X118469815Y-119848180D01*
X118469815Y-118648180D02*
X115769815Y-118648180D01*
X118419815Y-119848180D02*
X115769815Y-119848180D01*
X115769815Y-118648180D02*
X115769815Y-119848180D01*
%TO.C,R9*%
X92319815Y-96598180D02*
X92319815Y-95398180D01*
X92319815Y-96598180D02*
X95019815Y-96598180D01*
X92369815Y-95398180D02*
X95019815Y-95398180D01*
X95019815Y-96598180D02*
X95019815Y-95398180D01*
D11*
%TO.C,C31*%
X75873368Y-91348180D02*
X75873368Y-92401733D01*
X76373368Y-90848180D02*
X80369815Y-90848180D01*
X76373368Y-92848180D02*
X80369815Y-92848180D01*
X80819815Y-91348180D02*
X80819815Y-92348180D01*
X76373368Y-90848180D02*
G75*
G03*
X75873368Y-91348180I1J-500001D01*
G01*
X75873368Y-92348180D02*
G75*
G03*
X76373368Y-92848180I500001J1D01*
G01*
X80819815Y-91348180D02*
G75*
G03*
X80319815Y-90848180I-500000J0D01*
G01*
X80319815Y-92848180D02*
G75*
G03*
X80819815Y-92348180I0J500000D01*
G01*
D14*
%TO.C,R13*%
X94569815Y-118648180D02*
X94569815Y-119848180D01*
X94569815Y-118648180D02*
X91869815Y-118648180D01*
X94519815Y-119848180D02*
X91869815Y-119848180D01*
X91869815Y-118648180D02*
X91869815Y-119848180D01*
%TO.C,R27*%
X82619815Y-83298180D02*
X81419815Y-83298180D01*
X82619815Y-83298180D02*
X82619815Y-80598180D01*
X81419815Y-83248180D02*
X81419815Y-80598180D01*
X82619815Y-80598180D02*
X81419815Y-80598180D01*
%TO.C,R21*%
X92624888Y-83298180D02*
X91424888Y-83298180D01*
X92624888Y-83298180D02*
X92624888Y-80598180D01*
X91424888Y-83248180D02*
X91424888Y-80598180D01*
X92624888Y-80598180D02*
X91424888Y-80598180D01*
D10*
%TO.C,DA3*%
X86219815Y-99188180D02*
X84269815Y-99188180D01*
X86219815Y-99188180D02*
X88169815Y-99188180D01*
X86219815Y-104308180D02*
X82769815Y-104308180D01*
X86219815Y-104308180D02*
X88169815Y-104308180D01*
D14*
%TO.C,R53*%
X121369815Y-83048180D02*
X121369815Y-81848180D01*
X121369815Y-83048180D02*
X124069815Y-83048180D01*
X121419815Y-81848180D02*
X124069815Y-81848180D01*
X124069815Y-83048180D02*
X124069815Y-81848180D01*
%TO.C,R47*%
X88154839Y-83298180D02*
X86954839Y-83298180D01*
X88154839Y-83298180D02*
X88154839Y-80598180D01*
X86954839Y-83248180D02*
X86954839Y-80598180D01*
X88154839Y-80598180D02*
X86954839Y-80598180D01*
%TO.C,R42*%
X93119815Y-109098180D02*
X93119815Y-110298180D01*
X93119815Y-109098180D02*
X90419815Y-109098180D01*
X93069815Y-110298180D02*
X90419815Y-110298180D01*
X90419815Y-109098180D02*
X90419815Y-110298180D01*
D11*
%TO.C,VD8*%
X102199815Y-115108180D02*
X102199815Y-113648180D01*
X102199815Y-115108180D02*
X101269815Y-115108180D01*
X99039815Y-115108180D02*
X99039815Y-112948180D01*
X99039815Y-115108180D02*
X99969815Y-115108180D01*
%TO.C,VD3*%
X84939815Y-84888180D02*
X84939815Y-86348180D01*
X84939815Y-84888180D02*
X85869815Y-84888180D01*
X88099815Y-84888180D02*
X88099815Y-87048180D01*
X88099815Y-84888180D02*
X87169815Y-84888180D01*
D14*
%TO.C,R26*%
X111319815Y-107148180D02*
X111319815Y-108348180D01*
X111319815Y-107148180D02*
X108619815Y-107148180D01*
X111269815Y-108348180D02*
X108619815Y-108348180D01*
X108619815Y-107148180D02*
X108619815Y-108348180D01*
D15*
%TO.C,C13*%
X121219815Y-115698180D02*
X120969815Y-115698180D01*
X121219815Y-115698180D02*
X121469815Y-115698180D01*
X120619815Y-115348180D02*
X120619815Y-114348180D01*
X121819815Y-115348180D02*
X121819815Y-114348180D01*
X120619815Y-113348180D02*
X120619815Y-114348180D01*
X121819815Y-113348180D02*
X121819815Y-114348180D01*
X121219815Y-112998180D02*
X120969815Y-112998180D01*
X121219815Y-112998180D02*
X121469815Y-112998180D01*
X120619815Y-115348180D02*
G75*
G03*
X120969815Y-115698180I350001J1D01*
G01*
X121469815Y-115698180D02*
G75*
G03*
X121819815Y-115348180I-1J350001D01*
G01*
X120969815Y-112998180D02*
G75*
G03*
X120619815Y-113348180I0J-350000D01*
G01*
X121819815Y-113348180D02*
G75*
G03*
X121469815Y-112998180I-350000J0D01*
G01*
D11*
%TO.C,VD15*%
X110199815Y-115008180D02*
X110199815Y-113548180D01*
X110199815Y-115008180D02*
X109269815Y-115008180D01*
X107039815Y-115008180D02*
X107039815Y-112848180D01*
X107039815Y-115008180D02*
X107969815Y-115008180D01*
%TO.C,DA5*%
X86459815Y-95628180D02*
X87919815Y-95628180D01*
X86459815Y-95628180D02*
X86459815Y-94698180D01*
X86459815Y-92468180D02*
X88619815Y-92468180D01*
X86459815Y-92468180D02*
X86459815Y-93398180D01*
D10*
%TO.C,VD13*%
X85919815Y-118298180D02*
X85919815Y-114398180D01*
X87919815Y-118298180D02*
X85919815Y-118298180D01*
X87919815Y-118298180D02*
X87919815Y-114398180D01*
D14*
%TO.C,R7*%
X108969815Y-99248180D02*
X108969815Y-100448180D01*
X108969815Y-99248180D02*
X106269815Y-99248180D01*
X108919815Y-100448180D02*
X106269815Y-100448180D01*
X106269815Y-99248180D02*
X106269815Y-100448180D01*
%TO.C,R35*%
X110619815Y-106548180D02*
X110619815Y-105348180D01*
X110619815Y-106548180D02*
X113319815Y-106548180D01*
X110669815Y-105348180D02*
X113319815Y-105348180D01*
X113319815Y-106548180D02*
X113319815Y-105348180D01*
%TO.C,R49*%
X104569815Y-92498180D02*
X104569815Y-93698180D01*
X104569815Y-92498180D02*
X101869815Y-92498180D01*
X104519815Y-93698180D02*
X101869815Y-93698180D01*
X101869815Y-92498180D02*
X101869815Y-93698180D01*
%TO.C,R19*%
X119819815Y-96398180D02*
X121019815Y-96398180D01*
X119819815Y-96398180D02*
X119819815Y-99098180D01*
X121019815Y-96448180D02*
X121019815Y-99098180D01*
X119819815Y-99098180D02*
X121019815Y-99098180D01*
%TO.C,R11*%
X96719815Y-95526407D02*
X97919815Y-95526407D01*
X96719815Y-95526407D02*
X96719815Y-98226407D01*
X97919815Y-95576407D02*
X97919815Y-98226407D01*
X96719815Y-98226407D02*
X97919815Y-98226407D01*
D11*
%TO.C,VD14*%
X96539815Y-106288180D02*
X96539815Y-107748180D01*
X96539815Y-106288180D02*
X97469815Y-106288180D01*
X99699815Y-106288180D02*
X99699815Y-108448180D01*
X99699815Y-106288180D02*
X98769815Y-106288180D01*
D14*
%TO.C,R36*%
X89419815Y-87598180D02*
X90619815Y-87598180D01*
X89419815Y-87598180D02*
X89419815Y-90298180D01*
X90619815Y-87648180D02*
X90619815Y-90298180D01*
X89419815Y-90298180D02*
X90619815Y-90298180D01*
D10*
%TO.C,DD2*%
X102119815Y-102308180D02*
X104069815Y-102308180D01*
X102119815Y-102308180D02*
X100169815Y-102308180D01*
X102119815Y-97188180D02*
X105569815Y-97188180D01*
X102119815Y-97188180D02*
X100169815Y-97188180D01*
D14*
%TO.C,R55*%
X85069815Y-108048180D02*
X85069815Y-106848180D01*
X85069815Y-108048180D02*
X87769815Y-108048180D01*
X85119815Y-106848180D02*
X87769815Y-106848180D01*
X87769815Y-108048180D02*
X87769815Y-106848180D01*
%TO.C,R25*%
X102169815Y-109048180D02*
X102169815Y-110248180D01*
X102169815Y-109048180D02*
X99469815Y-109048180D01*
X102119815Y-110248180D02*
X99469815Y-110248180D01*
X99469815Y-109048180D02*
X99469815Y-110248180D01*
%TO.C,R56*%
X88069815Y-108048180D02*
X88069815Y-106848180D01*
X88069815Y-108048180D02*
X90769815Y-108048180D01*
X88119815Y-106848180D02*
X90769815Y-106848180D01*
X90769815Y-108048180D02*
X90769815Y-106848180D01*
D15*
%TO.C,C11*%
X103219815Y-115698180D02*
X102969815Y-115698180D01*
X103219815Y-115698180D02*
X103469815Y-115698180D01*
X102619815Y-115348180D02*
X102619815Y-114348180D01*
X103819815Y-115348180D02*
X103819815Y-114348180D01*
X102619815Y-113348180D02*
X102619815Y-114348180D01*
X103819815Y-113348180D02*
X103819815Y-114348180D01*
X103219815Y-112998180D02*
X102969815Y-112998180D01*
X103219815Y-112998180D02*
X103469815Y-112998180D01*
X102619815Y-115348180D02*
G75*
G03*
X102969815Y-115698180I350001J1D01*
G01*
X103469815Y-115698180D02*
G75*
G03*
X103819815Y-115348180I-1J350001D01*
G01*
X102969815Y-112998180D02*
G75*
G03*
X102619815Y-113348180I0J-350000D01*
G01*
X103819815Y-113348180D02*
G75*
G03*
X103469815Y-112998180I-350000J0D01*
G01*
%TO.C,C16*%
X112519815Y-86098180D02*
X112769815Y-86098180D01*
X112519815Y-86098180D02*
X112269815Y-86098180D01*
X113119815Y-86448180D02*
X113119815Y-87448180D01*
X111919815Y-86448180D02*
X111919815Y-87448180D01*
X113119815Y-88448180D02*
X113119815Y-87448180D01*
X111919815Y-88448180D02*
X111919815Y-87448180D01*
X112519815Y-88798180D02*
X112769815Y-88798180D01*
X112519815Y-88798180D02*
X112269815Y-88798180D01*
X113119815Y-86448180D02*
G75*
G03*
X112769815Y-86098180I-350001J-1D01*
G01*
X112269815Y-86098180D02*
G75*
G03*
X111919815Y-86448180I1J-350001D01*
G01*
X112769815Y-88798180D02*
G75*
G03*
X113119815Y-88448180I0J350000D01*
G01*
X111919815Y-88448180D02*
G75*
G03*
X112269815Y-88798180I350000J0D01*
G01*
D14*
%TO.C,R10*%
X96697246Y-98576407D02*
X97897246Y-98576407D01*
X96697246Y-98576407D02*
X96697246Y-101276407D01*
X97897246Y-98626407D02*
X97897246Y-101276407D01*
X96697246Y-101276407D02*
X97897246Y-101276407D01*
D15*
%TO.C,VD11*%
X78869815Y-103732700D02*
X78869815Y-98332700D01*
X82169815Y-103732700D02*
X78869815Y-103732700D01*
X82169815Y-103732700D02*
X82169815Y-98332700D01*
D14*
%TO.C,R23*%
X88119815Y-90298180D02*
X86919815Y-90298180D01*
X88119815Y-90298180D02*
X88119815Y-87598180D01*
X86919815Y-90248180D02*
X86919815Y-87598180D01*
X88119815Y-87598180D02*
X86919815Y-87598180D01*
%TO.C,R20*%
X122519815Y-99098180D02*
X121319815Y-99098180D01*
X122519815Y-99098180D02*
X122519815Y-96398180D01*
X121319815Y-99048180D02*
X121319815Y-96398180D01*
X122519815Y-96398180D02*
X121319815Y-96398180D01*
D10*
%TO.C,DD5*%
X112919815Y-91688180D02*
X110969815Y-91688180D01*
X112919815Y-91688180D02*
X114869815Y-91688180D01*
X112919815Y-96808180D02*
X109469815Y-96808180D01*
X112919815Y-96808180D02*
X114869815Y-96808180D01*
D14*
%TO.C,R22*%
X84919815Y-87598180D02*
X86119815Y-87598180D01*
X84919815Y-87598180D02*
X84919815Y-90298180D01*
X86119815Y-87648180D02*
X86119815Y-90298180D01*
X84919815Y-90298180D02*
X86119815Y-90298180D01*
D15*
%TO.C,C44*%
X111219815Y-113098180D02*
X111469815Y-113098180D01*
X111219815Y-113098180D02*
X110969815Y-113098180D01*
X111819815Y-113448180D02*
X111819815Y-114448180D01*
X110619815Y-113448180D02*
X110619815Y-114448180D01*
X111819815Y-115448180D02*
X111819815Y-114448180D01*
X110619815Y-115448180D02*
X110619815Y-114448180D01*
X111219815Y-115798180D02*
X111469815Y-115798180D01*
X111219815Y-115798180D02*
X110969815Y-115798180D01*
X111819815Y-113448180D02*
G75*
G03*
X111469815Y-113098180I-350001J-1D01*
G01*
X110969815Y-113098180D02*
G75*
G03*
X110619815Y-113448180I1J-350001D01*
G01*
X111469815Y-115798180D02*
G75*
G03*
X111819815Y-115448180I0J350000D01*
G01*
X110619815Y-115448180D02*
G75*
G03*
X110969815Y-115798180I350000J0D01*
G01*
%TD*%
M02*
