%TF.GenerationSoftware,KiCad,Pcbnew,(6.0.7)*%
%TF.CreationDate,2022-10-06T21:18:37+03:00*%
%TF.ProjectId,RadioSens,52616469-6f53-4656-9e73-2e6b69636164,rev?*%
%TF.SameCoordinates,Original*%
%TF.FileFunction,Legend,Bot*%
%TF.FilePolarity,Positive*%
%FSLAX46Y46*%
G04 Gerber Fmt 4.6, Leading zero omitted, Abs format (unit mm)*
G04 Created by KiCad (PCBNEW (6.0.7)) date 2022-10-06 21:18:37*
%MOMM*%
%LPD*%
G01*
G04 APERTURE LIST*
%ADD10C,0.120000*%
%ADD11C,0.200000*%
%ADD12C,0.175000*%
%ADD13C,0.125000*%
%ADD14C,0.150000*%
%ADD15C,0.152000*%
%ADD16C,0.153000*%
G04 APERTURE END LIST*
D10*
X128719815Y-103198180D02*
X129769815Y-103198180D01*
X105219815Y-86448180D02*
X105219815Y-84648180D01*
X110144079Y-98848180D02*
X110819815Y-99548180D01*
X128369815Y-103548180D02*
X128719815Y-103198180D01*
X83694079Y-98498180D02*
G75*
G03*
X83694079Y-98498180I-424264J0D01*
G01*
D11*
X120119815Y-106048180D02*
G75*
G03*
X120119815Y-106048180I-3000000J0D01*
G01*
D10*
X84019815Y-98198180D02*
X85019815Y-98198180D01*
X128394079Y-103648180D02*
G75*
G03*
X128394079Y-103648180I-424264J0D01*
G01*
D11*
X86160251Y-94045062D02*
G75*
G03*
X86160251Y-94045062I-3000000J0D01*
G01*
D10*
X83719815Y-98498180D02*
X84019815Y-98198180D01*
X110144079Y-98848180D02*
G75*
G03*
X110144079Y-98848180I-424264J0D01*
G01*
X105619815Y-86848180D02*
X105219815Y-86448180D01*
X110819815Y-99548180D02*
X110819815Y-104548180D01*
D11*
X83029338Y-108448180D02*
X83105529Y-108410084D01*
X83219815Y-108410084D01*
X83334100Y-108448180D01*
X83410291Y-108524370D01*
X83448386Y-108600560D01*
X83486481Y-108752941D01*
X83486481Y-108867227D01*
X83448386Y-109019608D01*
X83410291Y-109095799D01*
X83334100Y-109171989D01*
X83219815Y-109210084D01*
X83143624Y-109210084D01*
X83029338Y-109171989D01*
X82991243Y-109133894D01*
X82991243Y-108867227D01*
X83143624Y-108867227D01*
X82648386Y-109210084D02*
X82648386Y-108410084D01*
X82191243Y-109210084D01*
X82191243Y-108410084D01*
X81810291Y-109210084D02*
X81810291Y-108410084D01*
X81619815Y-108410084D01*
X81505529Y-108448180D01*
X81429338Y-108524370D01*
X81391243Y-108600560D01*
X81353148Y-108752941D01*
X81353148Y-108867227D01*
X81391243Y-109019608D01*
X81429338Y-109095799D01*
X81505529Y-109171989D01*
X81619815Y-109210084D01*
X81810291Y-109210084D01*
D12*
X106719815Y-109050560D02*
X106719815Y-109860084D01*
X106686481Y-109955322D01*
X106653148Y-110002941D01*
X106586481Y-110050560D01*
X106453148Y-110050560D01*
X106386481Y-110002941D01*
X106353148Y-109955322D01*
X106319815Y-109860084D01*
X106319815Y-109050560D01*
X105986481Y-110050560D02*
X105986481Y-109050560D01*
X105719815Y-109050560D01*
X105653148Y-109098180D01*
X105619815Y-109145799D01*
X105586481Y-109241037D01*
X105586481Y-109383894D01*
X105619815Y-109479132D01*
X105653148Y-109526751D01*
X105719815Y-109574370D01*
X105986481Y-109574370D01*
X111553148Y-89995799D02*
X111519815Y-89948180D01*
X111453148Y-89900560D01*
X111286481Y-89900560D01*
X111219815Y-89948180D01*
X111186481Y-89995799D01*
X111153148Y-90091037D01*
X111153148Y-90186275D01*
X111186481Y-90329132D01*
X111586481Y-90900560D01*
X111153148Y-90900560D01*
X110553148Y-90233894D02*
X110553148Y-90900560D01*
X110719815Y-89852941D02*
X110886481Y-90567227D01*
X110453148Y-90567227D01*
X109853148Y-90900560D02*
X110186481Y-90900560D01*
X110186481Y-89900560D01*
X109219815Y-90805322D02*
X109253148Y-90852941D01*
X109353148Y-90900560D01*
X109419815Y-90900560D01*
X109519815Y-90852941D01*
X109586481Y-90757703D01*
X109619815Y-90662465D01*
X109653148Y-90471989D01*
X109653148Y-90329132D01*
X109619815Y-90138656D01*
X109586481Y-90043418D01*
X109519815Y-89948180D01*
X109419815Y-89900560D01*
X109353148Y-89900560D01*
X109253148Y-89948180D01*
X109219815Y-89995799D01*
X108619815Y-89900560D02*
X108753148Y-89900560D01*
X108819815Y-89948180D01*
X108853148Y-89995799D01*
X108919815Y-90138656D01*
X108953148Y-90329132D01*
X108953148Y-90710084D01*
X108919815Y-90805322D01*
X108886481Y-90852941D01*
X108819815Y-90900560D01*
X108686481Y-90900560D01*
X108619815Y-90852941D01*
X108586481Y-90805322D01*
X108553148Y-90710084D01*
X108553148Y-90471989D01*
X108586481Y-90376751D01*
X108619815Y-90329132D01*
X108686481Y-90281513D01*
X108819815Y-90281513D01*
X108886481Y-90329132D01*
X108919815Y-90376751D01*
X108953148Y-90471989D01*
X107953148Y-90233894D02*
X107953148Y-90900560D01*
X108119815Y-89852941D02*
X108286481Y-90567227D01*
X107853148Y-90567227D01*
X89953148Y-110200560D02*
X89953148Y-109200560D01*
X89786481Y-109200560D01*
X89686481Y-109248180D01*
X89619815Y-109343418D01*
X89586481Y-109438656D01*
X89553148Y-109629132D01*
X89553148Y-109771989D01*
X89586481Y-109962465D01*
X89619815Y-110057703D01*
X89686481Y-110152941D01*
X89786481Y-110200560D01*
X89953148Y-110200560D01*
X89319815Y-109200560D02*
X89153148Y-110200560D01*
X89019815Y-109486275D01*
X88886481Y-110200560D01*
X88719815Y-109200560D01*
X122053148Y-111000560D02*
X121819815Y-112000560D01*
X121586481Y-111000560D01*
D11*
X86712672Y-108641037D02*
X86598386Y-108679132D01*
X86560291Y-108717227D01*
X86522195Y-108793418D01*
X86522195Y-108907703D01*
X86560291Y-108983894D01*
X86598386Y-109021989D01*
X86674576Y-109060084D01*
X86979338Y-109060084D01*
X86979338Y-108260084D01*
X86712672Y-108260084D01*
X86636481Y-108298180D01*
X86598386Y-108336275D01*
X86560291Y-108412465D01*
X86560291Y-108488656D01*
X86598386Y-108564846D01*
X86636481Y-108602941D01*
X86712672Y-108641037D01*
X86979338Y-108641037D01*
D12*
X89853148Y-121100560D02*
X89853148Y-120100560D01*
X89686481Y-120100560D01*
X89586481Y-120148180D01*
X89519815Y-120243418D01*
X89486481Y-120338656D01*
X89453148Y-120529132D01*
X89453148Y-120671989D01*
X89486481Y-120862465D01*
X89519815Y-120957703D01*
X89586481Y-121052941D01*
X89686481Y-121100560D01*
X89853148Y-121100560D01*
X89219815Y-120100560D02*
X89053148Y-121100560D01*
X88919815Y-120386275D01*
X88786481Y-121100560D01*
X88619815Y-120100560D01*
X95969815Y-118750560D02*
X95969815Y-119560084D01*
X95936481Y-119655322D01*
X95903148Y-119702941D01*
X95836481Y-119750560D01*
X95703148Y-119750560D01*
X95636481Y-119702941D01*
X95603148Y-119655322D01*
X95569815Y-119560084D01*
X95569815Y-118750560D01*
X95236481Y-119750560D02*
X95236481Y-118750560D01*
X94969815Y-118750560D01*
X94903148Y-118798180D01*
X94869815Y-118845799D01*
X94836481Y-118941037D01*
X94836481Y-119083894D01*
X94869815Y-119179132D01*
X94903148Y-119226751D01*
X94969815Y-119274370D01*
X95236481Y-119274370D01*
X101419815Y-111202941D02*
X101319815Y-111250560D01*
X101153148Y-111250560D01*
X101086481Y-111202941D01*
X101053148Y-111155322D01*
X101019815Y-111060084D01*
X101019815Y-110964846D01*
X101053148Y-110869608D01*
X101086481Y-110821989D01*
X101153148Y-110774370D01*
X101286481Y-110726751D01*
X101353148Y-110679132D01*
X101386481Y-110631513D01*
X101419815Y-110536275D01*
X101419815Y-110441037D01*
X101386481Y-110345799D01*
X101353148Y-110298180D01*
X101286481Y-110250560D01*
X101119815Y-110250560D01*
X101019815Y-110298180D01*
D13*
X83276957Y-87805322D02*
X83305529Y-87891037D01*
X83334100Y-87919608D01*
X83391243Y-87948180D01*
X83476957Y-87948180D01*
X83534100Y-87919608D01*
X83562672Y-87891037D01*
X83591243Y-87833894D01*
X83591243Y-87605322D01*
X82991243Y-87605322D01*
X82991243Y-87805322D01*
X83019815Y-87862465D01*
X83048386Y-87891037D01*
X83105529Y-87919608D01*
X83162672Y-87919608D01*
X83219815Y-87891037D01*
X83248386Y-87862465D01*
X83276957Y-87805322D01*
X83276957Y-87605322D01*
X83419815Y-88176751D02*
X83419815Y-88462465D01*
X83591243Y-88119608D02*
X82991243Y-88319608D01*
X83591243Y-88519608D01*
X82991243Y-88633894D02*
X82991243Y-88976751D01*
X83591243Y-88805322D02*
X82991243Y-88805322D01*
D12*
X105553148Y-111050560D02*
X105319815Y-112050560D01*
X105086481Y-111050560D01*
X104003148Y-116550560D02*
X103769815Y-117550560D01*
X103536481Y-116550560D01*
D11*
X123872195Y-83491037D02*
X122872195Y-83491037D01*
X123586481Y-83757703D01*
X122872195Y-84024370D01*
X123872195Y-84024370D01*
X123872195Y-84405322D02*
X122872195Y-84405322D01*
X123824576Y-84748180D02*
X123872195Y-84862465D01*
X123872195Y-85052941D01*
X123824576Y-85129132D01*
X123776957Y-85167227D01*
X123681719Y-85205322D01*
X123586481Y-85205322D01*
X123491243Y-85167227D01*
X123443624Y-85129132D01*
X123396005Y-85052941D01*
X123348386Y-84900560D01*
X123300767Y-84824370D01*
X123253148Y-84786275D01*
X123157910Y-84748180D01*
X123062672Y-84748180D01*
X122967434Y-84786275D01*
X122919815Y-84824370D01*
X122872195Y-84900560D01*
X122872195Y-85091037D01*
X122919815Y-85205322D01*
X122872195Y-85700560D02*
X122872195Y-85852941D01*
X122919815Y-85929132D01*
X123015053Y-86005322D01*
X123205529Y-86043418D01*
X123538862Y-86043418D01*
X123729338Y-86005322D01*
X123824576Y-85929132D01*
X123872195Y-85852941D01*
X123872195Y-85700560D01*
X123824576Y-85624370D01*
X123729338Y-85548180D01*
X123538862Y-85510084D01*
X123205529Y-85510084D01*
X123015053Y-85548180D01*
X122919815Y-85624370D01*
X122872195Y-85700560D01*
X96986481Y-88195799D02*
X96719815Y-88671989D01*
X96529338Y-88195799D02*
X96529338Y-89195799D01*
X96834100Y-89195799D01*
X96910291Y-89148180D01*
X96948386Y-89100560D01*
X96986481Y-89005322D01*
X96986481Y-88862465D01*
X96948386Y-88767227D01*
X96910291Y-88719608D01*
X96834100Y-88671989D01*
X96529338Y-88671989D01*
X97253148Y-89195799D02*
X97786481Y-88195799D01*
X97786481Y-89195799D02*
X97253148Y-88195799D01*
D12*
X97553148Y-119700560D02*
X97553148Y-118700560D01*
X97386481Y-118700560D01*
X97286481Y-118748180D01*
X97219815Y-118843418D01*
X97186481Y-118938656D01*
X97153148Y-119129132D01*
X97153148Y-119271989D01*
X97186481Y-119462465D01*
X97219815Y-119557703D01*
X97286481Y-119652941D01*
X97386481Y-119700560D01*
X97553148Y-119700560D01*
X96919815Y-118700560D02*
X96753148Y-119700560D01*
X96619815Y-118986275D01*
X96486481Y-119700560D01*
X96319815Y-118700560D01*
D11*
X116272195Y-83491037D02*
X115272195Y-83491037D01*
X115986481Y-83757703D01*
X115272195Y-84024370D01*
X116272195Y-84024370D01*
X115272195Y-84557703D02*
X115272195Y-84710084D01*
X115319815Y-84786275D01*
X115415053Y-84862465D01*
X115605529Y-84900560D01*
X115938862Y-84900560D01*
X116129338Y-84862465D01*
X116224576Y-84786275D01*
X116272195Y-84710084D01*
X116272195Y-84557703D01*
X116224576Y-84481513D01*
X116129338Y-84405322D01*
X115938862Y-84367227D01*
X115605529Y-84367227D01*
X115415053Y-84405322D01*
X115319815Y-84481513D01*
X115272195Y-84557703D01*
X116224576Y-85205322D02*
X116272195Y-85319608D01*
X116272195Y-85510084D01*
X116224576Y-85586275D01*
X116176957Y-85624370D01*
X116081719Y-85662465D01*
X115986481Y-85662465D01*
X115891243Y-85624370D01*
X115843624Y-85586275D01*
X115796005Y-85510084D01*
X115748386Y-85357703D01*
X115700767Y-85281513D01*
X115653148Y-85243418D01*
X115557910Y-85205322D01*
X115462672Y-85205322D01*
X115367434Y-85243418D01*
X115319815Y-85281513D01*
X115272195Y-85357703D01*
X115272195Y-85548180D01*
X115319815Y-85662465D01*
X116272195Y-86005322D02*
X115272195Y-86005322D01*
D12*
X117769815Y-116402941D02*
X117669815Y-116450560D01*
X117503148Y-116450560D01*
X117436481Y-116402941D01*
X117403148Y-116355322D01*
X117369815Y-116260084D01*
X117369815Y-116164846D01*
X117403148Y-116069608D01*
X117436481Y-116021989D01*
X117503148Y-115974370D01*
X117636481Y-115926751D01*
X117703148Y-115879132D01*
X117736481Y-115831513D01*
X117769815Y-115736275D01*
X117769815Y-115641037D01*
X117736481Y-115545799D01*
X117703148Y-115498180D01*
X117636481Y-115450560D01*
X117469815Y-115450560D01*
X117369815Y-115498180D01*
D11*
X81688862Y-89676751D02*
X82450767Y-89676751D01*
X82069815Y-89295799D02*
X82069815Y-90057703D01*
D13*
X104991243Y-85133894D02*
X104991243Y-84791037D01*
X104991243Y-84962465D02*
X104391243Y-84962465D01*
X104476957Y-84905322D01*
X104534100Y-84848180D01*
X104562672Y-84791037D01*
X104934100Y-85391037D02*
X104962672Y-85419608D01*
X104991243Y-85391037D01*
X104962672Y-85362465D01*
X104934100Y-85391037D01*
X104991243Y-85391037D01*
X104448386Y-85648180D02*
X104419815Y-85676751D01*
X104391243Y-85733894D01*
X104391243Y-85876751D01*
X104419815Y-85933894D01*
X104448386Y-85962465D01*
X104505529Y-85991037D01*
X104562672Y-85991037D01*
X104648386Y-85962465D01*
X104991243Y-85619608D01*
X104991243Y-85991037D01*
X104391243Y-86162465D02*
X104991243Y-86362465D01*
X104391243Y-86562465D01*
D12*
X104819815Y-118700560D02*
X104819815Y-119510084D01*
X104786481Y-119605322D01*
X104753148Y-119652941D01*
X104686481Y-119700560D01*
X104553148Y-119700560D01*
X104486481Y-119652941D01*
X104453148Y-119605322D01*
X104419815Y-119510084D01*
X104419815Y-118700560D01*
X104086481Y-119700560D02*
X104086481Y-118700560D01*
X103819815Y-118700560D01*
X103753148Y-118748180D01*
X103719815Y-118795799D01*
X103686481Y-118891037D01*
X103686481Y-119033894D01*
X103719815Y-119129132D01*
X103753148Y-119176751D01*
X103819815Y-119224370D01*
X104086481Y-119224370D01*
D11*
X96510291Y-91845799D02*
X96967434Y-91845799D01*
X96738862Y-90845799D02*
X96738862Y-91845799D01*
X97157910Y-91845799D02*
X97691243Y-90845799D01*
X97691243Y-91845799D02*
X97157910Y-90845799D01*
D12*
X106503148Y-119650560D02*
X106503148Y-118650560D01*
X106336481Y-118650560D01*
X106236481Y-118698180D01*
X106169815Y-118793418D01*
X106136481Y-118888656D01*
X106103148Y-119079132D01*
X106103148Y-119221989D01*
X106136481Y-119412465D01*
X106169815Y-119507703D01*
X106236481Y-119602941D01*
X106336481Y-119650560D01*
X106503148Y-119650560D01*
X105869815Y-118650560D02*
X105703148Y-119650560D01*
X105569815Y-118936275D01*
X105436481Y-119650560D01*
X105269815Y-118650560D01*
D11*
X113772195Y-82612766D02*
X113296005Y-82346100D01*
X113772195Y-82155623D02*
X112772195Y-82155623D01*
X112772195Y-82460385D01*
X112819815Y-82536576D01*
X112867434Y-82574671D01*
X112962672Y-82612766D01*
X113105529Y-82612766D01*
X113200767Y-82574671D01*
X113248386Y-82536576D01*
X113296005Y-82460385D01*
X113296005Y-82155623D01*
X113724576Y-82917528D02*
X113772195Y-83031814D01*
X113772195Y-83222290D01*
X113724576Y-83298481D01*
X113676957Y-83336576D01*
X113581719Y-83374671D01*
X113486481Y-83374671D01*
X113391243Y-83336576D01*
X113343624Y-83298481D01*
X113296005Y-83222290D01*
X113248386Y-83069909D01*
X113200767Y-82993719D01*
X113153148Y-82955623D01*
X113057910Y-82917528D01*
X112962672Y-82917528D01*
X112867434Y-82955623D01*
X112819815Y-82993719D01*
X112772195Y-83069909D01*
X112772195Y-83260385D01*
X112819815Y-83374671D01*
X112772195Y-83603242D02*
X112772195Y-84060385D01*
X113772195Y-83831814D02*
X112772195Y-83831814D01*
X110219815Y-82438656D02*
X110172195Y-82362465D01*
X110172195Y-82248180D01*
X110219815Y-82133894D01*
X110315053Y-82057703D01*
X110410291Y-82019608D01*
X110600767Y-81981513D01*
X110743624Y-81981513D01*
X110934100Y-82019608D01*
X111029338Y-82057703D01*
X111124576Y-82133894D01*
X111172195Y-82248180D01*
X111172195Y-82324370D01*
X111124576Y-82438656D01*
X111076957Y-82476751D01*
X110743624Y-82476751D01*
X110743624Y-82324370D01*
X111172195Y-82819608D02*
X110172195Y-82819608D01*
X111172195Y-83276751D01*
X110172195Y-83276751D01*
X111172195Y-83657703D02*
X110172195Y-83657703D01*
X110172195Y-83848180D01*
X110219815Y-83962465D01*
X110315053Y-84038656D01*
X110410291Y-84076751D01*
X110600767Y-84114846D01*
X110743624Y-84114846D01*
X110934100Y-84076751D01*
X111029338Y-84038656D01*
X111124576Y-83962465D01*
X111172195Y-83848180D01*
X111172195Y-83657703D01*
X118372195Y-98519608D02*
X117372195Y-98519608D01*
X117372195Y-98710084D01*
X117419815Y-98824370D01*
X117515053Y-98900560D01*
X117610291Y-98938656D01*
X117800767Y-98976751D01*
X117943624Y-98976751D01*
X118134100Y-98938656D01*
X118229338Y-98900560D01*
X118324576Y-98824370D01*
X118372195Y-98710084D01*
X118372195Y-98519608D01*
X118467434Y-99852941D02*
X118419815Y-99776751D01*
X118324576Y-99700560D01*
X118181719Y-99586275D01*
X118134100Y-99510084D01*
X118134100Y-99433894D01*
X118372195Y-99471989D02*
X118324576Y-99395799D01*
X118229338Y-99319608D01*
X118038862Y-99281513D01*
X117705529Y-99281513D01*
X117515053Y-99319608D01*
X117419815Y-99395799D01*
X117372195Y-99471989D01*
X117372195Y-99624370D01*
X117419815Y-99700560D01*
X117515053Y-99776751D01*
X117705529Y-99814846D01*
X118038862Y-99814846D01*
X118229338Y-99776751D01*
X118324576Y-99700560D01*
X118372195Y-99624370D01*
X118372195Y-99471989D01*
D12*
X95003148Y-116500560D02*
X94769815Y-117500560D01*
X94536481Y-116500560D01*
X90369815Y-104700560D02*
X89903148Y-105700560D01*
X89903148Y-104700560D02*
X90369815Y-105700560D01*
X89303148Y-105700560D02*
X89636481Y-105700560D01*
X89636481Y-104700560D01*
X88769815Y-105033894D02*
X88769815Y-105700560D01*
X88936481Y-104652941D02*
X89103148Y-105367227D01*
X88669815Y-105367227D01*
X88269815Y-104700560D02*
X88203148Y-104700560D01*
X88136481Y-104748180D01*
X88103148Y-104795799D01*
X88069815Y-104891037D01*
X88036481Y-105081513D01*
X88036481Y-105319608D01*
X88069815Y-105510084D01*
X88103148Y-105605322D01*
X88136481Y-105652941D01*
X88203148Y-105700560D01*
X88269815Y-105700560D01*
X88336481Y-105652941D01*
X88369815Y-105605322D01*
X88403148Y-105510084D01*
X88436481Y-105319608D01*
X88436481Y-105081513D01*
X88403148Y-104891037D01*
X88369815Y-104795799D01*
X88336481Y-104748180D01*
X88269815Y-104700560D01*
X87369815Y-105700560D02*
X87769815Y-105700560D01*
X87569815Y-105700560D02*
X87569815Y-104700560D01*
X87636481Y-104843418D01*
X87703148Y-104938656D01*
X87769815Y-104986275D01*
X86736481Y-104700560D02*
X87069815Y-104700560D01*
X87103148Y-105176751D01*
X87069815Y-105129132D01*
X87003148Y-105081513D01*
X86836481Y-105081513D01*
X86769815Y-105129132D01*
X86736481Y-105176751D01*
X86703148Y-105271989D01*
X86703148Y-105510084D01*
X86736481Y-105605322D01*
X86769815Y-105652941D01*
X86836481Y-105700560D01*
X87003148Y-105700560D01*
X87069815Y-105652941D01*
X87103148Y-105605322D01*
D11*
X97010291Y-86698180D02*
X96934100Y-86745799D01*
X96819815Y-86745799D01*
X96705529Y-86698180D01*
X96629338Y-86602941D01*
X96591243Y-86507703D01*
X96553148Y-86317227D01*
X96553148Y-86174370D01*
X96591243Y-85983894D01*
X96629338Y-85888656D01*
X96705529Y-85793418D01*
X96819815Y-85745799D01*
X96896005Y-85745799D01*
X97010291Y-85793418D01*
X97048386Y-85841037D01*
X97048386Y-86174370D01*
X96896005Y-86174370D01*
X97391243Y-85745799D02*
X97391243Y-86745799D01*
X97848386Y-85745799D01*
X97848386Y-86745799D01*
X98229338Y-85745799D02*
X98229338Y-86745799D01*
X98419815Y-86745799D01*
X98534100Y-86698180D01*
X98610291Y-86602941D01*
X98648386Y-86507703D01*
X98686481Y-86317227D01*
X98686481Y-86174370D01*
X98648386Y-85983894D01*
X98610291Y-85888656D01*
X98534100Y-85793418D01*
X98419815Y-85745799D01*
X98229338Y-85745799D01*
D12*
X122053148Y-116550560D02*
X121819815Y-117550560D01*
X121586481Y-116550560D01*
X92369815Y-112602941D02*
X92269815Y-112650560D01*
X92103148Y-112650560D01*
X92036481Y-112602941D01*
X92003148Y-112555322D01*
X91969815Y-112460084D01*
X91969815Y-112364846D01*
X92003148Y-112269608D01*
X92036481Y-112221989D01*
X92103148Y-112174370D01*
X92236481Y-112126751D01*
X92303148Y-112079132D01*
X92336481Y-112031513D01*
X92369815Y-111936275D01*
X92369815Y-111841037D01*
X92336481Y-111745799D01*
X92303148Y-111698180D01*
X92236481Y-111650560D01*
X92069815Y-111650560D01*
X91969815Y-111698180D01*
X98786481Y-111098180D02*
X98853148Y-111050560D01*
X98953148Y-111050560D01*
X99053148Y-111098180D01*
X99119815Y-111193418D01*
X99153148Y-111288656D01*
X99186481Y-111479132D01*
X99186481Y-111621989D01*
X99153148Y-111812465D01*
X99119815Y-111907703D01*
X99053148Y-112002941D01*
X98953148Y-112050560D01*
X98886481Y-112050560D01*
X98786481Y-112002941D01*
X98753148Y-111955322D01*
X98753148Y-111621989D01*
X98886481Y-111621989D01*
X89936481Y-110998180D02*
X90003148Y-110950560D01*
X90103148Y-110950560D01*
X90203148Y-110998180D01*
X90269815Y-111093418D01*
X90303148Y-111188656D01*
X90336481Y-111379132D01*
X90336481Y-111521989D01*
X90303148Y-111712465D01*
X90269815Y-111807703D01*
X90203148Y-111902941D01*
X90103148Y-111950560D01*
X90036481Y-111950560D01*
X89936481Y-111902941D01*
X89903148Y-111855322D01*
X89903148Y-111521989D01*
X90036481Y-111521989D01*
D11*
X79519815Y-112048180D02*
X79596005Y-112010084D01*
X79710291Y-112010084D01*
X79824576Y-112048180D01*
X79900767Y-112124370D01*
X79938862Y-112200560D01*
X79976957Y-112352941D01*
X79976957Y-112467227D01*
X79938862Y-112619608D01*
X79900767Y-112695799D01*
X79824576Y-112771989D01*
X79710291Y-112810084D01*
X79634100Y-112810084D01*
X79519815Y-112771989D01*
X79481719Y-112733894D01*
X79481719Y-112467227D01*
X79634100Y-112467227D01*
X79138862Y-112810084D02*
X79138862Y-112010084D01*
X78757910Y-112810084D02*
X78757910Y-112010084D01*
X78300767Y-112810084D01*
X78300767Y-112010084D01*
X118772195Y-99331513D02*
X119772195Y-99598180D01*
X118772195Y-99864846D01*
D13*
X110491243Y-100076751D02*
X110205529Y-99876751D01*
X110491243Y-99733894D02*
X109891243Y-99733894D01*
X109891243Y-99962465D01*
X109919815Y-100019608D01*
X109948386Y-100048180D01*
X110005529Y-100076751D01*
X110091243Y-100076751D01*
X110148386Y-100048180D01*
X110176957Y-100019608D01*
X110205529Y-99962465D01*
X110205529Y-99733894D01*
X110462672Y-100305322D02*
X110491243Y-100391037D01*
X110491243Y-100533894D01*
X110462672Y-100591037D01*
X110434100Y-100619608D01*
X110376957Y-100648180D01*
X110319815Y-100648180D01*
X110262672Y-100619608D01*
X110234100Y-100591037D01*
X110205529Y-100533894D01*
X110176957Y-100419608D01*
X110148386Y-100362465D01*
X110119815Y-100333894D01*
X110062672Y-100305322D01*
X110005529Y-100305322D01*
X109948386Y-100333894D01*
X109919815Y-100362465D01*
X109891243Y-100419608D01*
X109891243Y-100562465D01*
X109919815Y-100648180D01*
X110091243Y-101162465D02*
X110491243Y-101162465D01*
X109862672Y-101019608D02*
X110291243Y-100876751D01*
X110291243Y-101248180D01*
X110148386Y-101562465D02*
X110119815Y-101505322D01*
X110091243Y-101476751D01*
X110034100Y-101448180D01*
X110005529Y-101448180D01*
X109948386Y-101476751D01*
X109919815Y-101505322D01*
X109891243Y-101562465D01*
X109891243Y-101676751D01*
X109919815Y-101733894D01*
X109948386Y-101762465D01*
X110005529Y-101791037D01*
X110034100Y-101791037D01*
X110091243Y-101762465D01*
X110119815Y-101733894D01*
X110148386Y-101676751D01*
X110148386Y-101562465D01*
X110176957Y-101505322D01*
X110205529Y-101476751D01*
X110262672Y-101448180D01*
X110376957Y-101448180D01*
X110434100Y-101476751D01*
X110462672Y-101505322D01*
X110491243Y-101562465D01*
X110491243Y-101676751D01*
X110462672Y-101733894D01*
X110434100Y-101762465D01*
X110376957Y-101791037D01*
X110262672Y-101791037D01*
X110205529Y-101762465D01*
X110176957Y-101733894D01*
X110148386Y-101676751D01*
X109891243Y-102333894D02*
X109891243Y-102048180D01*
X110176957Y-102019608D01*
X110148386Y-102048180D01*
X110119815Y-102105322D01*
X110119815Y-102248180D01*
X110148386Y-102305322D01*
X110176957Y-102333894D01*
X110234100Y-102362465D01*
X110376957Y-102362465D01*
X110434100Y-102333894D01*
X110462672Y-102305322D01*
X110491243Y-102248180D01*
X110491243Y-102105322D01*
X110462672Y-102048180D01*
X110434100Y-102019608D01*
X110548386Y-102476751D02*
X110548386Y-102933894D01*
X110462672Y-103048180D02*
X110491243Y-103133894D01*
X110491243Y-103276751D01*
X110462672Y-103333894D01*
X110434100Y-103362465D01*
X110376957Y-103391037D01*
X110319815Y-103391037D01*
X110262672Y-103362465D01*
X110234100Y-103333894D01*
X110205529Y-103276751D01*
X110176957Y-103162465D01*
X110148386Y-103105322D01*
X110119815Y-103076751D01*
X110062672Y-103048180D01*
X110005529Y-103048180D01*
X109948386Y-103076751D01*
X109919815Y-103105322D01*
X109891243Y-103162465D01*
X109891243Y-103305322D01*
X109919815Y-103391037D01*
X110176957Y-103648180D02*
X110176957Y-103848180D01*
X110491243Y-103933894D02*
X110491243Y-103648180D01*
X109891243Y-103648180D01*
X109891243Y-103933894D01*
X109891243Y-104105322D02*
X109891243Y-104448180D01*
X110491243Y-104276751D02*
X109891243Y-104276751D01*
D12*
X110036481Y-115298180D02*
X110103148Y-115250560D01*
X110203148Y-115250560D01*
X110303148Y-115298180D01*
X110369815Y-115393418D01*
X110403148Y-115488656D01*
X110436481Y-115679132D01*
X110436481Y-115821989D01*
X110403148Y-116012465D01*
X110369815Y-116107703D01*
X110303148Y-116202941D01*
X110203148Y-116250560D01*
X110136481Y-116250560D01*
X110036481Y-116202941D01*
X110003148Y-116155322D01*
X110003148Y-115821989D01*
X110136481Y-115821989D01*
D11*
X84410291Y-108931513D02*
X84029338Y-108931513D01*
X84486481Y-109160084D02*
X84219815Y-108360084D01*
X83953148Y-109160084D01*
D12*
X90719815Y-116352941D02*
X90619815Y-116400560D01*
X90453148Y-116400560D01*
X90386481Y-116352941D01*
X90353148Y-116305322D01*
X90319815Y-116210084D01*
X90319815Y-116114846D01*
X90353148Y-116019608D01*
X90386481Y-115971989D01*
X90453148Y-115924370D01*
X90586481Y-115876751D01*
X90653148Y-115829132D01*
X90686481Y-115781513D01*
X90719815Y-115686275D01*
X90719815Y-115591037D01*
X90686481Y-115495799D01*
X90653148Y-115448180D01*
X90586481Y-115400560D01*
X90419815Y-115400560D01*
X90319815Y-115448180D01*
D11*
X96524576Y-93493418D02*
X96638862Y-93445799D01*
X96829338Y-93445799D01*
X96905529Y-93493418D01*
X96943624Y-93541037D01*
X96981719Y-93636275D01*
X96981719Y-93731513D01*
X96943624Y-93826751D01*
X96905529Y-93874370D01*
X96829338Y-93921989D01*
X96676957Y-93969608D01*
X96600767Y-94017227D01*
X96562672Y-94064846D01*
X96524576Y-94160084D01*
X96524576Y-94255322D01*
X96562672Y-94350560D01*
X96600767Y-94398180D01*
X96676957Y-94445799D01*
X96867434Y-94445799D01*
X96981719Y-94398180D01*
X97324576Y-93969608D02*
X97591243Y-93969608D01*
X97705529Y-93445799D02*
X97324576Y-93445799D01*
X97324576Y-94445799D01*
X97705529Y-94445799D01*
X97934100Y-94445799D02*
X98391243Y-94445799D01*
X98162672Y-93445799D02*
X98162672Y-94445799D01*
X116019815Y-99707703D02*
X115972195Y-99631513D01*
X115972195Y-99517227D01*
X116019815Y-99402941D01*
X116115053Y-99326751D01*
X116210291Y-99288656D01*
X116400767Y-99250560D01*
X116543624Y-99250560D01*
X116734100Y-99288656D01*
X116829338Y-99326751D01*
X116924576Y-99402941D01*
X116972195Y-99517227D01*
X116972195Y-99593418D01*
X116924576Y-99707703D01*
X116876957Y-99745799D01*
X116543624Y-99745799D01*
X116543624Y-99593418D01*
D12*
X113003148Y-116650560D02*
X112769815Y-117650560D01*
X112536481Y-116650560D01*
X113769815Y-118650560D02*
X113769815Y-119460084D01*
X113736481Y-119555322D01*
X113703148Y-119602941D01*
X113636481Y-119650560D01*
X113503148Y-119650560D01*
X113436481Y-119602941D01*
X113403148Y-119555322D01*
X113369815Y-119460084D01*
X113369815Y-118650560D01*
X113036481Y-119650560D02*
X113036481Y-118650560D01*
X112769815Y-118650560D01*
X112703148Y-118698180D01*
X112669815Y-118745799D01*
X112636481Y-118841037D01*
X112636481Y-118983894D01*
X112669815Y-119079132D01*
X112703148Y-119126751D01*
X112769815Y-119174370D01*
X113036481Y-119174370D01*
X106619815Y-117552941D02*
X106519815Y-117600560D01*
X106353148Y-117600560D01*
X106286481Y-117552941D01*
X106253148Y-117505322D01*
X106219815Y-117410084D01*
X106219815Y-117314846D01*
X106253148Y-117219608D01*
X106286481Y-117171989D01*
X106353148Y-117124370D01*
X106486481Y-117076751D01*
X106553148Y-117029132D01*
X106586481Y-116981513D01*
X106619815Y-116886275D01*
X106619815Y-116791037D01*
X106586481Y-116695799D01*
X106553148Y-116648180D01*
X106486481Y-116600560D01*
X106319815Y-116600560D01*
X106219815Y-116648180D01*
X122869815Y-118700560D02*
X122869815Y-119510084D01*
X122836481Y-119605322D01*
X122803148Y-119652941D01*
X122736481Y-119700560D01*
X122603148Y-119700560D01*
X122536481Y-119652941D01*
X122503148Y-119605322D01*
X122469815Y-119510084D01*
X122469815Y-118700560D01*
X122136481Y-119700560D02*
X122136481Y-118700560D01*
X121869815Y-118700560D01*
X121803148Y-118748180D01*
X121769815Y-118795799D01*
X121736481Y-118891037D01*
X121736481Y-119033894D01*
X121769815Y-119129132D01*
X121803148Y-119176751D01*
X121869815Y-119224370D01*
X122136481Y-119224370D01*
X115286481Y-116598180D02*
X115353148Y-116550560D01*
X115453148Y-116550560D01*
X115553148Y-116598180D01*
X115619815Y-116693418D01*
X115653148Y-116788656D01*
X115686481Y-116979132D01*
X115686481Y-117121989D01*
X115653148Y-117312465D01*
X115619815Y-117407703D01*
X115553148Y-117502941D01*
X115453148Y-117550560D01*
X115386481Y-117550560D01*
X115286481Y-117502941D01*
X115253148Y-117455322D01*
X115253148Y-117121989D01*
X115386481Y-117121989D01*
X104986481Y-95052941D02*
X104886481Y-95100560D01*
X104719815Y-95100560D01*
X104653148Y-95052941D01*
X104619815Y-95005322D01*
X104586481Y-94910084D01*
X104586481Y-94814846D01*
X104619815Y-94719608D01*
X104653148Y-94671989D01*
X104719815Y-94624370D01*
X104853148Y-94576751D01*
X104919815Y-94529132D01*
X104953148Y-94481513D01*
X104986481Y-94386275D01*
X104986481Y-94291037D01*
X104953148Y-94195799D01*
X104919815Y-94148180D01*
X104853148Y-94100560D01*
X104686481Y-94100560D01*
X104586481Y-94148180D01*
X104386481Y-94100560D02*
X103986481Y-94100560D01*
X104186481Y-95100560D02*
X104186481Y-94100560D01*
X103453148Y-94433894D02*
X103453148Y-95100560D01*
X103619815Y-94052941D02*
X103786481Y-94767227D01*
X103353148Y-94767227D01*
X102986481Y-94529132D02*
X103053148Y-94481513D01*
X103086481Y-94433894D01*
X103119815Y-94338656D01*
X103119815Y-94291037D01*
X103086481Y-94195799D01*
X103053148Y-94148180D01*
X102986481Y-94100560D01*
X102853148Y-94100560D01*
X102786481Y-94148180D01*
X102753148Y-94195799D01*
X102719815Y-94291037D01*
X102719815Y-94338656D01*
X102753148Y-94433894D01*
X102786481Y-94481513D01*
X102853148Y-94529132D01*
X102986481Y-94529132D01*
X103053148Y-94576751D01*
X103086481Y-94624370D01*
X103119815Y-94719608D01*
X103119815Y-94910084D01*
X103086481Y-95005322D01*
X103053148Y-95052941D01*
X102986481Y-95100560D01*
X102853148Y-95100560D01*
X102786481Y-95052941D01*
X102753148Y-95005322D01*
X102719815Y-94910084D01*
X102719815Y-94719608D01*
X102753148Y-94624370D01*
X102786481Y-94576751D01*
X102853148Y-94529132D01*
X102086481Y-94100560D02*
X102419815Y-94100560D01*
X102453148Y-94576751D01*
X102419815Y-94529132D01*
X102353148Y-94481513D01*
X102186481Y-94481513D01*
X102119815Y-94529132D01*
X102086481Y-94576751D01*
X102053148Y-94671989D01*
X102053148Y-94910084D01*
X102086481Y-95005322D01*
X102119815Y-95052941D01*
X102186481Y-95100560D01*
X102353148Y-95100560D01*
X102419815Y-95052941D01*
X102453148Y-95005322D01*
D11*
X118724576Y-83719608D02*
X118772195Y-83833894D01*
X118772195Y-84024370D01*
X118724576Y-84100560D01*
X118676957Y-84138656D01*
X118581719Y-84176751D01*
X118486481Y-84176751D01*
X118391243Y-84138656D01*
X118343624Y-84100560D01*
X118296005Y-84024370D01*
X118248386Y-83871989D01*
X118200767Y-83795799D01*
X118153148Y-83757703D01*
X118057910Y-83719608D01*
X117962672Y-83719608D01*
X117867434Y-83757703D01*
X117819815Y-83795799D01*
X117772195Y-83871989D01*
X117772195Y-84062465D01*
X117819815Y-84176751D01*
X118676957Y-84976751D02*
X118724576Y-84938656D01*
X118772195Y-84824370D01*
X118772195Y-84748180D01*
X118724576Y-84633894D01*
X118629338Y-84557703D01*
X118534100Y-84519608D01*
X118343624Y-84481513D01*
X118200767Y-84481513D01*
X118010291Y-84519608D01*
X117915053Y-84557703D01*
X117819815Y-84633894D01*
X117772195Y-84748180D01*
X117772195Y-84824370D01*
X117819815Y-84938656D01*
X117867434Y-84976751D01*
X118772195Y-85319608D02*
X117772195Y-85319608D01*
X118772195Y-85776751D02*
X118200767Y-85433894D01*
X117772195Y-85776751D02*
X118343624Y-85319608D01*
D12*
X115603148Y-119700560D02*
X115603148Y-118700560D01*
X115436481Y-118700560D01*
X115336481Y-118748180D01*
X115269815Y-118843418D01*
X115236481Y-118938656D01*
X115203148Y-119129132D01*
X115203148Y-119271989D01*
X115236481Y-119462465D01*
X115269815Y-119557703D01*
X115336481Y-119652941D01*
X115436481Y-119700560D01*
X115603148Y-119700560D01*
X114969815Y-118700560D02*
X114803148Y-119700560D01*
X114669815Y-118986275D01*
X114536481Y-119700560D01*
X114369815Y-118700560D01*
D11*
X77065053Y-112760084D02*
X77522195Y-112760084D01*
X77293624Y-112760084D02*
X77293624Y-111960084D01*
X77369815Y-112074370D01*
X77446005Y-112150560D01*
X77522195Y-112188656D01*
X76760291Y-112036275D02*
X76722195Y-111998180D01*
X76646005Y-111960084D01*
X76455529Y-111960084D01*
X76379338Y-111998180D01*
X76341243Y-112036275D01*
X76303148Y-112112465D01*
X76303148Y-112188656D01*
X76341243Y-112302941D01*
X76798386Y-112760084D01*
X76303148Y-112760084D01*
X76074576Y-111960084D02*
X75807910Y-112760084D01*
X75541243Y-111960084D01*
D12*
X97236481Y-116598180D02*
X97303148Y-116550560D01*
X97403148Y-116550560D01*
X97503148Y-116598180D01*
X97569815Y-116693418D01*
X97603148Y-116788656D01*
X97636481Y-116979132D01*
X97636481Y-117121989D01*
X97603148Y-117312465D01*
X97569815Y-117407703D01*
X97503148Y-117502941D01*
X97403148Y-117550560D01*
X97336481Y-117550560D01*
X97236481Y-117502941D01*
X97203148Y-117455322D01*
X97203148Y-117121989D01*
X97336481Y-117121989D01*
D11*
X120372195Y-83681513D02*
X121372195Y-83948180D01*
X120372195Y-84214846D01*
X121276957Y-84938656D02*
X121324576Y-84900560D01*
X121372195Y-84786275D01*
X121372195Y-84710084D01*
X121324576Y-84595799D01*
X121229338Y-84519608D01*
X121134100Y-84481513D01*
X120943624Y-84443418D01*
X120800767Y-84443418D01*
X120610291Y-84481513D01*
X120515053Y-84519608D01*
X120419815Y-84595799D01*
X120372195Y-84710084D01*
X120372195Y-84786275D01*
X120419815Y-84900560D01*
X120467434Y-84938656D01*
X121276957Y-85738656D02*
X121324576Y-85700560D01*
X121372195Y-85586275D01*
X121372195Y-85510084D01*
X121324576Y-85395799D01*
X121229338Y-85319608D01*
X121134100Y-85281513D01*
X120943624Y-85243418D01*
X120800767Y-85243418D01*
X120610291Y-85281513D01*
X120515053Y-85319608D01*
X120419815Y-85395799D01*
X120372195Y-85510084D01*
X120372195Y-85586275D01*
X120419815Y-85700560D01*
X120467434Y-85738656D01*
D13*
X84684100Y-97705322D02*
X84884100Y-97705322D01*
X84884100Y-98019608D02*
X84884100Y-97419608D01*
X84598386Y-97419608D01*
X84169815Y-97705322D02*
X84084100Y-97733894D01*
X84055529Y-97762465D01*
X84026957Y-97819608D01*
X84026957Y-97905322D01*
X84055529Y-97962465D01*
X84084100Y-97991037D01*
X84141243Y-98019608D01*
X84369815Y-98019608D01*
X84369815Y-97419608D01*
X84169815Y-97419608D01*
X84112672Y-97448180D01*
X84084100Y-97476751D01*
X84055529Y-97533894D01*
X84055529Y-97591037D01*
X84084100Y-97648180D01*
X84112672Y-97676751D01*
X84169815Y-97705322D01*
X84369815Y-97705322D01*
X78569815Y-87791037D02*
X78541243Y-87733894D01*
X78541243Y-87648180D01*
X78569815Y-87562465D01*
X78626957Y-87505322D01*
X78684100Y-87476751D01*
X78798386Y-87448180D01*
X78884100Y-87448180D01*
X78998386Y-87476751D01*
X79055529Y-87505322D01*
X79112672Y-87562465D01*
X79141243Y-87648180D01*
X79141243Y-87705322D01*
X79112672Y-87791037D01*
X79084100Y-87819608D01*
X78884100Y-87819608D01*
X78884100Y-87705322D01*
X79141243Y-88076751D02*
X78541243Y-88076751D01*
X79141243Y-88419608D01*
X78541243Y-88419608D01*
X79141243Y-88705322D02*
X78541243Y-88705322D01*
X78541243Y-88848180D01*
X78569815Y-88933894D01*
X78626957Y-88991037D01*
X78684100Y-89019608D01*
X78798386Y-89048180D01*
X78884100Y-89048180D01*
X78998386Y-89019608D01*
X79055529Y-88991037D01*
X79112672Y-88933894D01*
X79141243Y-88848180D01*
X79141243Y-88705322D01*
D12*
X97569815Y-109200560D02*
X97569815Y-110010084D01*
X97536481Y-110105322D01*
X97503148Y-110152941D01*
X97436481Y-110200560D01*
X97303148Y-110200560D01*
X97236481Y-110152941D01*
X97203148Y-110105322D01*
X97169815Y-110010084D01*
X97169815Y-109200560D01*
X96836481Y-110200560D02*
X96836481Y-109200560D01*
X96569815Y-109200560D01*
X96503148Y-109248180D01*
X96469815Y-109295799D01*
X96436481Y-109391037D01*
X96436481Y-109533894D01*
X96469815Y-109629132D01*
X96503148Y-109676751D01*
X96569815Y-109724370D01*
X96836481Y-109724370D01*
D11*
X79686213Y-89681665D02*
X80448118Y-89681665D01*
D12*
X115286481Y-111048180D02*
X115353148Y-111000560D01*
X115453148Y-111000560D01*
X115553148Y-111048180D01*
X115619815Y-111143418D01*
X115653148Y-111238656D01*
X115686481Y-111429132D01*
X115686481Y-111571989D01*
X115653148Y-111762465D01*
X115619815Y-111857703D01*
X115553148Y-111952941D01*
X115453148Y-112000560D01*
X115386481Y-112000560D01*
X115286481Y-111952941D01*
X115253148Y-111905322D01*
X115253148Y-111571989D01*
X115386481Y-111571989D01*
X96603148Y-111050560D02*
X96369815Y-112050560D01*
X96136481Y-111050560D01*
D13*
X129676957Y-103019608D02*
X129676957Y-102419608D01*
X129534100Y-102419608D01*
X129448386Y-102448180D01*
X129391243Y-102505322D01*
X129362672Y-102562465D01*
X129334100Y-102676751D01*
X129334100Y-102762465D01*
X129362672Y-102876751D01*
X129391243Y-102933894D01*
X129448386Y-102991037D01*
X129534100Y-103019608D01*
X129676957Y-103019608D01*
X128734100Y-103019608D02*
X128934100Y-102733894D01*
X129076957Y-103019608D02*
X129076957Y-102419608D01*
X128848386Y-102419608D01*
X128791243Y-102448180D01*
X128762672Y-102476751D01*
X128734100Y-102533894D01*
X128734100Y-102619608D01*
X128762672Y-102676751D01*
X128791243Y-102705322D01*
X128848386Y-102733894D01*
X129076957Y-102733894D01*
D12*
X99103148Y-110050560D02*
X99103148Y-109050560D01*
X98936481Y-109050560D01*
X98836481Y-109098180D01*
X98769815Y-109193418D01*
X98736481Y-109288656D01*
X98703148Y-109479132D01*
X98703148Y-109621989D01*
X98736481Y-109812465D01*
X98769815Y-109907703D01*
X98836481Y-110002941D01*
X98936481Y-110050560D01*
X99103148Y-110050560D01*
X98469815Y-109050560D02*
X98303148Y-110050560D01*
X98169815Y-109336275D01*
X98036481Y-110050560D01*
X97869815Y-109050560D01*
D11*
X96553148Y-84245799D02*
X96819815Y-83245799D01*
X97086481Y-84245799D01*
X97810291Y-83341037D02*
X97772195Y-83293418D01*
X97657910Y-83245799D01*
X97581719Y-83245799D01*
X97467434Y-83293418D01*
X97391243Y-83388656D01*
X97353148Y-83483894D01*
X97315053Y-83674370D01*
X97315053Y-83817227D01*
X97353148Y-84007703D01*
X97391243Y-84102941D01*
X97467434Y-84198180D01*
X97581719Y-84245799D01*
X97657910Y-84245799D01*
X97772195Y-84198180D01*
X97810291Y-84150560D01*
X98610291Y-83341037D02*
X98572195Y-83293418D01*
X98457910Y-83245799D01*
X98381719Y-83245799D01*
X98267434Y-83293418D01*
X98191243Y-83388656D01*
X98153148Y-83483894D01*
X98115053Y-83674370D01*
X98115053Y-83817227D01*
X98153148Y-84007703D01*
X98191243Y-84102941D01*
X98267434Y-84198180D01*
X98381719Y-84245799D01*
X98457910Y-84245799D01*
X98572195Y-84198180D01*
X98610291Y-84150560D01*
D12*
X119769815Y-110952941D02*
X119669815Y-111000560D01*
X119503148Y-111000560D01*
X119436481Y-110952941D01*
X119403148Y-110905322D01*
X119369815Y-110810084D01*
X119369815Y-110714846D01*
X119403148Y-110619608D01*
X119436481Y-110571989D01*
X119503148Y-110524370D01*
X119636481Y-110476751D01*
X119703148Y-110429132D01*
X119736481Y-110381513D01*
X119769815Y-110286275D01*
X119769815Y-110191037D01*
X119736481Y-110095799D01*
X119703148Y-110048180D01*
X119636481Y-110000560D01*
X119469815Y-110000560D01*
X119369815Y-110048180D01*
X99719815Y-116402941D02*
X99619815Y-116450560D01*
X99453148Y-116450560D01*
X99386481Y-116402941D01*
X99353148Y-116355322D01*
X99319815Y-116260084D01*
X99319815Y-116164846D01*
X99353148Y-116069608D01*
X99386481Y-116021989D01*
X99453148Y-115974370D01*
X99586481Y-115926751D01*
X99653148Y-115879132D01*
X99686481Y-115831513D01*
X99719815Y-115736275D01*
X99719815Y-115641037D01*
X99686481Y-115545799D01*
X99653148Y-115498180D01*
X99586481Y-115450560D01*
X99419815Y-115450560D01*
X99319815Y-115498180D01*
X88236481Y-116548180D02*
X88303148Y-116500560D01*
X88403148Y-116500560D01*
X88503148Y-116548180D01*
X88569815Y-116643418D01*
X88603148Y-116738656D01*
X88636481Y-116929132D01*
X88636481Y-117071989D01*
X88603148Y-117262465D01*
X88569815Y-117357703D01*
X88503148Y-117452941D01*
X88403148Y-117500560D01*
X88336481Y-117500560D01*
X88236481Y-117452941D01*
X88203148Y-117405322D01*
X88203148Y-117071989D01*
X88336481Y-117071989D01*
D14*
%TO.C,BQ3*%
X112228571Y-107528571D02*
X112085714Y-107576190D01*
X112038095Y-107623809D01*
X111990476Y-107719047D01*
X111990476Y-107861904D01*
X112038095Y-107957142D01*
X112085714Y-108004761D01*
X112180952Y-108052380D01*
X112561904Y-108052380D01*
X112561904Y-107052380D01*
X112228571Y-107052380D01*
X112133333Y-107100000D01*
X112085714Y-107147619D01*
X112038095Y-107242857D01*
X112038095Y-107338095D01*
X112085714Y-107433333D01*
X112133333Y-107480952D01*
X112228571Y-107528571D01*
X112561904Y-107528571D01*
X110895238Y-108147619D02*
X110990476Y-108100000D01*
X111085714Y-108004761D01*
X111228571Y-107861904D01*
X111323809Y-107814285D01*
X111419047Y-107814285D01*
X111371428Y-108052380D02*
X111466666Y-108004761D01*
X111561904Y-107909523D01*
X111609523Y-107719047D01*
X111609523Y-107385714D01*
X111561904Y-107195238D01*
X111466666Y-107100000D01*
X111371428Y-107052380D01*
X111180952Y-107052380D01*
X111085714Y-107100000D01*
X110990476Y-107195238D01*
X110942857Y-107385714D01*
X110942857Y-107719047D01*
X110990476Y-107909523D01*
X111085714Y-108004761D01*
X111180952Y-108052380D01*
X111371428Y-108052380D01*
X110609523Y-107052380D02*
X109990476Y-107052380D01*
X110323809Y-107433333D01*
X110180952Y-107433333D01*
X110085714Y-107480952D01*
X110038095Y-107528571D01*
X109990476Y-107623809D01*
X109990476Y-107861904D01*
X110038095Y-107957142D01*
X110085714Y-108004761D01*
X110180952Y-108052380D01*
X110466666Y-108052380D01*
X110561904Y-108004761D01*
X110609523Y-107957142D01*
D11*
%TO.C,DA3*%
X82108698Y-105197029D02*
X81569950Y-104658281D01*
X82122166Y-105116217D02*
X81650762Y-104644812D01*
X82169307Y-105069076D02*
X81697902Y-104597672D01*
X82182776Y-104988264D02*
X81778715Y-104584203D01*
X82229916Y-104941124D02*
X81825855Y-104537063D01*
X82243385Y-104860312D02*
X81906667Y-104523594D01*
X82290525Y-104813171D02*
X81953808Y-104476454D01*
X82303994Y-104732359D02*
X82034620Y-104462985D01*
X82317463Y-104651547D02*
X82115432Y-104449516D01*
X82364603Y-104604406D02*
X82162573Y-104402376D01*
X82378072Y-104523594D02*
X82243385Y-104388907D01*
X82425212Y-104476454D02*
X82290525Y-104341767D01*
X82405009Y-104361970D02*
X82452150Y-104314829D01*
X82438681Y-104395641D02*
X82371337Y-104328298D01*
X82061557Y-105244170D02*
X82499290Y-104267689D01*
X81522809Y-104705421D01*
X82546430Y-104220548D02*
X81489137Y-104671750D01*
X82095229Y-105277841D01*
X82546430Y-104220548D01*
%TO.C,DD2*%
X104996029Y-95934854D02*
X105746359Y-96067158D01*
X105031348Y-96008777D02*
X105687886Y-96124543D01*
X105019771Y-96074431D02*
X105676310Y-96190196D01*
X105055090Y-96148354D02*
X105617838Y-96247581D01*
X105043514Y-96214008D02*
X105606261Y-96313235D01*
X105078833Y-96287930D02*
X105547789Y-96370620D01*
X105067256Y-96353584D02*
X105536212Y-96436274D01*
X105102575Y-96427507D02*
X105477740Y-96493659D01*
X105137895Y-96501430D02*
X105419268Y-96551044D01*
X105126318Y-96567084D02*
X105407692Y-96616698D01*
X105161637Y-96641007D02*
X105349219Y-96674082D01*
X105150061Y-96706660D02*
X105337643Y-96739736D01*
X105232275Y-96788852D02*
X105220699Y-96854506D01*
X105185380Y-96780583D02*
X105279171Y-96797121D01*
X105007605Y-95869200D02*
X105209122Y-96920160D01*
X105757935Y-96001504D01*
X105197546Y-96985814D02*
X105804831Y-96009773D01*
X104960710Y-95860931D01*
X105197546Y-96985814D01*
%TO.C,DD5*%
X109808698Y-97997029D02*
X109269950Y-97458281D01*
X109822166Y-97916217D02*
X109350762Y-97444812D01*
X109869307Y-97869076D02*
X109397902Y-97397672D01*
X109882776Y-97788264D02*
X109478715Y-97384203D01*
X109929916Y-97741124D02*
X109525855Y-97337063D01*
X109943385Y-97660312D02*
X109606667Y-97323594D01*
X109990525Y-97613171D02*
X109653808Y-97276454D01*
X110003994Y-97532359D02*
X109734620Y-97262985D01*
X110017463Y-97451547D02*
X109815432Y-97249516D01*
X110064603Y-97404406D02*
X109862573Y-97202376D01*
X110078072Y-97323594D02*
X109943385Y-97188907D01*
X110125212Y-97276454D02*
X109990525Y-97141767D01*
X110105009Y-97161970D02*
X110152150Y-97114829D01*
X110138681Y-97195641D02*
X110071337Y-97128298D01*
X109761557Y-98044170D02*
X110199290Y-97067689D01*
X109222809Y-97505421D01*
X110246430Y-97020548D02*
X109189137Y-97471750D01*
X109795229Y-98077841D01*
X110246430Y-97020548D01*
D15*
%TO.C,R34*%
X119119815Y-110148180D02*
X116469815Y-110148180D01*
X119169815Y-108948180D02*
X116469815Y-108948180D01*
X119169815Y-108948180D02*
X119169815Y-110148180D01*
X116469815Y-108948180D02*
X116469815Y-110148180D01*
D16*
%TO.C,C8*%
X104719815Y-105998180D02*
X104969815Y-105998180D01*
X104119815Y-106348180D02*
X104119815Y-107348180D01*
X105319815Y-106348180D02*
X105319815Y-107348180D01*
X104719815Y-105998180D02*
X104469815Y-105998180D01*
X105319815Y-108348180D02*
X105319815Y-107348180D01*
X104719815Y-108698180D02*
X104469815Y-108698180D01*
X104119815Y-108348180D02*
X104119815Y-107348180D01*
X104719815Y-108698180D02*
X104969815Y-108698180D01*
X105319815Y-106348180D02*
G75*
G03*
X104969815Y-105998180I-350000J0D01*
G01*
X104119815Y-108348180D02*
G75*
G03*
X104469815Y-108698180I350001J1D01*
G01*
X104969815Y-108698180D02*
G75*
G03*
X105319815Y-108348180I-1J350001D01*
G01*
X104469815Y-105998180D02*
G75*
G03*
X104119815Y-106348180I0J-350000D01*
G01*
%TO.C,C2*%
X94719815Y-113348180D02*
X94719815Y-114348180D01*
X93519815Y-115348180D02*
X93519815Y-114348180D01*
X94119815Y-112998180D02*
X93869815Y-112998180D01*
X93519815Y-113348180D02*
X93519815Y-114348180D01*
X94119815Y-115698180D02*
X94369815Y-115698180D01*
X94119815Y-112998180D02*
X94369815Y-112998180D01*
X94719815Y-115348180D02*
X94719815Y-114348180D01*
X94119815Y-115698180D02*
X93869815Y-115698180D01*
X94369815Y-115698180D02*
G75*
G03*
X94719815Y-115348180I-1J350001D01*
G01*
X93519815Y-115348180D02*
G75*
G03*
X93869815Y-115698180I350001J1D01*
G01*
X94719815Y-113348180D02*
G75*
G03*
X94369815Y-112998180I-350000J0D01*
G01*
X93869815Y-112998180D02*
G75*
G03*
X93519815Y-113348180I0J-350000D01*
G01*
D10*
%TO.C,FU1*%
X81259815Y-85189602D02*
X81259815Y-85706758D01*
X82679815Y-85189602D02*
X82679815Y-85706758D01*
D15*
%TO.C,R6*%
X109369815Y-101748180D02*
X106669815Y-101748180D01*
X109369815Y-101748180D02*
X109369815Y-102948180D01*
X109319815Y-102948180D02*
X106669815Y-102948180D01*
X106669815Y-101748180D02*
X106669815Y-102948180D01*
D11*
%TO.C,VD9*%
X91389815Y-107908180D02*
X92319815Y-107908180D01*
X94549815Y-107908180D02*
X93619815Y-107908180D01*
X94549815Y-107908180D02*
X94549815Y-106448180D01*
X91389815Y-107908180D02*
X91389815Y-105748180D01*
D15*
%TO.C,R37*%
X92619815Y-87598180D02*
X91419815Y-87598180D01*
X92619815Y-90298180D02*
X92619815Y-87598180D01*
X92619815Y-90298180D02*
X91419815Y-90298180D01*
X91419815Y-90248180D02*
X91419815Y-87598180D01*
D10*
%TO.C,FU2*%
X73321879Y-107458180D02*
X72117751Y-107458180D01*
X73321879Y-105638180D02*
X72117751Y-105638180D01*
D11*
%TO.C,DA2*%
X108439815Y-86388180D02*
X108439815Y-87848180D01*
X111599815Y-86388180D02*
X111599815Y-88548180D01*
X111599815Y-86388180D02*
X110669815Y-86388180D01*
X108439815Y-86388180D02*
X109369815Y-86388180D01*
D16*
%TO.C,C10*%
X122119815Y-106648180D02*
X121119815Y-106648180D01*
X122469815Y-106048180D02*
X122469815Y-106298180D01*
X119769815Y-106048180D02*
X119769815Y-105798180D01*
X122469815Y-106048180D02*
X122469815Y-105798180D01*
X119769815Y-106048180D02*
X119769815Y-106298180D01*
X120119815Y-105448180D02*
X121119815Y-105448180D01*
X120119815Y-106648180D02*
X121119815Y-106648180D01*
X122119815Y-105448180D02*
X121119815Y-105448180D01*
X120119815Y-105448180D02*
G75*
G03*
X119769815Y-105798180I0J-350000D01*
G01*
X122119815Y-106648180D02*
G75*
G03*
X122469815Y-106298180I-1J350001D01*
G01*
X119769815Y-106298180D02*
G75*
G03*
X120119815Y-106648180I350000J0D01*
G01*
X122469815Y-105798180D02*
G75*
G03*
X122119815Y-105448180I-350001J-1D01*
G01*
%TO.C,C18*%
X106819815Y-88373180D02*
X106819815Y-87373180D01*
X107419815Y-86023180D02*
X107669815Y-86023180D01*
X107419815Y-88723180D02*
X107169815Y-88723180D01*
X107419815Y-88723180D02*
X107669815Y-88723180D01*
X107419815Y-86023180D02*
X107169815Y-86023180D01*
X108019815Y-88373180D02*
X108019815Y-87373180D01*
X106819815Y-86373180D02*
X106819815Y-87373180D01*
X108019815Y-86373180D02*
X108019815Y-87373180D01*
X106819815Y-88373180D02*
G75*
G03*
X107169815Y-88723180I350001J1D01*
G01*
X108019815Y-86373180D02*
G75*
G03*
X107669815Y-86023180I-350000J0D01*
G01*
X107169815Y-86023180D02*
G75*
G03*
X106819815Y-86373180I0J-350000D01*
G01*
X107669815Y-88723180D02*
G75*
G03*
X108019815Y-88373180I-1J350001D01*
G01*
D11*
%TO.C,VD1*%
X92859815Y-96968180D02*
X92859815Y-97898180D01*
X92859815Y-100128180D02*
X92859815Y-99198180D01*
X92859815Y-96968180D02*
X95019815Y-96968180D01*
X92859815Y-100128180D02*
X94319815Y-100128180D01*
%TO.C,C28*%
X85669815Y-106398180D02*
X83169815Y-106398180D01*
X85669815Y-104698180D02*
X83169815Y-104698180D01*
X82669815Y-105898180D02*
X82669815Y-105198180D01*
X86169815Y-105898180D02*
X86169815Y-105198180D01*
X83169815Y-104698180D02*
G75*
G03*
X82669815Y-105198180I0J-500000D01*
G01*
X86169815Y-105198180D02*
G75*
G03*
X85669815Y-104698180I-500001J-1D01*
G01*
X82669815Y-105898180D02*
G75*
G03*
X83169815Y-106398180I500000J0D01*
G01*
X85669815Y-106398180D02*
G75*
G03*
X86169815Y-105898180I-1J500001D01*
G01*
D10*
%TO.C,L2*%
X70994815Y-103848180D02*
X70994815Y-100173180D01*
X72744815Y-103848180D02*
X70994815Y-103848180D01*
X70994815Y-96498180D02*
X70994815Y-100173180D01*
X78194815Y-96498180D02*
X78194815Y-100173180D01*
X76444815Y-103848180D02*
X78194815Y-103848180D01*
X72744815Y-96498180D02*
X70994815Y-96498180D01*
X78194815Y-103848180D02*
X78194815Y-100173180D01*
X76444815Y-96498180D02*
X78194815Y-96498180D01*
D15*
%TO.C,R1*%
X90619815Y-92898180D02*
X91819815Y-92898180D01*
X90619815Y-92898180D02*
X90619815Y-95598180D01*
X91819815Y-92948180D02*
X91819815Y-95598180D01*
X90619815Y-95598180D02*
X91819815Y-95598180D01*
D16*
%TO.C,VD5*%
X76819815Y-80548180D02*
X76819815Y-85948180D01*
X80119815Y-80548180D02*
X80119815Y-85948180D01*
X76819815Y-80548180D02*
X80119815Y-80548180D01*
D11*
%TO.C,VD10*%
X120199815Y-115108180D02*
X119269815Y-115108180D01*
X117039815Y-115108180D02*
X117039815Y-112948180D01*
X117039815Y-115108180D02*
X117969815Y-115108180D01*
X120199815Y-115108180D02*
X120199815Y-113648180D01*
D16*
%TO.C,C25*%
X106319815Y-105048180D02*
X106319815Y-104048180D01*
X105119815Y-105048180D02*
X105119815Y-104048180D01*
X105119815Y-103048180D02*
X105119815Y-104048180D01*
X106319815Y-103048180D02*
X106319815Y-104048180D01*
X105719815Y-102698180D02*
X105469815Y-102698180D01*
X105719815Y-102698180D02*
X105969815Y-102698180D01*
X105719815Y-105398180D02*
X105469815Y-105398180D01*
X105719815Y-105398180D02*
X105969815Y-105398180D01*
X105969815Y-105398180D02*
G75*
G03*
X106319815Y-105048180I-1J350001D01*
G01*
X105469815Y-102698180D02*
G75*
G03*
X105119815Y-103048180I0J-350000D01*
G01*
X106319815Y-103048180D02*
G75*
G03*
X105969815Y-102698180I-350000J0D01*
G01*
X105119815Y-105048180D02*
G75*
G03*
X105469815Y-105398180I350001J1D01*
G01*
D15*
%TO.C,R4*%
X106247246Y-96121407D02*
X106247246Y-97321407D01*
X108947246Y-96121407D02*
X108947246Y-97321407D01*
X108897246Y-97321407D02*
X106247246Y-97321407D01*
X108947246Y-96121407D02*
X106247246Y-96121407D01*
%TO.C,R50*%
X104619815Y-92148180D02*
X101969815Y-92148180D01*
X104669815Y-90948180D02*
X101969815Y-90948180D01*
X101969815Y-90948180D02*
X101969815Y-92148180D01*
X104669815Y-90948180D02*
X104669815Y-92148180D01*
%TO.C,R60*%
X121269815Y-99448180D02*
X121269815Y-100648180D01*
X123919815Y-100648180D02*
X121269815Y-100648180D01*
X123969815Y-99448180D02*
X123969815Y-100648180D01*
X123969815Y-99448180D02*
X121269815Y-99448180D01*
D16*
%TO.C,C42*%
X89719815Y-92898180D02*
X89969815Y-92898180D01*
X89119815Y-93248180D02*
X89119815Y-94248180D01*
X89719815Y-92898180D02*
X89469815Y-92898180D01*
X89719815Y-95598180D02*
X89469815Y-95598180D01*
X90319815Y-95248180D02*
X90319815Y-94248180D01*
X89119815Y-95248180D02*
X89119815Y-94248180D01*
X90319815Y-93248180D02*
X90319815Y-94248180D01*
X89719815Y-95598180D02*
X89969815Y-95598180D01*
X90319815Y-93248180D02*
G75*
G03*
X89969815Y-92898180I-350000J0D01*
G01*
X89119815Y-95248180D02*
G75*
G03*
X89469815Y-95598180I350001J1D01*
G01*
X89469815Y-92898180D02*
G75*
G03*
X89119815Y-93248180I0J-350000D01*
G01*
X89969815Y-95598180D02*
G75*
G03*
X90319815Y-95248180I-1J350001D01*
G01*
D15*
%TO.C,R24*%
X105169815Y-109048180D02*
X102469815Y-109048180D01*
X105169815Y-109048180D02*
X105169815Y-110248180D01*
X102469815Y-109048180D02*
X102469815Y-110248180D01*
X105119815Y-110248180D02*
X102469815Y-110248180D01*
%TO.C,R57*%
X88569815Y-97248180D02*
X88569815Y-96048180D01*
X85869815Y-97248180D02*
X85869815Y-96048180D01*
X85919815Y-96048180D02*
X88569815Y-96048180D01*
X85869815Y-97248180D02*
X88569815Y-97248180D01*
D10*
%TO.C,R63*%
X76242751Y-112138180D02*
X77696879Y-112138180D01*
X76242751Y-113958180D02*
X77696879Y-113958180D01*
D16*
%TO.C,VD12*%
X75219815Y-104598180D02*
X80919815Y-104598180D01*
X75219815Y-108898180D02*
X80919815Y-108898180D01*
X75219815Y-108898180D02*
X75219815Y-104598180D01*
D15*
%TO.C,R61*%
X118269815Y-95398180D02*
X117069815Y-95398180D01*
X118269815Y-95398180D02*
X118269815Y-92698180D01*
X117069815Y-95348180D02*
X117069815Y-92698180D01*
X118269815Y-92698180D02*
X117069815Y-92698180D01*
%TO.C,R59*%
X121269815Y-102048180D02*
X121269815Y-103248180D01*
X123969815Y-102048180D02*
X123969815Y-103248180D01*
X123919815Y-103248180D02*
X121269815Y-103248180D01*
X123969815Y-102048180D02*
X121269815Y-102048180D01*
%TO.C,R8*%
X104469815Y-95548180D02*
X101769815Y-95548180D01*
X101769815Y-95548180D02*
X101769815Y-96748180D01*
X104469815Y-95548180D02*
X104469815Y-96748180D01*
X104419815Y-96748180D02*
X101769815Y-96748180D01*
D16*
%TO.C,C1*%
X98569815Y-95848180D02*
X98569815Y-95598180D01*
X101269815Y-95848180D02*
X101269815Y-96098180D01*
X98919815Y-95248180D02*
X99919815Y-95248180D01*
X100919815Y-95248180D02*
X99919815Y-95248180D01*
X98919815Y-96448180D02*
X99919815Y-96448180D01*
X101269815Y-95848180D02*
X101269815Y-95598180D01*
X100919815Y-96448180D02*
X99919815Y-96448180D01*
X98569815Y-95848180D02*
X98569815Y-96098180D01*
X98569815Y-96098180D02*
G75*
G03*
X98919815Y-96448180I350001J1D01*
G01*
X101269815Y-95598180D02*
G75*
G03*
X100919815Y-95248180I-350000J0D01*
G01*
X100919815Y-96448180D02*
G75*
G03*
X101269815Y-96098180I0J350000D01*
G01*
X98919815Y-95248180D02*
G75*
G03*
X98569815Y-95598180I1J-350001D01*
G01*
D11*
%TO.C,C32*%
X76373368Y-93948180D02*
X80369815Y-93948180D01*
X75873368Y-94448180D02*
X75873368Y-95501733D01*
X80819815Y-94448180D02*
X80819815Y-95448180D01*
X76373368Y-95948180D02*
X80369815Y-95948180D01*
X80319815Y-95948180D02*
G75*
G03*
X80819815Y-95448180I0J500000D01*
G01*
X76373368Y-93948180D02*
G75*
G03*
X75873368Y-94448180I1J-500001D01*
G01*
X80819815Y-94448180D02*
G75*
G03*
X80319815Y-93948180I-500000J0D01*
G01*
X75873368Y-95448180D02*
G75*
G03*
X76373368Y-95948180I500001J1D01*
G01*
%TO.C,VD6*%
X119539815Y-109308180D02*
X119539815Y-107148180D01*
X119539815Y-109308180D02*
X120469815Y-109308180D01*
X122699815Y-109308180D02*
X122699815Y-107848180D01*
X122699815Y-109308180D02*
X121769815Y-109308180D01*
D15*
%TO.C,R41*%
X96169815Y-109098180D02*
X96169815Y-110298180D01*
X96169815Y-109098180D02*
X93469815Y-109098180D01*
X93469815Y-109098180D02*
X93469815Y-110298180D01*
X96119815Y-110298180D02*
X93469815Y-110298180D01*
%TO.C,R68*%
X86469815Y-113348180D02*
X86469815Y-112148180D01*
X83769815Y-113348180D02*
X86469815Y-113348180D01*
X83769815Y-113348180D02*
X83769815Y-112148180D01*
X83819815Y-112148180D02*
X86469815Y-112148180D01*
%TO.C,R39*%
X97769815Y-118648180D02*
X97769815Y-119848180D01*
X100419815Y-119848180D02*
X97769815Y-119848180D01*
X100469815Y-118648180D02*
X97769815Y-118648180D01*
X100469815Y-118648180D02*
X100469815Y-119848180D01*
%TO.C,R5*%
X108969815Y-97671407D02*
X106269815Y-97671407D01*
X108969815Y-97671407D02*
X108969815Y-98871407D01*
X108919815Y-98871407D02*
X106269815Y-98871407D01*
X106269815Y-97671407D02*
X106269815Y-98871407D01*
D16*
%TO.C,C30*%
X74019815Y-95298180D02*
X74269815Y-95298180D01*
X74619815Y-92948180D02*
X74619815Y-93948180D01*
X73419815Y-94948180D02*
X73419815Y-93948180D01*
X74019815Y-95298180D02*
X73769815Y-95298180D01*
X74619815Y-94948180D02*
X74619815Y-93948180D01*
X74019815Y-92598180D02*
X74269815Y-92598180D01*
X73419815Y-92948180D02*
X73419815Y-93948180D01*
X74019815Y-92598180D02*
X73769815Y-92598180D01*
X73419815Y-94948180D02*
G75*
G03*
X73769815Y-95298180I350001J1D01*
G01*
X74619815Y-92948180D02*
G75*
G03*
X74269815Y-92598180I-350000J0D01*
G01*
X74269815Y-95298180D02*
G75*
G03*
X74619815Y-94948180I-1J350001D01*
G01*
X73769815Y-92598180D02*
G75*
G03*
X73419815Y-92948180I0J-350000D01*
G01*
D15*
%TO.C,R58*%
X91669815Y-97248180D02*
X91669815Y-96048180D01*
X88969815Y-97248180D02*
X88969815Y-96048180D01*
X88969815Y-97248180D02*
X91669815Y-97248180D01*
X89019815Y-96048180D02*
X91669815Y-96048180D01*
%TO.C,R2*%
X114519815Y-90748180D02*
X111869815Y-90748180D01*
X114569815Y-89548180D02*
X114569815Y-90748180D01*
X111869815Y-89548180D02*
X111869815Y-90748180D01*
X114569815Y-89548180D02*
X111869815Y-89548180D01*
%TO.C,R69*%
X112444815Y-118648180D02*
X112444815Y-119848180D01*
X112444815Y-118648180D02*
X109744815Y-118648180D01*
X109744815Y-118648180D02*
X109744815Y-119848180D01*
X112394815Y-119848180D02*
X109744815Y-119848180D01*
%TO.C,R54*%
X108719815Y-106748180D02*
X108719815Y-104048180D01*
X107519815Y-106698180D02*
X107519815Y-104048180D01*
X108719815Y-104048180D02*
X107519815Y-104048180D01*
X108719815Y-106748180D02*
X107519815Y-106748180D01*
D16*
%TO.C,C40*%
X113669815Y-97748180D02*
X113669815Y-97998180D01*
X114019815Y-98348180D02*
X115019815Y-98348180D01*
X116369815Y-97748180D02*
X116369815Y-97498180D01*
X114019815Y-97148180D02*
X115019815Y-97148180D01*
X116369815Y-97748180D02*
X116369815Y-97998180D01*
X116019815Y-97148180D02*
X115019815Y-97148180D01*
X113669815Y-97748180D02*
X113669815Y-97498180D01*
X116019815Y-98348180D02*
X115019815Y-98348180D01*
X114019815Y-97148180D02*
G75*
G03*
X113669815Y-97498180I0J-350000D01*
G01*
X113669815Y-97998180D02*
G75*
G03*
X114019815Y-98348180I350000J0D01*
G01*
X116019815Y-98348180D02*
G75*
G03*
X116369815Y-97998180I-1J350001D01*
G01*
X116369815Y-97498180D02*
G75*
G03*
X116019815Y-97148180I-350001J-1D01*
G01*
%TO.C,C7*%
X116569815Y-102648180D02*
X116569815Y-102898180D01*
X116919815Y-103248180D02*
X117919815Y-103248180D01*
X118919815Y-103248180D02*
X117919815Y-103248180D01*
X119269815Y-102648180D02*
X119269815Y-102898180D01*
X119269815Y-102648180D02*
X119269815Y-102398180D01*
X116569815Y-102648180D02*
X116569815Y-102398180D01*
X118919815Y-102048180D02*
X117919815Y-102048180D01*
X116919815Y-102048180D02*
X117919815Y-102048180D01*
X119269815Y-102398180D02*
G75*
G03*
X118919815Y-102048180I-350001J-1D01*
G01*
X116919815Y-102048180D02*
G75*
G03*
X116569815Y-102398180I0J-350000D01*
G01*
X116569815Y-102898180D02*
G75*
G03*
X116919815Y-103248180I350000J0D01*
G01*
X118919815Y-103248180D02*
G75*
G03*
X119269815Y-102898180I-1J350001D01*
G01*
D15*
%TO.C,R33*%
X124319815Y-107198180D02*
X123119815Y-107198180D01*
X124319815Y-109898180D02*
X123119815Y-109898180D01*
X123119815Y-109848180D02*
X123119815Y-107198180D01*
X124319815Y-109898180D02*
X124319815Y-107198180D01*
%TO.C,R14*%
X91569815Y-118648180D02*
X88869815Y-118648180D01*
X91519815Y-119848180D02*
X88869815Y-119848180D01*
X88869815Y-118648180D02*
X88869815Y-119848180D01*
X91569815Y-118648180D02*
X91569815Y-119848180D01*
%TO.C,R62*%
X85869815Y-119748180D02*
X88569815Y-119748180D01*
X85869815Y-119748180D02*
X85869815Y-118548180D01*
X85919815Y-118548180D02*
X88569815Y-118548180D01*
X88569815Y-119748180D02*
X88569815Y-118548180D01*
D11*
%TO.C,VD7*%
X89439815Y-84888180D02*
X89439815Y-86348180D01*
X92599815Y-84888180D02*
X91669815Y-84888180D01*
X89439815Y-84888180D02*
X90369815Y-84888180D01*
X92599815Y-84888180D02*
X92599815Y-87048180D01*
%TO.C,VD4*%
X103199815Y-107808180D02*
X102269815Y-107808180D01*
X100039815Y-107808180D02*
X100969815Y-107808180D01*
X103199815Y-107808180D02*
X103199815Y-106348180D01*
X100039815Y-107808180D02*
X100039815Y-105648180D01*
D15*
%TO.C,R38*%
X103469815Y-118648180D02*
X103469815Y-119848180D01*
X103419815Y-119848180D02*
X100769815Y-119848180D01*
X103469815Y-118648180D02*
X100769815Y-118648180D01*
X100769815Y-118648180D02*
X100769815Y-119848180D01*
%TO.C,R52*%
X120969815Y-81898180D02*
X120969815Y-83098180D01*
X118269815Y-81898180D02*
X118269815Y-83098180D01*
X120969815Y-81898180D02*
X118269815Y-81898180D01*
X120919815Y-83098180D02*
X118269815Y-83098180D01*
%TO.C,R70*%
X109469815Y-118648180D02*
X106769815Y-118648180D01*
X109469815Y-118648180D02*
X109469815Y-119848180D01*
X106769815Y-118648180D02*
X106769815Y-119848180D01*
X109419815Y-119848180D02*
X106769815Y-119848180D01*
%TO.C,R46*%
X116669815Y-115548180D02*
X116669815Y-114348180D01*
X114019815Y-114348180D02*
X116669815Y-114348180D01*
X113969815Y-115548180D02*
X113969815Y-114348180D01*
X113969815Y-115548180D02*
X116669815Y-115548180D01*
%TO.C,R48*%
X90419815Y-83298180D02*
X89219815Y-83298180D01*
X90419815Y-80598180D02*
X89219815Y-80598180D01*
X89219815Y-83248180D02*
X89219815Y-80598180D01*
X90419815Y-83298180D02*
X90419815Y-80598180D01*
D16*
%TO.C,C29*%
X88219815Y-98798180D02*
X87219815Y-98798180D01*
X88569815Y-98198180D02*
X88569815Y-97948180D01*
X85869815Y-98198180D02*
X85869815Y-97948180D01*
X85869815Y-98198180D02*
X85869815Y-98448180D01*
X88219815Y-97598180D02*
X87219815Y-97598180D01*
X86219815Y-97598180D02*
X87219815Y-97598180D01*
X86219815Y-98798180D02*
X87219815Y-98798180D01*
X88569815Y-98198180D02*
X88569815Y-98448180D01*
X85869815Y-98448180D02*
G75*
G03*
X86219815Y-98798180I350001J1D01*
G01*
X86219815Y-97598180D02*
G75*
G03*
X85869815Y-97948180I1J-350001D01*
G01*
X88569815Y-97948180D02*
G75*
G03*
X88219815Y-97598180I-350000J0D01*
G01*
X88219815Y-98798180D02*
G75*
G03*
X88569815Y-98448180I0J350000D01*
G01*
D15*
%TO.C,R12*%
X85919815Y-83298180D02*
X85919815Y-80598180D01*
X84719815Y-83248180D02*
X84719815Y-80598180D01*
X85919815Y-80598180D02*
X84719815Y-80598180D01*
X85919815Y-83298180D02*
X84719815Y-83298180D01*
D16*
%TO.C,C12*%
X96169815Y-106348180D02*
X96169815Y-107348180D01*
X94969815Y-106348180D02*
X94969815Y-107348180D01*
X95569815Y-108698180D02*
X95819815Y-108698180D01*
X96169815Y-108348180D02*
X96169815Y-107348180D01*
X95569815Y-105998180D02*
X95319815Y-105998180D01*
X95569815Y-105998180D02*
X95819815Y-105998180D01*
X94969815Y-108348180D02*
X94969815Y-107348180D01*
X95569815Y-108698180D02*
X95319815Y-108698180D01*
X96169815Y-106348180D02*
G75*
G03*
X95819815Y-105998180I-350000J0D01*
G01*
X94969815Y-108348180D02*
G75*
G03*
X95319815Y-108698180I350001J1D01*
G01*
X95819815Y-108698180D02*
G75*
G03*
X96169815Y-108348180I-1J350001D01*
G01*
X95319815Y-105998180D02*
G75*
G03*
X94969815Y-106348180I0J-350000D01*
G01*
D15*
%TO.C,R40*%
X97419815Y-112698180D02*
X97419815Y-115398180D01*
X97419815Y-115398180D02*
X98619815Y-115398180D01*
X98619815Y-112748180D02*
X98619815Y-115398180D01*
X97419815Y-112698180D02*
X98619815Y-112698180D01*
%TO.C,R44*%
X121469815Y-118648180D02*
X118769815Y-118648180D01*
X121469815Y-118648180D02*
X121469815Y-119848180D01*
X121419815Y-119848180D02*
X118769815Y-119848180D01*
X118769815Y-118648180D02*
X118769815Y-119848180D01*
D11*
%TO.C,VD2*%
X89939815Y-115108180D02*
X89939815Y-112948180D01*
X93099815Y-115108180D02*
X92169815Y-115108180D01*
X89939815Y-115108180D02*
X90869815Y-115108180D01*
X93099815Y-115108180D02*
X93099815Y-113648180D01*
D16*
%TO.C,C41*%
X86419815Y-90848180D02*
X87419815Y-90848180D01*
X86419815Y-92048180D02*
X87419815Y-92048180D01*
X88419815Y-90848180D02*
X87419815Y-90848180D01*
X86069815Y-91448180D02*
X86069815Y-91198180D01*
X88419815Y-92048180D02*
X87419815Y-92048180D01*
X86069815Y-91448180D02*
X86069815Y-91698180D01*
X88769815Y-91448180D02*
X88769815Y-91198180D01*
X88769815Y-91448180D02*
X88769815Y-91698180D01*
X86069815Y-91698180D02*
G75*
G03*
X86419815Y-92048180I350001J1D01*
G01*
X86419815Y-90848180D02*
G75*
G03*
X86069815Y-91198180I1J-350001D01*
G01*
X88419815Y-92048180D02*
G75*
G03*
X88769815Y-91698180I0J350000D01*
G01*
X88769815Y-91198180D02*
G75*
G03*
X88419815Y-90848180I-350000J0D01*
G01*
D15*
%TO.C,R65*%
X98569815Y-103148180D02*
X98569815Y-104348180D01*
X101219815Y-104348180D02*
X98569815Y-104348180D01*
X101269815Y-103148180D02*
X98569815Y-103148180D01*
X101269815Y-103148180D02*
X101269815Y-104348180D01*
D10*
%TO.C,XT9*%
X123799815Y-79565000D02*
X123799815Y-79235000D01*
X117959815Y-70575000D02*
X117959815Y-76575000D01*
X123799815Y-76575000D02*
X123799815Y-70575000D01*
X120499815Y-70575000D02*
X120499815Y-76575000D01*
X111099815Y-76575000D02*
X111099815Y-70575000D01*
X118719815Y-70575000D02*
X117959815Y-70575000D01*
X117959815Y-79632071D02*
X117959815Y-79235000D01*
X111099815Y-70575000D02*
X110339815Y-70575000D01*
X113639815Y-76575000D02*
X113639815Y-70575000D01*
X124689815Y-81945000D02*
X124689815Y-80675000D01*
X116179815Y-79632071D02*
X116179815Y-79235000D01*
X120499815Y-79632071D02*
X120499815Y-79235000D01*
X110339815Y-79632071D02*
X110339815Y-79235000D01*
X123259815Y-76575000D02*
X123259815Y-70575000D01*
X123739815Y-76575000D02*
X123739815Y-70575000D01*
X116179815Y-70575000D02*
X115419815Y-70575000D01*
X115419815Y-70575000D02*
X115419815Y-76575000D01*
X111989815Y-79235000D02*
X111989815Y-76575000D01*
X123419815Y-81945000D02*
X124689815Y-81945000D01*
X123799815Y-70575000D02*
X123039815Y-70575000D01*
X123039815Y-70575000D02*
X123039815Y-76575000D01*
X123379815Y-76575000D02*
X123379815Y-70575000D01*
X121259815Y-79632071D02*
X121259815Y-79235000D01*
X123619815Y-76575000D02*
X123619815Y-70575000D01*
X117069815Y-79235000D02*
X117069815Y-76575000D01*
X109389815Y-76575000D02*
X124749815Y-76575000D01*
X116179815Y-76575000D02*
X116179815Y-70575000D01*
X121259815Y-76575000D02*
X121259815Y-70575000D01*
X112879815Y-79632071D02*
X112879815Y-79235000D01*
X122149815Y-79235000D02*
X122149815Y-76575000D01*
X123499815Y-76575000D02*
X123499815Y-70575000D01*
X112879815Y-70575000D02*
X112879815Y-76575000D01*
X118719815Y-79632071D02*
X118719815Y-79235000D01*
X118719815Y-76575000D02*
X118719815Y-70575000D01*
X110339815Y-70575000D02*
X110339815Y-76575000D01*
X124749815Y-79235000D02*
X109389815Y-79235000D01*
X124749815Y-76575000D02*
X124749815Y-79235000D01*
X111099815Y-79632071D02*
X111099815Y-79235000D01*
X123039815Y-79565000D02*
X123039815Y-79235000D01*
X119609815Y-79235000D02*
X119609815Y-76575000D01*
X123139815Y-76575000D02*
X123139815Y-70575000D01*
X109389815Y-79235000D02*
X109389815Y-76575000D01*
X114529815Y-79235000D02*
X114529815Y-76575000D01*
X115419815Y-79632071D02*
X115419815Y-79235000D01*
X113639815Y-70575000D02*
X112879815Y-70575000D01*
X121259815Y-70575000D02*
X120499815Y-70575000D01*
X113639815Y-79632071D02*
X113639815Y-79235000D01*
D15*
%TO.C,R3*%
X123969815Y-104798180D02*
X123969815Y-103598180D01*
X121269815Y-104798180D02*
X121269815Y-103598180D01*
X121319815Y-103598180D02*
X123969815Y-103598180D01*
X121269815Y-104798180D02*
X123969815Y-104798180D01*
%TO.C,R66*%
X89494815Y-112148180D02*
X86794815Y-112148180D01*
X89444815Y-113348180D02*
X86794815Y-113348180D01*
X86794815Y-112148180D02*
X86794815Y-113348180D01*
X89494815Y-112148180D02*
X89494815Y-113348180D01*
%TO.C,R67*%
X80819815Y-112148180D02*
X83469815Y-112148180D01*
X80769815Y-113348180D02*
X80769815Y-112148180D01*
X83469815Y-113348180D02*
X83469815Y-112148180D01*
X80769815Y-113348180D02*
X83469815Y-113348180D01*
D16*
%TO.C,C43*%
X104219815Y-102698180D02*
X103969815Y-102698180D01*
X104219815Y-102698180D02*
X104469815Y-102698180D01*
X104819815Y-103048180D02*
X104819815Y-104048180D01*
X104819815Y-105048180D02*
X104819815Y-104048180D01*
X103619815Y-103048180D02*
X103619815Y-104048180D01*
X103619815Y-105048180D02*
X103619815Y-104048180D01*
X104219815Y-105398180D02*
X104469815Y-105398180D01*
X104219815Y-105398180D02*
X103969815Y-105398180D01*
X103619815Y-105048180D02*
G75*
G03*
X103969815Y-105398180I350000J0D01*
G01*
X103969815Y-102698180D02*
G75*
G03*
X103619815Y-103048180I1J-350001D01*
G01*
X104819815Y-103048180D02*
G75*
G03*
X104469815Y-102698180I-350001J-1D01*
G01*
X104469815Y-105398180D02*
G75*
G03*
X104819815Y-105048180I0J350000D01*
G01*
D10*
%TO.C,VT1*%
X84364815Y-119518180D02*
X78474815Y-119518180D01*
X84819815Y-114378180D02*
X78474815Y-114378180D01*
D15*
%TO.C,R51*%
X115169815Y-83148180D02*
X115169815Y-81948180D01*
X115219815Y-81948180D02*
X117869815Y-81948180D01*
X117869815Y-83148180D02*
X117869815Y-81948180D01*
X115169815Y-83148180D02*
X117869815Y-83148180D01*
D10*
%TO.C,BQ3*%
X114350000Y-108600000D02*
X114350000Y-112200000D01*
X108600000Y-108600000D02*
X114350000Y-108600000D01*
X114350000Y-112200000D02*
X108600000Y-112200000D01*
%TO.C,XB3*%
X106319815Y-87548180D02*
G75*
G03*
X106319815Y-87548180I-700000J0D01*
G01*
D15*
%TO.C,R45*%
X118419815Y-119848180D02*
X115769815Y-119848180D01*
X115769815Y-118648180D02*
X115769815Y-119848180D01*
X118469815Y-118648180D02*
X118469815Y-119848180D01*
X118469815Y-118648180D02*
X115769815Y-118648180D01*
%TO.C,R9*%
X92319815Y-96598180D02*
X95019815Y-96598180D01*
X92369815Y-95398180D02*
X95019815Y-95398180D01*
X95019815Y-96598180D02*
X95019815Y-95398180D01*
X92319815Y-96598180D02*
X92319815Y-95398180D01*
D11*
%TO.C,C31*%
X76373368Y-90848180D02*
X80369815Y-90848180D01*
X80819815Y-91348180D02*
X80819815Y-92348180D01*
X76373368Y-92848180D02*
X80369815Y-92848180D01*
X75873368Y-91348180D02*
X75873368Y-92401733D01*
X80319815Y-92848180D02*
G75*
G03*
X80819815Y-92348180I0J500000D01*
G01*
X75873368Y-92348180D02*
G75*
G03*
X76373368Y-92848180I500001J1D01*
G01*
X80819815Y-91348180D02*
G75*
G03*
X80319815Y-90848180I-500000J0D01*
G01*
X76373368Y-90848180D02*
G75*
G03*
X75873368Y-91348180I1J-500001D01*
G01*
D15*
%TO.C,R13*%
X94569815Y-118648180D02*
X94569815Y-119848180D01*
X94519815Y-119848180D02*
X91869815Y-119848180D01*
X94569815Y-118648180D02*
X91869815Y-118648180D01*
X91869815Y-118648180D02*
X91869815Y-119848180D01*
%TO.C,R27*%
X81419815Y-83248180D02*
X81419815Y-80598180D01*
X82619815Y-80598180D02*
X81419815Y-80598180D01*
X82619815Y-83298180D02*
X81419815Y-83298180D01*
X82619815Y-83298180D02*
X82619815Y-80598180D01*
%TO.C,R21*%
X92624888Y-80598180D02*
X91424888Y-80598180D01*
X91424888Y-83248180D02*
X91424888Y-80598180D01*
X92624888Y-83298180D02*
X91424888Y-83298180D01*
X92624888Y-83298180D02*
X92624888Y-80598180D01*
D10*
%TO.C,DA3*%
X86219815Y-104308180D02*
X82769815Y-104308180D01*
X86219815Y-99188180D02*
X84269815Y-99188180D01*
X86219815Y-104308180D02*
X88169815Y-104308180D01*
X86219815Y-99188180D02*
X88169815Y-99188180D01*
D15*
%TO.C,R53*%
X121369815Y-83048180D02*
X121369815Y-81848180D01*
X121369815Y-83048180D02*
X124069815Y-83048180D01*
X124069815Y-83048180D02*
X124069815Y-81848180D01*
X121419815Y-81848180D02*
X124069815Y-81848180D01*
%TO.C,R47*%
X88154839Y-83298180D02*
X86954839Y-83298180D01*
X88154839Y-83298180D02*
X88154839Y-80598180D01*
X86954839Y-83248180D02*
X86954839Y-80598180D01*
X88154839Y-80598180D02*
X86954839Y-80598180D01*
%TO.C,R42*%
X93119815Y-109098180D02*
X93119815Y-110298180D01*
X90419815Y-109098180D02*
X90419815Y-110298180D01*
X93119815Y-109098180D02*
X90419815Y-109098180D01*
X93069815Y-110298180D02*
X90419815Y-110298180D01*
D11*
%TO.C,VD8*%
X99039815Y-115108180D02*
X99969815Y-115108180D01*
X99039815Y-115108180D02*
X99039815Y-112948180D01*
X102199815Y-115108180D02*
X102199815Y-113648180D01*
X102199815Y-115108180D02*
X101269815Y-115108180D01*
%TO.C,VD3*%
X88099815Y-84888180D02*
X87169815Y-84888180D01*
X84939815Y-84888180D02*
X84939815Y-86348180D01*
X88099815Y-84888180D02*
X88099815Y-87048180D01*
X84939815Y-84888180D02*
X85869815Y-84888180D01*
D15*
%TO.C,R26*%
X111319815Y-107148180D02*
X108619815Y-107148180D01*
X108619815Y-107148180D02*
X108619815Y-108348180D01*
X111319815Y-107148180D02*
X111319815Y-108348180D01*
X111269815Y-108348180D02*
X108619815Y-108348180D01*
D16*
%TO.C,C13*%
X120619815Y-113348180D02*
X120619815Y-114348180D01*
X121219815Y-115698180D02*
X121469815Y-115698180D01*
X121219815Y-115698180D02*
X120969815Y-115698180D01*
X121219815Y-112998180D02*
X120969815Y-112998180D01*
X121219815Y-112998180D02*
X121469815Y-112998180D01*
X120619815Y-115348180D02*
X120619815Y-114348180D01*
X121819815Y-113348180D02*
X121819815Y-114348180D01*
X121819815Y-115348180D02*
X121819815Y-114348180D01*
X120969815Y-112998180D02*
G75*
G03*
X120619815Y-113348180I0J-350000D01*
G01*
X120619815Y-115348180D02*
G75*
G03*
X120969815Y-115698180I350001J1D01*
G01*
X121469815Y-115698180D02*
G75*
G03*
X121819815Y-115348180I-1J350001D01*
G01*
X121819815Y-113348180D02*
G75*
G03*
X121469815Y-112998180I-350000J0D01*
G01*
D11*
%TO.C,VD15*%
X110199815Y-115008180D02*
X110199815Y-113548180D01*
X107039815Y-115008180D02*
X107039815Y-112848180D01*
X107039815Y-115008180D02*
X107969815Y-115008180D01*
X110199815Y-115008180D02*
X109269815Y-115008180D01*
%TO.C,DA5*%
X86459815Y-95628180D02*
X87919815Y-95628180D01*
X86459815Y-95628180D02*
X86459815Y-94698180D01*
X86459815Y-92468180D02*
X88619815Y-92468180D01*
X86459815Y-92468180D02*
X86459815Y-93398180D01*
D10*
%TO.C,VD13*%
X85919815Y-118298180D02*
X85919815Y-114398180D01*
X87919815Y-118298180D02*
X87919815Y-114398180D01*
X87919815Y-118298180D02*
X85919815Y-118298180D01*
D15*
%TO.C,R7*%
X108969815Y-99248180D02*
X106269815Y-99248180D01*
X106269815Y-99248180D02*
X106269815Y-100448180D01*
X108919815Y-100448180D02*
X106269815Y-100448180D01*
X108969815Y-99248180D02*
X108969815Y-100448180D01*
%TO.C,R35*%
X110619815Y-106548180D02*
X110619815Y-105348180D01*
X110669815Y-105348180D02*
X113319815Y-105348180D01*
X110619815Y-106548180D02*
X113319815Y-106548180D01*
X113319815Y-106548180D02*
X113319815Y-105348180D01*
%TO.C,R49*%
X104569815Y-92498180D02*
X101869815Y-92498180D01*
X101869815Y-92498180D02*
X101869815Y-93698180D01*
X104519815Y-93698180D02*
X101869815Y-93698180D01*
X104569815Y-92498180D02*
X104569815Y-93698180D01*
%TO.C,R19*%
X119819815Y-96398180D02*
X119819815Y-99098180D01*
X119819815Y-96398180D02*
X121019815Y-96398180D01*
X121019815Y-96448180D02*
X121019815Y-99098180D01*
X119819815Y-99098180D02*
X121019815Y-99098180D01*
%TO.C,R11*%
X97919815Y-95576407D02*
X97919815Y-98226407D01*
X96719815Y-95526407D02*
X96719815Y-98226407D01*
X96719815Y-95526407D02*
X97919815Y-95526407D01*
X96719815Y-98226407D02*
X97919815Y-98226407D01*
D11*
%TO.C,VD14*%
X96539815Y-106288180D02*
X97469815Y-106288180D01*
X96539815Y-106288180D02*
X96539815Y-107748180D01*
X99699815Y-106288180D02*
X99699815Y-108448180D01*
X99699815Y-106288180D02*
X98769815Y-106288180D01*
D15*
%TO.C,R36*%
X89419815Y-90298180D02*
X90619815Y-90298180D01*
X89419815Y-87598180D02*
X89419815Y-90298180D01*
X89419815Y-87598180D02*
X90619815Y-87598180D01*
X90619815Y-87648180D02*
X90619815Y-90298180D01*
D10*
%TO.C,DD2*%
X102119815Y-97188180D02*
X105569815Y-97188180D01*
X102119815Y-102308180D02*
X100169815Y-102308180D01*
X102119815Y-102308180D02*
X104069815Y-102308180D01*
X102119815Y-97188180D02*
X100169815Y-97188180D01*
D15*
%TO.C,R55*%
X85119815Y-106848180D02*
X87769815Y-106848180D01*
X85069815Y-108048180D02*
X87769815Y-108048180D01*
X87769815Y-108048180D02*
X87769815Y-106848180D01*
X85069815Y-108048180D02*
X85069815Y-106848180D01*
%TO.C,R25*%
X102169815Y-109048180D02*
X99469815Y-109048180D01*
X102169815Y-109048180D02*
X102169815Y-110248180D01*
X102119815Y-110248180D02*
X99469815Y-110248180D01*
X99469815Y-109048180D02*
X99469815Y-110248180D01*
%TO.C,R56*%
X88069815Y-108048180D02*
X90769815Y-108048180D01*
X88069815Y-108048180D02*
X88069815Y-106848180D01*
X88119815Y-106848180D02*
X90769815Y-106848180D01*
X90769815Y-108048180D02*
X90769815Y-106848180D01*
D16*
%TO.C,C11*%
X102619815Y-113348180D02*
X102619815Y-114348180D01*
X103219815Y-115698180D02*
X102969815Y-115698180D01*
X103819815Y-113348180D02*
X103819815Y-114348180D01*
X103819815Y-115348180D02*
X103819815Y-114348180D01*
X103219815Y-112998180D02*
X103469815Y-112998180D01*
X103219815Y-112998180D02*
X102969815Y-112998180D01*
X103219815Y-115698180D02*
X103469815Y-115698180D01*
X102619815Y-115348180D02*
X102619815Y-114348180D01*
X102619815Y-115348180D02*
G75*
G03*
X102969815Y-115698180I350001J1D01*
G01*
X103469815Y-115698180D02*
G75*
G03*
X103819815Y-115348180I-1J350001D01*
G01*
X103819815Y-113348180D02*
G75*
G03*
X103469815Y-112998180I-350000J0D01*
G01*
X102969815Y-112998180D02*
G75*
G03*
X102619815Y-113348180I0J-350000D01*
G01*
%TO.C,C16*%
X111919815Y-86448180D02*
X111919815Y-87448180D01*
X112519815Y-88798180D02*
X112269815Y-88798180D01*
X113119815Y-86448180D02*
X113119815Y-87448180D01*
X112519815Y-86098180D02*
X112769815Y-86098180D01*
X113119815Y-88448180D02*
X113119815Y-87448180D01*
X111919815Y-88448180D02*
X111919815Y-87448180D01*
X112519815Y-86098180D02*
X112269815Y-86098180D01*
X112519815Y-88798180D02*
X112769815Y-88798180D01*
X111919815Y-88448180D02*
G75*
G03*
X112269815Y-88798180I350000J0D01*
G01*
X112269815Y-86098180D02*
G75*
G03*
X111919815Y-86448180I1J-350001D01*
G01*
X112769815Y-88798180D02*
G75*
G03*
X113119815Y-88448180I0J350000D01*
G01*
X113119815Y-86448180D02*
G75*
G03*
X112769815Y-86098180I-350001J-1D01*
G01*
D15*
%TO.C,R10*%
X97897246Y-98626407D02*
X97897246Y-101276407D01*
X96697246Y-101276407D02*
X97897246Y-101276407D01*
X96697246Y-98576407D02*
X97897246Y-98576407D01*
X96697246Y-98576407D02*
X96697246Y-101276407D01*
D16*
%TO.C,VD11*%
X82169815Y-103732700D02*
X82169815Y-98332700D01*
X78869815Y-103732700D02*
X78869815Y-98332700D01*
X82169815Y-103732700D02*
X78869815Y-103732700D01*
D15*
%TO.C,R23*%
X88119815Y-90298180D02*
X86919815Y-90298180D01*
X88119815Y-90298180D02*
X88119815Y-87598180D01*
X88119815Y-87598180D02*
X86919815Y-87598180D01*
X86919815Y-90248180D02*
X86919815Y-87598180D01*
%TO.C,R20*%
X122519815Y-96398180D02*
X121319815Y-96398180D01*
X122519815Y-99098180D02*
X122519815Y-96398180D01*
X122519815Y-99098180D02*
X121319815Y-99098180D01*
X121319815Y-99048180D02*
X121319815Y-96398180D01*
D10*
%TO.C,DD5*%
X112919815Y-91688180D02*
X110969815Y-91688180D01*
X112919815Y-96808180D02*
X109469815Y-96808180D01*
X112919815Y-96808180D02*
X114869815Y-96808180D01*
X112919815Y-91688180D02*
X114869815Y-91688180D01*
D15*
%TO.C,R22*%
X84919815Y-87598180D02*
X84919815Y-90298180D01*
X86119815Y-87648180D02*
X86119815Y-90298180D01*
X84919815Y-90298180D02*
X86119815Y-90298180D01*
X84919815Y-87598180D02*
X86119815Y-87598180D01*
D16*
%TO.C,C44*%
X111819815Y-113448180D02*
X111819815Y-114448180D01*
X110619815Y-115448180D02*
X110619815Y-114448180D01*
X110619815Y-113448180D02*
X110619815Y-114448180D01*
X111219815Y-115798180D02*
X111469815Y-115798180D01*
X111219815Y-115798180D02*
X110969815Y-115798180D01*
X111219815Y-113098180D02*
X111469815Y-113098180D01*
X111819815Y-115448180D02*
X111819815Y-114448180D01*
X111219815Y-113098180D02*
X110969815Y-113098180D01*
X110969815Y-113098180D02*
G75*
G03*
X110619815Y-113448180I1J-350001D01*
G01*
X111819815Y-113448180D02*
G75*
G03*
X111469815Y-113098180I-350001J-1D01*
G01*
X111469815Y-115798180D02*
G75*
G03*
X111819815Y-115448180I0J350000D01*
G01*
X110619815Y-115448180D02*
G75*
G03*
X110969815Y-115798180I350000J0D01*
G01*
%TD*%
M02*
