%TF.GenerationSoftware,KiCad,Pcbnew,(6.0.7)*%
%TF.CreationDate,2022-10-06T21:18:37+03:00*%
%TF.ProjectId,RadioSens,52616469-6f53-4656-9e73-2e6b69636164,rev?*%
%TF.SameCoordinates,Original*%
%TF.FileFunction,Legend,Top*%
%TF.FilePolarity,Positive*%
%FSLAX46Y46*%
G04 Gerber Fmt 4.6, Leading zero omitted, Abs format (unit mm)*
G04 Created by KiCad (PCBNEW (6.0.7)) date 2022-10-06 21:18:37*
%MOMM*%
%LPD*%
G01*
G04 APERTURE LIST*
%ADD10C,0.120000*%
%ADD11C,0.200000*%
%ADD12C,0.175000*%
%ADD13C,0.230000*%
%ADD14C,0.125000*%
%ADD15C,0.100000*%
%ADD16C,0.150000*%
%ADD17C,0.152000*%
%ADD18C,0.153000*%
%ADD19C,0.254000*%
G04 APERTURE END LIST*
D10*
X86119815Y-116448180D02*
X86719815Y-115848180D01*
X75269815Y-92998180D02*
X75269815Y-91998180D01*
X79219815Y-80348180D02*
X79519815Y-80048180D01*
X115169815Y-98548180D02*
X115369815Y-98348180D01*
X84519815Y-115248180D02*
X84219815Y-114948180D01*
X94219815Y-106648180D02*
X88669815Y-106648180D01*
X121769815Y-92848180D02*
X121769815Y-90598180D01*
X81219815Y-79848180D02*
X81219815Y-79248180D01*
X92569815Y-104948180D02*
X92569815Y-106648180D01*
X84819815Y-116448180D02*
X85519815Y-116448180D01*
X100969815Y-90548180D02*
X101219815Y-91098180D01*
X121069815Y-103448180D02*
X120869815Y-103648180D01*
X70519815Y-96798180D02*
X70269815Y-96498180D01*
X114444079Y-97748180D02*
G75*
G03*
X114444079Y-97748180I-424264J0D01*
G01*
X70944079Y-101848180D02*
G75*
G03*
X70944079Y-101848180I-424264J0D01*
G01*
X120869815Y-103648180D02*
X118669815Y-103648180D01*
X83919815Y-115248180D02*
X84219815Y-114948180D01*
X84219815Y-115848180D02*
X84819815Y-116448180D01*
X94219815Y-104948180D02*
X94219815Y-106648180D01*
X84219815Y-114948180D02*
X84519815Y-115248180D01*
X100994079Y-90398180D02*
G75*
G03*
X100994079Y-90398180I-424264J0D01*
G01*
X86719815Y-114948180D02*
X86419815Y-115248180D01*
X81019815Y-80048180D02*
X81219815Y-79848180D01*
D11*
X70519815Y-110048180D02*
X70519815Y-108148180D01*
D10*
X115369815Y-98348180D02*
X115519815Y-98198180D01*
X84219815Y-114948180D02*
X84219815Y-115848180D01*
X79519815Y-80048180D02*
X80819815Y-80048180D01*
D11*
X70519815Y-108148180D02*
X71919815Y-107648180D01*
D10*
X121619815Y-93148180D02*
X121769815Y-92848180D01*
X121644079Y-93348180D02*
G75*
G03*
X121644079Y-93348180I-424264J0D01*
G01*
X86719815Y-115848180D02*
X86719815Y-114948180D01*
X70619815Y-101448180D02*
X70519815Y-101198180D01*
X88669815Y-106648180D02*
X89159815Y-108638180D01*
X121844079Y-103198180D02*
G75*
G03*
X121844079Y-103198180I-424264J0D01*
G01*
X80819815Y-80048180D02*
X81019815Y-80048180D01*
X90519815Y-104948180D02*
X90519815Y-106648180D01*
X120869815Y-104398180D02*
X118669815Y-104398180D01*
X114769815Y-98548180D02*
X115169815Y-98548180D01*
X88669815Y-104948180D02*
X94219815Y-104948180D01*
X101219815Y-91098180D02*
X101219815Y-93298180D01*
X85519815Y-116448180D02*
X86119815Y-116448180D01*
X88669815Y-106648180D02*
X88669815Y-104948180D01*
X86719815Y-114948180D02*
X87019815Y-115248180D01*
X75544079Y-93672444D02*
G75*
G03*
X75544079Y-93672444I-424264J0D01*
G01*
X121169815Y-104548180D02*
X120869815Y-104398180D01*
X121844079Y-104198180D02*
G75*
G03*
X121844079Y-104198180I-424264J0D01*
G01*
X70519815Y-101198180D02*
X70519815Y-96798180D01*
X115519815Y-98198180D02*
X115519815Y-95898180D01*
X70269815Y-96498180D02*
X69669815Y-96498180D01*
X114319815Y-98098180D02*
X114769815Y-98548180D01*
X86419815Y-115248180D02*
X86719815Y-114948180D01*
X75419815Y-93348180D02*
X75269815Y-92998180D01*
D12*
X90919815Y-92355371D02*
X90986481Y-92255371D01*
X91053148Y-92222038D01*
X91186481Y-92188705D01*
X91386481Y-92188705D01*
X91519815Y-92222038D01*
X91586481Y-92255371D01*
X91653148Y-92322038D01*
X91653148Y-92588705D01*
X90253148Y-92588705D01*
X90253148Y-92355371D01*
X90319815Y-92288705D01*
X90386481Y-92255371D01*
X90519815Y-92222038D01*
X90653148Y-92222038D01*
X90786481Y-92255371D01*
X90853148Y-92288705D01*
X90919815Y-92355371D01*
X90919815Y-92588705D01*
X90253148Y-91888705D02*
X91386481Y-91888705D01*
X91519815Y-91855371D01*
X91586481Y-91822038D01*
X91653148Y-91755371D01*
X91653148Y-91622038D01*
X91586481Y-91555371D01*
X91519815Y-91522038D01*
X91386481Y-91488705D01*
X90253148Y-91488705D01*
X90253148Y-91255371D02*
X90253148Y-90855371D01*
X91653148Y-91055371D02*
X90253148Y-91055371D01*
X91653148Y-90255371D02*
X91653148Y-90655371D01*
X91653148Y-90455371D02*
X90253148Y-90455371D01*
X90453148Y-90522038D01*
X90586481Y-90588705D01*
X90653148Y-90655371D01*
D13*
X93050142Y-105300560D02*
X93325142Y-106300560D01*
X93850142Y-105300560D01*
D14*
X81576957Y-86805322D02*
X81662672Y-86833894D01*
X81691243Y-86862465D01*
X81719815Y-86919608D01*
X81719815Y-87005322D01*
X81691243Y-87062465D01*
X81662672Y-87091037D01*
X81605529Y-87119608D01*
X81376957Y-87119608D01*
X81376957Y-86519608D01*
X81576957Y-86519608D01*
X81634100Y-86548180D01*
X81662672Y-86576751D01*
X81691243Y-86633894D01*
X81691243Y-86691037D01*
X81662672Y-86748180D01*
X81634100Y-86776751D01*
X81576957Y-86805322D01*
X81376957Y-86805322D01*
X81948386Y-86948180D02*
X82234100Y-86948180D01*
X81891243Y-87119608D02*
X82091243Y-86519608D01*
X82291243Y-87119608D01*
X82405529Y-86519608D02*
X82748386Y-86519608D01*
X82576957Y-87119608D02*
X82576957Y-86519608D01*
D11*
X118372195Y-99876751D02*
X117372195Y-99876751D01*
X117372195Y-99686275D01*
X117419815Y-99571989D01*
X117515053Y-99495799D01*
X117610291Y-99457703D01*
X117800767Y-99419608D01*
X117943624Y-99419608D01*
X118134100Y-99457703D01*
X118229338Y-99495799D01*
X118324576Y-99571989D01*
X118372195Y-99686275D01*
X118372195Y-99876751D01*
X118467434Y-98543418D02*
X118419815Y-98619608D01*
X118324576Y-98695799D01*
X118181719Y-98810084D01*
X118134100Y-98886275D01*
X118134100Y-98962465D01*
X118372195Y-98924370D02*
X118324576Y-99000560D01*
X118229338Y-99076751D01*
X118038862Y-99114846D01*
X117705529Y-99114846D01*
X117515053Y-99076751D01*
X117419815Y-99000560D01*
X117372195Y-98924370D01*
X117372195Y-98771989D01*
X117419815Y-98695799D01*
X117515053Y-98619608D01*
X117705529Y-98581513D01*
X118038862Y-98581513D01*
X118229338Y-98619608D01*
X118324576Y-98695799D01*
X118372195Y-98771989D01*
X118372195Y-98924370D01*
D14*
X100869815Y-93169608D02*
X100869815Y-92883894D01*
X101041243Y-93226751D02*
X100441243Y-93026751D01*
X101041243Y-92826751D01*
X101041243Y-92283894D02*
X100755529Y-92483894D01*
X101041243Y-92626751D02*
X100441243Y-92626751D01*
X100441243Y-92398180D01*
X100469815Y-92341037D01*
X100498386Y-92312465D01*
X100555529Y-92283894D01*
X100641243Y-92283894D01*
X100698386Y-92312465D01*
X100726957Y-92341037D01*
X100755529Y-92398180D01*
X100755529Y-92626751D01*
X100726957Y-92026751D02*
X100726957Y-91826751D01*
X101041243Y-91741037D02*
X101041243Y-92026751D01*
X100441243Y-92026751D01*
X100441243Y-91741037D01*
X100726957Y-91283894D02*
X100726957Y-91483894D01*
X101041243Y-91483894D02*
X100441243Y-91483894D01*
X100441243Y-91198180D01*
D12*
X91369815Y-116002941D02*
X91469815Y-116050560D01*
X91636481Y-116050560D01*
X91703148Y-116002941D01*
X91736481Y-115955322D01*
X91769815Y-115860084D01*
X91769815Y-115764846D01*
X91736481Y-115669608D01*
X91703148Y-115621989D01*
X91636481Y-115574370D01*
X91503148Y-115526751D01*
X91436481Y-115479132D01*
X91403148Y-115431513D01*
X91369815Y-115336275D01*
X91369815Y-115241037D01*
X91403148Y-115145799D01*
X91436481Y-115098180D01*
X91503148Y-115050560D01*
X91669815Y-115050560D01*
X91769815Y-115098180D01*
D14*
X114641243Y-98091037D02*
X114641243Y-97719608D01*
X114869815Y-97919608D01*
X114869815Y-97833894D01*
X114898386Y-97776751D01*
X114926957Y-97748180D01*
X114984100Y-97719608D01*
X115126957Y-97719608D01*
X115184100Y-97748180D01*
X115212672Y-97776751D01*
X115241243Y-97833894D01*
X115241243Y-98005322D01*
X115212672Y-98062465D01*
X115184100Y-98091037D01*
X114641243Y-97548180D02*
X115241243Y-97348180D01*
X114641243Y-97148180D01*
X114926957Y-96948180D02*
X114926957Y-96748180D01*
X115241243Y-96662465D02*
X115241243Y-96948180D01*
X114641243Y-96948180D01*
X114641243Y-96662465D01*
X115241243Y-96405322D02*
X114641243Y-96405322D01*
X115241243Y-96062465D01*
X114641243Y-96062465D01*
X74491243Y-92612465D02*
X74491243Y-92898180D01*
X74776957Y-92926751D01*
X74748386Y-92898180D01*
X74719815Y-92841037D01*
X74719815Y-92698180D01*
X74748386Y-92641037D01*
X74776957Y-92612465D01*
X74834100Y-92583894D01*
X74976957Y-92583894D01*
X75034100Y-92612465D01*
X75062672Y-92641037D01*
X75091243Y-92698180D01*
X75091243Y-92841037D01*
X75062672Y-92898180D01*
X75034100Y-92926751D01*
X74491243Y-92412465D02*
X75091243Y-92212465D01*
X74491243Y-92012465D01*
D12*
X93336481Y-115050560D02*
X93569815Y-116050560D01*
X93803148Y-115050560D01*
X116753148Y-115048180D02*
X116686481Y-115000560D01*
X116586481Y-115000560D01*
X116486481Y-115048180D01*
X116419815Y-115143418D01*
X116386481Y-115238656D01*
X116353148Y-115429132D01*
X116353148Y-115571989D01*
X116386481Y-115762465D01*
X116419815Y-115857703D01*
X116486481Y-115952941D01*
X116586481Y-116000560D01*
X116653148Y-116000560D01*
X116753148Y-115952941D01*
X116786481Y-115905322D01*
X116786481Y-115571989D01*
X116653148Y-115571989D01*
D14*
X85972195Y-115845799D02*
X85496005Y-116012465D01*
X85972195Y-116131513D02*
X84972195Y-116131513D01*
X84972195Y-115941037D01*
X85019815Y-115893418D01*
X85067434Y-115869608D01*
X85162672Y-115845799D01*
X85305529Y-115845799D01*
X85400767Y-115869608D01*
X85448386Y-115893418D01*
X85496005Y-115941037D01*
X85496005Y-116131513D01*
X85924576Y-115655322D02*
X85972195Y-115583894D01*
X85972195Y-115464846D01*
X85924576Y-115417227D01*
X85876957Y-115393418D01*
X85781719Y-115369608D01*
X85686481Y-115369608D01*
X85591243Y-115393418D01*
X85543624Y-115417227D01*
X85496005Y-115464846D01*
X85448386Y-115560084D01*
X85400767Y-115607703D01*
X85353148Y-115631513D01*
X85257910Y-115655322D01*
X85162672Y-115655322D01*
X85067434Y-115631513D01*
X85019815Y-115607703D01*
X84972195Y-115560084D01*
X84972195Y-115441037D01*
X85019815Y-115369608D01*
X85305529Y-114941037D02*
X85972195Y-114941037D01*
X84924576Y-115060084D02*
X85638862Y-115179132D01*
X85638862Y-114869608D01*
X85400767Y-114607703D02*
X85353148Y-114655322D01*
X85305529Y-114679132D01*
X85210291Y-114702941D01*
X85162672Y-114702941D01*
X85067434Y-114679132D01*
X85019815Y-114655322D01*
X84972195Y-114607703D01*
X84972195Y-114512465D01*
X85019815Y-114464846D01*
X85067434Y-114441037D01*
X85162672Y-114417227D01*
X85210291Y-114417227D01*
X85305529Y-114441037D01*
X85353148Y-114464846D01*
X85400767Y-114512465D01*
X85400767Y-114607703D01*
X85448386Y-114655322D01*
X85496005Y-114679132D01*
X85591243Y-114702941D01*
X85781719Y-114702941D01*
X85876957Y-114679132D01*
X85924576Y-114655322D01*
X85972195Y-114607703D01*
X85972195Y-114512465D01*
X85924576Y-114464846D01*
X85876957Y-114441037D01*
X85781719Y-114417227D01*
X85591243Y-114417227D01*
X85496005Y-114441037D01*
X85448386Y-114464846D01*
X85400767Y-114512465D01*
X84972195Y-113964846D02*
X84972195Y-114202941D01*
X85448386Y-114226751D01*
X85400767Y-114202941D01*
X85353148Y-114155322D01*
X85353148Y-114036275D01*
X85400767Y-113988656D01*
X85448386Y-113964846D01*
X85543624Y-113941037D01*
X85781719Y-113941037D01*
X85876957Y-113964846D01*
X85924576Y-113988656D01*
X85972195Y-114036275D01*
X85972195Y-114155322D01*
X85924576Y-114202941D01*
X85876957Y-114226751D01*
D11*
X120372195Y-84112164D02*
X121372195Y-83845498D01*
X120372195Y-83578831D01*
X121276957Y-82855021D02*
X121324576Y-82893117D01*
X121372195Y-83007402D01*
X121372195Y-83083593D01*
X121324576Y-83197878D01*
X121229338Y-83274069D01*
X121134100Y-83312164D01*
X120943624Y-83350259D01*
X120800767Y-83350259D01*
X120610291Y-83312164D01*
X120515053Y-83274069D01*
X120419815Y-83197878D01*
X120372195Y-83083593D01*
X120372195Y-83007402D01*
X120419815Y-82893117D01*
X120467434Y-82855021D01*
X121276957Y-82055021D02*
X121324576Y-82093117D01*
X121372195Y-82207402D01*
X121372195Y-82283593D01*
X121324576Y-82397878D01*
X121229338Y-82474069D01*
X121134100Y-82512164D01*
X120943624Y-82550259D01*
X120800767Y-82550259D01*
X120610291Y-82512164D01*
X120515053Y-82474069D01*
X120419815Y-82397878D01*
X120372195Y-82283593D01*
X120372195Y-82207402D01*
X120419815Y-82093117D01*
X120467434Y-82055021D01*
D12*
X89703148Y-115098180D02*
X89636481Y-115050560D01*
X89536481Y-115050560D01*
X89436481Y-115098180D01*
X89369815Y-115193418D01*
X89336481Y-115288656D01*
X89303148Y-115479132D01*
X89303148Y-115621989D01*
X89336481Y-115812465D01*
X89369815Y-115907703D01*
X89436481Y-116002941D01*
X89536481Y-116050560D01*
X89603148Y-116050560D01*
X89703148Y-116002941D01*
X89736481Y-115955322D01*
X89736481Y-115621989D01*
X89603148Y-115621989D01*
D11*
X78719815Y-113948180D02*
X78643624Y-113910084D01*
X78529338Y-113910084D01*
X78415053Y-113948180D01*
X78338862Y-114024370D01*
X78300767Y-114100560D01*
X78262672Y-114252941D01*
X78262672Y-114367227D01*
X78300767Y-114519608D01*
X78338862Y-114595799D01*
X78415053Y-114671989D01*
X78529338Y-114710084D01*
X78605529Y-114710084D01*
X78719815Y-114671989D01*
X78757910Y-114633894D01*
X78757910Y-114367227D01*
X78605529Y-114367227D01*
X79100767Y-114710084D02*
X79100767Y-113910084D01*
X79481719Y-114710084D02*
X79481719Y-113910084D01*
X79938862Y-114710084D01*
X79938862Y-113910084D01*
D12*
X120386481Y-115000560D02*
X120619815Y-116000560D01*
X120853148Y-115000560D01*
D14*
X125336481Y-99860084D02*
X125098386Y-99860084D01*
X125098386Y-99060084D01*
X125479338Y-99821989D02*
X125550767Y-99860084D01*
X125669815Y-99860084D01*
X125717434Y-99821989D01*
X125741243Y-99783894D01*
X125765053Y-99707703D01*
X125765053Y-99631513D01*
X125741243Y-99555322D01*
X125717434Y-99517227D01*
X125669815Y-99479132D01*
X125574576Y-99441037D01*
X125526957Y-99402941D01*
X125503148Y-99364846D01*
X125479338Y-99288656D01*
X125479338Y-99212465D01*
X125503148Y-99136275D01*
X125526957Y-99098180D01*
X125574576Y-99060084D01*
X125693624Y-99060084D01*
X125765053Y-99098180D01*
X125979338Y-99860084D02*
X125979338Y-99060084D01*
X126146005Y-99631513D01*
X126312672Y-99060084D01*
X126312672Y-99860084D01*
X126503148Y-99060084D02*
X126812672Y-99060084D01*
X126646005Y-99364846D01*
X126717434Y-99364846D01*
X126765053Y-99402941D01*
X126788862Y-99441037D01*
X126812672Y-99517227D01*
X126812672Y-99707703D01*
X126788862Y-99783894D01*
X126765053Y-99821989D01*
X126717434Y-99860084D01*
X126574576Y-99860084D01*
X126526957Y-99821989D01*
X126503148Y-99783894D01*
X127122195Y-99060084D02*
X127169815Y-99060084D01*
X127217434Y-99098180D01*
X127241243Y-99136275D01*
X127265053Y-99212465D01*
X127288862Y-99364846D01*
X127288862Y-99555322D01*
X127265053Y-99707703D01*
X127241243Y-99783894D01*
X127217434Y-99821989D01*
X127169815Y-99860084D01*
X127122195Y-99860084D01*
X127074576Y-99821989D01*
X127050767Y-99783894D01*
X127026957Y-99707703D01*
X127003148Y-99555322D01*
X127003148Y-99364846D01*
X127026957Y-99212465D01*
X127050767Y-99136275D01*
X127074576Y-99098180D01*
X127122195Y-99060084D01*
X127455529Y-99060084D02*
X127765053Y-99060084D01*
X127598386Y-99364846D01*
X127669815Y-99364846D01*
X127717434Y-99402941D01*
X127741243Y-99441037D01*
X127765053Y-99517227D01*
X127765053Y-99707703D01*
X127741243Y-99783894D01*
X127717434Y-99821989D01*
X127669815Y-99860084D01*
X127526957Y-99860084D01*
X127479338Y-99821989D01*
X127455529Y-99783894D01*
X125443624Y-96219608D02*
X125481719Y-96148180D01*
X125481719Y-96029132D01*
X125443624Y-95981513D01*
X125405529Y-95957703D01*
X125329338Y-95933894D01*
X125253148Y-95933894D01*
X125176957Y-95957703D01*
X125138862Y-95981513D01*
X125100767Y-96029132D01*
X125062672Y-96124370D01*
X125024576Y-96171989D01*
X124986481Y-96195799D01*
X124910291Y-96219608D01*
X124834100Y-96219608D01*
X124757910Y-96195799D01*
X124719815Y-96171989D01*
X124681719Y-96124370D01*
X124681719Y-96005322D01*
X124719815Y-95933894D01*
X125481719Y-95719608D02*
X124681719Y-95719608D01*
X125062672Y-95719608D02*
X125062672Y-95433894D01*
X125481719Y-95433894D02*
X124681719Y-95433894D01*
X124681719Y-95267227D02*
X124681719Y-94981513D01*
X125481719Y-95124370D02*
X124681719Y-95124370D01*
X124757910Y-94838656D02*
X124719815Y-94814846D01*
X124681719Y-94767227D01*
X124681719Y-94648180D01*
X124719815Y-94600560D01*
X124757910Y-94576751D01*
X124834100Y-94552941D01*
X124910291Y-94552941D01*
X125024576Y-94576751D01*
X125481719Y-94862465D01*
X125481719Y-94552941D01*
X125481719Y-94076751D02*
X125481719Y-94362465D01*
X125481719Y-94219608D02*
X124681719Y-94219608D01*
X124796005Y-94267227D01*
X124872195Y-94314846D01*
X124910291Y-94362465D01*
X120991243Y-92755322D02*
X120991243Y-92383894D01*
X121219815Y-92583894D01*
X121219815Y-92498180D01*
X121248386Y-92441037D01*
X121276957Y-92412465D01*
X121334100Y-92383894D01*
X121476957Y-92383894D01*
X121534100Y-92412465D01*
X121562672Y-92441037D01*
X121591243Y-92498180D01*
X121591243Y-92669608D01*
X121562672Y-92726751D01*
X121534100Y-92755322D01*
X120991243Y-92212465D02*
X121591243Y-92012465D01*
X120991243Y-91812465D01*
X121591243Y-91612465D02*
X120991243Y-91612465D01*
X120991243Y-91469608D01*
X121019815Y-91383894D01*
X121076957Y-91326751D01*
X121134100Y-91298180D01*
X121248386Y-91269608D01*
X121334100Y-91269608D01*
X121448386Y-91298180D01*
X121505529Y-91326751D01*
X121562672Y-91383894D01*
X121591243Y-91469608D01*
X121591243Y-91612465D01*
X121534100Y-90669608D02*
X121562672Y-90698180D01*
X121591243Y-90783894D01*
X121591243Y-90841037D01*
X121562672Y-90926751D01*
X121505529Y-90983894D01*
X121448386Y-91012465D01*
X121334100Y-91041037D01*
X121248386Y-91041037D01*
X121134100Y-91012465D01*
X121076957Y-90983894D01*
X121019815Y-90926751D01*
X120991243Y-90841037D01*
X120991243Y-90783894D01*
X121019815Y-90698180D01*
X121048386Y-90669608D01*
X118791243Y-104269608D02*
X118791243Y-103669608D01*
X119076957Y-104269608D02*
X119076957Y-103669608D01*
X119419815Y-104269608D01*
X119419815Y-103669608D01*
X119619815Y-103669608D02*
X119962672Y-103669608D01*
X119791243Y-104269608D02*
X119791243Y-103669608D01*
X120476957Y-104269608D02*
X120134100Y-104269608D01*
X120305529Y-104269608D02*
X120305529Y-103669608D01*
X120248386Y-103755322D01*
X120191243Y-103812465D01*
X120134100Y-103841037D01*
X94500767Y-81310084D02*
X94500767Y-80510084D01*
X94500767Y-80891037D02*
X94786481Y-80891037D01*
X94786481Y-81310084D02*
X94786481Y-80510084D01*
X95310291Y-81233894D02*
X95286481Y-81271989D01*
X95215053Y-81310084D01*
X95167434Y-81310084D01*
X95096005Y-81271989D01*
X95048386Y-81195799D01*
X95024576Y-81119608D01*
X95000767Y-80967227D01*
X95000767Y-80852941D01*
X95024576Y-80700560D01*
X95048386Y-80624370D01*
X95096005Y-80548180D01*
X95167434Y-80510084D01*
X95215053Y-80510084D01*
X95286481Y-80548180D01*
X95310291Y-80586275D01*
X95786481Y-81310084D02*
X95500767Y-81310084D01*
X95643624Y-81310084D02*
X95643624Y-80510084D01*
X95596005Y-80624370D01*
X95548386Y-80700560D01*
X95500767Y-80738656D01*
X95976957Y-80586275D02*
X96000767Y-80548180D01*
X96048386Y-80510084D01*
X96167434Y-80510084D01*
X96215053Y-80548180D01*
X96238862Y-80586275D01*
X96262672Y-80662465D01*
X96262672Y-80738656D01*
X96238862Y-80852941D01*
X95953148Y-81310084D01*
X96262672Y-81310084D01*
D11*
X79636213Y-84614694D02*
X80398118Y-84614694D01*
D12*
X89436481Y-103481513D02*
X89203148Y-102814846D01*
X89036481Y-103481513D02*
X89036481Y-102081513D01*
X89303148Y-102081513D01*
X89369815Y-102148180D01*
X89403148Y-102214846D01*
X89436481Y-102348180D01*
X89436481Y-102548180D01*
X89403148Y-102681513D01*
X89369815Y-102748180D01*
X89303148Y-102814846D01*
X89036481Y-102814846D01*
X89703148Y-103414846D02*
X89803148Y-103481513D01*
X89969815Y-103481513D01*
X90036481Y-103414846D01*
X90069815Y-103348180D01*
X90103148Y-103214846D01*
X90103148Y-103081513D01*
X90069815Y-102948180D01*
X90036481Y-102881513D01*
X89969815Y-102814846D01*
X89836481Y-102748180D01*
X89769815Y-102681513D01*
X89736481Y-102614846D01*
X89703148Y-102481513D01*
X89703148Y-102348180D01*
X89736481Y-102214846D01*
X89769815Y-102148180D01*
X89836481Y-102081513D01*
X90003148Y-102081513D01*
X90103148Y-102148180D01*
X90303148Y-102081513D02*
X90703148Y-102081513D01*
X90503148Y-103481513D02*
X90503148Y-102081513D01*
X107419815Y-115952941D02*
X107519815Y-116000560D01*
X107686481Y-116000560D01*
X107753148Y-115952941D01*
X107786481Y-115905322D01*
X107819815Y-115810084D01*
X107819815Y-115714846D01*
X107786481Y-115619608D01*
X107753148Y-115571989D01*
X107686481Y-115524370D01*
X107553148Y-115476751D01*
X107486481Y-115429132D01*
X107453148Y-115381513D01*
X107419815Y-115286275D01*
X107419815Y-115191037D01*
X107453148Y-115095799D01*
X107486481Y-115048180D01*
X107553148Y-115000560D01*
X107719815Y-115000560D01*
X107819815Y-115048180D01*
X92969815Y-110352941D02*
X93069815Y-110400560D01*
X93236481Y-110400560D01*
X93303148Y-110352941D01*
X93336481Y-110305322D01*
X93369815Y-110210084D01*
X93369815Y-110114846D01*
X93336481Y-110019608D01*
X93303148Y-109971989D01*
X93236481Y-109924370D01*
X93103148Y-109876751D01*
X93036481Y-109829132D01*
X93003148Y-109781513D01*
X92969815Y-109686275D01*
X92969815Y-109591037D01*
X93003148Y-109495799D01*
X93036481Y-109448180D01*
X93103148Y-109400560D01*
X93269815Y-109400560D01*
X93369815Y-109448180D01*
D11*
X93624576Y-94843418D02*
X93672195Y-94729132D01*
X93672195Y-94538656D01*
X93624576Y-94462465D01*
X93576957Y-94424370D01*
X93481719Y-94386275D01*
X93386481Y-94386275D01*
X93291243Y-94424370D01*
X93243624Y-94462465D01*
X93196005Y-94538656D01*
X93148386Y-94691037D01*
X93100767Y-94767227D01*
X93053148Y-94805322D01*
X92957910Y-94843418D01*
X92862672Y-94843418D01*
X92767434Y-94805322D01*
X92719815Y-94767227D01*
X92672195Y-94691037D01*
X92672195Y-94500560D01*
X92719815Y-94386275D01*
X93148386Y-94043418D02*
X93148386Y-93776751D01*
X93672195Y-93662465D02*
X93672195Y-94043418D01*
X92672195Y-94043418D01*
X92672195Y-93662465D01*
X92672195Y-93433894D02*
X92672195Y-92976751D01*
X93672195Y-93205322D02*
X92672195Y-93205322D01*
X113772195Y-83483593D02*
X113296005Y-83750259D01*
X113772195Y-83940736D02*
X112772195Y-83940736D01*
X112772195Y-83635974D01*
X112819815Y-83559783D01*
X112867434Y-83521688D01*
X112962672Y-83483593D01*
X113105529Y-83483593D01*
X113200767Y-83521688D01*
X113248386Y-83559783D01*
X113296005Y-83635974D01*
X113296005Y-83940736D01*
X113724576Y-83178831D02*
X113772195Y-83064545D01*
X113772195Y-82874069D01*
X113724576Y-82797878D01*
X113676957Y-82759783D01*
X113581719Y-82721688D01*
X113486481Y-82721688D01*
X113391243Y-82759783D01*
X113343624Y-82797878D01*
X113296005Y-82874069D01*
X113248386Y-83026450D01*
X113200767Y-83102640D01*
X113153148Y-83140736D01*
X113057910Y-83178831D01*
X112962672Y-83178831D01*
X112867434Y-83140736D01*
X112819815Y-83102640D01*
X112772195Y-83026450D01*
X112772195Y-82835974D01*
X112819815Y-82721688D01*
X112772195Y-82493117D02*
X112772195Y-82035974D01*
X113772195Y-82264545D02*
X112772195Y-82264545D01*
D12*
X118469815Y-110352941D02*
X118569815Y-110400560D01*
X118736481Y-110400560D01*
X118803148Y-110352941D01*
X118836481Y-110305322D01*
X118869815Y-110210084D01*
X118869815Y-110114846D01*
X118836481Y-110019608D01*
X118803148Y-109971989D01*
X118736481Y-109924370D01*
X118603148Y-109876751D01*
X118536481Y-109829132D01*
X118503148Y-109781513D01*
X118469815Y-109686275D01*
X118469815Y-109591037D01*
X118503148Y-109495799D01*
X118536481Y-109448180D01*
X118603148Y-109400560D01*
X118769815Y-109400560D01*
X118869815Y-109448180D01*
X120436481Y-109400560D02*
X120669815Y-110400560D01*
X120903148Y-109400560D01*
X102019815Y-110352941D02*
X102119815Y-110400560D01*
X102286481Y-110400560D01*
X102353148Y-110352941D01*
X102386481Y-110305322D01*
X102419815Y-110210084D01*
X102419815Y-110114846D01*
X102386481Y-110019608D01*
X102353148Y-109971989D01*
X102286481Y-109924370D01*
X102153148Y-109876751D01*
X102086481Y-109829132D01*
X102053148Y-109781513D01*
X102019815Y-109686275D01*
X102019815Y-109591037D01*
X102053148Y-109495799D01*
X102086481Y-109448180D01*
X102153148Y-109400560D01*
X102319815Y-109400560D01*
X102419815Y-109448180D01*
D11*
X116019815Y-99438656D02*
X115972195Y-99514846D01*
X115972195Y-99629132D01*
X116019815Y-99743418D01*
X116115053Y-99819608D01*
X116210291Y-99857703D01*
X116400767Y-99895799D01*
X116543624Y-99895799D01*
X116734100Y-99857703D01*
X116829338Y-99819608D01*
X116924576Y-99743418D01*
X116972195Y-99629132D01*
X116972195Y-99552941D01*
X116924576Y-99438656D01*
X116876957Y-99400560D01*
X116543624Y-99400560D01*
X116543624Y-99552941D01*
X92672195Y-91957703D02*
X92672195Y-91500560D01*
X93672195Y-91729132D02*
X92672195Y-91729132D01*
X92672195Y-91310084D02*
X93672195Y-90776751D01*
X92672195Y-90776751D02*
X93672195Y-91310084D01*
D13*
X91088237Y-106252941D02*
X91253713Y-106300560D01*
X91539428Y-106300560D01*
X91659666Y-106252941D01*
X91722761Y-106205322D01*
X91791809Y-106110084D01*
X91803713Y-106014846D01*
X91758475Y-105919608D01*
X91707285Y-105871989D01*
X91598951Y-105824370D01*
X91376332Y-105776751D01*
X91267999Y-105729132D01*
X91216809Y-105681513D01*
X91171570Y-105586275D01*
X91183475Y-105491037D01*
X91252523Y-105395799D01*
X91315618Y-105348180D01*
X91435856Y-105300560D01*
X91721570Y-105300560D01*
X91887047Y-105348180D01*
D11*
X81638862Y-84619608D02*
X82400767Y-84619608D01*
X82019815Y-85000560D02*
X82019815Y-84238656D01*
D14*
X114998386Y-103810084D02*
X114998386Y-103010084D01*
X115117434Y-103010084D01*
X115188862Y-103048180D01*
X115236481Y-103124370D01*
X115260291Y-103200560D01*
X115284100Y-103352941D01*
X115284100Y-103467227D01*
X115260291Y-103619608D01*
X115236481Y-103695799D01*
X115188862Y-103771989D01*
X115117434Y-103810084D01*
X114998386Y-103810084D01*
X115474576Y-103771989D02*
X115546005Y-103810084D01*
X115665053Y-103810084D01*
X115712672Y-103771989D01*
X115736481Y-103733894D01*
X115760291Y-103657703D01*
X115760291Y-103581513D01*
X115736481Y-103505322D01*
X115712672Y-103467227D01*
X115665053Y-103429132D01*
X115569815Y-103391037D01*
X115522195Y-103352941D01*
X115498386Y-103314846D01*
X115474576Y-103238656D01*
X115474576Y-103162465D01*
X115498386Y-103086275D01*
X115522195Y-103048180D01*
X115569815Y-103010084D01*
X115688862Y-103010084D01*
X115760291Y-103048180D01*
X116236481Y-103810084D02*
X115950767Y-103810084D01*
X116093624Y-103810084D02*
X116093624Y-103010084D01*
X116046005Y-103124370D01*
X115998386Y-103200560D01*
X115950767Y-103238656D01*
X116522195Y-103352941D02*
X116474576Y-103314846D01*
X116450767Y-103276751D01*
X116426957Y-103200560D01*
X116426957Y-103162465D01*
X116450767Y-103086275D01*
X116474576Y-103048180D01*
X116522195Y-103010084D01*
X116617434Y-103010084D01*
X116665053Y-103048180D01*
X116688862Y-103086275D01*
X116712672Y-103162465D01*
X116712672Y-103200560D01*
X116688862Y-103276751D01*
X116665053Y-103314846D01*
X116617434Y-103352941D01*
X116522195Y-103352941D01*
X116474576Y-103391037D01*
X116450767Y-103429132D01*
X116426957Y-103505322D01*
X116426957Y-103657703D01*
X116450767Y-103733894D01*
X116474576Y-103771989D01*
X116522195Y-103810084D01*
X116617434Y-103810084D01*
X116665053Y-103771989D01*
X116688862Y-103733894D01*
X116712672Y-103657703D01*
X116712672Y-103505322D01*
X116688862Y-103429132D01*
X116665053Y-103391037D01*
X116617434Y-103352941D01*
X117093624Y-103391037D02*
X117165053Y-103429132D01*
X117188862Y-103467227D01*
X117212672Y-103543418D01*
X117212672Y-103657703D01*
X117188862Y-103733894D01*
X117165053Y-103771989D01*
X117117434Y-103810084D01*
X116926957Y-103810084D01*
X116926957Y-103010084D01*
X117093624Y-103010084D01*
X117141243Y-103048180D01*
X117165053Y-103086275D01*
X117188862Y-103162465D01*
X117188862Y-103238656D01*
X117165053Y-103314846D01*
X117141243Y-103352941D01*
X117093624Y-103391037D01*
X116926957Y-103391037D01*
X117403148Y-103086275D02*
X117426957Y-103048180D01*
X117474576Y-103010084D01*
X117593624Y-103010084D01*
X117641243Y-103048180D01*
X117665053Y-103086275D01*
X117688862Y-103162465D01*
X117688862Y-103238656D01*
X117665053Y-103352941D01*
X117379338Y-103810084D01*
X117688862Y-103810084D01*
X117998386Y-103010084D02*
X118046005Y-103010084D01*
X118093624Y-103048180D01*
X118117434Y-103086275D01*
X118141243Y-103162465D01*
X118165053Y-103314846D01*
X118165053Y-103505322D01*
X118141243Y-103657703D01*
X118117434Y-103733894D01*
X118093624Y-103771989D01*
X118046005Y-103810084D01*
X117998386Y-103810084D01*
X117950767Y-103771989D01*
X117926957Y-103733894D01*
X117903148Y-103657703D01*
X117879338Y-103505322D01*
X117879338Y-103314846D01*
X117903148Y-103162465D01*
X117926957Y-103086275D01*
X117950767Y-103048180D01*
X117998386Y-103010084D01*
X79562672Y-86548180D02*
X79505529Y-86519608D01*
X79419815Y-86519608D01*
X79334100Y-86548180D01*
X79276957Y-86605322D01*
X79248386Y-86662465D01*
X79219815Y-86776751D01*
X79219815Y-86862465D01*
X79248386Y-86976751D01*
X79276957Y-87033894D01*
X79334100Y-87091037D01*
X79419815Y-87119608D01*
X79476957Y-87119608D01*
X79562672Y-87091037D01*
X79591243Y-87062465D01*
X79591243Y-86862465D01*
X79476957Y-86862465D01*
X79848386Y-87119608D02*
X79848386Y-86519608D01*
X80191243Y-87119608D01*
X80191243Y-86519608D01*
X80476957Y-87119608D02*
X80476957Y-86519608D01*
X80619815Y-86519608D01*
X80705529Y-86548180D01*
X80762672Y-86605322D01*
X80791243Y-86662465D01*
X80819815Y-86776751D01*
X80819815Y-86862465D01*
X80791243Y-86976751D01*
X80762672Y-87033894D01*
X80705529Y-87091037D01*
X80619815Y-87119608D01*
X80476957Y-87119608D01*
D12*
X100419815Y-115952941D02*
X100519815Y-116000560D01*
X100686481Y-116000560D01*
X100753148Y-115952941D01*
X100786481Y-115905322D01*
X100819815Y-115810084D01*
X100819815Y-115714846D01*
X100786481Y-115619608D01*
X100753148Y-115571989D01*
X100686481Y-115524370D01*
X100553148Y-115476751D01*
X100486481Y-115429132D01*
X100453148Y-115381513D01*
X100419815Y-115286275D01*
X100419815Y-115191037D01*
X100453148Y-115095799D01*
X100486481Y-115048180D01*
X100553148Y-115000560D01*
X100719815Y-115000560D01*
X100819815Y-115048180D01*
D14*
X80491243Y-83733894D02*
X79891243Y-83733894D01*
X79891243Y-83505322D01*
X79919815Y-83448180D01*
X79948386Y-83419608D01*
X80005529Y-83391037D01*
X80091243Y-83391037D01*
X80148386Y-83419608D01*
X80176957Y-83448180D01*
X80205529Y-83505322D01*
X80205529Y-83733894D01*
X79891243Y-83019608D02*
X79891243Y-82905322D01*
X79919815Y-82848180D01*
X79976957Y-82791037D01*
X80091243Y-82762465D01*
X80291243Y-82762465D01*
X80405529Y-82791037D01*
X80462672Y-82848180D01*
X80491243Y-82905322D01*
X80491243Y-83019608D01*
X80462672Y-83076751D01*
X80405529Y-83133894D01*
X80291243Y-83162465D01*
X80091243Y-83162465D01*
X79976957Y-83133894D01*
X79919815Y-83076751D01*
X79891243Y-83019608D01*
X79891243Y-82562465D02*
X80491243Y-82419608D01*
X80062672Y-82305322D01*
X80491243Y-82191037D01*
X79891243Y-82048180D01*
X80176957Y-81819608D02*
X80176957Y-81619608D01*
X80491243Y-81533894D02*
X80491243Y-81819608D01*
X79891243Y-81819608D01*
X79891243Y-81533894D01*
X80491243Y-80933894D02*
X80205529Y-81133894D01*
X80491243Y-81276751D02*
X79891243Y-81276751D01*
X79891243Y-81048180D01*
X79919815Y-80991037D01*
X79948386Y-80962465D01*
X80005529Y-80933894D01*
X80091243Y-80933894D01*
X80148386Y-80962465D01*
X80176957Y-80991037D01*
X80205529Y-81048180D01*
X80205529Y-81276751D01*
D12*
X102386481Y-115000560D02*
X102619815Y-116000560D01*
X102853148Y-115000560D01*
D11*
X118872195Y-99914846D02*
X119872195Y-99648180D01*
X118872195Y-99381513D01*
X116272195Y-84302640D02*
X115272195Y-84302640D01*
X115986481Y-84035974D01*
X115272195Y-83769307D01*
X116272195Y-83769307D01*
X115272195Y-83235974D02*
X115272195Y-83083593D01*
X115319815Y-83007402D01*
X115415053Y-82931212D01*
X115605529Y-82893117D01*
X115938862Y-82893117D01*
X116129338Y-82931212D01*
X116224576Y-83007402D01*
X116272195Y-83083593D01*
X116272195Y-83235974D01*
X116224576Y-83312164D01*
X116129338Y-83388355D01*
X115938862Y-83426450D01*
X115605529Y-83426450D01*
X115415053Y-83388355D01*
X115319815Y-83312164D01*
X115272195Y-83235974D01*
X116224576Y-82588355D02*
X116272195Y-82474069D01*
X116272195Y-82283593D01*
X116224576Y-82207402D01*
X116176957Y-82169307D01*
X116081719Y-82131212D01*
X115986481Y-82131212D01*
X115891243Y-82169307D01*
X115843624Y-82207402D01*
X115796005Y-82283593D01*
X115748386Y-82435974D01*
X115700767Y-82512164D01*
X115653148Y-82550259D01*
X115557910Y-82588355D01*
X115462672Y-82588355D01*
X115367434Y-82550259D01*
X115319815Y-82512164D01*
X115272195Y-82435974D01*
X115272195Y-82245498D01*
X115319815Y-82131212D01*
X116272195Y-81788355D02*
X115272195Y-81788355D01*
D14*
X112181719Y-91602941D02*
X112181719Y-91293418D01*
X112486481Y-91460084D01*
X112486481Y-91388656D01*
X112524576Y-91341037D01*
X112562672Y-91317227D01*
X112638862Y-91293418D01*
X112829338Y-91293418D01*
X112905529Y-91317227D01*
X112943624Y-91341037D01*
X112981719Y-91388656D01*
X112981719Y-91531513D01*
X112943624Y-91579132D01*
X112905529Y-91602941D01*
X112257910Y-91102941D02*
X112219815Y-91079132D01*
X112181719Y-91031513D01*
X112181719Y-90912465D01*
X112219815Y-90864846D01*
X112257910Y-90841037D01*
X112334100Y-90817227D01*
X112410291Y-90817227D01*
X112524576Y-90841037D01*
X112981719Y-91126751D01*
X112981719Y-90817227D01*
X112905529Y-90602941D02*
X112943624Y-90579132D01*
X112981719Y-90602941D01*
X112943624Y-90626751D01*
X112905529Y-90602941D01*
X112981719Y-90602941D01*
X112181719Y-90412465D02*
X112181719Y-90079132D01*
X112981719Y-90293418D01*
X112181719Y-89674370D02*
X112181719Y-89769608D01*
X112219815Y-89817227D01*
X112257910Y-89841037D01*
X112372195Y-89888656D01*
X112524576Y-89912465D01*
X112829338Y-89912465D01*
X112905529Y-89888656D01*
X112943624Y-89864846D01*
X112981719Y-89817227D01*
X112981719Y-89721989D01*
X112943624Y-89674370D01*
X112905529Y-89650560D01*
X112829338Y-89626751D01*
X112638862Y-89626751D01*
X112562672Y-89650560D01*
X112524576Y-89674370D01*
X112486481Y-89721989D01*
X112486481Y-89817227D01*
X112524576Y-89864846D01*
X112562672Y-89888656D01*
X112638862Y-89912465D01*
X112524576Y-89341037D02*
X112486481Y-89388656D01*
X112448386Y-89412465D01*
X112372195Y-89436275D01*
X112334100Y-89436275D01*
X112257910Y-89412465D01*
X112219815Y-89388656D01*
X112181719Y-89341037D01*
X112181719Y-89245799D01*
X112219815Y-89198180D01*
X112257910Y-89174370D01*
X112334100Y-89150560D01*
X112372195Y-89150560D01*
X112448386Y-89174370D01*
X112486481Y-89198180D01*
X112524576Y-89245799D01*
X112524576Y-89341037D01*
X112562672Y-89388656D01*
X112600767Y-89412465D01*
X112676957Y-89436275D01*
X112829338Y-89436275D01*
X112905529Y-89412465D01*
X112943624Y-89388656D01*
X112981719Y-89341037D01*
X112981719Y-89245799D01*
X112943624Y-89198180D01*
X112905529Y-89174370D01*
X112829338Y-89150560D01*
X112676957Y-89150560D01*
X112600767Y-89174370D01*
X112562672Y-89198180D01*
X112524576Y-89245799D01*
X112981719Y-88936275D02*
X112181719Y-88936275D01*
X112676957Y-88888656D02*
X112981719Y-88745799D01*
X112448386Y-88745799D02*
X112753148Y-88936275D01*
X112981719Y-88531513D02*
X112181719Y-88531513D01*
X112562672Y-88531513D02*
X112562672Y-88245799D01*
X112981719Y-88245799D02*
X112181719Y-88245799D01*
X112448386Y-88055322D02*
X112448386Y-87793418D01*
X112981719Y-88055322D01*
X112981719Y-87793418D01*
D12*
X110519815Y-79631513D02*
X110776957Y-79664846D01*
X111205529Y-79664846D01*
X111376957Y-79631513D01*
X111462672Y-79598180D01*
X111548386Y-79531513D01*
X111548386Y-79464846D01*
X111462672Y-79398180D01*
X111376957Y-79364846D01*
X111205529Y-79331513D01*
X110862672Y-79298180D01*
X110691243Y-79264846D01*
X110605529Y-79231513D01*
X110519815Y-79164846D01*
X110519815Y-79098180D01*
X110605529Y-79031513D01*
X110691243Y-78998180D01*
X110862672Y-78964846D01*
X111291243Y-78964846D01*
X111548386Y-78998180D01*
X112319815Y-79664846D02*
X112319815Y-78964846D01*
X113005529Y-78964846D01*
X113176957Y-78998180D01*
X113262672Y-79031513D01*
X113348386Y-79098180D01*
X113348386Y-79198180D01*
X113262672Y-79264846D01*
X113176957Y-79298180D01*
X113005529Y-79331513D01*
X112319815Y-79331513D01*
X114119815Y-79664846D02*
X114119815Y-78964846D01*
X116948386Y-79298180D02*
X116348386Y-79298180D01*
X116348386Y-79664846D02*
X116348386Y-78964846D01*
X117205529Y-78964846D01*
X118748386Y-79664846D02*
X117891243Y-79664846D01*
X117891243Y-78964846D01*
X119262672Y-79464846D02*
X120119815Y-79464846D01*
X119091243Y-79664846D02*
X119691243Y-78964846D01*
X120291243Y-79664846D01*
X120805529Y-79631513D02*
X121062672Y-79664846D01*
X121491243Y-79664846D01*
X121662672Y-79631513D01*
X121748386Y-79598180D01*
X121834100Y-79531513D01*
X121834100Y-79464846D01*
X121748386Y-79398180D01*
X121662672Y-79364846D01*
X121491243Y-79331513D01*
X121148386Y-79298180D01*
X120976957Y-79264846D01*
X120891243Y-79231513D01*
X120805529Y-79164846D01*
X120805529Y-79098180D01*
X120891243Y-79031513D01*
X120976957Y-78998180D01*
X121148386Y-78964846D01*
X121576957Y-78964846D01*
X121834100Y-78998180D01*
X122605529Y-79664846D02*
X122605529Y-78964846D01*
X122605529Y-79298180D02*
X123634100Y-79298180D01*
X123634100Y-79664846D02*
X123634100Y-78964846D01*
D14*
X108805529Y-118819608D02*
X108805529Y-118219608D01*
X108805529Y-118505322D02*
X109148386Y-118505322D01*
X109148386Y-118819608D02*
X109148386Y-118219608D01*
X109405529Y-118648180D02*
X109691243Y-118648180D01*
X109348386Y-118819608D02*
X109548386Y-118219608D01*
X109748386Y-118819608D01*
X110234100Y-118819608D02*
X109948386Y-118819608D01*
X109948386Y-118219608D01*
X110719815Y-118819608D02*
X110434100Y-118819608D01*
X110434100Y-118219608D01*
D11*
X118724576Y-84074069D02*
X118772195Y-83959783D01*
X118772195Y-83769307D01*
X118724576Y-83693117D01*
X118676957Y-83655021D01*
X118581719Y-83616926D01*
X118486481Y-83616926D01*
X118391243Y-83655021D01*
X118343624Y-83693117D01*
X118296005Y-83769307D01*
X118248386Y-83921688D01*
X118200767Y-83997878D01*
X118153148Y-84035974D01*
X118057910Y-84074069D01*
X117962672Y-84074069D01*
X117867434Y-84035974D01*
X117819815Y-83997878D01*
X117772195Y-83921688D01*
X117772195Y-83731212D01*
X117819815Y-83616926D01*
X118676957Y-82816926D02*
X118724576Y-82855021D01*
X118772195Y-82969307D01*
X118772195Y-83045498D01*
X118724576Y-83159783D01*
X118629338Y-83235974D01*
X118534100Y-83274069D01*
X118343624Y-83312164D01*
X118200767Y-83312164D01*
X118010291Y-83274069D01*
X117915053Y-83235974D01*
X117819815Y-83159783D01*
X117772195Y-83045498D01*
X117772195Y-82969307D01*
X117819815Y-82855021D01*
X117867434Y-82816926D01*
X118772195Y-82474069D02*
X117772195Y-82474069D01*
X118772195Y-82016926D02*
X118200767Y-82359783D01*
X117772195Y-82016926D02*
X118343624Y-82474069D01*
D12*
X86419815Y-92364846D02*
X86486481Y-92264846D01*
X86553148Y-92231513D01*
X86686481Y-92198180D01*
X86886481Y-92198180D01*
X87019815Y-92231513D01*
X87086481Y-92264846D01*
X87153148Y-92331513D01*
X87153148Y-92598180D01*
X85753148Y-92598180D01*
X85753148Y-92364846D01*
X85819815Y-92298180D01*
X85886481Y-92264846D01*
X86019815Y-92231513D01*
X86153148Y-92231513D01*
X86286481Y-92264846D01*
X86353148Y-92298180D01*
X86419815Y-92364846D01*
X86419815Y-92598180D01*
X85753148Y-91898180D02*
X86886481Y-91898180D01*
X87019815Y-91864846D01*
X87086481Y-91831513D01*
X87153148Y-91764846D01*
X87153148Y-91631513D01*
X87086481Y-91564846D01*
X87019815Y-91531513D01*
X86886481Y-91498180D01*
X85753148Y-91498180D01*
X85753148Y-91264846D02*
X85753148Y-90864846D01*
X87153148Y-91064846D02*
X85753148Y-91064846D01*
X85886481Y-90664846D02*
X85819815Y-90631513D01*
X85753148Y-90564846D01*
X85753148Y-90398180D01*
X85819815Y-90331513D01*
X85886481Y-90298180D01*
X86019815Y-90264846D01*
X86153148Y-90264846D01*
X86353148Y-90298180D01*
X87153148Y-90698180D01*
X87153148Y-90264846D01*
X109753148Y-115048180D02*
X109686481Y-115000560D01*
X109586481Y-115000560D01*
X109486481Y-115048180D01*
X109419815Y-115143418D01*
X109386481Y-115238656D01*
X109353148Y-115429132D01*
X109353148Y-115571989D01*
X109386481Y-115762465D01*
X109419815Y-115857703D01*
X109486481Y-115952941D01*
X109586481Y-116000560D01*
X109653148Y-116000560D01*
X109753148Y-115952941D01*
X109786481Y-115905322D01*
X109786481Y-115571989D01*
X109653148Y-115571989D01*
X98753148Y-115048180D02*
X98686481Y-115000560D01*
X98586481Y-115000560D01*
X98486481Y-115048180D01*
X98419815Y-115143418D01*
X98386481Y-115238656D01*
X98353148Y-115429132D01*
X98353148Y-115571989D01*
X98386481Y-115762465D01*
X98419815Y-115857703D01*
X98486481Y-115952941D01*
X98586481Y-116000560D01*
X98653148Y-116000560D01*
X98753148Y-115952941D01*
X98786481Y-115905322D01*
X98786481Y-115571989D01*
X98653148Y-115571989D01*
D14*
X79653148Y-79219608D02*
X79819815Y-79819608D01*
X79986481Y-79219608D01*
X80438862Y-79762465D02*
X80415053Y-79791037D01*
X80343624Y-79819608D01*
X80296005Y-79819608D01*
X80224576Y-79791037D01*
X80176957Y-79733894D01*
X80153148Y-79676751D01*
X80129338Y-79562465D01*
X80129338Y-79476751D01*
X80153148Y-79362465D01*
X80176957Y-79305322D01*
X80224576Y-79248180D01*
X80296005Y-79219608D01*
X80343624Y-79219608D01*
X80415053Y-79248180D01*
X80438862Y-79276751D01*
X80938862Y-79762465D02*
X80915053Y-79791037D01*
X80843624Y-79819608D01*
X80796005Y-79819608D01*
X80724576Y-79791037D01*
X80676957Y-79733894D01*
X80653148Y-79676751D01*
X80629338Y-79562465D01*
X80629338Y-79476751D01*
X80653148Y-79362465D01*
X80676957Y-79305322D01*
X80724576Y-79248180D01*
X80796005Y-79219608D01*
X80843624Y-79219608D01*
X80915053Y-79248180D01*
X80938862Y-79276751D01*
D11*
X69119815Y-109757703D02*
X69062672Y-109833894D01*
X69062672Y-109948180D01*
X69119815Y-110062465D01*
X69234100Y-110138656D01*
X69348386Y-110176751D01*
X69576957Y-110214846D01*
X69748386Y-110214846D01*
X69976957Y-110176751D01*
X70091243Y-110138656D01*
X70205529Y-110062465D01*
X70262672Y-109948180D01*
X70262672Y-109871989D01*
X70205529Y-109757703D01*
X70148386Y-109719608D01*
X69748386Y-109719608D01*
X69748386Y-109871989D01*
X70262672Y-109376751D02*
X69062672Y-109376751D01*
X70262672Y-108919608D01*
X69062672Y-108919608D01*
X70262672Y-108538656D02*
X69062672Y-108538656D01*
X69062672Y-108348180D01*
X69119815Y-108233894D01*
X69234100Y-108157703D01*
X69348386Y-108119608D01*
X69576957Y-108081513D01*
X69748386Y-108081513D01*
X69976957Y-108119608D01*
X70091243Y-108157703D01*
X70205529Y-108233894D01*
X70262672Y-108348180D01*
X70262672Y-108538656D01*
X93672195Y-88981513D02*
X93196005Y-89248180D01*
X93672195Y-89438656D02*
X92672195Y-89438656D01*
X92672195Y-89133894D01*
X92719815Y-89057703D01*
X92767434Y-89019608D01*
X92862672Y-88981513D01*
X93005529Y-88981513D01*
X93100767Y-89019608D01*
X93148386Y-89057703D01*
X93196005Y-89133894D01*
X93196005Y-89438656D01*
X92672195Y-88714846D02*
X93672195Y-88181513D01*
X92672195Y-88181513D02*
X93672195Y-88714846D01*
D12*
X116803148Y-109448180D02*
X116736481Y-109400560D01*
X116636481Y-109400560D01*
X116536481Y-109448180D01*
X116469815Y-109543418D01*
X116436481Y-109638656D01*
X116403148Y-109829132D01*
X116403148Y-109971989D01*
X116436481Y-110162465D01*
X116469815Y-110257703D01*
X116536481Y-110352941D01*
X116636481Y-110400560D01*
X116703148Y-110400560D01*
X116803148Y-110352941D01*
X116836481Y-110305322D01*
X116836481Y-109971989D01*
X116703148Y-109971989D01*
D15*
X92753148Y-79995799D02*
X92753148Y-80186275D01*
X91353148Y-80186275D01*
X92019815Y-79862465D02*
X92019815Y-79729132D01*
X92753148Y-79671989D02*
X92753148Y-79862465D01*
X91353148Y-79862465D01*
X91353148Y-79671989D01*
X92753148Y-79500560D02*
X91353148Y-79500560D01*
X91353148Y-79405322D01*
X91419815Y-79348180D01*
X91553148Y-79310084D01*
X91686481Y-79291037D01*
X91953148Y-79271989D01*
X92153148Y-79271989D01*
X92419815Y-79291037D01*
X92553148Y-79310084D01*
X92686481Y-79348180D01*
X92753148Y-79405322D01*
X92753148Y-79500560D01*
X92753148Y-78891037D02*
X92753148Y-79119608D01*
X92753148Y-79005322D02*
X91353148Y-79005322D01*
X91553148Y-79043418D01*
X91686481Y-79081513D01*
X91753148Y-79119608D01*
D11*
X76124576Y-114710084D02*
X75667434Y-114710084D01*
X75896005Y-114710084D02*
X75896005Y-113910084D01*
X75819815Y-114024370D01*
X75743624Y-114100560D01*
X75667434Y-114138656D01*
X76429338Y-113986275D02*
X76467434Y-113948180D01*
X76543624Y-113910084D01*
X76734100Y-113910084D01*
X76810291Y-113948180D01*
X76848386Y-113986275D01*
X76886481Y-114062465D01*
X76886481Y-114138656D01*
X76848386Y-114252941D01*
X76391243Y-114710084D01*
X76886481Y-114710084D01*
X77115053Y-113910084D02*
X77381719Y-114710084D01*
X77648386Y-113910084D01*
X123872195Y-84302640D02*
X122872195Y-84302640D01*
X123586481Y-84035974D01*
X122872195Y-83769307D01*
X123872195Y-83769307D01*
X123872195Y-83388355D02*
X122872195Y-83388355D01*
X123824576Y-83045498D02*
X123872195Y-82931212D01*
X123872195Y-82740736D01*
X123824576Y-82664545D01*
X123776957Y-82626450D01*
X123681719Y-82588355D01*
X123586481Y-82588355D01*
X123491243Y-82626450D01*
X123443624Y-82664545D01*
X123396005Y-82740736D01*
X123348386Y-82893117D01*
X123300767Y-82969307D01*
X123253148Y-83007402D01*
X123157910Y-83045498D01*
X123062672Y-83045498D01*
X122967434Y-83007402D01*
X122919815Y-82969307D01*
X122872195Y-82893117D01*
X122872195Y-82702640D01*
X122919815Y-82588355D01*
X122872195Y-82093117D02*
X122872195Y-81940736D01*
X122919815Y-81864545D01*
X123015053Y-81788355D01*
X123205529Y-81750259D01*
X123538862Y-81750259D01*
X123729338Y-81788355D01*
X123824576Y-81864545D01*
X123872195Y-81940736D01*
X123872195Y-82093117D01*
X123824576Y-82169307D01*
X123729338Y-82245498D01*
X123538862Y-82283593D01*
X123205529Y-82283593D01*
X123015053Y-82245498D01*
X122919815Y-82169307D01*
X122872195Y-82093117D01*
X86776957Y-114291037D02*
X86891243Y-114329132D01*
X86929338Y-114367227D01*
X86967434Y-114443418D01*
X86967434Y-114557703D01*
X86929338Y-114633894D01*
X86891243Y-114671989D01*
X86815053Y-114710084D01*
X86510291Y-114710084D01*
X86510291Y-113910084D01*
X86776957Y-113910084D01*
X86853148Y-113948180D01*
X86891243Y-113986275D01*
X86929338Y-114062465D01*
X86929338Y-114138656D01*
X86891243Y-114214846D01*
X86853148Y-114252941D01*
X86776957Y-114291037D01*
X86510291Y-114291037D01*
D14*
X69691243Y-101312465D02*
X70291243Y-101112465D01*
X69691243Y-100912465D01*
X70291243Y-100712465D02*
X69691243Y-100712465D01*
X70291243Y-100426751D02*
X69691243Y-100426751D01*
X70291243Y-100083894D01*
X69691243Y-100083894D01*
X70348386Y-99941037D02*
X70348386Y-99483894D01*
X69976957Y-99141037D02*
X69976957Y-99341037D01*
X70291243Y-99341037D02*
X69691243Y-99341037D01*
X69691243Y-99055322D01*
X69691243Y-98826751D02*
X70176957Y-98826751D01*
X70234100Y-98798180D01*
X70262672Y-98769608D01*
X70291243Y-98712465D01*
X70291243Y-98598180D01*
X70262672Y-98541037D01*
X70234100Y-98512465D01*
X70176957Y-98483894D01*
X69691243Y-98483894D01*
X70262672Y-98226751D02*
X70291243Y-98141037D01*
X70291243Y-97998180D01*
X70262672Y-97941037D01*
X70234100Y-97912465D01*
X70176957Y-97883894D01*
X70119815Y-97883894D01*
X70062672Y-97912465D01*
X70034100Y-97941037D01*
X70005529Y-97998180D01*
X69976957Y-98112465D01*
X69948386Y-98169608D01*
X69919815Y-98198180D01*
X69862672Y-98226751D01*
X69805529Y-98226751D01*
X69748386Y-98198180D01*
X69719815Y-98169608D01*
X69691243Y-98112465D01*
X69691243Y-97969608D01*
X69719815Y-97883894D01*
X69976957Y-97626751D02*
X69976957Y-97426751D01*
X70291243Y-97341037D02*
X70291243Y-97626751D01*
X69691243Y-97626751D01*
X69691243Y-97341037D01*
X70291243Y-97083894D02*
X69691243Y-97083894D01*
X69691243Y-96941037D01*
X69719815Y-96855322D01*
X69776957Y-96798180D01*
X69834100Y-96769608D01*
X69948386Y-96741037D01*
X70034100Y-96741037D01*
X70148386Y-96769608D01*
X70205529Y-96798180D01*
X70262672Y-96855322D01*
X70291243Y-96941037D01*
X70291243Y-97083894D01*
D12*
X118419815Y-115952941D02*
X118519815Y-116000560D01*
X118686481Y-116000560D01*
X118753148Y-115952941D01*
X118786481Y-115905322D01*
X118819815Y-115810084D01*
X118819815Y-115714846D01*
X118786481Y-115619608D01*
X118753148Y-115571989D01*
X118686481Y-115524370D01*
X118553148Y-115476751D01*
X118486481Y-115429132D01*
X118453148Y-115381513D01*
X118419815Y-115286275D01*
X118419815Y-115191037D01*
X118453148Y-115095799D01*
X118486481Y-115048180D01*
X118553148Y-115000560D01*
X118719815Y-115000560D01*
X118819815Y-115048180D01*
D14*
X110755529Y-120086608D02*
X110755529Y-119486608D01*
X110755529Y-119772322D02*
X111098386Y-119772322D01*
X111098386Y-120086608D02*
X111098386Y-119486608D01*
X111355529Y-119915180D02*
X111641243Y-119915180D01*
X111298386Y-120086608D02*
X111498386Y-119486608D01*
X111698386Y-120086608D01*
X112184100Y-120086608D02*
X111898386Y-120086608D01*
X111898386Y-119486608D01*
X112669815Y-120086608D02*
X112384100Y-120086608D01*
X112384100Y-119486608D01*
X110012672Y-121024037D02*
X110098386Y-121052608D01*
X110241243Y-121052608D01*
X110298386Y-121024037D01*
X110326957Y-120995465D01*
X110355529Y-120938322D01*
X110355529Y-120881180D01*
X110326957Y-120824037D01*
X110298386Y-120795465D01*
X110241243Y-120766894D01*
X110126957Y-120738322D01*
X110069815Y-120709751D01*
X110041243Y-120681180D01*
X110012672Y-120624037D01*
X110012672Y-120566894D01*
X110041243Y-120509751D01*
X110069815Y-120481180D01*
X110126957Y-120452608D01*
X110269815Y-120452608D01*
X110355529Y-120481180D01*
X110612672Y-120738322D02*
X110812672Y-120738322D01*
X110898386Y-121052608D02*
X110612672Y-121052608D01*
X110612672Y-120452608D01*
X110898386Y-120452608D01*
X111155529Y-121052608D02*
X111155529Y-120452608D01*
X111498386Y-121052608D01*
X111498386Y-120452608D01*
X111755529Y-121024037D02*
X111841243Y-121052608D01*
X111984100Y-121052608D01*
X112041243Y-121024037D01*
X112069815Y-120995465D01*
X112098386Y-120938322D01*
X112098386Y-120881180D01*
X112069815Y-120824037D01*
X112041243Y-120795465D01*
X111984100Y-120766894D01*
X111869815Y-120738322D01*
X111812672Y-120709751D01*
X111784100Y-120681180D01*
X111755529Y-120624037D01*
X111755529Y-120566894D01*
X111784100Y-120509751D01*
X111812672Y-120481180D01*
X111869815Y-120452608D01*
X112012672Y-120452608D01*
X112098386Y-120481180D01*
X112469815Y-120452608D02*
X112584100Y-120452608D01*
X112641243Y-120481180D01*
X112698386Y-120538322D01*
X112726957Y-120652608D01*
X112726957Y-120852608D01*
X112698386Y-120966894D01*
X112641243Y-121024037D01*
X112584100Y-121052608D01*
X112469815Y-121052608D01*
X112412672Y-121024037D01*
X112355529Y-120966894D01*
X112326957Y-120852608D01*
X112326957Y-120652608D01*
X112355529Y-120538322D01*
X112412672Y-120481180D01*
X112469815Y-120452608D01*
X113326957Y-121052608D02*
X113126957Y-120766894D01*
X112984100Y-121052608D02*
X112984100Y-120452608D01*
X113212672Y-120452608D01*
X113269815Y-120481180D01*
X113298386Y-120509751D01*
X113326957Y-120566894D01*
X113326957Y-120652608D01*
X113298386Y-120709751D01*
X113269815Y-120738322D01*
X113212672Y-120766894D01*
X112984100Y-120766894D01*
D11*
X84029338Y-114481513D02*
X84410291Y-114481513D01*
X83953148Y-114710084D02*
X84219815Y-113910084D01*
X84486481Y-114710084D01*
D13*
X89908475Y-105348000D02*
X89800142Y-105300380D01*
X89628713Y-105300380D01*
X89451332Y-105348000D01*
X89325142Y-105443238D01*
X89256094Y-105538476D01*
X89175142Y-105728952D01*
X89157285Y-105871809D01*
X89190618Y-106062285D01*
X89235856Y-106157523D01*
X89338237Y-106252761D01*
X89503713Y-106300380D01*
X89617999Y-106300380D01*
X89795380Y-106252761D01*
X89858475Y-106205142D01*
X89900142Y-105871809D01*
X89671570Y-105871809D01*
D11*
X92719815Y-86957703D02*
X92672195Y-87033894D01*
X92672195Y-87148180D01*
X92719815Y-87262465D01*
X92815053Y-87338656D01*
X92910291Y-87376751D01*
X93100767Y-87414846D01*
X93243624Y-87414846D01*
X93434100Y-87376751D01*
X93529338Y-87338656D01*
X93624576Y-87262465D01*
X93672195Y-87148180D01*
X93672195Y-87071989D01*
X93624576Y-86957703D01*
X93576957Y-86919608D01*
X93243624Y-86919608D01*
X93243624Y-87071989D01*
X93672195Y-86576751D02*
X92672195Y-86576751D01*
X93672195Y-86119608D01*
X92672195Y-86119608D01*
X93672195Y-85738656D02*
X92672195Y-85738656D01*
X92672195Y-85548180D01*
X92719815Y-85433894D01*
X92815053Y-85357703D01*
X92910291Y-85319608D01*
X93100767Y-85281513D01*
X93243624Y-85281513D01*
X93434100Y-85319608D01*
X93529338Y-85357703D01*
X93624576Y-85433894D01*
X93672195Y-85548180D01*
X93672195Y-85738656D01*
X92666066Y-84714846D02*
X93666066Y-84448180D01*
X92666066Y-84181513D01*
X93570828Y-83457703D02*
X93618447Y-83495799D01*
X93666066Y-83610084D01*
X93666066Y-83686275D01*
X93618447Y-83800560D01*
X93523209Y-83876751D01*
X93427971Y-83914846D01*
X93237495Y-83952941D01*
X93094638Y-83952941D01*
X92904162Y-83914846D01*
X92808924Y-83876751D01*
X92713686Y-83800560D01*
X92666066Y-83686275D01*
X92666066Y-83610084D01*
X92713686Y-83495799D01*
X92761305Y-83457703D01*
X93570828Y-82657703D02*
X93618447Y-82695799D01*
X93666066Y-82810084D01*
X93666066Y-82886275D01*
X93618447Y-83000560D01*
X93523209Y-83076751D01*
X93427971Y-83114846D01*
X93237495Y-83152941D01*
X93094638Y-83152941D01*
X92904162Y-83114846D01*
X92808924Y-83076751D01*
X92713686Y-83000560D01*
X92666066Y-82886275D01*
X92666066Y-82810084D01*
X92713686Y-82695799D01*
X92761305Y-82657703D01*
D15*
X88153148Y-79995799D02*
X88153148Y-80186275D01*
X86753148Y-80186275D01*
X87419815Y-79862465D02*
X87419815Y-79729132D01*
X88153148Y-79671989D02*
X88153148Y-79862465D01*
X86753148Y-79862465D01*
X86753148Y-79671989D01*
X88153148Y-79500560D02*
X86753148Y-79500560D01*
X86753148Y-79405322D01*
X86819815Y-79348180D01*
X86953148Y-79310084D01*
X87086481Y-79291037D01*
X87353148Y-79271989D01*
X87553148Y-79271989D01*
X87819815Y-79291037D01*
X87953148Y-79310084D01*
X88086481Y-79348180D01*
X88153148Y-79405322D01*
X88153148Y-79500560D01*
X86753148Y-79138656D02*
X86753148Y-78891037D01*
X87286481Y-79024370D01*
X87286481Y-78967227D01*
X87353148Y-78929132D01*
X87419815Y-78910084D01*
X87553148Y-78891037D01*
X87886481Y-78891037D01*
X88019815Y-78910084D01*
X88086481Y-78929132D01*
X88153148Y-78967227D01*
X88153148Y-79081513D01*
X88086481Y-79119608D01*
X88019815Y-79138656D01*
D12*
X91303148Y-109448180D02*
X91236481Y-109400560D01*
X91136481Y-109400560D01*
X91036481Y-109448180D01*
X90969815Y-109543418D01*
X90936481Y-109638656D01*
X90903148Y-109829132D01*
X90903148Y-109971989D01*
X90936481Y-110162465D01*
X90969815Y-110257703D01*
X91036481Y-110352941D01*
X91136481Y-110400560D01*
X91203148Y-110400560D01*
X91303148Y-110352941D01*
X91336481Y-110305322D01*
X91336481Y-109971989D01*
X91203148Y-109971989D01*
D15*
X90453148Y-79995799D02*
X90453148Y-80186275D01*
X89053148Y-80186275D01*
X89719815Y-79862465D02*
X89719815Y-79729132D01*
X90453148Y-79671989D02*
X90453148Y-79862465D01*
X89053148Y-79862465D01*
X89053148Y-79671989D01*
X90453148Y-79500560D02*
X89053148Y-79500560D01*
X89053148Y-79405322D01*
X89119815Y-79348180D01*
X89253148Y-79310084D01*
X89386481Y-79291037D01*
X89653148Y-79271989D01*
X89853148Y-79271989D01*
X90119815Y-79291037D01*
X90253148Y-79310084D01*
X90386481Y-79348180D01*
X90453148Y-79405322D01*
X90453148Y-79500560D01*
X89519815Y-78929132D02*
X90453148Y-78929132D01*
X88986481Y-79024370D02*
X89986481Y-79119608D01*
X89986481Y-78871989D01*
D12*
X94936481Y-109400560D02*
X95169815Y-110400560D01*
X95403148Y-109400560D01*
D15*
X86053148Y-79995799D02*
X86053148Y-80186275D01*
X84653148Y-80186275D01*
X85319815Y-79862465D02*
X85319815Y-79729132D01*
X86053148Y-79671989D02*
X86053148Y-79862465D01*
X84653148Y-79862465D01*
X84653148Y-79671989D01*
X86053148Y-79500560D02*
X84653148Y-79500560D01*
X84653148Y-79405322D01*
X84719815Y-79348180D01*
X84853148Y-79310084D01*
X84986481Y-79291037D01*
X85253148Y-79271989D01*
X85453148Y-79271989D01*
X85719815Y-79291037D01*
X85853148Y-79310084D01*
X85986481Y-79348180D01*
X86053148Y-79405322D01*
X86053148Y-79500560D01*
X84786481Y-79119608D02*
X84719815Y-79100560D01*
X84653148Y-79062465D01*
X84653148Y-78967227D01*
X84719815Y-78929132D01*
X84786481Y-78910084D01*
X84919815Y-78891037D01*
X85053148Y-78891037D01*
X85253148Y-78910084D01*
X86053148Y-79138656D01*
X86053148Y-78891037D01*
D12*
X100353148Y-109448180D02*
X100286481Y-109400560D01*
X100186481Y-109400560D01*
X100086481Y-109448180D01*
X100019815Y-109543418D01*
X99986481Y-109638656D01*
X99953148Y-109829132D01*
X99953148Y-109971989D01*
X99986481Y-110162465D01*
X100019815Y-110257703D01*
X100086481Y-110352941D01*
X100186481Y-110400560D01*
X100253148Y-110400560D01*
X100353148Y-110352941D01*
X100386481Y-110305322D01*
X100386481Y-109971989D01*
X100253148Y-109971989D01*
X103986481Y-109400560D02*
X104219815Y-110400560D01*
X104453148Y-109400560D01*
D11*
X79636213Y-90819608D02*
X80398118Y-90819608D01*
D14*
X118791243Y-103519608D02*
X118791243Y-102919608D01*
X119076957Y-103519608D02*
X119076957Y-102919608D01*
X119419815Y-103519608D01*
X119419815Y-102919608D01*
X119619815Y-102919608D02*
X119962672Y-102919608D01*
X119791243Y-103519608D02*
X119791243Y-102919608D01*
X120134100Y-102976751D02*
X120162672Y-102948180D01*
X120219815Y-102919608D01*
X120362672Y-102919608D01*
X120419815Y-102948180D01*
X120448386Y-102976751D01*
X120476957Y-103033894D01*
X120476957Y-103091037D01*
X120448386Y-103176751D01*
X120105529Y-103519608D01*
X120476957Y-103519608D01*
D11*
X81638862Y-90824522D02*
X82400767Y-90824522D01*
X82019815Y-91205474D02*
X82019815Y-90443570D01*
X84029338Y-114481513D02*
X84410291Y-114481513D01*
X83953148Y-114710084D02*
X84219815Y-113910084D01*
X84486481Y-114710084D01*
X110219815Y-83657703D02*
X110172195Y-83733894D01*
X110172195Y-83848180D01*
X110219815Y-83962465D01*
X110315053Y-84038656D01*
X110410291Y-84076751D01*
X110600767Y-84114846D01*
X110743624Y-84114846D01*
X110934100Y-84076751D01*
X111029338Y-84038656D01*
X111124576Y-83962465D01*
X111172195Y-83848180D01*
X111172195Y-83771989D01*
X111124576Y-83657703D01*
X111076957Y-83619608D01*
X110743624Y-83619608D01*
X110743624Y-83771989D01*
X111172195Y-83276751D02*
X110172195Y-83276751D01*
X111172195Y-82819608D01*
X110172195Y-82819608D01*
X111172195Y-82438656D02*
X110172195Y-82438656D01*
X110172195Y-82248180D01*
X110219815Y-82133894D01*
X110315053Y-82057703D01*
X110410291Y-82019608D01*
X110600767Y-81981513D01*
X110743624Y-81981513D01*
X110934100Y-82019608D01*
X111029338Y-82057703D01*
X111124576Y-82133894D01*
X111172195Y-82248180D01*
X111172195Y-82438656D01*
D14*
X96646005Y-96231513D02*
X96884100Y-96231513D01*
X96598386Y-96460084D02*
X96765053Y-95660084D01*
X96931719Y-96460084D01*
X97026957Y-95660084D02*
X97312672Y-95660084D01*
X97169815Y-96460084D02*
X97169815Y-95660084D01*
X97479338Y-96460084D02*
X97479338Y-95926751D01*
X97479338Y-96002941D02*
X97503148Y-95964846D01*
X97550767Y-95926751D01*
X97622195Y-95926751D01*
X97669815Y-95964846D01*
X97693624Y-96041037D01*
X97693624Y-96460084D01*
X97693624Y-96041037D02*
X97717434Y-95964846D01*
X97765053Y-95926751D01*
X97836481Y-95926751D01*
X97884100Y-95964846D01*
X97907910Y-96041037D01*
X97907910Y-96460084D01*
X98336481Y-96421989D02*
X98288862Y-96460084D01*
X98193624Y-96460084D01*
X98146005Y-96421989D01*
X98122195Y-96345799D01*
X98122195Y-96041037D01*
X98146005Y-95964846D01*
X98193624Y-95926751D01*
X98288862Y-95926751D01*
X98336481Y-95964846D01*
X98360291Y-96041037D01*
X98360291Y-96117227D01*
X98122195Y-96193418D01*
X98788862Y-95926751D02*
X98788862Y-96574370D01*
X98765053Y-96650560D01*
X98741243Y-96688656D01*
X98693624Y-96726751D01*
X98622195Y-96726751D01*
X98574576Y-96688656D01*
X98788862Y-96421989D02*
X98741243Y-96460084D01*
X98646005Y-96460084D01*
X98598386Y-96421989D01*
X98574576Y-96383894D01*
X98550767Y-96307703D01*
X98550767Y-96079132D01*
X98574576Y-96002941D01*
X98598386Y-95964846D01*
X98646005Y-95926751D01*
X98741243Y-95926751D01*
X98788862Y-95964846D01*
X99241243Y-96460084D02*
X99241243Y-96041037D01*
X99217434Y-95964846D01*
X99169815Y-95926751D01*
X99074576Y-95926751D01*
X99026957Y-95964846D01*
X99241243Y-96421989D02*
X99193624Y-96460084D01*
X99074576Y-96460084D01*
X99026957Y-96421989D01*
X99003148Y-96345799D01*
X99003148Y-96269608D01*
X99026957Y-96193418D01*
X99074576Y-96155322D01*
X99193624Y-96155322D01*
X99241243Y-96117227D01*
X99741243Y-96460084D02*
X99455529Y-96460084D01*
X99598386Y-96460084D02*
X99598386Y-95660084D01*
X99550767Y-95774370D01*
X99503148Y-95850560D01*
X99455529Y-95888656D01*
X100169815Y-95660084D02*
X100074576Y-95660084D01*
X100026957Y-95698180D01*
X100003148Y-95736275D01*
X99955529Y-95850560D01*
X99931719Y-96002941D01*
X99931719Y-96307703D01*
X99955529Y-96383894D01*
X99979338Y-96421989D01*
X100026957Y-96460084D01*
X100122195Y-96460084D01*
X100169815Y-96421989D01*
X100193624Y-96383894D01*
X100217434Y-96307703D01*
X100217434Y-96117227D01*
X100193624Y-96041037D01*
X100169815Y-96002941D01*
X100122195Y-95964846D01*
X100026957Y-95964846D01*
X99979338Y-96002941D01*
X99955529Y-96041037D01*
X99931719Y-96117227D01*
X100646005Y-95926751D02*
X100646005Y-96460084D01*
X100526957Y-95621989D02*
X100407910Y-96193418D01*
X100717434Y-96193418D01*
X100907910Y-96460084D02*
X100907910Y-95660084D01*
X101098386Y-95660084D01*
X101146005Y-95698180D01*
X101169815Y-95736275D01*
X101193624Y-95812465D01*
X101193624Y-95926751D01*
X101169815Y-96002941D01*
X101146005Y-96041037D01*
X101098386Y-96079132D01*
X100907910Y-96079132D01*
D12*
X111436481Y-115000560D02*
X111669815Y-116000560D01*
X111903148Y-115000560D01*
D11*
X81110291Y-113948180D02*
X81034100Y-113910084D01*
X80919815Y-113910084D01*
X80805529Y-113948180D01*
X80729338Y-114024370D01*
X80691243Y-114100560D01*
X80653148Y-114252941D01*
X80653148Y-114367227D01*
X80691243Y-114519608D01*
X80729338Y-114595799D01*
X80805529Y-114671989D01*
X80919815Y-114710084D01*
X80996005Y-114710084D01*
X81110291Y-114671989D01*
X81148386Y-114633894D01*
X81148386Y-114367227D01*
X80996005Y-114367227D01*
X81491243Y-114710084D02*
X81491243Y-113910084D01*
X81948386Y-114710084D01*
X81948386Y-113910084D01*
X82329338Y-114710084D02*
X82329338Y-113910084D01*
X82519815Y-113910084D01*
X82634100Y-113948180D01*
X82710291Y-114024370D01*
X82748386Y-114100560D01*
X82786481Y-114252941D01*
X82786481Y-114367227D01*
X82748386Y-114519608D01*
X82710291Y-114595799D01*
X82634100Y-114671989D01*
X82519815Y-114710084D01*
X82329338Y-114710084D01*
D16*
%TO.C,DD4*%
X125428419Y-96825362D02*
X125376834Y-96834458D01*
X125538205Y-96844687D02*
X125383449Y-96871975D01*
X125647990Y-96864012D02*
X125390064Y-96909491D01*
X125757776Y-96883337D02*
X125396680Y-96947008D01*
X125815976Y-96911757D02*
X125403295Y-96984524D01*
X125925762Y-96931082D02*
X125409910Y-97022041D01*
X126035547Y-96950407D02*
X125416525Y-97059557D01*
X126145333Y-96969732D02*
X125423140Y-97097074D01*
X126255118Y-96989056D02*
X125429755Y-97134590D01*
X126158563Y-97044765D02*
X125436371Y-97172107D01*
X126062008Y-97100473D02*
X125442986Y-97209623D01*
X125965453Y-97156181D02*
X125449601Y-97247140D01*
X125868897Y-97211889D02*
X125456216Y-97284656D01*
X125823927Y-97258502D02*
X125462831Y-97322173D01*
X125727372Y-97314210D02*
X125469446Y-97359689D01*
X125630817Y-97369918D02*
X125476062Y-97397206D01*
X125482677Y-97434722D02*
X126203533Y-96998152D01*
X125376834Y-96834458D01*
X125534262Y-97425626D02*
X125482677Y-97434722D01*
X126255118Y-96989056D02*
X125489292Y-97472239D01*
X125370219Y-96796942D01*
X126255118Y-96989056D01*
X100668626Y-106238566D02*
X100618030Y-106225009D01*
X100759958Y-106302478D02*
X100608170Y-106261806D01*
X100851291Y-106366389D02*
X100598310Y-106298603D01*
X100942623Y-106430301D02*
X100588450Y-106335400D01*
X100983359Y-106480655D02*
X100578591Y-106372198D01*
X101074692Y-106544567D02*
X100568731Y-106408995D01*
X101166024Y-106608478D02*
X100558871Y-106445792D01*
X101257357Y-106672390D02*
X100549011Y-106482589D01*
X101348689Y-106736301D02*
X100539151Y-106519386D01*
X101237637Y-106745984D02*
X100529292Y-106556183D01*
X101126585Y-106755667D02*
X100519432Y-106592981D01*
X101015533Y-106765350D02*
X100509572Y-106629778D01*
X100904481Y-106775032D02*
X100499712Y-106666575D01*
X100844025Y-106798272D02*
X100489853Y-106703372D01*
X100732973Y-106807955D02*
X100479993Y-106740169D01*
X100621921Y-106817638D02*
X100470133Y-106776966D01*
X100460273Y-106813764D02*
X101298093Y-106722744D01*
X100618030Y-106225009D01*
X100510869Y-106827321D02*
X100460273Y-106813764D01*
X101348689Y-106736301D02*
X100450413Y-106850561D01*
X100627889Y-106188212D01*
X101348689Y-106736301D01*
X122166396Y-99666956D02*
X122133062Y-99609221D01*
X122191823Y-99806235D02*
X122091823Y-99633030D01*
X122217250Y-99945515D02*
X122050584Y-99656840D01*
X122242678Y-100084794D02*
X122009344Y-99680649D01*
X122234772Y-100166339D02*
X121968105Y-99704459D01*
X122260199Y-100305618D02*
X121926866Y-99728268D01*
X122285626Y-100444898D02*
X121885626Y-99752078D01*
X122311054Y-100584178D02*
X121844387Y-99775887D01*
X122336481Y-100723457D02*
X121803148Y-99799697D01*
X122228575Y-100631797D02*
X121761909Y-99823506D01*
X122120669Y-100540136D02*
X121720669Y-99847316D01*
X122012763Y-100448476D02*
X121679430Y-99871125D01*
X121904857Y-100356815D02*
X121638191Y-99894935D01*
X121830285Y-100322890D02*
X121596951Y-99918744D01*
X121722379Y-100231229D02*
X121555712Y-99942554D01*
X121614473Y-100139568D02*
X121514473Y-99966363D01*
X121473233Y-99990173D02*
X122303148Y-100665722D01*
X122133062Y-99609221D01*
X121506567Y-100047908D02*
X121473233Y-99990173D01*
X122336481Y-100723457D02*
X121431994Y-100013982D01*
X122174302Y-99585411D01*
X122336481Y-100723457D01*
D17*
%TO.C,R15*%
X95069815Y-105948180D02*
X95069815Y-104748180D01*
X97769815Y-105948180D02*
X95069815Y-105948180D01*
X97719815Y-104748180D02*
X95069815Y-104748180D01*
X97769815Y-105948180D02*
X97769815Y-104748180D01*
%TO.C,R31*%
X87619815Y-94298180D02*
X87619815Y-96998180D01*
X87619815Y-94298180D02*
X86419815Y-94298180D01*
X86419815Y-94348180D02*
X86419815Y-96998180D01*
X87619815Y-96998180D02*
X86419815Y-96998180D01*
D11*
%TO.C,HL6*%
X80304815Y-116483180D02*
X80304815Y-115013180D01*
X80304815Y-115013180D02*
X78019815Y-115013180D01*
X78019815Y-116483180D02*
X80304815Y-116483180D01*
%TO.C,HL4*%
X88289839Y-83148180D02*
X88289839Y-80863180D01*
X86819839Y-80863180D02*
X86819839Y-83148180D01*
X88289839Y-80863180D02*
X86819839Y-80863180D01*
%TO.C,kibuzzard-633978C2*%
G36*
X121774774Y-108556482D02*
G01*
X121705684Y-108546233D01*
X121637932Y-108529262D01*
X121572169Y-108505732D01*
X121509029Y-108475869D01*
X121449120Y-108439961D01*
X121393020Y-108398354D01*
X121341267Y-108351449D01*
X121294362Y-108299696D01*
X121252755Y-108243596D01*
X121216847Y-108183687D01*
X121186984Y-108120547D01*
X121163453Y-108054784D01*
X121146482Y-107987031D01*
X121136234Y-107917942D01*
X121132807Y-107848180D01*
X121136234Y-107778418D01*
X121146482Y-107709329D01*
X121163453Y-107641576D01*
X121186984Y-107575813D01*
X121216847Y-107512673D01*
X121252755Y-107452764D01*
X121286804Y-107406855D01*
X121976827Y-107406855D01*
X122213365Y-107406855D01*
X122213365Y-108427617D01*
X122391165Y-108427617D01*
X122757877Y-108427617D01*
X122945202Y-108427617D01*
X123089665Y-107964068D01*
X123092840Y-107964068D01*
X123238890Y-108427617D01*
X123432565Y-108427617D01*
X123207140Y-107837067D01*
X123305228Y-107586242D01*
X123608777Y-107586242D01*
X123881827Y-107433842D01*
X123885002Y-107435430D01*
X123885002Y-108427617D01*
X124062802Y-108427617D01*
X124062802Y-107268743D01*
X123886590Y-107268743D01*
X123608777Y-107430667D01*
X123608777Y-107586242D01*
X123305228Y-107586242D01*
X123429390Y-107268743D01*
X123245240Y-107268743D01*
X123099190Y-107713242D01*
X123096015Y-107713242D01*
X122951552Y-107268743D01*
X122762640Y-107268743D01*
X122984890Y-107837067D01*
X122757877Y-108427617D01*
X122391165Y-108427617D01*
X122391165Y-107406855D01*
X122627702Y-107406855D01*
X122627702Y-107268743D01*
X121976827Y-107268743D01*
X121976827Y-107406855D01*
X121286804Y-107406855D01*
X121294362Y-107396664D01*
X121341267Y-107344911D01*
X121393020Y-107298006D01*
X121449120Y-107256399D01*
X121509029Y-107220491D01*
X121572169Y-107190628D01*
X121637932Y-107167098D01*
X121705684Y-107150127D01*
X121774774Y-107139878D01*
X121844536Y-107136451D01*
X124195094Y-107136451D01*
X124264856Y-107139878D01*
X124333946Y-107150127D01*
X124401698Y-107167098D01*
X124467461Y-107190628D01*
X124530601Y-107220491D01*
X124590510Y-107256399D01*
X124646610Y-107298006D01*
X124698363Y-107344911D01*
X124745268Y-107396664D01*
X124786875Y-107452764D01*
X124822783Y-107512673D01*
X124852646Y-107575813D01*
X124876177Y-107641576D01*
X124893148Y-107709329D01*
X124903396Y-107778418D01*
X124906823Y-107848180D01*
X124903396Y-107917942D01*
X124893148Y-107987031D01*
X124876177Y-108054784D01*
X124852646Y-108120547D01*
X124822783Y-108183687D01*
X124786875Y-108243596D01*
X124745268Y-108299696D01*
X124698363Y-108351449D01*
X124646610Y-108398354D01*
X124590510Y-108439961D01*
X124530601Y-108475869D01*
X124467461Y-108505732D01*
X124401698Y-108529262D01*
X124333946Y-108546233D01*
X124264856Y-108556482D01*
X124195094Y-108559909D01*
X121844536Y-108559909D01*
X121774774Y-108556482D01*
G37*
D10*
%TO.C,DA4*%
X129479815Y-96798180D02*
X129479815Y-93798180D01*
X126259815Y-95298180D02*
X126259815Y-93798180D01*
%TO.C,SB2*%
X92419815Y-88698180D02*
X92119815Y-88698180D01*
X89619815Y-85398180D02*
X89619815Y-88698180D01*
X89919815Y-85398180D02*
X89619815Y-85398180D01*
X89619815Y-88698180D02*
X89919815Y-88698180D01*
X92119815Y-85398180D02*
X92419815Y-85398180D01*
X92419815Y-85398180D02*
X92419815Y-88698180D01*
%TO.C,XT7*%
X96329815Y-113658180D02*
X97579815Y-113658180D01*
X89769815Y-112748180D02*
X91719815Y-112748180D01*
X96669815Y-109248180D02*
X89769815Y-109248180D01*
X91719815Y-112748180D02*
X91719815Y-113358180D01*
X92319815Y-109248180D02*
X92319815Y-109748180D01*
X95819815Y-113558180D02*
X95819815Y-113358180D01*
X89159815Y-112048180D02*
X89769815Y-112048180D01*
X92319815Y-109748180D02*
X92119815Y-109748180D01*
X89159815Y-110748180D02*
X89769815Y-110748180D01*
X94719815Y-113358180D02*
X94719815Y-112748180D01*
X97279815Y-113358180D02*
X97279815Y-108638180D01*
X92219815Y-109248180D02*
X92219815Y-109748180D01*
X94119815Y-109748180D02*
X94119815Y-109248180D01*
X96669815Y-112748180D02*
X96669815Y-109248180D01*
X92119815Y-109748180D02*
X92119815Y-109248180D01*
X94319815Y-109748180D02*
X94119815Y-109748180D01*
X95519815Y-113358180D02*
X95519815Y-113558180D01*
X94719815Y-112748180D02*
X96669815Y-112748180D01*
X97279815Y-112048180D02*
X96669815Y-112048180D01*
X95519815Y-113558180D02*
X95819815Y-113558180D01*
X97279815Y-110748180D02*
X96669815Y-110748180D01*
X94219815Y-109248180D02*
X94219815Y-109748180D01*
X97579815Y-113658180D02*
X97579815Y-112408180D01*
X89159815Y-108638180D02*
X89159815Y-113358180D01*
X95519815Y-113458180D02*
X95819815Y-113458180D01*
X89159815Y-113358180D02*
X97279815Y-113358180D01*
X97279815Y-108638180D02*
X89159815Y-108638180D01*
X89769815Y-109248180D02*
X89769815Y-112748180D01*
X94319815Y-109248180D02*
X94319815Y-109748180D01*
D18*
%TO.C,C19*%
X104219815Y-91548180D02*
X103219815Y-91548180D01*
X104219815Y-90348180D02*
X103219815Y-90348180D01*
X101869815Y-90948180D02*
X101869815Y-91198180D01*
X102219815Y-90348180D02*
X103219815Y-90348180D01*
X104569815Y-90948180D02*
X104569815Y-90698180D01*
X101869815Y-90948180D02*
X101869815Y-90698180D01*
X102219815Y-91548180D02*
X103219815Y-91548180D01*
X104569815Y-90948180D02*
X104569815Y-91198180D01*
X104219815Y-91548180D02*
G75*
G03*
X104569815Y-91198180I-1J350001D01*
G01*
X101869815Y-91198180D02*
G75*
G03*
X102219815Y-91548180I350000J0D01*
G01*
X102219815Y-90348180D02*
G75*
G03*
X101869815Y-90698180I0J-350000D01*
G01*
X104569815Y-90698180D02*
G75*
G03*
X104219815Y-90348180I-350001J-1D01*
G01*
D11*
%TO.C,HL1*%
X86054815Y-80863180D02*
X84584815Y-80863180D01*
X86054815Y-83148180D02*
X86054815Y-80863180D01*
X84584815Y-80863180D02*
X84584815Y-83148180D01*
D10*
%TO.C,XP9*%
X74400000Y-109100000D02*
G75*
G03*
X74400000Y-109100000I-1500000J0D01*
G01*
D17*
%TO.C,R18*%
X99819815Y-92398180D02*
X99819815Y-93598180D01*
X97169815Y-93598180D02*
X99819815Y-93598180D01*
X97119815Y-92398180D02*
X97119815Y-93598180D01*
X97119815Y-92398180D02*
X99819815Y-92398180D01*
D10*
%TO.C,DD3*%
X116119815Y-102758180D02*
X119719815Y-102758180D01*
X117919815Y-98308179D02*
G75*
G03*
X116081337Y-102746658I0J-2600001D01*
G01*
X119758293Y-102746658D02*
G75*
G03*
X117919815Y-98308180I-1838478J1838478D01*
G01*
D17*
%TO.C,R71*%
X116269815Y-92648180D02*
X113569815Y-92648180D01*
X113569815Y-92648180D02*
X113569815Y-91448180D01*
X116219815Y-91448180D02*
X113569815Y-91448180D01*
X116269815Y-92648180D02*
X116269815Y-91448180D01*
D18*
%TO.C,C21*%
X108369815Y-109548180D02*
X108369815Y-109798180D01*
X111069815Y-109548180D02*
X111069815Y-109298180D01*
X110719815Y-108948180D02*
X109719815Y-108948180D01*
X108719815Y-110148180D02*
X109719815Y-110148180D01*
X108719815Y-108948180D02*
X109719815Y-108948180D01*
X108369815Y-109548180D02*
X108369815Y-109298180D01*
X111069815Y-109548180D02*
X111069815Y-109798180D01*
X110719815Y-110148180D02*
X109719815Y-110148180D01*
X108369815Y-109798180D02*
G75*
G03*
X108719815Y-110148180I350000J0D01*
G01*
X108719815Y-108948180D02*
G75*
G03*
X108369815Y-109298180I0J-350000D01*
G01*
X111069815Y-109298180D02*
G75*
G03*
X110719815Y-108948180I-350001J-1D01*
G01*
X110719815Y-110148180D02*
G75*
G03*
X111069815Y-109798180I-1J350001D01*
G01*
D10*
%TO.C,C27*%
X71874252Y-105808180D02*
X73559815Y-105808180D01*
X72559815Y-107048180D02*
X72559815Y-106048180D01*
X70809815Y-97288180D02*
X73559815Y-97288180D01*
X78265378Y-105808180D02*
X79329815Y-104743743D01*
X79329815Y-97288180D02*
X76579815Y-97288180D01*
X71874252Y-105808180D02*
X70809815Y-104743743D01*
X72059815Y-106548180D02*
X73059815Y-106548180D01*
X78265378Y-105808180D02*
X76579815Y-105808180D01*
X70809815Y-104743743D02*
X70809815Y-97288180D01*
X79329815Y-104743743D02*
X79329815Y-97288180D01*
D18*
%TO.C,C24*%
X108019815Y-109648180D02*
X108019815Y-110648180D01*
X107419815Y-109298180D02*
X107669815Y-109298180D01*
X107419815Y-111998180D02*
X107669815Y-111998180D01*
X106819815Y-109648180D02*
X106819815Y-110648180D01*
X107419815Y-109298180D02*
X107169815Y-109298180D01*
X107419815Y-111998180D02*
X107169815Y-111998180D01*
X108019815Y-111648180D02*
X108019815Y-110648180D01*
X106819815Y-111648180D02*
X106819815Y-110648180D01*
X106819815Y-111648180D02*
G75*
G03*
X107169815Y-111998180I350001J1D01*
G01*
X108019815Y-109648180D02*
G75*
G03*
X107669815Y-109298180I-350000J0D01*
G01*
X107669815Y-111998180D02*
G75*
G03*
X108019815Y-111648180I-1J350001D01*
G01*
X107169815Y-109298180D02*
G75*
G03*
X106819815Y-109648180I0J-350000D01*
G01*
%TO.C,kibuzzard-63397779*%
G36*
X77638390Y-118714905D02*
G01*
X77533615Y-118735542D01*
X77417727Y-118698236D01*
X77376453Y-118592667D01*
X77389351Y-118520833D01*
X77428046Y-118470430D01*
X77495317Y-118440664D01*
X77593940Y-118430742D01*
X77638390Y-118430742D01*
X77638390Y-118714905D01*
G37*
G36*
X79971023Y-118147969D02*
G01*
X80018846Y-118194999D01*
X80045635Y-118285288D01*
X80054565Y-118430742D01*
X80045635Y-118576197D01*
X80018846Y-118666486D01*
X79971023Y-118713516D01*
X79898990Y-118729192D01*
X79826957Y-118713516D01*
X79779134Y-118666486D01*
X79752345Y-118576197D01*
X79743415Y-118430742D01*
X79752345Y-118285288D01*
X79779134Y-118194999D01*
X79826957Y-118147969D01*
X79898990Y-118132292D01*
X79971023Y-118147969D01*
G37*
G36*
X76212437Y-118988079D02*
G01*
X76140265Y-118977373D01*
X76069490Y-118959645D01*
X76000794Y-118935065D01*
X75934837Y-118903870D01*
X75872256Y-118866360D01*
X75841423Y-118843493D01*
X76417602Y-118843493D01*
X76595402Y-118843493D01*
X76595402Y-118362480D01*
X76657315Y-118362480D01*
X76753359Y-118393436D01*
X76783720Y-118438085D01*
X76809715Y-118510118D01*
X76901790Y-118843493D01*
X77084352Y-118843493D01*
X77008121Y-118592667D01*
X77208177Y-118592667D01*
X77229410Y-118705380D01*
X77293109Y-118789518D01*
X77357579Y-118828323D01*
X77437748Y-118851606D01*
X77533615Y-118859367D01*
X77630100Y-118853723D01*
X77722704Y-118836790D01*
X77811427Y-118808568D01*
X77811427Y-118430742D01*
X77986052Y-118430742D01*
X77995401Y-118571236D01*
X78023447Y-118681568D01*
X78070190Y-118761736D01*
X78137041Y-118815976D01*
X78225412Y-118848520D01*
X78335302Y-118859367D01*
X78433727Y-118853723D01*
X78523686Y-118836790D01*
X78605177Y-118808568D01*
X78605177Y-118017992D01*
X78859177Y-118017992D01*
X78859177Y-118146580D01*
X79070315Y-118146580D01*
X79070315Y-118843493D01*
X79248115Y-118843493D01*
X79248115Y-118430742D01*
X79565615Y-118430742D01*
X79574787Y-118567267D01*
X79602304Y-118676276D01*
X79648165Y-118757768D01*
X79712723Y-118814212D01*
X79796332Y-118848079D01*
X79898990Y-118859367D01*
X80001648Y-118848079D01*
X80085257Y-118814212D01*
X80149815Y-118757768D01*
X80195676Y-118676276D01*
X80223193Y-118567267D01*
X80232365Y-118430742D01*
X80223193Y-118294217D01*
X80195676Y-118185209D01*
X80149815Y-118103717D01*
X80085257Y-118047273D01*
X80001648Y-118013406D01*
X79898990Y-118002117D01*
X79796332Y-118013406D01*
X79712723Y-118047273D01*
X79648165Y-118103717D01*
X79602304Y-118185209D01*
X79574787Y-118294217D01*
X79565615Y-118430742D01*
X79248115Y-118430742D01*
X79248115Y-118017992D01*
X78859177Y-118017992D01*
X78605177Y-118017992D01*
X78605177Y-117970367D01*
X80391115Y-117970367D01*
X80407585Y-118083080D01*
X80456996Y-118176742D01*
X80511589Y-118231776D01*
X80587524Y-118284693D01*
X80684802Y-118335493D01*
X80752867Y-118376371D01*
X80798309Y-118422805D01*
X80823907Y-118479161D01*
X80832440Y-118549805D01*
X80821327Y-118623822D01*
X80787990Y-118677599D01*
X80734809Y-118710341D01*
X80664165Y-118721255D01*
X80571208Y-118709790D01*
X80482837Y-118675394D01*
X80399052Y-118618067D01*
X80399052Y-118783168D01*
X80480544Y-118825501D01*
X80570502Y-118850901D01*
X80668927Y-118859367D01*
X80791800Y-118846667D01*
X80887367Y-118808567D01*
X80955630Y-118745068D01*
X80996587Y-118656167D01*
X81010240Y-118541867D01*
X80994776Y-118430742D01*
X81164227Y-118430742D01*
X81174370Y-118561711D01*
X81204797Y-118668868D01*
X81255509Y-118752211D01*
X81326505Y-118811743D01*
X81417787Y-118847461D01*
X81529352Y-118859367D01*
X81640081Y-118849446D01*
X81663337Y-118843493D01*
X81978615Y-118843493D01*
X82153240Y-118843493D01*
X82153240Y-118167217D01*
X82261190Y-118132292D01*
X82378665Y-118164042D01*
X82410415Y-118279930D01*
X82410415Y-118843493D01*
X82581865Y-118843493D01*
X82581865Y-118287867D01*
X82575370Y-118232305D01*
X82783478Y-118232305D01*
X82799352Y-118323785D01*
X82846977Y-118395024D01*
X82932306Y-118450388D01*
X83061290Y-118494242D01*
X83166065Y-118541867D01*
X83194640Y-118621243D01*
X83158128Y-118704586D01*
X83037478Y-118730780D01*
X82918018Y-118715302D01*
X82791415Y-118668868D01*
X82791415Y-118808568D01*
X82876082Y-118836790D01*
X82967098Y-118853723D01*
X83064465Y-118859367D01*
X83194045Y-118843889D01*
X83290684Y-118797455D01*
X83350810Y-118722446D01*
X83370852Y-118621243D01*
X83355573Y-118519642D01*
X83309734Y-118446618D01*
X83221826Y-118392643D01*
X83080340Y-118348193D01*
X82985884Y-118303742D01*
X82958103Y-118232305D01*
X82992631Y-118154914D01*
X83096215Y-118129117D01*
X83216865Y-118139039D01*
X83343865Y-118168805D01*
X83343865Y-118037042D01*
X83262466Y-118017992D01*
X84328115Y-118017992D01*
X84550365Y-118843493D01*
X84772615Y-118843493D01*
X85331415Y-118843493D01*
X85585415Y-118843493D01*
X85585415Y-118573618D01*
X85331415Y-118573618D01*
X85331415Y-118843493D01*
X84772615Y-118843493D01*
X84994865Y-118017992D01*
X84820240Y-118017992D01*
X84666253Y-118716492D01*
X84663077Y-118716492D01*
X84509090Y-118017992D01*
X84328115Y-118017992D01*
X83262466Y-118017992D01*
X83260962Y-118017640D01*
X83173121Y-118005998D01*
X83080340Y-118002117D01*
X85968003Y-118002117D01*
X86241053Y-117849717D01*
X86244227Y-117851305D01*
X86244227Y-118843493D01*
X86422027Y-118843493D01*
X86422027Y-117684617D01*
X86245815Y-117684617D01*
X85968003Y-117846542D01*
X85968003Y-118002117D01*
X83080340Y-118002117D01*
X82950959Y-118017000D01*
X82858090Y-118061649D01*
X82802131Y-118134078D01*
X82783478Y-118232305D01*
X82575370Y-118232305D01*
X82565395Y-118146977D01*
X82515984Y-118060855D01*
X82457864Y-118028223D01*
X82371345Y-118008644D01*
X82256427Y-118002117D01*
X82154298Y-118009526D01*
X82061694Y-118031751D01*
X81978615Y-118068793D01*
X81978615Y-118843493D01*
X81663337Y-118843493D01*
X81756365Y-118819680D01*
X81756365Y-118687918D01*
X81647621Y-118720064D01*
X81549990Y-118730780D01*
X81464860Y-118717088D01*
X81403146Y-118676011D01*
X81363657Y-118602391D01*
X81345202Y-118491068D01*
X81796053Y-118491068D01*
X81799227Y-118427567D01*
X81790937Y-118292013D01*
X81766066Y-118183798D01*
X81724615Y-118102924D01*
X81666230Y-118046920D01*
X81590559Y-118013318D01*
X81497603Y-118002117D01*
X81395738Y-118014024D01*
X81312394Y-118049742D01*
X81247571Y-118109274D01*
X81201269Y-118192617D01*
X81173488Y-118299774D01*
X81164227Y-118430742D01*
X80994776Y-118430742D01*
X80993174Y-118419233D01*
X80941977Y-118321205D01*
X80883946Y-118264584D01*
X80800866Y-118209022D01*
X80692740Y-118154517D01*
X80622184Y-118107069D01*
X80579851Y-118043040D01*
X80565740Y-117962430D01*
X80576852Y-117897342D01*
X80610190Y-117848130D01*
X80662974Y-117817174D01*
X80732427Y-117806855D01*
X80855856Y-117823921D01*
X80978490Y-117875117D01*
X80978490Y-117716368D01*
X80893118Y-117689909D01*
X80804218Y-117674034D01*
X80711790Y-117668742D01*
X80616981Y-117677562D01*
X80537871Y-117704020D01*
X80474459Y-117748118D01*
X80411951Y-117843367D01*
X80391115Y-117970367D01*
X78605177Y-117970367D01*
X78605177Y-117835430D01*
X79038565Y-117835430D01*
X79248115Y-117835430D01*
X79248115Y-117636992D01*
X79038565Y-117636992D01*
X79038565Y-117835430D01*
X78605177Y-117835430D01*
X78605177Y-117652867D01*
X78430552Y-117652867D01*
X78430552Y-118037042D01*
X78357131Y-118010849D01*
X78279740Y-118002117D01*
X78188812Y-118013230D01*
X78114993Y-118046567D01*
X78058284Y-118102130D01*
X78018155Y-118183092D01*
X77994078Y-118292630D01*
X77986052Y-118430742D01*
X77811427Y-118430742D01*
X77811427Y-118316443D01*
X77804637Y-118205317D01*
X77784264Y-118121709D01*
X77750309Y-118065617D01*
X77660813Y-118017992D01*
X77514565Y-118002117D01*
X77429193Y-118007762D01*
X77340293Y-118024695D01*
X77247865Y-118052917D01*
X77247865Y-118189443D01*
X77339940Y-118157692D01*
X77425665Y-118138642D01*
X77505040Y-118132292D01*
X77613784Y-118161661D01*
X77638390Y-118284692D01*
X77638390Y-118311680D01*
X77593940Y-118311680D01*
X77475671Y-118319706D01*
X77379098Y-118343783D01*
X77304221Y-118383911D01*
X77232188Y-118472216D01*
X77208177Y-118592667D01*
X77008121Y-118592667D01*
X76985927Y-118519642D01*
X76935127Y-118395024D01*
X76874802Y-118316443D01*
X76874802Y-118313268D01*
X76952590Y-118267825D01*
X77008152Y-118202936D01*
X77041490Y-118118600D01*
X77052602Y-118014817D01*
X77042813Y-117905897D01*
X77013444Y-117818320D01*
X76964496Y-117752086D01*
X76894558Y-117705784D01*
X76802218Y-117678003D01*
X76687477Y-117668742D01*
X76596108Y-117672270D01*
X76506150Y-117682854D01*
X76417602Y-117700492D01*
X76417602Y-118843493D01*
X75841423Y-118843493D01*
X75813653Y-118822897D01*
X75759592Y-118773899D01*
X75710594Y-118719838D01*
X75667130Y-118661235D01*
X75629621Y-118598654D01*
X75598426Y-118532697D01*
X75573846Y-118464001D01*
X75556117Y-118393226D01*
X75545412Y-118321054D01*
X75541832Y-118248180D01*
X75545412Y-118175306D01*
X75556117Y-118103134D01*
X75573846Y-118032359D01*
X75598426Y-117963663D01*
X75629621Y-117897706D01*
X75667130Y-117835125D01*
X75710594Y-117776522D01*
X75759592Y-117722461D01*
X75813653Y-117673463D01*
X75872256Y-117630000D01*
X75934837Y-117592490D01*
X76000794Y-117561295D01*
X76069490Y-117536715D01*
X76140265Y-117518987D01*
X76212437Y-117508281D01*
X76285311Y-117504701D01*
X86554319Y-117504701D01*
X86627193Y-117508281D01*
X86699365Y-117518987D01*
X86770140Y-117536715D01*
X86838836Y-117561295D01*
X86904793Y-117592490D01*
X86967374Y-117630000D01*
X87025977Y-117673463D01*
X87080038Y-117722461D01*
X87129036Y-117776522D01*
X87172500Y-117835125D01*
X87210009Y-117897706D01*
X87241204Y-117963663D01*
X87265784Y-118032359D01*
X87283513Y-118103134D01*
X87294218Y-118175306D01*
X87297798Y-118248180D01*
X87294218Y-118321054D01*
X87283513Y-118393226D01*
X87265784Y-118464001D01*
X87241204Y-118532697D01*
X87210009Y-118598654D01*
X87172500Y-118661235D01*
X87129036Y-118719838D01*
X87080038Y-118773899D01*
X87025977Y-118822897D01*
X86967374Y-118866360D01*
X86904793Y-118903870D01*
X86838836Y-118935065D01*
X86770140Y-118959645D01*
X86699365Y-118977373D01*
X86627193Y-118988079D01*
X86554319Y-118991659D01*
X76285311Y-118991659D01*
X76212437Y-118988079D01*
G37*
G36*
X78373006Y-118145786D02*
G01*
X78430552Y-118186268D01*
X78430552Y-118714905D01*
X78327365Y-118735542D01*
X78253943Y-118718477D01*
X78201952Y-118667280D01*
X78170996Y-118574014D01*
X78160677Y-118430742D01*
X78169210Y-118291241D01*
X78194809Y-118199761D01*
X78237870Y-118149160D01*
X78298790Y-118132292D01*
X78373006Y-118145786D01*
G37*
G36*
X76772012Y-117819357D02*
G01*
X76831940Y-117856861D01*
X76867659Y-117921353D01*
X76879565Y-118014817D01*
X76866865Y-118112449D01*
X76828765Y-118176742D01*
X76760503Y-118212461D01*
X76657315Y-118224368D01*
X76595402Y-118224368D01*
X76595402Y-117819555D01*
X76687477Y-117806855D01*
X76772012Y-117819357D01*
G37*
G36*
X81592852Y-118182299D02*
G01*
X81618252Y-118255919D01*
X81627777Y-118367243D01*
X81345202Y-118367243D01*
X81358696Y-118252943D01*
X81386477Y-118179917D01*
X81430531Y-118140627D01*
X81492840Y-118127530D01*
X81592852Y-118182299D01*
G37*
D10*
%TO.C,XT5*%
X115219815Y-109248180D02*
X115219815Y-112748180D01*
X117769815Y-109748180D02*
X117569815Y-109748180D01*
X114609815Y-112048180D02*
X115219815Y-112048180D01*
X122729815Y-110748180D02*
X122119815Y-110748180D01*
X119769815Y-109248180D02*
X119769815Y-109748180D01*
X119569815Y-109748180D02*
X119569815Y-109248180D01*
X114609815Y-108638180D02*
X114609815Y-113358180D01*
X117669815Y-109248180D02*
X117669815Y-109748180D01*
X114609815Y-113358180D02*
X122729815Y-113358180D01*
X115219815Y-112748180D02*
X117169815Y-112748180D01*
X114609815Y-110748180D02*
X115219815Y-110748180D01*
X122729815Y-112048180D02*
X122119815Y-112048180D01*
X122119815Y-109248180D02*
X115219815Y-109248180D01*
X120969815Y-113458180D02*
X121269815Y-113458180D01*
X120169815Y-112748180D02*
X122119815Y-112748180D01*
X120969815Y-113558180D02*
X121269815Y-113558180D01*
X119769815Y-109748180D02*
X119569815Y-109748180D01*
X117769815Y-109248180D02*
X117769815Y-109748180D01*
X122119815Y-112748180D02*
X122119815Y-109248180D01*
X121269815Y-113558180D02*
X121269815Y-113358180D01*
X122729815Y-113358180D02*
X122729815Y-108638180D01*
X117569815Y-109748180D02*
X117569815Y-109248180D01*
X120969815Y-113358180D02*
X120969815Y-113558180D01*
X119669815Y-109248180D02*
X119669815Y-109748180D01*
X117169815Y-112748180D02*
X117169815Y-113358180D01*
X122729815Y-108638180D02*
X114609815Y-108638180D01*
X120169815Y-113358180D02*
X120169815Y-112748180D01*
X121779815Y-113658180D02*
X123029815Y-113658180D01*
X123029815Y-113658180D02*
X123029815Y-112408180D01*
D18*
%TO.C,C37*%
X120619815Y-96548180D02*
X121619815Y-96548180D01*
X122619815Y-97748180D02*
X121619815Y-97748180D01*
X122969815Y-97148180D02*
X122969815Y-97398180D01*
X122969815Y-97148180D02*
X122969815Y-96898180D01*
X122619815Y-96548180D02*
X121619815Y-96548180D01*
X120619815Y-97748180D02*
X121619815Y-97748180D01*
X120269815Y-97148180D02*
X120269815Y-97398180D01*
X120269815Y-97148180D02*
X120269815Y-96898180D01*
X122619815Y-97748180D02*
G75*
G03*
X122969815Y-97398180I-1J350001D01*
G01*
X120619815Y-96548180D02*
G75*
G03*
X120269815Y-96898180I0J-350000D01*
G01*
X120269815Y-97398180D02*
G75*
G03*
X120619815Y-97748180I350000J0D01*
G01*
X122969815Y-96898180D02*
G75*
G03*
X122619815Y-96548180I-350001J-1D01*
G01*
D10*
%TO.C,XT6*%
X102119815Y-118348180D02*
X104069815Y-118348180D01*
X99719815Y-115348180D02*
X99519815Y-115348180D01*
X103729815Y-119258180D02*
X104979815Y-119258180D01*
X104069815Y-114848180D02*
X97169815Y-114848180D01*
X97169815Y-118348180D02*
X99119815Y-118348180D01*
X96559815Y-117648180D02*
X97169815Y-117648180D01*
X102919815Y-119058180D02*
X103219815Y-119058180D01*
X102919815Y-119158180D02*
X103219815Y-119158180D01*
X101519815Y-115348180D02*
X101519815Y-114848180D01*
X103219815Y-119158180D02*
X103219815Y-118958180D01*
X102119815Y-118958180D02*
X102119815Y-118348180D01*
X99619815Y-114848180D02*
X99619815Y-115348180D01*
X104069815Y-118348180D02*
X104069815Y-114848180D01*
X104679815Y-114238180D02*
X96559815Y-114238180D01*
X101619815Y-114848180D02*
X101619815Y-115348180D01*
X101719815Y-115348180D02*
X101519815Y-115348180D01*
X96559815Y-116348180D02*
X97169815Y-116348180D01*
X104679815Y-118958180D02*
X104679815Y-114238180D01*
X97169815Y-114848180D02*
X97169815Y-118348180D01*
X101719815Y-114848180D02*
X101719815Y-115348180D01*
X99119815Y-118348180D02*
X99119815Y-118958180D01*
X99519815Y-115348180D02*
X99519815Y-114848180D01*
X99719815Y-114848180D02*
X99719815Y-115348180D01*
X104679815Y-117648180D02*
X104069815Y-117648180D01*
X104679815Y-116348180D02*
X104069815Y-116348180D01*
X96559815Y-114238180D02*
X96559815Y-118958180D01*
X96559815Y-118958180D02*
X104679815Y-118958180D01*
X102919815Y-118958180D02*
X102919815Y-119158180D01*
X104979815Y-119258180D02*
X104979815Y-118008180D01*
%TO.C,XT3*%
X103719815Y-113358180D02*
X103719815Y-112748180D01*
X104519815Y-113458180D02*
X104819815Y-113458180D01*
X103119815Y-109748180D02*
X103119815Y-109248180D01*
X104519815Y-113558180D02*
X104819815Y-113558180D01*
X98159815Y-110748180D02*
X98769815Y-110748180D01*
X101319815Y-109748180D02*
X101119815Y-109748180D01*
X103219815Y-109248180D02*
X103219815Y-109748180D01*
X98159815Y-112048180D02*
X98769815Y-112048180D01*
X104819815Y-113558180D02*
X104819815Y-113358180D01*
X98769815Y-112748180D02*
X100719815Y-112748180D01*
X105669815Y-109248180D02*
X98769815Y-109248180D01*
X103319815Y-109748180D02*
X103119815Y-109748180D01*
X103319815Y-109248180D02*
X103319815Y-109748180D01*
X101219815Y-109248180D02*
X101219815Y-109748180D01*
X106279815Y-108638180D02*
X98159815Y-108638180D01*
X105669815Y-112748180D02*
X105669815Y-109248180D01*
X106279815Y-110748180D02*
X105669815Y-110748180D01*
X106279815Y-113358180D02*
X106279815Y-108638180D01*
X98159815Y-108638180D02*
X98159815Y-113358180D01*
X98769815Y-109248180D02*
X98769815Y-112748180D01*
X101119815Y-109748180D02*
X101119815Y-109248180D01*
X104519815Y-113358180D02*
X104519815Y-113558180D01*
X103719815Y-112748180D02*
X105669815Y-112748180D01*
X106579815Y-113658180D02*
X106579815Y-112408180D01*
X105329815Y-113658180D02*
X106579815Y-113658180D01*
X98159815Y-113358180D02*
X106279815Y-113358180D01*
X100719815Y-112748180D02*
X100719815Y-113358180D01*
X101319815Y-109248180D02*
X101319815Y-109748180D01*
X106279815Y-112048180D02*
X105669815Y-112048180D01*
D19*
%TO.C,DA1*%
X95019815Y-81623180D02*
X94019815Y-81623180D01*
D10*
X93984815Y-85028180D02*
X96644815Y-85028180D01*
X93984815Y-82428180D02*
X95314815Y-82428180D01*
X96644815Y-85028180D02*
X96644815Y-95248180D01*
X93984815Y-95248180D02*
X96644815Y-95248180D01*
X93984815Y-83758180D02*
X93984815Y-82428180D01*
X93984815Y-85028180D02*
X93984815Y-95248180D01*
D19*
X94944815Y-96148180D02*
X93944815Y-96148180D01*
X94019815Y-82123180D02*
X94019815Y-81623180D01*
X121619815Y-82623180D02*
X121619815Y-81623180D01*
X121544815Y-95148180D02*
X121544815Y-96148180D01*
X120619815Y-81623180D02*
X121619815Y-81623180D01*
X120544815Y-96148180D02*
X121544815Y-96148180D01*
X93944815Y-95748180D02*
X93944815Y-96148180D01*
%TO.C,kibuzzard-6339789C*%
G36*
X93637327Y-107833918D02*
G01*
X93383327Y-107833918D01*
X93383327Y-107829155D01*
X93634152Y-107314805D01*
X93637327Y-107314805D01*
X93637327Y-107833918D01*
G37*
G36*
X92293893Y-108372281D02*
G01*
X92223262Y-108361803D01*
X92153998Y-108344454D01*
X92086769Y-108320399D01*
X92022221Y-108289870D01*
X91960976Y-108253161D01*
X91903624Y-108210626D01*
X91850717Y-108162674D01*
X91802765Y-108109767D01*
X91760230Y-108052415D01*
X91723521Y-107991170D01*
X91692992Y-107926622D01*
X91668937Y-107859392D01*
X91651587Y-107790129D01*
X91641110Y-107719498D01*
X91637607Y-107648180D01*
X91641110Y-107576862D01*
X91651587Y-107506231D01*
X91668937Y-107436968D01*
X91692992Y-107369738D01*
X91700203Y-107354492D01*
X92497502Y-107354492D01*
X92513973Y-107467205D01*
X92563384Y-107560867D01*
X92617976Y-107615901D01*
X92693912Y-107668818D01*
X92791190Y-107719618D01*
X92859254Y-107760496D01*
X92904696Y-107806930D01*
X92930295Y-107863286D01*
X92938827Y-107933930D01*
X92927715Y-108007947D01*
X92894377Y-108061724D01*
X92841196Y-108094466D01*
X92770552Y-108105380D01*
X92677596Y-108093915D01*
X92589225Y-108059519D01*
X92505440Y-108002192D01*
X92505440Y-108167293D01*
X92586932Y-108209626D01*
X92676890Y-108235026D01*
X92775315Y-108243492D01*
X92898187Y-108230792D01*
X92993755Y-108192692D01*
X93062017Y-108129193D01*
X93102975Y-108040292D01*
X93111318Y-107970443D01*
X93243627Y-107970443D01*
X93637327Y-107970443D01*
X93637327Y-108227617D01*
X93811952Y-108227617D01*
X93811952Y-107970443D01*
X93942127Y-107970443D01*
X93942127Y-107833918D01*
X93811952Y-107833918D01*
X93811952Y-107068743D01*
X93619865Y-107068743D01*
X93243627Y-107833918D01*
X93243627Y-107970443D01*
X93111318Y-107970443D01*
X93116627Y-107925992D01*
X93099562Y-107803358D01*
X93048365Y-107705330D01*
X92990333Y-107648709D01*
X92907254Y-107593147D01*
X92799127Y-107538642D01*
X92728572Y-107491194D01*
X92686239Y-107427165D01*
X92672127Y-107346555D01*
X92683240Y-107281467D01*
X92716577Y-107232255D01*
X92769362Y-107201299D01*
X92838815Y-107190980D01*
X92962243Y-107208046D01*
X93084877Y-107259242D01*
X93084877Y-107100492D01*
X92999505Y-107074034D01*
X92910605Y-107058159D01*
X92818177Y-107052867D01*
X92723368Y-107061687D01*
X92644258Y-107088145D01*
X92580846Y-107132243D01*
X92518338Y-107227492D01*
X92497502Y-107354492D01*
X91700203Y-107354492D01*
X91723521Y-107305190D01*
X91760230Y-107243945D01*
X91802765Y-107186593D01*
X91850717Y-107133686D01*
X91903624Y-107085734D01*
X91960976Y-107043199D01*
X92022221Y-107006490D01*
X92086769Y-106975961D01*
X92153998Y-106951906D01*
X92223262Y-106934557D01*
X92293893Y-106924079D01*
X92365211Y-106920576D01*
X94074419Y-106920576D01*
X94145737Y-106924079D01*
X94216368Y-106934557D01*
X94285632Y-106951906D01*
X94352861Y-106975961D01*
X94417409Y-107006490D01*
X94478654Y-107043199D01*
X94536006Y-107085734D01*
X94588913Y-107133686D01*
X94636865Y-107186593D01*
X94679400Y-107243945D01*
X94716109Y-107305190D01*
X94746638Y-107369738D01*
X94770693Y-107436968D01*
X94788043Y-107506231D01*
X94798520Y-107576862D01*
X94802023Y-107648180D01*
X94798520Y-107719498D01*
X94788043Y-107790129D01*
X94770693Y-107859392D01*
X94746638Y-107926622D01*
X94716109Y-107991170D01*
X94679400Y-108052415D01*
X94636865Y-108109767D01*
X94588913Y-108162674D01*
X94536006Y-108210626D01*
X94478654Y-108253161D01*
X94417409Y-108289870D01*
X94352861Y-108320399D01*
X94285632Y-108344454D01*
X94216368Y-108361803D01*
X94145737Y-108372281D01*
X94074419Y-108375784D01*
X92365211Y-108375784D01*
X92293893Y-108372281D01*
G37*
D10*
%TO.C,XT10*%
X105559815Y-118958180D02*
X113679815Y-118958180D01*
X111119815Y-118348180D02*
X113069815Y-118348180D01*
X105559815Y-117648180D02*
X106169815Y-117648180D01*
X110719815Y-115348180D02*
X110519815Y-115348180D01*
X108619815Y-114848180D02*
X108619815Y-115348180D01*
X111119815Y-118958180D02*
X111119815Y-118348180D01*
X113679815Y-114238180D02*
X105559815Y-114238180D01*
X113979815Y-119258180D02*
X113979815Y-118008180D01*
X106169815Y-114848180D02*
X106169815Y-118348180D01*
X113069815Y-114848180D02*
X106169815Y-114848180D01*
X111919815Y-119058180D02*
X112219815Y-119058180D01*
X108719815Y-114848180D02*
X108719815Y-115348180D01*
X111919815Y-118958180D02*
X111919815Y-119158180D01*
X113679815Y-117648180D02*
X113069815Y-117648180D01*
X110619815Y-114848180D02*
X110619815Y-115348180D01*
X105559815Y-116348180D02*
X106169815Y-116348180D01*
X108719815Y-115348180D02*
X108519815Y-115348180D01*
X113069815Y-118348180D02*
X113069815Y-114848180D01*
X112729815Y-119258180D02*
X113979815Y-119258180D01*
X110519815Y-115348180D02*
X110519815Y-114848180D01*
X108519815Y-115348180D02*
X108519815Y-114848180D01*
X112219815Y-119158180D02*
X112219815Y-118958180D01*
X105559815Y-114238180D02*
X105559815Y-118958180D01*
X113679815Y-118958180D02*
X113679815Y-114238180D01*
X110719815Y-114848180D02*
X110719815Y-115348180D01*
X111919815Y-119158180D02*
X112219815Y-119158180D01*
X108119815Y-118348180D02*
X108119815Y-118958180D01*
X113679815Y-116348180D02*
X113069815Y-116348180D01*
X106169815Y-118348180D02*
X108119815Y-118348180D01*
D18*
%TO.C,C46*%
X119319815Y-93148180D02*
X119319815Y-94148180D01*
X119319815Y-95148180D02*
X119319815Y-94148180D01*
X120519815Y-93148180D02*
X120519815Y-94148180D01*
X119919815Y-92798180D02*
X120169815Y-92798180D01*
X119919815Y-95498180D02*
X120169815Y-95498180D01*
X119919815Y-95498180D02*
X119669815Y-95498180D01*
X120519815Y-95148180D02*
X120519815Y-94148180D01*
X119919815Y-92798180D02*
X119669815Y-92798180D01*
X120169815Y-95498180D02*
G75*
G03*
X120519815Y-95148180I-1J350001D01*
G01*
X119669815Y-92798180D02*
G75*
G03*
X119319815Y-93148180I0J-350000D01*
G01*
X119319815Y-95148180D02*
G75*
G03*
X119669815Y-95498180I350001J1D01*
G01*
X120519815Y-93148180D02*
G75*
G03*
X120169815Y-92798180I-350000J0D01*
G01*
D17*
%TO.C,R64*%
X80669815Y-116348180D02*
X80669815Y-115148180D01*
X83369815Y-116348180D02*
X80669815Y-116348180D01*
X83369815Y-116348180D02*
X83369815Y-115148180D01*
X83319815Y-115148180D02*
X80669815Y-115148180D01*
D18*
%TO.C,C23*%
X98119815Y-99748180D02*
X98119815Y-100748180D01*
X98119815Y-101748180D02*
X98119815Y-100748180D01*
X99319815Y-99748180D02*
X99319815Y-100748180D01*
X98719815Y-102098180D02*
X98969815Y-102098180D01*
X99319815Y-101748180D02*
X99319815Y-100748180D01*
X98719815Y-99398180D02*
X98469815Y-99398180D01*
X98719815Y-102098180D02*
X98469815Y-102098180D01*
X98719815Y-99398180D02*
X98969815Y-99398180D01*
X98119815Y-101748180D02*
G75*
G03*
X98469815Y-102098180I350000J0D01*
G01*
X98469815Y-99398180D02*
G75*
G03*
X98119815Y-99748180I1J-350001D01*
G01*
X99319815Y-99748180D02*
G75*
G03*
X98969815Y-99398180I-350001J-1D01*
G01*
X98969815Y-102098180D02*
G75*
G03*
X99319815Y-101748180I0J350000D01*
G01*
%TO.C,C22*%
X114919815Y-100448180D02*
X114919815Y-101448180D01*
X114319815Y-102798180D02*
X114069815Y-102798180D01*
X113719815Y-100448180D02*
X113719815Y-101448180D01*
X114319815Y-102798180D02*
X114569815Y-102798180D01*
X114319815Y-100098180D02*
X114569815Y-100098180D01*
X114319815Y-100098180D02*
X114069815Y-100098180D01*
X114919815Y-102448180D02*
X114919815Y-101448180D01*
X113719815Y-102448180D02*
X113719815Y-101448180D01*
X114069815Y-100098180D02*
G75*
G03*
X113719815Y-100448180I0J-350000D01*
G01*
X114919815Y-100448180D02*
G75*
G03*
X114569815Y-100098180I-350000J0D01*
G01*
X113719815Y-102448180D02*
G75*
G03*
X114069815Y-102798180I350001J1D01*
G01*
X114569815Y-102798180D02*
G75*
G03*
X114919815Y-102448180I-1J350001D01*
G01*
%TO.C,kibuzzard-63397852*%
G36*
X90781999Y-121272281D02*
G01*
X90711369Y-121261803D01*
X90642105Y-121244454D01*
X90574875Y-121220399D01*
X90510327Y-121189870D01*
X90449082Y-121153161D01*
X90391730Y-121110626D01*
X90338823Y-121062674D01*
X90290871Y-121009767D01*
X90248336Y-120952415D01*
X90211628Y-120891170D01*
X90181098Y-120826622D01*
X90157043Y-120759392D01*
X90139694Y-120690129D01*
X90129217Y-120619498D01*
X90125713Y-120548180D01*
X90129217Y-120476862D01*
X90139694Y-120406231D01*
X90157043Y-120336968D01*
X90181098Y-120269738D01*
X90188309Y-120254492D01*
X90985609Y-120254492D01*
X91002079Y-120367205D01*
X91051490Y-120460867D01*
X91106082Y-120515901D01*
X91182018Y-120568818D01*
X91279296Y-120619618D01*
X91347360Y-120660496D01*
X91392803Y-120706930D01*
X91418401Y-120763286D01*
X91426934Y-120833930D01*
X91415821Y-120907947D01*
X91382484Y-120961724D01*
X91329303Y-120994466D01*
X91258659Y-121005380D01*
X91165702Y-120993915D01*
X91077331Y-120959519D01*
X90993546Y-120902192D01*
X90993546Y-121067293D01*
X91075038Y-121109626D01*
X91164996Y-121135026D01*
X91263421Y-121143492D01*
X91386294Y-121130792D01*
X91481861Y-121092692D01*
X91550124Y-121029193D01*
X91591081Y-120940292D01*
X91604734Y-120825992D01*
X91587668Y-120703358D01*
X91536471Y-120605330D01*
X91478439Y-120548709D01*
X91395360Y-120493147D01*
X91287234Y-120438642D01*
X91216678Y-120391194D01*
X91174345Y-120327165D01*
X91167181Y-120286242D01*
X91799996Y-120286242D01*
X92073046Y-120133842D01*
X92076221Y-120135430D01*
X92076221Y-121127617D01*
X92254021Y-121127617D01*
X92254021Y-119968743D01*
X92077809Y-119968743D01*
X91799996Y-120130667D01*
X91799996Y-120286242D01*
X91167181Y-120286242D01*
X91160234Y-120246555D01*
X91171346Y-120181467D01*
X91204684Y-120132255D01*
X91257468Y-120101299D01*
X91326921Y-120090980D01*
X91450349Y-120108046D01*
X91572984Y-120159242D01*
X91572984Y-120000492D01*
X91487612Y-119974034D01*
X91398712Y-119958159D01*
X91306284Y-119952867D01*
X91211475Y-119961687D01*
X91132364Y-119988145D01*
X91068953Y-120032243D01*
X91006445Y-120127492D01*
X90985609Y-120254492D01*
X90188309Y-120254492D01*
X90211628Y-120205190D01*
X90248336Y-120143945D01*
X90290871Y-120086593D01*
X90338823Y-120033686D01*
X90391730Y-119985734D01*
X90449082Y-119943199D01*
X90510327Y-119906490D01*
X90574875Y-119875961D01*
X90642105Y-119851906D01*
X90711369Y-119834557D01*
X90781999Y-119824079D01*
X90853317Y-119820576D01*
X92386313Y-119820576D01*
X92457631Y-119824079D01*
X92528261Y-119834557D01*
X92597525Y-119851906D01*
X92664755Y-119875961D01*
X92729303Y-119906490D01*
X92790548Y-119943199D01*
X92847900Y-119985734D01*
X92900807Y-120033686D01*
X92948759Y-120086593D01*
X92991294Y-120143945D01*
X93028002Y-120205190D01*
X93058532Y-120269738D01*
X93082587Y-120336968D01*
X93099936Y-120406231D01*
X93110413Y-120476862D01*
X93113917Y-120548180D01*
X93110413Y-120619498D01*
X93099936Y-120690129D01*
X93082587Y-120759392D01*
X93058532Y-120826622D01*
X93028002Y-120891170D01*
X92991294Y-120952415D01*
X92948759Y-121009767D01*
X92900807Y-121062674D01*
X92847900Y-121110626D01*
X92790548Y-121153161D01*
X92729303Y-121189870D01*
X92664755Y-121220399D01*
X92597525Y-121244454D01*
X92528261Y-121261803D01*
X92457631Y-121272281D01*
X92386313Y-121275784D01*
X90853317Y-121275784D01*
X90781999Y-121272281D01*
G37*
%TO.C,kibuzzard-63397848*%
G36*
X107066118Y-120822281D02*
G01*
X106995487Y-120811803D01*
X106926223Y-120794454D01*
X106858994Y-120770399D01*
X106794446Y-120739870D01*
X106733201Y-120703161D01*
X106675849Y-120660626D01*
X106622942Y-120612674D01*
X106574990Y-120559767D01*
X106532455Y-120502415D01*
X106495746Y-120441170D01*
X106465217Y-120376622D01*
X106441162Y-120309392D01*
X106423812Y-120240129D01*
X106413335Y-120169498D01*
X106409832Y-120098180D01*
X106413335Y-120026862D01*
X106423812Y-119956231D01*
X106441162Y-119886968D01*
X106465217Y-119819738D01*
X106472428Y-119804492D01*
X107269727Y-119804492D01*
X107286198Y-119917205D01*
X107335609Y-120010867D01*
X107390201Y-120065901D01*
X107466137Y-120118818D01*
X107563415Y-120169618D01*
X107631479Y-120210496D01*
X107676921Y-120256930D01*
X107702520Y-120313286D01*
X107711052Y-120383930D01*
X107699940Y-120457947D01*
X107666602Y-120511724D01*
X107613421Y-120544466D01*
X107542777Y-120555380D01*
X107449821Y-120543915D01*
X107361450Y-120509519D01*
X107277665Y-120452192D01*
X107277665Y-120617293D01*
X107359157Y-120659626D01*
X107449115Y-120685026D01*
X107547540Y-120693492D01*
X107670412Y-120680792D01*
X107765977Y-120642693D01*
X108058715Y-120642693D01*
X108183334Y-120680793D01*
X108312715Y-120693492D01*
X108421856Y-120683791D01*
X108511152Y-120654687D01*
X108580606Y-120606180D01*
X108630215Y-120538270D01*
X108659981Y-120450958D01*
X108669902Y-120344243D01*
X108657004Y-120232721D01*
X108618309Y-120147392D01*
X108553817Y-120088258D01*
X108463527Y-120055318D01*
X108463527Y-120053730D01*
X108546871Y-120013348D01*
X108606402Y-119952527D01*
X108642121Y-119871267D01*
X108654027Y-119769567D01*
X108634184Y-119657847D01*
X108574652Y-119573511D01*
X108478212Y-119520528D01*
X108347640Y-119502867D01*
X108261562Y-119509041D01*
X108172662Y-119527562D01*
X108080940Y-119558430D01*
X108080940Y-119706067D01*
X108203971Y-119656061D01*
X108315890Y-119639392D01*
X108407612Y-119656326D01*
X108462646Y-119707126D01*
X108480990Y-119791792D01*
X108466702Y-119881089D01*
X108423840Y-119942605D01*
X108348831Y-119978324D01*
X108238102Y-119990230D01*
X108206352Y-119990230D01*
X108206352Y-120129930D01*
X108238102Y-120129930D01*
X108357165Y-120142035D01*
X108434952Y-120178349D01*
X108477815Y-120242047D01*
X108492102Y-120336305D01*
X108479601Y-120432150D01*
X108442096Y-120500611D01*
X108379588Y-120541688D01*
X108292077Y-120555380D01*
X108174206Y-120539108D01*
X108058715Y-120490292D01*
X108058715Y-120642693D01*
X107765977Y-120642693D01*
X107765980Y-120642692D01*
X107834242Y-120579193D01*
X107875200Y-120490292D01*
X107888852Y-120375992D01*
X107871787Y-120253358D01*
X107820590Y-120155330D01*
X107762558Y-120098709D01*
X107679479Y-120043147D01*
X107571352Y-119988642D01*
X107500797Y-119941194D01*
X107458464Y-119877165D01*
X107444352Y-119796555D01*
X107455465Y-119731467D01*
X107488802Y-119682255D01*
X107541587Y-119651299D01*
X107611040Y-119640980D01*
X107734468Y-119658046D01*
X107857102Y-119709242D01*
X107857102Y-119550492D01*
X107771730Y-119524034D01*
X107682830Y-119508159D01*
X107590402Y-119502867D01*
X107495593Y-119511687D01*
X107416483Y-119538145D01*
X107353071Y-119582243D01*
X107290563Y-119677492D01*
X107269727Y-119804492D01*
X106472428Y-119804492D01*
X106495746Y-119755190D01*
X106532455Y-119693945D01*
X106574990Y-119636593D01*
X106622942Y-119583686D01*
X106675849Y-119535734D01*
X106733201Y-119493199D01*
X106794446Y-119456490D01*
X106858994Y-119425961D01*
X106926223Y-119401906D01*
X106995487Y-119384557D01*
X107066118Y-119374079D01*
X107137436Y-119370576D01*
X108802194Y-119370576D01*
X108873512Y-119374079D01*
X108944143Y-119384557D01*
X109013407Y-119401906D01*
X109080636Y-119425961D01*
X109145184Y-119456490D01*
X109206429Y-119493199D01*
X109263781Y-119535734D01*
X109316688Y-119583686D01*
X109364640Y-119636593D01*
X109407175Y-119693945D01*
X109443884Y-119755190D01*
X109474413Y-119819738D01*
X109498468Y-119886968D01*
X109515818Y-119956231D01*
X109526295Y-120026862D01*
X109529798Y-120098180D01*
X109526295Y-120169498D01*
X109515818Y-120240129D01*
X109498468Y-120309392D01*
X109474413Y-120376622D01*
X109443884Y-120441170D01*
X109407175Y-120502415D01*
X109364640Y-120559767D01*
X109316688Y-120612674D01*
X109263781Y-120660626D01*
X109206429Y-120703161D01*
X109145184Y-120739870D01*
X109080636Y-120770399D01*
X109013407Y-120794454D01*
X108944143Y-120811803D01*
X108873512Y-120822281D01*
X108802194Y-120825784D01*
X107137436Y-120825784D01*
X107066118Y-120822281D01*
G37*
%TO.C,C45*%
X114119815Y-93073180D02*
X114369815Y-93073180D01*
X114119815Y-95773180D02*
X114369815Y-95773180D01*
X114719815Y-95423180D02*
X114719815Y-94423180D01*
X114119815Y-95773180D02*
X113869815Y-95773180D01*
X114719815Y-93423180D02*
X114719815Y-94423180D01*
X113519815Y-93423180D02*
X113519815Y-94423180D01*
X113519815Y-95423180D02*
X113519815Y-94423180D01*
X114119815Y-93073180D02*
X113869815Y-93073180D01*
X113869815Y-93073180D02*
G75*
G03*
X113519815Y-93423180I1J-350001D01*
G01*
X114719815Y-93423180D02*
G75*
G03*
X114369815Y-93073180I-350001J-1D01*
G01*
X114369815Y-95773180D02*
G75*
G03*
X114719815Y-95423180I0J350000D01*
G01*
X113519815Y-95423180D02*
G75*
G03*
X113869815Y-95773180I350000J0D01*
G01*
D16*
%TO.C,C3*%
X101123368Y-82798180D02*
X101123368Y-89558180D01*
X104529815Y-89048180D02*
X104519815Y-82798180D01*
X104019815Y-82298180D02*
X101623368Y-82298180D01*
X101623368Y-82298180D02*
G75*
G03*
X101123368Y-82798180I1J-500001D01*
G01*
X104519815Y-82798180D02*
G75*
G03*
X104019815Y-82298180I-500001J-1D01*
G01*
%TO.C,kibuzzard-633979A2*%
G36*
X77309515Y-87324386D02*
G01*
X76765002Y-87216436D01*
X76765002Y-87214849D01*
X77309515Y-87106899D01*
X77309515Y-87324386D01*
G37*
G36*
X77893916Y-88507483D02*
G01*
X77883438Y-88578114D01*
X77866089Y-88647378D01*
X77842034Y-88714607D01*
X77811505Y-88779156D01*
X77774796Y-88840401D01*
X77732261Y-88897753D01*
X77684309Y-88950659D01*
X77631402Y-88998611D01*
X77574050Y-89041146D01*
X77512805Y-89077855D01*
X77448257Y-89108384D01*
X77381027Y-89132439D01*
X77311764Y-89149789D01*
X77241133Y-89160266D01*
X77169815Y-89163770D01*
X77098497Y-89160266D01*
X77027866Y-89149789D01*
X76958603Y-89132439D01*
X76891373Y-89108384D01*
X76826825Y-89077855D01*
X76765580Y-89041146D01*
X76708228Y-88998611D01*
X76655321Y-88950659D01*
X76607369Y-88897753D01*
X76564834Y-88840401D01*
X76528125Y-88779156D01*
X76497596Y-88714607D01*
X76473541Y-88647378D01*
X76456192Y-88578114D01*
X76445714Y-88507483D01*
X76442211Y-88436165D01*
X76442211Y-88046699D01*
X76574502Y-88046699D01*
X76582440Y-88177668D01*
X76606252Y-88303874D01*
X77733378Y-88303874D01*
X77751016Y-88216385D01*
X77761600Y-88127485D01*
X77765127Y-88037174D01*
X77755426Y-87924638D01*
X77726322Y-87832563D01*
X77677815Y-87760949D01*
X77609905Y-87709796D01*
X77522593Y-87679104D01*
X77415878Y-87668874D01*
X77309515Y-87684153D01*
X77219027Y-87729993D01*
X77152749Y-87798850D01*
X77119015Y-87883186D01*
X77117428Y-87883186D01*
X77084884Y-87808772D01*
X77028527Y-87750630D01*
X76953121Y-87713125D01*
X76863427Y-87700624D01*
X76759414Y-87714467D01*
X76678515Y-87755996D01*
X76620730Y-87825211D01*
X76586059Y-87922112D01*
X76574502Y-88046699D01*
X76442211Y-88046699D01*
X76442211Y-87316449D01*
X76590378Y-87316449D01*
X77749252Y-87589499D01*
X77749252Y-87411699D01*
X77444453Y-87351374D01*
X77444453Y-87079911D01*
X77749252Y-87019586D01*
X77749252Y-86835436D01*
X76590378Y-87110074D01*
X76590378Y-87316449D01*
X76442211Y-87316449D01*
X76442211Y-86743361D01*
X76590378Y-86743361D01*
X76728490Y-86743361D01*
X76728490Y-86506824D01*
X77749252Y-86506824D01*
X77749252Y-86329024D01*
X76728490Y-86329024D01*
X76728490Y-86092486D01*
X76590378Y-86092486D01*
X76590378Y-86743361D01*
X76442211Y-86743361D01*
X76442211Y-85960195D01*
X76445714Y-85888877D01*
X76456192Y-85818246D01*
X76473541Y-85748982D01*
X76497596Y-85681753D01*
X76528125Y-85617204D01*
X76564834Y-85555959D01*
X76607369Y-85498607D01*
X76655321Y-85445701D01*
X76708228Y-85397749D01*
X76765580Y-85355214D01*
X76826825Y-85318505D01*
X76891373Y-85287976D01*
X76958603Y-85263921D01*
X77027866Y-85246571D01*
X77098497Y-85236094D01*
X77169815Y-85232590D01*
X77241133Y-85236094D01*
X77311764Y-85246571D01*
X77381027Y-85263921D01*
X77448257Y-85287976D01*
X77512805Y-85318505D01*
X77574050Y-85355214D01*
X77631402Y-85397749D01*
X77684309Y-85445701D01*
X77732261Y-85498607D01*
X77774796Y-85555959D01*
X77811505Y-85617204D01*
X77842034Y-85681753D01*
X77866089Y-85748982D01*
X77883438Y-85818246D01*
X77893916Y-85888877D01*
X77897419Y-85960195D01*
X77897419Y-88436165D01*
X77893916Y-88507483D01*
G37*
G36*
X76958082Y-87883186D02*
G01*
X77015034Y-87921286D01*
X77047776Y-87986374D01*
X77058690Y-88080036D01*
X77058690Y-88126074D01*
X76723728Y-88126074D01*
X76711027Y-88046699D01*
X76729196Y-87948803D01*
X76783700Y-87890065D01*
X76874540Y-87870486D01*
X76958082Y-87883186D01*
G37*
G36*
X77510135Y-87854016D02*
G01*
X77577009Y-87890330D01*
X77615704Y-87951250D01*
X77628602Y-88037174D01*
X77615903Y-88126074D01*
X77193627Y-88126074D01*
X77193627Y-88059399D01*
X77206724Y-87961768D01*
X77246015Y-87894299D01*
X77313881Y-87855008D01*
X77412702Y-87841911D01*
X77510135Y-87854016D01*
G37*
D11*
%TO.C,HL3*%
X82254815Y-80863180D02*
X80784815Y-80863180D01*
X80784815Y-80863180D02*
X80784815Y-83148180D01*
X82254815Y-83148180D02*
X82254815Y-80863180D01*
%TO.C,kibuzzard-633978AE*%
G36*
X98683521Y-108464381D02*
G01*
X98613661Y-108454018D01*
X98545153Y-108436858D01*
X98478656Y-108413065D01*
X98414812Y-108382869D01*
X98354235Y-108346561D01*
X98339395Y-108335555D01*
X98886353Y-108335555D01*
X99064153Y-108335555D01*
X99064153Y-107854543D01*
X99126065Y-107854543D01*
X99222109Y-107885499D01*
X99252470Y-107930147D01*
X99278465Y-108002180D01*
X99370540Y-108335555D01*
X99553103Y-108335555D01*
X99648353Y-108335555D01*
X99835678Y-108335555D01*
X99980140Y-107872005D01*
X99983315Y-107872005D01*
X100129365Y-108335555D01*
X100323040Y-108335555D01*
X100097615Y-107745005D01*
X100195703Y-107494180D01*
X100499253Y-107494180D01*
X100772303Y-107341780D01*
X100775478Y-107343368D01*
X100775478Y-108335555D01*
X100953278Y-108335555D01*
X100953278Y-107176680D01*
X100777065Y-107176680D01*
X100499253Y-107338605D01*
X100499253Y-107494180D01*
X100195703Y-107494180D01*
X100319865Y-107176680D01*
X100135715Y-107176680D01*
X99989665Y-107621180D01*
X99986490Y-107621180D01*
X99842028Y-107176680D01*
X99653115Y-107176680D01*
X99875365Y-107745005D01*
X99648353Y-108335555D01*
X99553103Y-108335555D01*
X99454678Y-108011705D01*
X99403878Y-107887086D01*
X99343553Y-107808505D01*
X99343553Y-107805330D01*
X99421340Y-107759888D01*
X99476903Y-107694999D01*
X99510240Y-107610663D01*
X99521353Y-107506880D01*
X99511563Y-107397960D01*
X99482194Y-107310383D01*
X99433246Y-107244149D01*
X99363308Y-107197847D01*
X99270968Y-107170065D01*
X99156228Y-107160805D01*
X99064858Y-107164333D01*
X98974900Y-107174916D01*
X98886353Y-107192555D01*
X98886353Y-108335555D01*
X98339395Y-108335555D01*
X98297509Y-108304490D01*
X98245180Y-108257061D01*
X98197751Y-108204732D01*
X98155680Y-108148005D01*
X98119372Y-108087429D01*
X98089176Y-108023585D01*
X98065383Y-107957088D01*
X98048222Y-107888580D01*
X98037860Y-107818720D01*
X98034394Y-107748180D01*
X98037860Y-107677640D01*
X98048222Y-107607780D01*
X98065383Y-107539272D01*
X98089176Y-107472775D01*
X98119372Y-107408931D01*
X98155680Y-107348355D01*
X98197751Y-107291628D01*
X98245180Y-107239299D01*
X98297509Y-107191870D01*
X98354235Y-107149799D01*
X98414812Y-107113491D01*
X98478656Y-107083295D01*
X98545153Y-107059502D01*
X98613661Y-107042342D01*
X98683521Y-107031979D01*
X98754061Y-107028513D01*
X101085569Y-107028513D01*
X101156109Y-107031979D01*
X101225969Y-107042342D01*
X101294477Y-107059502D01*
X101360974Y-107083295D01*
X101424818Y-107113491D01*
X101485395Y-107149799D01*
X101542121Y-107191870D01*
X101594450Y-107239299D01*
X101641879Y-107291628D01*
X101683950Y-107348355D01*
X101720258Y-107408931D01*
X101750454Y-107472775D01*
X101774247Y-107539272D01*
X101791408Y-107607780D01*
X101801770Y-107677640D01*
X101805236Y-107748180D01*
X101801770Y-107818720D01*
X101791408Y-107888580D01*
X101774247Y-107957088D01*
X101750454Y-108023585D01*
X101720258Y-108087429D01*
X101683950Y-108148005D01*
X101641879Y-108204732D01*
X101594450Y-108257061D01*
X101542121Y-108304490D01*
X101485395Y-108346561D01*
X101424818Y-108382869D01*
X101360974Y-108413065D01*
X101294477Y-108436858D01*
X101225969Y-108454018D01*
X101156109Y-108464381D01*
X101085569Y-108467847D01*
X98754061Y-108467847D01*
X98683521Y-108464381D01*
G37*
G36*
X99240762Y-107311419D02*
G01*
X99300690Y-107348924D01*
X99336409Y-107413416D01*
X99348315Y-107506880D01*
X99335615Y-107604511D01*
X99297515Y-107668805D01*
X99229253Y-107704524D01*
X99126065Y-107716430D01*
X99064153Y-107716430D01*
X99064153Y-107311618D01*
X99156228Y-107298917D01*
X99240762Y-107311419D01*
G37*
D17*
%TO.C,R30*%
X89619815Y-100298180D02*
X89619815Y-97598180D01*
X90819815Y-100248180D02*
X90819815Y-97598180D01*
X89619815Y-97598180D02*
X90819815Y-97598180D01*
X89619815Y-100298180D02*
X90819815Y-100298180D01*
D11*
%TO.C,C33*%
X80819815Y-93048180D02*
X80819815Y-92048180D01*
X75873368Y-93048180D02*
X75873368Y-91994627D01*
X76373368Y-93548180D02*
X80369815Y-93548180D01*
X76373368Y-91548180D02*
X80369815Y-91548180D01*
X80319815Y-93548180D02*
G75*
G03*
X80819815Y-93048180I10J499990D01*
G01*
X76373368Y-91548180D02*
G75*
G03*
X75873368Y-92048180I1J-500001D01*
G01*
X80819815Y-92048180D02*
G75*
G03*
X80319815Y-91548180I-500000J0D01*
G01*
X75873368Y-93048180D02*
G75*
G03*
X76373368Y-93548180I500001J1D01*
G01*
D18*
%TO.C,C17*%
X107719815Y-93348180D02*
X107719815Y-92348180D01*
X107119815Y-93698180D02*
X106869815Y-93698180D01*
X106519815Y-93348180D02*
X106519815Y-92348180D01*
X107119815Y-93698180D02*
X107369815Y-93698180D01*
X107119815Y-90998180D02*
X107369815Y-90998180D01*
X106519815Y-91348180D02*
X106519815Y-92348180D01*
X107719815Y-91348180D02*
X107719815Y-92348180D01*
X107119815Y-90998180D02*
X106869815Y-90998180D01*
X106519815Y-93348180D02*
G75*
G03*
X106869815Y-93698180I350001J1D01*
G01*
X106869815Y-90998180D02*
G75*
G03*
X106519815Y-91348180I0J-350000D01*
G01*
X107719815Y-91348180D02*
G75*
G03*
X107369815Y-90998180I-350000J0D01*
G01*
X107369815Y-93698180D02*
G75*
G03*
X107719815Y-93348180I-1J350001D01*
G01*
%TO.C,kibuzzard-6339783C*%
G36*
X99725643Y-121272281D02*
G01*
X99655012Y-121261803D01*
X99585748Y-121244454D01*
X99518519Y-121220399D01*
X99453971Y-121189870D01*
X99392726Y-121153161D01*
X99335374Y-121110626D01*
X99282467Y-121062674D01*
X99234515Y-121009767D01*
X99191980Y-120952415D01*
X99155271Y-120891170D01*
X99124742Y-120826622D01*
X99100687Y-120759392D01*
X99083337Y-120690129D01*
X99072860Y-120619498D01*
X99069357Y-120548180D01*
X99072860Y-120476862D01*
X99083337Y-120406231D01*
X99100687Y-120336968D01*
X99124742Y-120269738D01*
X99131953Y-120254492D01*
X99929252Y-120254492D01*
X99945723Y-120367205D01*
X99995134Y-120460867D01*
X100049726Y-120515901D01*
X100125662Y-120568818D01*
X100222940Y-120619618D01*
X100291004Y-120660496D01*
X100336446Y-120706930D01*
X100362045Y-120763286D01*
X100370577Y-120833930D01*
X100359465Y-120907947D01*
X100326127Y-120961724D01*
X100272946Y-120994466D01*
X100202302Y-121005380D01*
X100109346Y-120993915D01*
X100020975Y-120959519D01*
X99937190Y-120902192D01*
X99937190Y-121067293D01*
X100018682Y-121109626D01*
X100108640Y-121135026D01*
X100207065Y-121143492D01*
X100329937Y-121130792D01*
X100337901Y-121127617D01*
X100738877Y-121127617D01*
X101310377Y-121127617D01*
X101310377Y-120989505D01*
X100923027Y-120989505D01*
X100923027Y-120986330D01*
X101016144Y-120875403D01*
X101095470Y-120771224D01*
X101161004Y-120673791D01*
X101212746Y-120583105D01*
X101262576Y-120469863D01*
X101292474Y-120362972D01*
X101302440Y-120262430D01*
X101284382Y-120128485D01*
X101230209Y-120031449D01*
X101141904Y-119972513D01*
X101021452Y-119952867D01*
X100920911Y-119962040D01*
X100826719Y-119989556D01*
X100738877Y-120035417D01*
X100738877Y-120184642D01*
X100828307Y-120132608D01*
X100910327Y-120101387D01*
X100984940Y-120090980D01*
X101088921Y-120133842D01*
X101114520Y-120189405D01*
X101123052Y-120270367D01*
X101115212Y-120357356D01*
X101091691Y-120449593D01*
X101052490Y-120547078D01*
X100997608Y-120649812D01*
X100927045Y-120757795D01*
X100840801Y-120871026D01*
X100738877Y-120989505D01*
X100738877Y-121127617D01*
X100337901Y-121127617D01*
X100425505Y-121092692D01*
X100493767Y-121029193D01*
X100534725Y-120940292D01*
X100548377Y-120825992D01*
X100531312Y-120703358D01*
X100480115Y-120605330D01*
X100422083Y-120548709D01*
X100339004Y-120493147D01*
X100230877Y-120438642D01*
X100160322Y-120391194D01*
X100117989Y-120327165D01*
X100103877Y-120246555D01*
X100114990Y-120181467D01*
X100148327Y-120132255D01*
X100201112Y-120101299D01*
X100270565Y-120090980D01*
X100393993Y-120108046D01*
X100516627Y-120159242D01*
X100516627Y-120000492D01*
X100431255Y-119974034D01*
X100342355Y-119958159D01*
X100249927Y-119952867D01*
X100155118Y-119961687D01*
X100076008Y-119988145D01*
X100012596Y-120032243D01*
X99950088Y-120127492D01*
X99929252Y-120254492D01*
X99131953Y-120254492D01*
X99155271Y-120205190D01*
X99191980Y-120143945D01*
X99234515Y-120086593D01*
X99282467Y-120033686D01*
X99335374Y-119985734D01*
X99392726Y-119943199D01*
X99453971Y-119906490D01*
X99518519Y-119875961D01*
X99585748Y-119851906D01*
X99655012Y-119834557D01*
X99725643Y-119824079D01*
X99796961Y-119820576D01*
X101442669Y-119820576D01*
X101513987Y-119824079D01*
X101584618Y-119834557D01*
X101653882Y-119851906D01*
X101721111Y-119875961D01*
X101785659Y-119906490D01*
X101846904Y-119943199D01*
X101904256Y-119985734D01*
X101957163Y-120033686D01*
X102005115Y-120086593D01*
X102047650Y-120143945D01*
X102084359Y-120205190D01*
X102114888Y-120269738D01*
X102138943Y-120336968D01*
X102156293Y-120406231D01*
X102166770Y-120476862D01*
X102170273Y-120548180D01*
X102166770Y-120619498D01*
X102156293Y-120690129D01*
X102138943Y-120759392D01*
X102114888Y-120826622D01*
X102084359Y-120891170D01*
X102047650Y-120952415D01*
X102005115Y-121009767D01*
X101957163Y-121062674D01*
X101904256Y-121110626D01*
X101846904Y-121153161D01*
X101785659Y-121189870D01*
X101721111Y-121220399D01*
X101653882Y-121244454D01*
X101584618Y-121261803D01*
X101513987Y-121272281D01*
X101442669Y-121275784D01*
X99796961Y-121275784D01*
X99725643Y-121272281D01*
G37*
D17*
%TO.C,R43*%
X95069815Y-107448180D02*
X95069815Y-106248180D01*
X97719815Y-106248180D02*
X95069815Y-106248180D01*
X97769815Y-107448180D02*
X97769815Y-106248180D01*
X97769815Y-107448180D02*
X95069815Y-107448180D01*
D10*
%TO.C,BQ1*%
X111869815Y-94098180D02*
X111869815Y-86198180D01*
X109969815Y-94098180D02*
X111869815Y-94098180D01*
D16*
%TO.C,DD1*%
X111783693Y-106523180D02*
X111108693Y-106523180D01*
X111783693Y-106523180D02*
X111783693Y-105848180D01*
X101433693Y-106523180D02*
X101433693Y-105848180D01*
X101433693Y-96173180D02*
X102108693Y-96173180D01*
X101433693Y-106523180D02*
X102008693Y-106523180D01*
X111783693Y-96173180D02*
X111783693Y-96848180D01*
X111783693Y-96173180D02*
X111108693Y-96173180D01*
X102008693Y-106523180D02*
X102008693Y-107798180D01*
X101433693Y-96173180D02*
X101433693Y-96848180D01*
D17*
%TO.C,R29*%
X91169815Y-95923180D02*
X91169815Y-98573180D01*
X92369815Y-95873180D02*
X91169815Y-95873180D01*
X92369815Y-98573180D02*
X91169815Y-98573180D01*
X92369815Y-95873180D02*
X92369815Y-98573180D01*
D10*
%TO.C,DA6*%
X117019815Y-96108180D02*
X116219815Y-96108180D01*
X117019815Y-96108180D02*
X117819815Y-96108180D01*
X117019815Y-92988180D02*
X115219815Y-92988180D01*
X117019815Y-92988180D02*
X117819815Y-92988180D01*
D18*
%TO.C,C14*%
X108619815Y-93698180D02*
X108369815Y-93698180D01*
X108019815Y-93348180D02*
X108019815Y-92348180D01*
X108619815Y-90998180D02*
X108869815Y-90998180D01*
X109219815Y-93348180D02*
X109219815Y-92348180D01*
X108019815Y-91348180D02*
X108019815Y-92348180D01*
X109219815Y-91348180D02*
X109219815Y-92348180D01*
X108619815Y-90998180D02*
X108369815Y-90998180D01*
X108619815Y-93698180D02*
X108869815Y-93698180D01*
X109219815Y-91348180D02*
G75*
G03*
X108869815Y-90998180I-350000J0D01*
G01*
X108019815Y-93348180D02*
G75*
G03*
X108369815Y-93698180I350001J1D01*
G01*
X108369815Y-90998180D02*
G75*
G03*
X108019815Y-91348180I0J-350000D01*
G01*
X108869815Y-93698180D02*
G75*
G03*
X109219815Y-93348180I-1J350001D01*
G01*
D10*
%TO.C,C26*%
X88279815Y-104743743D02*
X88279815Y-97288180D01*
X79759815Y-104743743D02*
X79759815Y-97288180D01*
X81009815Y-106548180D02*
X82009815Y-106548180D01*
X81509815Y-107048180D02*
X81509815Y-106048180D01*
X80824252Y-105808180D02*
X82509815Y-105808180D01*
X87215378Y-105808180D02*
X85529815Y-105808180D01*
X88279815Y-97288180D02*
X85529815Y-97288180D01*
X80824252Y-105808180D02*
X79759815Y-104743743D01*
X87215378Y-105808180D02*
X88279815Y-104743743D01*
X79759815Y-97288180D02*
X82509815Y-97288180D01*
D17*
%TO.C,R17*%
X97119815Y-90798180D02*
X97119815Y-91998180D01*
X97169815Y-91998180D02*
X99819815Y-91998180D01*
X97119815Y-90798180D02*
X99819815Y-90798180D01*
X99819815Y-90798180D02*
X99819815Y-91998180D01*
D18*
%TO.C,C20*%
X114069815Y-109548180D02*
X114069815Y-109298180D01*
X111719815Y-110148180D02*
X112719815Y-110148180D01*
X113719815Y-110148180D02*
X112719815Y-110148180D01*
X111369815Y-109548180D02*
X111369815Y-109298180D01*
X113719815Y-108948180D02*
X112719815Y-108948180D01*
X111369815Y-109548180D02*
X111369815Y-109798180D01*
X114069815Y-109548180D02*
X114069815Y-109798180D01*
X111719815Y-108948180D02*
X112719815Y-108948180D01*
X111369815Y-109798180D02*
G75*
G03*
X111719815Y-110148180I350001J1D01*
G01*
X114069815Y-109298180D02*
G75*
G03*
X113719815Y-108948180I-350000J0D01*
G01*
X113719815Y-110148180D02*
G75*
G03*
X114069815Y-109798180I0J350000D01*
G01*
X111719815Y-108948180D02*
G75*
G03*
X111369815Y-109298180I1J-350001D01*
G01*
D11*
%TO.C,HL2*%
X91289888Y-80863180D02*
X91289888Y-83148180D01*
X92759888Y-83148180D02*
X92759888Y-80863180D01*
X92759888Y-80863180D02*
X91289888Y-80863180D01*
D17*
%TO.C,R28*%
X96069815Y-100248180D02*
X96069815Y-97598180D01*
X94869815Y-100298180D02*
X96069815Y-100298180D01*
X94869815Y-97598180D02*
X96069815Y-97598180D01*
X94869815Y-100298180D02*
X94869815Y-97598180D01*
%TO.C,R16*%
X97119815Y-89198180D02*
X99819815Y-89198180D01*
X99819815Y-89198180D02*
X99819815Y-90398180D01*
X97169815Y-90398180D02*
X99819815Y-90398180D01*
X97119815Y-89198180D02*
X97119815Y-90398180D01*
D10*
%TO.C,SB1*%
X87919815Y-85398180D02*
X87919815Y-88698180D01*
X87619815Y-85398180D02*
X87919815Y-85398180D01*
X85419815Y-85398180D02*
X85119815Y-85398180D01*
X87919815Y-88698180D02*
X87619815Y-88698180D01*
X85119815Y-88698180D02*
X85419815Y-88698180D01*
X85119815Y-85398180D02*
X85119815Y-88698180D01*
D18*
%TO.C,C39*%
X128069815Y-100248180D02*
X128319815Y-100248180D01*
X128069815Y-102948180D02*
X127819815Y-102948180D01*
X127469815Y-102598180D02*
X127469815Y-101598180D01*
X128069815Y-102948180D02*
X128319815Y-102948180D01*
X128669815Y-100598180D02*
X128669815Y-101598180D01*
X128669815Y-102598180D02*
X128669815Y-101598180D01*
X128069815Y-100248180D02*
X127819815Y-100248180D01*
X127469815Y-100598180D02*
X127469815Y-101598180D01*
X127469815Y-102598180D02*
G75*
G03*
X127819815Y-102948180I350000J0D01*
G01*
X128319815Y-102948180D02*
G75*
G03*
X128669815Y-102598180I0J350000D01*
G01*
X128669815Y-100598180D02*
G75*
G03*
X128319815Y-100248180I-350001J-1D01*
G01*
X127819815Y-100248180D02*
G75*
G03*
X127469815Y-100598180I1J-350001D01*
G01*
D17*
%TO.C,R72*%
X115769815Y-96548180D02*
X115769815Y-97748180D01*
X118469815Y-96548180D02*
X118469815Y-97748180D01*
X115769815Y-96548180D02*
X118469815Y-96548180D01*
X115819815Y-97748180D02*
X118469815Y-97748180D01*
D10*
%TO.C,XT2*%
X94169815Y-119158180D02*
X94169815Y-118958180D01*
X90669815Y-115348180D02*
X90469815Y-115348180D01*
X92569815Y-114848180D02*
X92569815Y-115348180D01*
X93069815Y-118348180D02*
X95019815Y-118348180D01*
X95019815Y-118348180D02*
X95019815Y-114848180D01*
X95629815Y-118958180D02*
X95629815Y-114238180D01*
X95629815Y-117648180D02*
X95019815Y-117648180D01*
X92469815Y-115348180D02*
X92469815Y-114848180D01*
X90069815Y-118348180D02*
X90069815Y-118958180D01*
X92669815Y-114848180D02*
X92669815Y-115348180D01*
X88119815Y-114848180D02*
X88119815Y-118348180D01*
X95019815Y-114848180D02*
X88119815Y-114848180D01*
X94679815Y-119258180D02*
X95929815Y-119258180D01*
X87509815Y-118958180D02*
X95629815Y-118958180D01*
X90669815Y-114848180D02*
X90669815Y-115348180D01*
X93869815Y-119158180D02*
X94169815Y-119158180D01*
X90569815Y-114848180D02*
X90569815Y-115348180D01*
X95929815Y-119258180D02*
X95929815Y-118008180D01*
X88119815Y-118348180D02*
X90069815Y-118348180D01*
X92669815Y-115348180D02*
X92469815Y-115348180D01*
X87509815Y-114238180D02*
X87509815Y-118958180D01*
X90469815Y-115348180D02*
X90469815Y-114848180D01*
X87509815Y-117648180D02*
X88119815Y-117648180D01*
X93869815Y-118958180D02*
X93869815Y-119158180D01*
X95629815Y-116348180D02*
X95019815Y-116348180D01*
X95629815Y-114238180D02*
X87509815Y-114238180D01*
X93869815Y-119058180D02*
X94169815Y-119058180D01*
X87509815Y-116348180D02*
X88119815Y-116348180D01*
X93069815Y-118958180D02*
X93069815Y-118348180D01*
D11*
%TO.C,HL5*%
X90554815Y-80863180D02*
X89084815Y-80863180D01*
X89084815Y-80863180D02*
X89084815Y-83148180D01*
X90554815Y-83148180D02*
X90554815Y-80863180D01*
D10*
%TO.C,XT8*%
X122679815Y-116348180D02*
X122069815Y-116348180D01*
X122679815Y-114238180D02*
X114559815Y-114238180D01*
X122679815Y-118958180D02*
X122679815Y-114238180D01*
X120919815Y-119158180D02*
X121219815Y-119158180D01*
X120119815Y-118348180D02*
X122069815Y-118348180D01*
X115169815Y-118348180D02*
X117119815Y-118348180D01*
X120919815Y-119058180D02*
X121219815Y-119058180D01*
X117719815Y-114848180D02*
X117719815Y-115348180D01*
X114559815Y-114238180D02*
X114559815Y-118958180D01*
X122679815Y-117648180D02*
X122069815Y-117648180D01*
X117519815Y-115348180D02*
X117519815Y-114848180D01*
X119619815Y-114848180D02*
X119619815Y-115348180D01*
X122069815Y-114848180D02*
X115169815Y-114848180D01*
X117619815Y-114848180D02*
X117619815Y-115348180D01*
X120119815Y-118958180D02*
X120119815Y-118348180D01*
X119719815Y-115348180D02*
X119519815Y-115348180D01*
X119519815Y-115348180D02*
X119519815Y-114848180D01*
X114559815Y-116348180D02*
X115169815Y-116348180D01*
X119719815Y-114848180D02*
X119719815Y-115348180D01*
X121219815Y-119158180D02*
X121219815Y-118958180D01*
X122979815Y-119258180D02*
X122979815Y-118008180D01*
X114559815Y-117648180D02*
X115169815Y-117648180D01*
X120919815Y-118958180D02*
X120919815Y-119158180D01*
X114559815Y-118958180D02*
X122679815Y-118958180D01*
X117119815Y-118348180D02*
X117119815Y-118958180D01*
X117719815Y-115348180D02*
X117519815Y-115348180D01*
X121729815Y-119258180D02*
X122979815Y-119258180D01*
X122069815Y-118348180D02*
X122069815Y-114848180D01*
X115169815Y-114848180D02*
X115169815Y-118348180D01*
%TO.C,kibuzzard-6339785C*%
G36*
X117720087Y-121272281D02*
G01*
X117649456Y-121261803D01*
X117580192Y-121244454D01*
X117512963Y-121220399D01*
X117448414Y-121189870D01*
X117387169Y-121153161D01*
X117329817Y-121110626D01*
X117276911Y-121062674D01*
X117228959Y-121009767D01*
X117186424Y-120952415D01*
X117149715Y-120891170D01*
X117119186Y-120826622D01*
X117095131Y-120759392D01*
X117077781Y-120690129D01*
X117067304Y-120619498D01*
X117063800Y-120548180D01*
X117067304Y-120476862D01*
X117077781Y-120406231D01*
X117095131Y-120336968D01*
X117119186Y-120269738D01*
X117126397Y-120254492D01*
X117923696Y-120254492D01*
X117940167Y-120367205D01*
X117989577Y-120460867D01*
X118044170Y-120515901D01*
X118120105Y-120568818D01*
X118217384Y-120619618D01*
X118285448Y-120660496D01*
X118330890Y-120706930D01*
X118356488Y-120763286D01*
X118365021Y-120833930D01*
X118353909Y-120907947D01*
X118320571Y-120961724D01*
X118267390Y-120994466D01*
X118196746Y-121005380D01*
X118103789Y-120993915D01*
X118015418Y-120959519D01*
X117931634Y-120902192D01*
X117931634Y-121067293D01*
X118013125Y-121109626D01*
X118103084Y-121135026D01*
X118201509Y-121143492D01*
X118324381Y-121130792D01*
X118411982Y-121095868D01*
X118744434Y-121095868D01*
X118853574Y-121131586D01*
X118971446Y-121143492D01*
X119080278Y-121133615D01*
X119167591Y-121103981D01*
X119233384Y-121054593D01*
X119279245Y-120982273D01*
X119306762Y-120883848D01*
X119315934Y-120759317D01*
X119305774Y-120625015D01*
X119275294Y-120520557D01*
X119224494Y-120445945D01*
X119153374Y-120401177D01*
X119061934Y-120386255D01*
X118986527Y-120396177D01*
X118922234Y-120425942D01*
X118919059Y-120425942D01*
X118930171Y-120105267D01*
X119284184Y-120105267D01*
X119284184Y-119968743D01*
X118768246Y-119968743D01*
X118752371Y-120584692D01*
X118898421Y-120584692D01*
X118953587Y-120537067D01*
X119014309Y-120521192D01*
X119107971Y-120575961D01*
X119130593Y-120649185D01*
X119138134Y-120759317D01*
X119127418Y-120875403D01*
X119095271Y-120950611D01*
X119039709Y-120991688D01*
X118958746Y-121005380D01*
X118852781Y-120990299D01*
X118744434Y-120945055D01*
X118744434Y-121095868D01*
X118411982Y-121095868D01*
X118419949Y-121092692D01*
X118488211Y-121029193D01*
X118529169Y-120940292D01*
X118542821Y-120825992D01*
X118525756Y-120703358D01*
X118474559Y-120605330D01*
X118416527Y-120548709D01*
X118333448Y-120493147D01*
X118225321Y-120438642D01*
X118154766Y-120391194D01*
X118112432Y-120327165D01*
X118098321Y-120246555D01*
X118109434Y-120181467D01*
X118142771Y-120132255D01*
X118195556Y-120101299D01*
X118265009Y-120090980D01*
X118388437Y-120108046D01*
X118511071Y-120159242D01*
X118511071Y-120000492D01*
X118425699Y-119974034D01*
X118336799Y-119958159D01*
X118244371Y-119952867D01*
X118149562Y-119961687D01*
X118070452Y-119988145D01*
X118007040Y-120032243D01*
X117944532Y-120127492D01*
X117923696Y-120254492D01*
X117126397Y-120254492D01*
X117149715Y-120205190D01*
X117186424Y-120143945D01*
X117228959Y-120086593D01*
X117276911Y-120033686D01*
X117329817Y-119985734D01*
X117387169Y-119943199D01*
X117448414Y-119906490D01*
X117512963Y-119875961D01*
X117580192Y-119851906D01*
X117649456Y-119834557D01*
X117720087Y-119824079D01*
X117791405Y-119820576D01*
X119448225Y-119820576D01*
X119519543Y-119824079D01*
X119590174Y-119834557D01*
X119659438Y-119851906D01*
X119726667Y-119875961D01*
X119791216Y-119906490D01*
X119852461Y-119943199D01*
X119909813Y-119985734D01*
X119962719Y-120033686D01*
X120010671Y-120086593D01*
X120053206Y-120143945D01*
X120089915Y-120205190D01*
X120120444Y-120269738D01*
X120144499Y-120336968D01*
X120161849Y-120406231D01*
X120172326Y-120476862D01*
X120175830Y-120548180D01*
X120172326Y-120619498D01*
X120161849Y-120690129D01*
X120144499Y-120759392D01*
X120120444Y-120826622D01*
X120089915Y-120891170D01*
X120053206Y-120952415D01*
X120010671Y-121009767D01*
X119962719Y-121062674D01*
X119909813Y-121110626D01*
X119852461Y-121153161D01*
X119791216Y-121189870D01*
X119726667Y-121220399D01*
X119659438Y-121244454D01*
X119590174Y-121261803D01*
X119519543Y-121272281D01*
X119448225Y-121275784D01*
X117791405Y-121275784D01*
X117720087Y-121272281D01*
G37*
D18*
%TO.C,C36*%
X122719815Y-91298180D02*
X122969815Y-91298180D01*
X122719815Y-93998180D02*
X122969815Y-93998180D01*
X122119815Y-93648180D02*
X122119815Y-92648180D01*
X123319815Y-93648180D02*
X123319815Y-92648180D01*
X123319815Y-91648180D02*
X123319815Y-92648180D01*
X122119815Y-91648180D02*
X122119815Y-92648180D01*
X122719815Y-91298180D02*
X122469815Y-91298180D01*
X122719815Y-93998180D02*
X122469815Y-93998180D01*
X122969815Y-93998180D02*
G75*
G03*
X123319815Y-93648180I-1J350001D01*
G01*
X123319815Y-91648180D02*
G75*
G03*
X122969815Y-91298180I-350000J0D01*
G01*
X122119815Y-93648180D02*
G75*
G03*
X122469815Y-93998180I350001J1D01*
G01*
X122469815Y-91298180D02*
G75*
G03*
X122119815Y-91648180I0J-350000D01*
G01*
%TO.C,kibuzzard-633978F6*%
G36*
X118894252Y-87727580D02*
G01*
X118459277Y-87727580D01*
X118675177Y-86638555D01*
X118678352Y-86638555D01*
X118894252Y-87727580D01*
G37*
G36*
X117524946Y-88864784D02*
G01*
X117386766Y-88844287D01*
X117251261Y-88810345D01*
X117119735Y-88763284D01*
X116993456Y-88703558D01*
X116873638Y-88631742D01*
X116840351Y-88607055D01*
X117929052Y-88607055D01*
X118284652Y-88607055D01*
X118405302Y-87997455D01*
X118948227Y-87997455D01*
X119068877Y-88607055D01*
X119437177Y-88607055D01*
X119668952Y-88607055D01*
X120018202Y-88607055D01*
X120018202Y-86924305D01*
X120024552Y-86924305D01*
X120519852Y-88607055D01*
X120875452Y-88607055D01*
X120875452Y-86565530D01*
X121208827Y-86565530D01*
X121681902Y-86565530D01*
X121681902Y-88607055D01*
X122037502Y-88607055D01*
X122037502Y-86565530D01*
X122510577Y-86565530D01*
X122510577Y-86289305D01*
X121208827Y-86289305D01*
X121208827Y-86565530D01*
X120875452Y-86565530D01*
X120875452Y-86289305D01*
X120542077Y-86289305D01*
X120542077Y-87972055D01*
X120532552Y-87972055D01*
X120037252Y-86289305D01*
X119668952Y-86289305D01*
X119668952Y-88607055D01*
X119437177Y-88607055D01*
X118887902Y-86289305D01*
X118475152Y-86289305D01*
X117929052Y-88607055D01*
X116840351Y-88607055D01*
X116761437Y-88548528D01*
X116657932Y-88454717D01*
X116564121Y-88351212D01*
X116480907Y-88239011D01*
X116409091Y-88119194D01*
X116349365Y-87992914D01*
X116302304Y-87861388D01*
X116268362Y-87725883D01*
X116247865Y-87587703D01*
X116241011Y-87448180D01*
X116247865Y-87308657D01*
X116268362Y-87170477D01*
X116302304Y-87034972D01*
X116349365Y-86903446D01*
X116409091Y-86777166D01*
X116480907Y-86657349D01*
X116564121Y-86545148D01*
X116657932Y-86441643D01*
X116761437Y-86347832D01*
X116873638Y-86264618D01*
X116993456Y-86192802D01*
X117119735Y-86133076D01*
X117251261Y-86086015D01*
X117386766Y-86052073D01*
X117524946Y-86031576D01*
X117664469Y-86024722D01*
X122775161Y-86024722D01*
X122914684Y-86031576D01*
X123052864Y-86052073D01*
X123188369Y-86086015D01*
X123319895Y-86133076D01*
X123446174Y-86192802D01*
X123565992Y-86264618D01*
X123678193Y-86347832D01*
X123781698Y-86441643D01*
X123875509Y-86545148D01*
X123958723Y-86657349D01*
X124030539Y-86777166D01*
X124090265Y-86903446D01*
X124137326Y-87034972D01*
X124171268Y-87170477D01*
X124191765Y-87308657D01*
X124198619Y-87448180D01*
X124191765Y-87587703D01*
X124171268Y-87725883D01*
X124137326Y-87861388D01*
X124090265Y-87992914D01*
X124030539Y-88119194D01*
X123958723Y-88239011D01*
X123875509Y-88351212D01*
X123781698Y-88454717D01*
X123678193Y-88548528D01*
X123565992Y-88631742D01*
X123446174Y-88703558D01*
X123319895Y-88763284D01*
X123188369Y-88810345D01*
X123052864Y-88844287D01*
X122914684Y-88864784D01*
X122775161Y-88871638D01*
X117664469Y-88871638D01*
X117524946Y-88864784D01*
G37*
D10*
%TO.C,XT1*%
X74979815Y-107388180D02*
X88259815Y-107388180D01*
X88259815Y-107388180D02*
X88259815Y-113708180D01*
X74739815Y-113948180D02*
X75239815Y-113948180D01*
X74979815Y-113148180D02*
X88259815Y-113148180D01*
X74979815Y-107848180D02*
X88259815Y-107848180D01*
X74979815Y-113708180D02*
X88259815Y-113708180D01*
X74979815Y-107388180D02*
X74979815Y-113708180D01*
X74739815Y-113208180D02*
X74739815Y-113948180D01*
D17*
%TO.C,R32*%
X88069815Y-95748180D02*
X90769815Y-95748180D01*
X88119815Y-96948180D02*
X90769815Y-96948180D01*
X88069815Y-95748180D02*
X88069815Y-96948180D01*
X90769815Y-95748180D02*
X90769815Y-96948180D01*
D18*
%TO.C,C15*%
X106219815Y-91348180D02*
X106219815Y-92348180D01*
X105019815Y-91348180D02*
X105019815Y-92348180D01*
X105619815Y-90998180D02*
X105369815Y-90998180D01*
X105619815Y-93698180D02*
X105869815Y-93698180D01*
X106219815Y-93348180D02*
X106219815Y-92348180D01*
X105619815Y-93698180D02*
X105369815Y-93698180D01*
X105619815Y-90998180D02*
X105869815Y-90998180D01*
X105019815Y-93348180D02*
X105019815Y-92348180D01*
X105869815Y-93698180D02*
G75*
G03*
X106219815Y-93348180I0J350000D01*
G01*
X105019815Y-93348180D02*
G75*
G03*
X105369815Y-93698180I350000J0D01*
G01*
X105369815Y-90998180D02*
G75*
G03*
X105019815Y-91348180I1J-350001D01*
G01*
X106219815Y-91348180D02*
G75*
G03*
X105869815Y-90998180I-350001J-1D01*
G01*
D11*
%TO.C,C34*%
X80419815Y-95448180D02*
X80419815Y-94448180D01*
X75473368Y-95448180D02*
X75473368Y-94394627D01*
X75973368Y-93948180D02*
X79969815Y-93948180D01*
X75973368Y-95948180D02*
X79969815Y-95948180D01*
X75473368Y-95448180D02*
G75*
G03*
X75973368Y-95948180I500001J1D01*
G01*
X80419815Y-94448180D02*
G75*
G03*
X79919815Y-93948180I-500000J0D01*
G01*
X79919815Y-95948180D02*
G75*
G03*
X80419815Y-95448180I10J499990D01*
G01*
X75973368Y-93948180D02*
G75*
G03*
X75473368Y-94448180I1J-500001D01*
G01*
D18*
%TO.C,C35*%
X122619815Y-98148180D02*
X121619815Y-98148180D01*
X120619815Y-99348180D02*
X121619815Y-99348180D01*
X122969815Y-98748180D02*
X122969815Y-98498180D01*
X122619815Y-99348180D02*
X121619815Y-99348180D01*
X120619815Y-98148180D02*
X121619815Y-98148180D01*
X122969815Y-98748180D02*
X122969815Y-98998180D01*
X120269815Y-98748180D02*
X120269815Y-98498180D01*
X120269815Y-98748180D02*
X120269815Y-98998180D01*
X122619815Y-99348180D02*
G75*
G03*
X122969815Y-98998180I-1J350001D01*
G01*
X120269815Y-98998180D02*
G75*
G03*
X120619815Y-99348180I350000J0D01*
G01*
X120619815Y-98148180D02*
G75*
G03*
X120269815Y-98498180I0J-350000D01*
G01*
X122969815Y-98498180D02*
G75*
G03*
X122619815Y-98148180I-350001J-1D01*
G01*
%TO.C,C6*%
X97119815Y-83023180D02*
X97119815Y-84023180D01*
X97719815Y-85373180D02*
X97469815Y-85373180D01*
X97719815Y-85373180D02*
X97969815Y-85373180D01*
X97119815Y-85023180D02*
X97119815Y-84023180D01*
X98319815Y-83023180D02*
X98319815Y-84023180D01*
X97719815Y-82673180D02*
X97969815Y-82673180D01*
X97719815Y-82673180D02*
X97469815Y-82673180D01*
X98319815Y-85023180D02*
X98319815Y-84023180D01*
X97969815Y-85373180D02*
G75*
G03*
X98319815Y-85023180I0J350000D01*
G01*
X97469815Y-82673180D02*
G75*
G03*
X97119815Y-83023180I1J-350001D01*
G01*
X97119815Y-85023180D02*
G75*
G03*
X97469815Y-85373180I350000J0D01*
G01*
X98319815Y-83023180D02*
G75*
G03*
X97969815Y-82673180I-350001J-1D01*
G01*
D11*
%TO.C,C5*%
X100719815Y-82789233D02*
X100719815Y-86785680D01*
X99219815Y-82289233D02*
X100273368Y-82289233D01*
X98719815Y-82789233D02*
X98719815Y-86785680D01*
X99219815Y-87235680D02*
X100219815Y-87235680D01*
X98719815Y-86735680D02*
G75*
G03*
X99219815Y-87235680I499990J-10D01*
G01*
X99219815Y-82289233D02*
G75*
G03*
X98719815Y-82789233I1J-500001D01*
G01*
X100219815Y-87235680D02*
G75*
G03*
X100719815Y-86735680I0J500000D01*
G01*
X100719815Y-82789233D02*
G75*
G03*
X100219815Y-82289233I-500001J-1D01*
G01*
D10*
%TO.C,XB2*%
X79219815Y-80148180D02*
G75*
G03*
X79219815Y-80148180I-700000J0D01*
G01*
D18*
%TO.C,C9*%
X97019815Y-100298180D02*
X96769815Y-100298180D01*
X96419815Y-99948180D02*
X96419815Y-98948180D01*
X97019815Y-97598180D02*
X97269815Y-97598180D01*
X97019815Y-97598180D02*
X96769815Y-97598180D01*
X97619815Y-97948180D02*
X97619815Y-98948180D01*
X97619815Y-99948180D02*
X97619815Y-98948180D01*
X97019815Y-100298180D02*
X97269815Y-100298180D01*
X96419815Y-97948180D02*
X96419815Y-98948180D01*
X96769815Y-97598180D02*
G75*
G03*
X96419815Y-97948180I0J-350000D01*
G01*
X96419815Y-99948180D02*
G75*
G03*
X96769815Y-100298180I350001J1D01*
G01*
X97269815Y-100298180D02*
G75*
G03*
X97619815Y-99948180I-1J350001D01*
G01*
X97619815Y-97948180D02*
G75*
G03*
X97269815Y-97598180I-350000J0D01*
G01*
D10*
%TO.C,L1*%
X102620193Y-93308180D02*
X103419437Y-93308180D01*
X102620193Y-92188180D02*
X103419437Y-92188180D01*
%TO.C,BQ2*%
X113219815Y-110398180D02*
X109219815Y-110398180D01*
X113219815Y-113698180D02*
X113219815Y-110398180D01*
D18*
%TO.C,C38*%
X120719815Y-107298180D02*
X120469815Y-107298180D01*
X120119815Y-104948180D02*
X120119815Y-105948180D01*
X120119815Y-106948180D02*
X120119815Y-105948180D01*
X120719815Y-107298180D02*
X120969815Y-107298180D01*
X121319815Y-104948180D02*
X121319815Y-105948180D01*
X120719815Y-104598180D02*
X120469815Y-104598180D01*
X121319815Y-106948180D02*
X121319815Y-105948180D01*
X120719815Y-104598180D02*
X120969815Y-104598180D01*
X120119815Y-106948180D02*
G75*
G03*
X120469815Y-107298180I350000J0D01*
G01*
X120469815Y-104598180D02*
G75*
G03*
X120119815Y-104948180I1J-350001D01*
G01*
X121319815Y-104948180D02*
G75*
G03*
X120969815Y-104598180I-350001J-1D01*
G01*
X120969815Y-107298180D02*
G75*
G03*
X121319815Y-106948180I0J350000D01*
G01*
D16*
%TO.C,C4*%
X108379815Y-89048180D02*
X108369815Y-82798180D01*
X104973368Y-82798180D02*
X104973368Y-89558180D01*
X107869815Y-82298180D02*
X105473368Y-82298180D01*
X108369815Y-82798180D02*
G75*
G03*
X107869815Y-82298180I-500001J-1D01*
G01*
X105473368Y-82298180D02*
G75*
G03*
X104973368Y-82798180I1J-500001D01*
G01*
D10*
%TO.C,SB3*%
X95369815Y-101448180D02*
X95369815Y-101748180D01*
X92069815Y-104248180D02*
X95369815Y-104248180D01*
X92069815Y-101448180D02*
X95369815Y-101448180D01*
X95369815Y-104248180D02*
X95369815Y-103948180D01*
X92069815Y-101748180D02*
X92069815Y-101448180D01*
X92069815Y-103948180D02*
X92069815Y-104248180D01*
D19*
%TO.C,DD4*%
X125104815Y-105783180D02*
X126154815Y-105783180D01*
X123984815Y-105783180D02*
X122934815Y-105783180D01*
X125104815Y-100563180D02*
X126194815Y-100563180D01*
D10*
%TO.C,XT4*%
X83469815Y-85948180D02*
X78569815Y-85948180D01*
X77959815Y-85338180D02*
X77959815Y-90058180D01*
X84379815Y-90358180D02*
X84379815Y-89108180D01*
X77959815Y-87448180D02*
X78569815Y-87448180D01*
X84079815Y-90058180D02*
X84079815Y-85338180D01*
X82319815Y-90258180D02*
X82619815Y-90258180D01*
X81519815Y-90058180D02*
X81519815Y-89448180D01*
X81519815Y-89448180D02*
X83469815Y-89448180D01*
X80919815Y-86448180D02*
X80919815Y-85948180D01*
X82319815Y-90158180D02*
X82619815Y-90158180D01*
X77959815Y-88748180D02*
X78569815Y-88748180D01*
X82319815Y-90058180D02*
X82319815Y-90258180D01*
X78569815Y-85948180D02*
X78569815Y-89448180D01*
X81119815Y-86448180D02*
X80919815Y-86448180D01*
X80519815Y-89448180D02*
X80519815Y-90058180D01*
X84079815Y-85338180D02*
X77959815Y-85338180D01*
X83129815Y-90358180D02*
X84379815Y-90358180D01*
X78569815Y-89448180D02*
X80519815Y-89448180D01*
X84079815Y-88748180D02*
X83469815Y-88748180D01*
X77959815Y-90058180D02*
X84079815Y-90058180D01*
X83469815Y-89448180D02*
X83469815Y-85948180D01*
X84079815Y-87448180D02*
X83469815Y-87448180D01*
X82619815Y-90258180D02*
X82619815Y-90058180D01*
X81119815Y-85948180D02*
X81119815Y-86448180D01*
X81019815Y-85948180D02*
X81019815Y-86448180D01*
%TD*%
M02*
