%TF.GenerationSoftware,KiCad,Pcbnew,7.0.7*%
%TF.CreationDate,2023-10-01T16:40:48+03:00*%
%TF.ProjectId,RadioSens,52616469-6f53-4656-9e73-2e6b69636164,rev?*%
%TF.SameCoordinates,Original*%
%TF.FileFunction,Paste,Top*%
%TF.FilePolarity,Positive*%
%FSLAX46Y46*%
G04 Gerber Fmt 4.6, Leading zero omitted, Abs format (unit mm)*
G04 Created by KiCad (PCBNEW 7.0.7) date 2023-10-01 16:40:48*
%MOMM*%
%LPD*%
G01*
G04 APERTURE LIST*
G04 Aperture macros list*
%AMRoundRect*
0 Rectangle with rounded corners*
0 $1 Rounding radius*
0 $2 $3 $4 $5 $6 $7 $8 $9 X,Y pos of 4 corners*
0 Add a 4 corners polygon primitive as box body*
4,1,4,$2,$3,$4,$5,$6,$7,$8,$9,$2,$3,0*
0 Add four circle primitives for the rounded corners*
1,1,$1+$1,$2,$3*
1,1,$1+$1,$4,$5*
1,1,$1+$1,$6,$7*
1,1,$1+$1,$8,$9*
0 Add four rect primitives between the rounded corners*
20,1,$1+$1,$2,$3,$4,$5,0*
20,1,$1+$1,$4,$5,$6,$7,0*
20,1,$1+$1,$6,$7,$8,$9,0*
20,1,$1+$1,$8,$9,$2,$3,0*%
G04 Aperture macros list end*
%ADD10RoundRect,0.200000X0.200000X0.275000X-0.200000X0.275000X-0.200000X-0.275000X0.200000X-0.275000X0*%
%ADD11RoundRect,0.200000X-0.275000X0.200000X-0.275000X-0.200000X0.275000X-0.200000X0.275000X0.200000X0*%
%ADD12RoundRect,0.218750X0.218750X0.256250X-0.218750X0.256250X-0.218750X-0.256250X0.218750X-0.256250X0*%
%ADD13RoundRect,0.218750X-0.256250X0.218750X-0.256250X-0.218750X0.256250X-0.218750X0.256250X0.218750X0*%
%ADD14RoundRect,0.150000X0.335000X-0.150000X0.335000X0.150000X-0.335000X0.150000X-0.335000X-0.150000X0*%
%ADD15RoundRect,0.100000X0.100000X-0.300000X0.100000X0.300000X-0.100000X0.300000X-0.100000X-0.300000X0*%
%ADD16R,1.700000X1.100000*%
%ADD17RoundRect,0.225000X0.225000X0.250000X-0.225000X0.250000X-0.225000X-0.250000X0.225000X-0.250000X0*%
%ADD18RoundRect,0.200000X-0.200000X-0.275000X0.200000X-0.275000X0.200000X0.275000X-0.200000X0.275000X0*%
%ADD19RoundRect,0.250000X1.000000X-1.750000X1.000000X1.750000X-1.000000X1.750000X-1.000000X-1.750000X0*%
%ADD20RoundRect,0.225000X0.250000X-0.225000X0.250000X0.225000X-0.250000X0.225000X-0.250000X-0.225000X0*%
%ADD21RoundRect,0.225000X-0.250000X0.225000X-0.250000X-0.225000X0.250000X-0.225000X0.250000X0.225000X0*%
%ADD22RoundRect,0.250000X-0.925000X0.787500X-0.925000X-0.787500X0.925000X-0.787500X0.925000X0.787500X0*%
%ADD23RoundRect,0.200000X0.275000X-0.200000X0.275000X0.200000X-0.275000X0.200000X-0.275000X-0.200000X0*%
%ADD24RoundRect,0.250001X-0.462499X-0.624999X0.462499X-0.624999X0.462499X0.624999X-0.462499X0.624999X0*%
%ADD25R,0.600000X1.200000*%
%ADD26R,0.550000X1.500000*%
%ADD27R,1.500000X0.550000*%
%ADD28RoundRect,0.150000X-0.512500X-0.150000X0.512500X-0.150000X0.512500X0.150000X-0.512500X0.150000X0*%
%ADD29RoundRect,0.225000X-0.225000X-0.250000X0.225000X-0.250000X0.225000X0.250000X-0.225000X0.250000X0*%
%ADD30RoundRect,0.250001X-0.624999X0.462499X-0.624999X-0.462499X0.624999X-0.462499X0.624999X0.462499X0*%
%ADD31RoundRect,0.218750X-0.218750X-0.381250X0.218750X-0.381250X0.218750X0.381250X-0.218750X0.381250X0*%
%ADD32R,1.400000X1.200000*%
%ADD33R,1.100000X1.700000*%
%ADD34RoundRect,0.125000X-0.675000X-0.125000X0.675000X-0.125000X0.675000X0.125000X-0.675000X0.125000X0*%
%ADD35RoundRect,0.125000X0.125000X-0.675000X0.125000X0.675000X-0.125000X0.675000X-0.125000X-0.675000X0*%
G04 APERTURE END LIST*
D10*
%TO.C,R15*%
X97244815Y-105348180D03*
X95594815Y-105348180D03*
%TD*%
D11*
%TO.C,R31*%
X87019815Y-94823180D03*
X87019815Y-96473180D03*
%TD*%
D12*
%TO.C,HL6*%
X79607315Y-115748180D03*
X78032315Y-115748180D03*
%TD*%
D13*
%TO.C,HL4*%
X87554839Y-81560680D03*
X87554839Y-83135680D03*
%TD*%
D14*
%TO.C,DA4*%
X127269815Y-95673180D03*
X128469815Y-95673180D03*
X127269815Y-94923180D03*
X128469815Y-94923180D03*
D15*
X126869815Y-96748180D03*
X127869815Y-96748180D03*
X128869815Y-96748180D03*
X128869815Y-93848180D03*
X127869815Y-93848180D03*
X126869815Y-93848180D03*
%TD*%
D16*
%TO.C,SB2*%
X91019815Y-84948180D03*
X91019815Y-89148180D03*
%TD*%
D17*
%TO.C,C19*%
X103994815Y-90948180D03*
X102444815Y-90948180D03*
%TD*%
D13*
%TO.C,HL1*%
X85319815Y-81560680D03*
X85319815Y-83135680D03*
%TD*%
D18*
%TO.C,R18*%
X97644815Y-92998180D03*
X99294815Y-92998180D03*
%TD*%
D10*
%TO.C,R71*%
X115744815Y-92048180D03*
X114094815Y-92048180D03*
%TD*%
D17*
%TO.C,C21*%
X110494815Y-109548180D03*
X108944815Y-109548180D03*
%TD*%
D19*
%TO.C,C27*%
X75069815Y-104598180D03*
X75069815Y-98498180D03*
%TD*%
D20*
%TO.C,C24*%
X107419815Y-111423180D03*
X107419815Y-109873180D03*
%TD*%
D17*
%TO.C,C37*%
X122394815Y-97148180D03*
X120844815Y-97148180D03*
%TD*%
D20*
%TO.C,C46*%
X119919815Y-94923180D03*
X119919815Y-93373180D03*
%TD*%
D10*
%TO.C,R64*%
X82844815Y-115748180D03*
X81194815Y-115748180D03*
%TD*%
D21*
%TO.C,C23*%
X98719815Y-99973180D03*
X98719815Y-101523180D03*
%TD*%
D20*
%TO.C,C22*%
X114319815Y-102223180D03*
X114319815Y-100673180D03*
%TD*%
D21*
%TO.C,C45*%
X114119815Y-93648180D03*
X114119815Y-95198180D03*
%TD*%
D22*
%TO.C,C3*%
X102819815Y-83585680D03*
X102819815Y-88510680D03*
%TD*%
D13*
%TO.C,HL3*%
X81519815Y-81560680D03*
X81519815Y-83135680D03*
%TD*%
D23*
%TO.C,R30*%
X90219815Y-99773180D03*
X90219815Y-98123180D03*
%TD*%
D24*
%TO.C,C33*%
X76832315Y-92548180D03*
X79807315Y-92548180D03*
%TD*%
D20*
%TO.C,C17*%
X107119815Y-93123180D03*
X107119815Y-91573180D03*
%TD*%
D10*
%TO.C,R43*%
X97244815Y-106848180D03*
X95594815Y-106848180D03*
%TD*%
D25*
%TO.C,BQ1*%
X111369815Y-93298180D03*
X111369815Y-86998180D03*
X110469815Y-86998180D03*
X110469815Y-93298180D03*
%TD*%
D26*
%TO.C,DD1*%
X102608693Y-107048180D03*
X103408693Y-107048180D03*
X104208693Y-107048180D03*
X105008693Y-107048180D03*
X105808693Y-107048180D03*
X106608693Y-107048180D03*
X107408693Y-107048180D03*
X108208693Y-107048180D03*
X109008693Y-107048180D03*
X109808693Y-107048180D03*
X110608693Y-107048180D03*
D27*
X112308693Y-105348180D03*
X112308693Y-104548180D03*
X112308693Y-103748180D03*
X112308693Y-102948180D03*
X112308693Y-102148180D03*
X112308693Y-101348180D03*
X112308693Y-100548180D03*
X112308693Y-99748180D03*
X112308693Y-98948180D03*
X112308693Y-98148180D03*
X112308693Y-97348180D03*
D26*
X110608693Y-95648180D03*
X109808693Y-95648180D03*
X109008693Y-95648180D03*
X108208693Y-95648180D03*
X107408693Y-95648180D03*
X106608693Y-95648180D03*
X105808693Y-95648180D03*
X105008693Y-95648180D03*
X104208693Y-95648180D03*
X103408693Y-95648180D03*
X102608693Y-95648180D03*
D27*
X100908693Y-97348180D03*
X100908693Y-98148180D03*
X100908693Y-98948180D03*
X100908693Y-99748180D03*
X100908693Y-100548180D03*
X100908693Y-101348180D03*
X100908693Y-102148180D03*
X100908693Y-102948180D03*
X100908693Y-103748180D03*
X100908693Y-104548180D03*
X100908693Y-105348180D03*
%TD*%
D11*
%TO.C,R29*%
X91769815Y-96398180D03*
X91769815Y-98048180D03*
%TD*%
D28*
%TO.C,DA6*%
X115882315Y-93598180D03*
X115882315Y-94548180D03*
X115882315Y-95498180D03*
X118157315Y-95498180D03*
X118157315Y-93598180D03*
%TD*%
D20*
%TO.C,C14*%
X108619815Y-93123180D03*
X108619815Y-91573180D03*
%TD*%
D19*
%TO.C,C26*%
X84019815Y-104598180D03*
X84019815Y-98498180D03*
%TD*%
D18*
%TO.C,R17*%
X97644815Y-91398180D03*
X99294815Y-91398180D03*
%TD*%
D29*
%TO.C,C20*%
X111944815Y-109548180D03*
X113494815Y-109548180D03*
%TD*%
D13*
%TO.C,HL2*%
X92024888Y-81560680D03*
X92024888Y-83135680D03*
%TD*%
D23*
%TO.C,R28*%
X95469815Y-99773180D03*
X95469815Y-98123180D03*
%TD*%
D18*
%TO.C,R16*%
X97644815Y-89798180D03*
X99294815Y-89798180D03*
%TD*%
D16*
%TO.C,SB1*%
X86519815Y-84948180D03*
X86519815Y-89148180D03*
%TD*%
D21*
%TO.C,C39*%
X128069815Y-100823180D03*
X128069815Y-102373180D03*
%TD*%
D18*
%TO.C,R72*%
X116294815Y-97148180D03*
X117944815Y-97148180D03*
%TD*%
D13*
%TO.C,HL5*%
X89819815Y-81560680D03*
X89819815Y-83135680D03*
%TD*%
D20*
%TO.C,C36*%
X122719815Y-93423180D03*
X122719815Y-91873180D03*
%TD*%
D18*
%TO.C,R32*%
X88594815Y-96348180D03*
X90244815Y-96348180D03*
%TD*%
D21*
%TO.C,C15*%
X105619815Y-91573180D03*
X105619815Y-93123180D03*
%TD*%
D24*
%TO.C,C34*%
X76432315Y-94948180D03*
X79407315Y-94948180D03*
%TD*%
D17*
%TO.C,C35*%
X122394815Y-98748180D03*
X120844815Y-98748180D03*
%TD*%
D21*
%TO.C,C6*%
X97719815Y-83248180D03*
X97719815Y-84798180D03*
%TD*%
D30*
%TO.C,C5*%
X99719815Y-83248180D03*
X99719815Y-86223180D03*
%TD*%
D20*
%TO.C,C9*%
X97019815Y-99723180D03*
X97019815Y-98173180D03*
%TD*%
D31*
%TO.C,L1*%
X101957315Y-92748180D03*
X104082315Y-92748180D03*
%TD*%
D32*
%TO.C,BQ2*%
X112319815Y-111198180D03*
X110119815Y-111198180D03*
X110119815Y-112898180D03*
X112319815Y-112898180D03*
%TD*%
D21*
%TO.C,C38*%
X120719815Y-105173180D03*
X120719815Y-106723180D03*
%TD*%
D22*
%TO.C,C4*%
X106669815Y-83585680D03*
X106669815Y-88510680D03*
%TD*%
D33*
%TO.C,SB3*%
X91619815Y-102848180D03*
X95819815Y-102848180D03*
%TD*%
D34*
%TO.C,DD4*%
X123194815Y-101173180D03*
X123194815Y-101973180D03*
X123194815Y-102773180D03*
X123194815Y-103573180D03*
X123194815Y-104373180D03*
X123194815Y-105173180D03*
D35*
X124544815Y-105473180D03*
D34*
X125894815Y-105173180D03*
X125894815Y-104373180D03*
X125894815Y-103573180D03*
X125894815Y-102773180D03*
X125894815Y-101973180D03*
X125894815Y-101173180D03*
D35*
X124544815Y-100873180D03*
%TD*%
M02*
